<?xml version="1.0" standalone="no"?>
<!DOCTYPE svg PUBLIC "-//W3C//DTD SVG 20010904//EN"
 "http://www.w3.org/TR/2001/REC-SVG-20010904/DTD/svg10.dtd">
<svg version="1.0" xmlns="http://www.w3.org/2000/svg"
 width="700.000000pt" height="700.000000pt" viewBox="0 0 700.000000 700.000000"
 preserveAspectRatio="xMidYMid meet">
<metadata>
Created by potrace 1.11, written by Peter Selinger 2001-2013
</metadata>
<g transform="translate(0.000000,700.000000) scale(0.100000,-0.100000)"
fill="#000000" stroke="none">
<path d="M3544 5638 c-186 -135 -314 -229 -464 -340 -69 -50 -169 -123 -222
-162 -456 -334 -638 -470 -638 -476 0 -4 8 -17 18 -28 17 -21 19 -20 224 131
488 359 792 582 802 589 6 3 104 -62 218 -145 113 -84 356 -262 540 -397 183
-134 418 -307 521 -383 182 -134 189 -138 208 -121 10 9 19 22 19 28 -1 6 -76
65 -168 132 -221 160 -778 568 -821 602 -19 15 -45 34 -57 42 -13 8 -107 77
-209 152 l-186 137 133 98 c73 54 161 119 195 143 34 25 63 50 63 56 0 6 -8
18 -18 27 -18 16 -26 11 -158 -85z"/>
<path d="M3493 2197 c-397 -287 -729 -526 -738 -532 -14 -9 -13 -13 3 -38 l19
-28 204 147 c112 81 301 217 419 303 118 85 231 166 251 180 20 14 74 53 120
87 46 33 175 126 287 207 l202 146 -22 25 -23 25 -722 -522z"/>
<path d="M3960 1538 c-49 -33 -72 -70 -75 -118 -3 -56 13 -96 52 -131 57 -50
146 -51 204 -2 110 93 43 273 -101 273 -32 0 -57 -7 -80 -22z"/>
</g>
</svg>
