<?xml version="1.0" standalone="no"?>
<!DOCTYPE svg PUBLIC "-//W3C//DTD SVG 1.1//EN" "http://www.w3.org/Graphics/SVG/1.1/DTD/svg11.dtd" >
<svg xmlns="http://www.w3.org/2000/svg" xmlns:xlink="http://www.w3.org/1999/xlink" version="1.1">
<metadata>
Created by FontForge 20170731 at Mon Jan 23 20:28:58 2017
 By Aleksey,,,
Copyright 2017 Production Systems SAS - All rights reserved - End-User License Agreement:  http://www.productiontype.com/license
</metadata>
<defs>
<font id="ColumbiaSans-ExtraLight" horiz-adv-x="500" >
  <font-face 
    font-family="Columbia Sans ExtraLight"
    font-weight="200"
    font-stretch="normal"
    units-per-em="1000"
    panose-1="2 0 0 0 0 0 0 0 0 0"
    ascent="790"
    descent="-210"
    x-height="466"
    cap-height="680"
    bbox="-8 -210 880 740"
    underline-thickness="24"
    underline-position="-284"
    unicode-range="U+0020-201D"
  />
<missing-glyph 
 />
    <glyph glyph-name=".notdef" 
 />
    <glyph glyph-name=".null" horiz-adv-x="0" 
 />
    <glyph glyph-name="nonmarkingreturn" horiz-adv-x="333" 
 />
    <glyph glyph-name="space" unicode=" " horiz-adv-x="250" 
 />
    <glyph glyph-name="exclam" unicode="!" horiz-adv-x="250" 
d="M115 190l-32 490h85l-33 -490h-20zM125 0q-18 0 -29.5 12t-11.5 31q0 18 11.5 30.5t29.5 12.5t29.5 -12.5t11.5 -30.5q0 -19 -11.5 -31t-29.5 -12z" />
    <glyph glyph-name="quotedbl" unicode="&#x22;" horiz-adv-x="369" 
d="M105 478v252h29v-252h-29zM235 478v252h29v-252h-29z" />
    <glyph glyph-name="ampersand" unicode="&#x26;" horiz-adv-x="669" 
d="M647 142q-4 -64 -27.5 -108t-69.5 -44q-53 0 -119 83q-77 -83 -170 -83q-89 0 -146.5 50.5t-57.5 139.5q0 68 39 113t110 87q-57 86 -57 154q0 61 45 108.5t120 47.5q61 0 99.5 -32.5t38.5 -84.5q0 -19 -4.5 -35.5t-16.5 -31t-21.5 -25t-30.5 -23.5t-32 -19.5
t-37.5 -20.5t-36.5 -20q2 -3 8.5 -12t10.5 -14l146 -196q10 -13 21 -29q36 69 36 166q0 13 -3 44h66q-20 -129 -84 -230q29 -38 51 -56t46 -18q52 0 63 91zM207 569q0 -43 12 -76.5t44 -79.5q64 38 97.5 72t33.5 84q0 46 -27.5 72t-67.5 26q-41 0 -66.5 -27t-25.5 -71z
M118 193q0 -68 45 -112.5t124 -44.5q76 0 131 54q-8 10 -24 32l-145 198q-22 30 -32 45q-99 -67 -99 -172z" />
    <glyph glyph-name="quotesingle" unicode="'" horiz-adv-x="239" 
d="M105 478v252h29v-252h-29z" />
    <glyph glyph-name="parenleft" unicode="(" horiz-adv-x="300" 
d="M288 -135q-96 47 -158 171t-62 260t62 259.5t158 171.5l7 -14q-80 -42 -142.5 -156.5t-62.5 -260.5t62.5 -261t142.5 -157z" />
    <glyph glyph-name="parenright" unicode=")" horiz-adv-x="300" 
d="M12 -135l-7 13q80 42 142.5 157t62.5 261t-62.5 260.5t-142.5 156.5l7 14q96 -48 158 -171.5t62 -259.5t-62 -260t-158 -171z" />
    <glyph glyph-name="plus" unicode="+" 
d="M445 248h-183v-183h-24v183h-183v24h183v183h24v-183h183v-24z" />
    <glyph glyph-name="comma" unicode="," horiz-adv-x="232" 
d="M33 -157q63 102 63 174q0 45 -19 73h72q14 -20 14 -37q0 -35 -26.5 -80.5t-89.5 -129.5h-14z" />
    <glyph glyph-name="hyphen" unicode="-" horiz-adv-x="300" 
d="M30 248v26h240v-26h-240z" />
    <glyph glyph-name="period" unicode="." horiz-adv-x="232" 
d="M116 0q-18 0 -29.5 12t-11.5 31q0 18 11.5 30.5t29.5 12.5t29.5 -12.5t11.5 -30.5q0 -19 -11.5 -31t-29.5 -12z" />
    <glyph glyph-name="slash" unicode="/" horiz-adv-x="300" 
d="M2 -138l278 868h18l-277 -868h-19z" />
    <glyph glyph-name="zero" unicode="0" 
d="M242 -10q-94 0 -149.5 89t-55.5 244q0 69 12.5 132t38 117t69.5 86t101 32q93 0 148.5 -89t55.5 -242q0 -167 -60.5 -268t-159.5 -101zM279 44q33 0 57.5 14t38 35.5t21.5 56t10.5 68t2.5 79.5q0 138 -54.5 240t-137.5 102q-73 0 -102.5 -58.5t-29.5 -180.5
q0 -92 24 -173t69 -132t101 -51z" />
    <glyph glyph-name="one" unicode="1" 
d="M247 0v630l-188 -136l-10 18l265 188h2v-700h-69z" />
    <glyph glyph-name="two" unicode="2" 
d="M67 0v27q25 27 72.5 78.5t65 70.5t50.5 56.5t44.5 55t30 46t24.5 48.5t11.5 45.5t5.5 51.5q0 85 -43.5 129.5t-96.5 44.5q-52 0 -78.5 -41.5t-21.5 -108.5h-55q-4 76 55 131.5t144 55.5q72 0 117 -52.5t45 -131.5q0 -22 -2.5 -41.5t-11.5 -41.5t-16.5 -38t-27 -42
t-32.5 -42.5t-43.5 -50t-50.5 -54.5t-63 -66.5t-71 -75.5h321l-10 -54h-363z" />
    <glyph glyph-name="three" unicode="3" 
d="M436 227q0 -90 -72.5 -163.5t-190.5 -73.5q-93 0 -134 47l32 50q70 -58 145 -58q63 0 106.5 40t43.5 127q0 77 -48 119.5t-146 42.5h-12v23h22q71 0 109.5 34t38.5 102q0 56 -31.5 92t-85.5 37q-45 1 -82.5 -26.5t-43.5 -73.5l-13 -1q-1 64 47 104.5t111 40.5
q72 0 122 -41.5t50 -109.5q0 -43 -27 -80.5t-72 -61.5q131 -47 131 -170z" />
    <glyph glyph-name="four" unicode="4" 
d="M470 201h-112v-201h-68v201h-284v9l347 490h5v-458h122zM62 242h228v324z" />
    <glyph glyph-name="five" unicode="5" 
d="M168 -10q-93 0 -134 47l32 50q27 -24 66.5 -40.5t73.5 -16.5q74 0 112 47.5t38 117.5q0 91 -64 145.5t-214 68.5l84 271h249l-12 -58h-229l-48 -162q150 -13 225 -80.5t75 -158.5q0 -96 -76 -163.5t-178 -67.5z" />
    <glyph glyph-name="six" unicode="6" 
d="M456 210q0 -98 -56 -159t-147 -61q-89 0 -145.5 84.5t-56.5 219.5q0 76 24 149t69 133t119 91.5t165 19.5v-13q-78 6 -137.5 -20.5t-95 -78t-55 -115.5t-24.5 -140q73 63 164 63q77 0 126.5 -48.5t49.5 -124.5zM114 268q0 -114 52 -178t117 -64q62 0 95 41t33 94
q0 85 -54 135t-125 50q-60 0 -117 -43q-1 -11 -1 -35z" />
    <glyph glyph-name="seven" unicode="7" 
d="M100 0q43 86 92 193t119.5 264t75.5 169h-326l8 54h353v-7q-136 -370 -238 -673h-84z" />
    <glyph glyph-name="eight" unicode="8" 
d="M443 167q0 -75 -56.5 -126t-140.5 -51q-82 0 -139.5 43t-57.5 116q0 121 159 202q-65 37 -100.5 77.5t-35.5 105.5q0 59 52.5 107.5t121.5 48.5q79 0 125.5 -45.5t46.5 -98.5q0 -51 -27 -89.5t-109 -85.5q39 -21 60 -34t48.5 -38t40 -57.5t12.5 -74.5zM130 552
q0 -65 35 -101.5t103 -72.5l-3 4q65 36 87.5 73.5t22.5 82.5q0 57 -35 91.5t-98 34.5q-51 0 -81.5 -32t-30.5 -80zM100 176q0 -75 40.5 -117t106.5 -42q59 0 99 35.5t40 103.5q0 34 -11.5 61.5t-36.5 49t-46 35.5t-57 34q-2 1 -3.5 2t-3.5 2l-4 2q-124 -73 -124 -166z" />
    <glyph glyph-name="nine" unicode="9" 
d="M444 386q0 -76 -24 -149t-69 -133t-119 -91.5t-165 -19.5v13q78 -6 137.5 20.5t95 78t55 115.5t24.5 140q-73 -63 -164 -63q-77 0 -126.5 48.5t-49.5 124.5q0 98 56 159t147 61q89 0 145.5 -84.5t56.5 -219.5zM84 519q0 -85 54 -135t125 -50q60 0 117 43q1 11 1 35
q0 114 -52 178t-117 64q-62 0 -95 -41t-33 -94z" />
    <glyph glyph-name="question" unicode="?" horiz-adv-x="424" 
d="M121 190l-12 167q231 2 231 129q0 66 -53 100.5t-172 34.5h-7v63q131 -36 199.5 -91.5t68.5 -141.5q0 -73 -64.5 -113t-166.5 -45l-5 -103h-19zM129 0q-18 0 -29.5 12t-11.5 31q0 18 11.5 30.5t29.5 12.5t29.5 -12.5t11.5 -30.5q0 -19 -11.5 -31t-29.5 -12z" />
    <glyph glyph-name="A" unicode="A" horiz-adv-x="622" 
d="M16 0l286 686h19l285 -686h-80l-99 242h-279l-99 -242h-33zM160 271h255l-128 312z" />
    <glyph glyph-name="B" unicode="B" horiz-adv-x="589" 
d="M95 0v680h219q80 0 126 -41t46 -117q0 -93 -130 -141q85 -5 136 -51t51 -129q0 -86 -67.5 -143.5t-155.5 -57.5h-225zM276 651h-107v-269h104q65 0 101 33t36 97q0 65 -37 102t-97 37zM467 186q0 77 -43.5 122t-118.5 45h-136v-324h136q75 0 118.5 40.5t43.5 116.5z" />
    <glyph glyph-name="C" unicode="C" horiz-adv-x="681" 
d="M373 -10q-132 0 -225.5 98t-93.5 241q0 94 39.5 176.5t113 133.5t165.5 51q113 0 186.5 -66.5t69.5 -156.5h-66q2 86 -44.5 135t-146.5 49q-118 0 -179.5 -66.5t-61.5 -190.5q0 -148 74.5 -242t204.5 -94q78 0 137.5 37t80.5 108l15 -4q-5 -32 -22 -65.5t-47.5 -67.5
t-82.5 -55t-117 -21z" />
    <glyph glyph-name="D" unicode="D" horiz-adv-x="735" 
d="M95 0v680h207q174 0 276.5 -82.5t102.5 -241.5q0 -155 -116 -255.5t-275 -100.5h-195zM288 651h-119v-622h114q151 0 236.5 77t85.5 223q0 150 -84.5 236t-232.5 86z" />
    <glyph glyph-name="E" unicode="E" horiz-adv-x="522" 
d="M95 0v680h366v-29h-292v-269h232v-29h-232v-324h324v-29h-398z" />
    <glyph glyph-name="F" unicode="F" horiz-adv-x="482" 
d="M95 0v680h368v-29h-295v-291h234v-29h-234v-331h-73z" />
    <glyph glyph-name="G" unicode="G" horiz-adv-x="710" 
d="M390 -10q-139 0 -237.5 99.5t-98.5 244.5q0 142 95 249t237 107q110 0 180.5 -62.5t68.5 -160.5h-66q3 86 -42 135t-142 49q-123 0 -189 -65.5t-66 -186.5q0 -146 76 -247t211 -101q98 0 160 34v216h-131v28h203v-214q-110 -125 -259 -125z" />
    <glyph glyph-name="H" unicode="H" horiz-adv-x="706" 
d="M538 0v353h-369v-353h-74v680h74v-298h369v298h73v-680h-73z" />
    <glyph glyph-name="I" unicode="I" horiz-adv-x="264" 
d="M95 0v680h74v-680h-74z" />
    <glyph glyph-name="J" unicode="J" horiz-adv-x="499" 
d="M243 -11q-87 0 -142 52.5t-55 144.5h61q-1 -11 -1 -29q0 -131 110 -131q59 0 92 40.5t33 136.5v477h74v-505q0 -96 -53 -141t-119 -45z" />
    <glyph glyph-name="K" unicode="K" horiz-adv-x="618" 
d="M494 0l-325 335v-335h-74v680h74v-325l337 325h45v-4l-321 -304l357 -367v-5h-93z" />
    <glyph glyph-name="L" unicode="L" horiz-adv-x="504" 
d="M482 29v-29h-387v680h74v-651h313z" />
    <glyph glyph-name="M" unicode="M" horiz-adv-x="807" 
d="M95 0v680h13l317 -581l275 581h12v-680h-74v465l-222 -465h-25l-261 486v-486h-35z" />
    <glyph glyph-name="N" unicode="N" horiz-adv-x="706" 
d="M576 680h35v-680h-29l-451 550v-550h-36v680h29l452 -549v549z" />
    <glyph glyph-name="O" unicode="O" horiz-adv-x="767" 
d="M383 -10q-142 0 -235.5 100t-93.5 251q0 150 93.5 249.5t235.5 99.5t236 -99.5t94 -249.5q0 -151 -94 -251t-236 -100zM411 28q109 0 167.5 73t58.5 202q0 140 -78.5 244.5t-203.5 104.5q-107 0 -166 -71.5t-59 -189.5q0 -91 32.5 -173t98.5 -136t150 -54z" />
    <glyph glyph-name="P" unicode="P" horiz-adv-x="529" 
d="M95 0v680h210q85 0 136 -42.5t51 -124.5q0 -81 -79 -132.5t-183 -51.5h-61v-329h-74zM269 651h-100v-293h100q68 0 107.5 36.5t39.5 105.5t-40 110t-107 41z" />
    <glyph glyph-name="Q" unicode="Q" horiz-adv-x="767" 
d="M661 -193q-98 -7 -170.5 37.5t-95.5 145.5h-12q-142 0 -235.5 100t-93.5 251q0 150 93.5 249.5t235.5 99.5t236 -99.5t94 -249.5q0 -139 -81 -236.5t-208 -112.5q23 -71 81 -94t156 -16v-75zM411 28q109 0 167.5 73t58.5 202q0 140 -78.5 244.5t-203.5 104.5
q-107 0 -166 -71.5t-59 -189.5q0 -91 32.5 -173t98.5 -136t150 -54z" />
    <glyph glyph-name="R" unicode="R" horiz-adv-x="573" 
d="M97 0v680h219q78 0 125.5 -41.5t47.5 -118.5q0 -62 -50 -105t-128 -61l240 -349v-5h-80l-232 344h-16h-52v-344h-74zM277 651h-106v-278h103q65 0 102 34.5t37 99.5q0 66 -37.5 105t-98.5 39z" />
    <glyph glyph-name="S" unicode="S" horiz-adv-x="586" 
d="M295 -10q-97 0 -161.5 51t-64.5 150h64q-1 -10 -1 -29q0 -136 147 -136q74 0 116.5 36t42.5 96q0 46 -25.5 77.5t-63.5 46t-82.5 32.5t-82.5 37t-63.5 60t-25.5 100q1 78 61 128.5t143 50.5q82 0 134.5 -51.5t52.5 -129.5h-61q1 11 1 33q0 111 -135 111q-48 0 -87 -33.5
t-40 -91.5q0 -41 19 -70t49 -46t66.5 -30.5t73 -28.5t66.5 -35.5t49 -56t19 -84.5q0 -84 -59.5 -135.5t-151.5 -51.5z" />
    <glyph glyph-name="T" unicode="T" horiz-adv-x="582" 
d="M21 651v29h540v-29h-233v-651h-74v651h-233z" />
    <glyph glyph-name="U" unicode="U" horiz-adv-x="698" 
d="M346 -10q-117 0 -187.5 69.5t-70.5 200.5v420h74v-417q0 -214 203 -218q108 2 159 55.5t51 175.5v404h35v-429q0 -114 -68.5 -187.5t-195.5 -73.5z" />
    <glyph glyph-name="V" unicode="V" horiz-adv-x="622" 
d="M606 680l-286 -686h-19l-285 686h80l238 -582l239 582h33z" />
    <glyph glyph-name="W" unicode="W" horiz-adv-x="896" 
d="M880 680l-227 -686h-19l-192 549l-177 -549h-19l-230 686h80l179 -565l152 471l-33 94h80l190 -570l183 570h33z" />
    <glyph glyph-name="X" unicode="X" horiz-adv-x="633" 
d="M519 0l-223 324l-238 -324h-37l259 348l-228 332h86l192 -281l200 281h37l-220 -305l257 -375h-85z" />
    <glyph glyph-name="Y" unicode="Y" horiz-adv-x="610" 
d="M269 0v311l-253 369h86l232 -335l223 335h37l-251 -371v-309h-74z" />
    <glyph glyph-name="Z" unicode="Z" horiz-adv-x="564" 
d="M24 0v6l409 645h-388v29h490v-5l-409 -646h414v-29h-516z" />
    <glyph glyph-name="a" unicode="a" horiz-adv-x="485" 
d="M346 0v69q-76 -78 -157 -78q-66 0 -98 30.5t-32 75.5q0 58 66.5 97t220.5 77v27q0 64 -34.5 110t-101.5 46q-47 0 -67.5 -31t-15.5 -83h-54q0 60 52.5 97.5t116.5 37.5q80 0 124.5 -41.5t44.5 -114.5v-319h-65zM124 114q0 -37 27 -56.5t72 -19.5q42 0 66.5 10t56.5 39
v165q-74 -17 -120.5 -33.5t-67.5 -34.5t-27.5 -33t-6.5 -37z" />
    <glyph glyph-name="b" unicode="b" horiz-adv-x="527" 
d="M486 252q0 -110 -62.5 -185.5t-166.5 -75.5q-110 0 -186 68v661l64 10h1v-367q41 57 82.5 84.5t97.5 27.5q77 0 123.5 -62.5t46.5 -160.5zM136 62q50 -46 127 -46q60 0 98 32.5t51 75t13 94.5q0 94 -38.5 151.5t-107.5 57.5q-89 0 -143 -94v-271z" />
    <glyph glyph-name="c" unicode="c" horiz-adv-x="482" 
d="M259 -9q-98 0 -158 66.5t-60 170.5q0 105 60 176t159 71q68 0 118.5 -41.5t58.5 -117.5h-61q-7 72 -31 102.5t-90 30.5q-78 0 -114 -58.5t-36 -140.5q0 -99 49.5 -156t130.5 -57q106 0 151 122l14 -5q-25 -79 -74.5 -121t-116.5 -42z" />
    <glyph glyph-name="d" unicode="d" horiz-adv-x="527" 
d="M391 102q-42 -56 -83.5 -83.5t-96.5 -27.5q-77 0 -123.5 62.5t-46.5 160.5q0 111 62 186t168 75q65 0 120 -23v270l65 8v-730h-65v102zM249 38q87 0 142 94v275q-52 42 -127 42q-45 0 -78.5 -18t-50.5 -48.5t-25 -64t-8 -70.5q0 -94 38 -152t109 -58z" />
    <glyph glyph-name="e" unicode="e" horiz-adv-x="494" 
d="M447 154q-56 -163 -200 -163q-94 0 -150 65t-56 170t59.5 177t157.5 72q80 0 130 -50t52 -130h-330q-3 -24 -3 -47q0 -100 44 -155.5t128 -55.5q49 0 91 30t63 92zM245 449q-108 0 -133 -138h257q-5 56 -37 97t-87 41z" />
    <glyph glyph-name="f" unicode="f" horiz-adv-x="308" 
d="M310 450h-138v-450h-65v450h-83v16h83v86q0 85 47.5 136.5t108.5 51.5q65 0 99 -57l-45 -21q-18 36 -34 48t-39 12q-32 0 -52 -19.5t-20 -58.5v-178h138v-16z" />
    <glyph glyph-name="g" unicode="g" horiz-adv-x="472" 
d="M460 -32q0 -58 -62.5 -118t-163.5 -60q-87 0 -143 39t-56 78q0 49 88 121q-43 25 -43 55q0 23 18 45.5t58 53.5q-41 19 -65 56t-24 82q0 66 47 110.5t118 44.5q32 0 59 -9h150v-35h-3l-123 25q39 -20 61.5 -56t22.5 -80q0 -65 -47 -109.5t-120 -44.5q-29 0 -56 8
q-53 -35 -53 -74q0 -42 73 -42h137q52 0 89.5 -23.5t37.5 -66.5zM250 184q42 0 67 30.5t25 83.5q0 60 -36 108.5t-87 48.5q-43 0 -69 -29t-26 -78q0 -65 36 -114.5t90 -49.5zM85 -69q0 -43 47.5 -73t125.5 -29q83 0 120 30t37 65q0 36 -27.5 58.5t-82.5 22.5h-91
q-40 0 -73 14q-56 -44 -56 -88z" />
    <glyph glyph-name="h" unicode="h" horiz-adv-x="520" 
d="M283 430q-41 0 -79.5 -27.5t-67.5 -75.5v-327h-65v721l64 9h1v-370q44 58 84.5 86.5t93.5 28.5q135 0 135 -156v-319h-65v310q0 65 -25 92.5t-76 27.5z" />
    <glyph glyph-name="i" unicode="i" horiz-adv-x="207" 
d="M103 624q-17 0 -28.5 11t-11.5 29q0 17 11.5 28t28.5 11q18 0 30 -11t12 -28q0 -18 -12 -29t-30 -11zM71 0v457l64 9h1v-466h-65z" />
    <glyph glyph-name="j" unicode="j" horiz-adv-x="207" 
d="M103 624q-17 0 -28.5 11t-11.5 29q0 17 11.5 28t28.5 11q18 0 30 -11t12 -28q0 -18 -12 -29t-30 -11zM-4 -210l-4 15q32 3 55.5 27t23.5 68v557l64 9h1v-490q0 -79 -41 -130.5t-99 -55.5z" />
    <glyph glyph-name="k" unicode="k" horiz-adv-x="469" 
d="M71 0v721l64 9h1v-730h-65zM366 0l-229 246q168 132 258 220h43v-3q-31 -24 -234 -195l256 -265v-3h-94z" />
    <glyph glyph-name="l" unicode="l" horiz-adv-x="207" 
d="M71 0v721l64 9h1v-730h-65z" />
    <glyph glyph-name="m" unicode="m" horiz-adv-x="814" 
d="M271 430q-79 0 -135 -100v-330h-65v457l64 9h1v-103q40 57 78 84.5t86 27.5q121 0 137 -116q41 59 79 87.5t88 28.5q139 0 139 -156v-319h-65v310q0 65 -25 92.5t-78 27.5q-79 0 -136 -103v-8v-319h-65v310q0 65 -25 92.5t-78 27.5z" />
    <glyph glyph-name="n" unicode="n" horiz-adv-x="519" 
d="M283 430q-42 0 -81 -27.5t-66 -73.5v-329h-65v457l64 9h1v-104q43 56 84.5 84.5t94.5 28.5q133 0 133 -156v-319h-65v310q0 65 -24.5 92.5t-75.5 27.5z" />
    <glyph glyph-name="o" unicode="o" horiz-adv-x="538" 
d="M270 -9q-99 0 -164 69.5t-65 174.5q0 103 65 171.5t164 68.5q98 0 162 -68.5t64 -171.5q0 -105 -64 -174.5t-162 -69.5zM281 14q70 0 109 54.5t39 148.5q0 96 -47 163.5t-125 67.5q-70 0 -109.5 -52t-39.5 -138q0 -100 47 -172t126 -72z" />
    <glyph glyph-name="p" unicode="p" horiz-adv-x="528" 
d="M137 -200h-66v657l65 9h1v-103q42 57 86.5 84.5t103.5 27.5q73 0 116.5 -62.5t43.5 -160.5q0 -110 -62.5 -185.5t-166.5 -75.5q-65 0 -121 24v-215zM137 60q49 -43 127 -43q45 0 78.5 18t50.5 48.5t25 64t8 70.5q0 94 -38.5 152t-107.5 58q-89 0 -143 -95v-273z" />
    <glyph glyph-name="q" unicode="q" horiz-adv-x="527" 
d="M456 466v-666h-65v302q-42 -56 -87 -83.5t-103 -27.5q-73 0 -116.5 62.5t-43.5 160.5q0 111 62 186t168 75q70 0 130 -27zM249 39q87 0 142 93v275q-50 42 -127 42q-60 0 -98 -32t-51 -74.5t-13 -94.5q0 -94 38 -151.5t109 -57.5z" />
    <glyph glyph-name="r" unicode="r" horiz-adv-x="364" 
d="M272 430q-39 0 -74.5 -27.5t-60.5 -72.5v-330h-66v457l65 9h1v-103q75 112 163 112q26 0 42 -4v-52h-3q-25 11 -67 11z" />
    <glyph glyph-name="s" unicode="s" horiz-adv-x="431" 
d="M218 -10q-69 0 -114.5 35.5t-45.5 104.5h55q-1 -7 -1 -20q0 -50 24 -71.5t76 -21.5q49 0 78 25t29 63t-25 61t-61 35t-72.5 25.5t-61.5 42.5t-25 76q0 58 43 94.5t101 36.5q63 0 105 -35.5t42 -89.5h-53v21q0 41 -22.5 58t-69.5 17q-40 0 -65.5 -24t-25.5 -59
q0 -31 18 -52.5t45 -32t59 -23t59 -25.5t45 -40.5t18 -65.5q0 -59 -45.5 -97t-109.5 -38z" />
    <glyph glyph-name="t" unicode="t" horiz-adv-x="355" 
d="M352 63q-65 -72 -132 -72q-53 0 -83.5 28.5t-30.5 86.5v344h-82v16h82v86l64 38h2v-124h138v-16h-138v-337q0 -46 22 -68t57 -22q21 0 48 14.5t43 35.5z" />
    <glyph glyph-name="u" unicode="u" horiz-adv-x="511" 
d="M375 0v104q-41 -57 -79.5 -85t-90.5 -28q-133 0 -133 156v310l65 9h1v-310q0 -65 23.5 -92t73.5 -27q82 0 140 101v319l65 9h1v-466h-66z" />
    <glyph glyph-name="v" unicode="v" horiz-adv-x="450" 
d="M427 461q-11 -26 -49.5 -112.5t-78.5 -182t-67 -171.5h-9l-193 470v1h72l144 -373q116 277 151 373h30v-5z" />
    <glyph glyph-name="w" unicode="w" horiz-adv-x="729" 
d="M371 343q-27 -56 -78.5 -180t-71.5 -168h-7l-190 470v1h80l136 -381q119 297 146 387h8l157 -387q22 68 65 194t60 187h30v-5q-10 -25 -71 -193t-105 -273h-9z" />
    <glyph glyph-name="x" unicode="x" horiz-adv-x="465" 
d="M380 0l-158 215q-51 -75 -162 -215h-27v3q48 53 180 225l-182 236v2h76l147 -196q40 58 83.5 116.5t57.5 79.5h28v-3q-53 -62 -161 -204l196 -256v-3h-78z" />
    <glyph glyph-name="y" unicode="y" horiz-adv-x="458" 
d="M281 57q-55 -143 -97 -257h-34l1 2q55 122 92 208l-219 454v2h80l169 -381q8 22 132 381h30v-5q-18 -45 -70.5 -184.5t-83.5 -219.5z" />
    <glyph glyph-name="z" unicode="z" horiz-adv-x="460" 
d="M57 411v55h361v-5l-313 -406h323l-9 -55h-377v5l312 406h-297z" />
    <glyph glyph-name="guillemotleft" unicode="&#xab;" horiz-adv-x="422" 
d="M356 105q-102 107 -146 151v7q28 27 146 150l6 -7q-45 -81 -81 -147q36 -66 81 -147zM186 105q-102 107 -146 151v7q28 27 146 150l6 -7q-45 -81 -81 -147q36 -66 81 -147z" />
    <glyph glyph-name="guillemotright" unicode="&#xbb;" horiz-adv-x="422" 
d="M66 413q87 -92 146 -150v-7q-66 -65 -146 -151l-6 7q45 81 81 147q-36 66 -81 147zM236 413q87 -92 146 -150v-7q-66 -65 -146 -151l-6 7q45 81 81 147q-36 66 -81 147z" />
    <glyph glyph-name="quoteleft" unicode="&#x2018;" horiz-adv-x="240" 
d="M78 483q-14 20 -14 37q0 35 26.5 80.5t89.5 129.5h14q-63 -102 -63 -174q0 -45 19 -73h-72z" />
    <glyph glyph-name="quoteright" unicode="&#x2019;" horiz-adv-x="240" 
d="M45 483q63 102 63 174q0 45 -19 73h72q14 -20 14 -37q0 -35 -26.5 -80.5t-89.5 -129.5h-14z" />
    <glyph glyph-name="quotedblleft" unicode="&#x201c;" horiz-adv-x="373" 
d="M78 483q-14 20 -14 37q0 35 26.5 80.5t89.5 129.5h14q-63 -102 -63 -174q0 -45 19 -73h-72zM211 483q-14 20 -14 37q0 35 26.5 80.5t89.5 129.5h14q-63 -102 -63 -174q0 -45 19 -73h-72z" />
    <glyph glyph-name="quotedblright" unicode="&#x201d;" horiz-adv-x="373" 
d="M45 483q63 102 63 174q0 45 -19 73h72q14 -20 14 -37q0 -35 -26.5 -80.5t-89.5 -129.5h-14zM178 483q63 102 63 174q0 45 -19 73h72q14 -20 14 -37q0 -35 -26.5 -80.5t-89.5 -129.5h-14z" />
    <glyph glyph-name="idotaccent" horiz-adv-x="207" 
d="M103 618q-19 0 -32 13.5t-13 33.5q0 21 12.5 34.5t32.5 13.5t32.5 -13.5t12.5 -34.5q0 -20 -13 -33.5t-32 -13.5zM70 0v457l65 9h1v-466h-66z" />
    </font>
</defs>
</svg>
