<?xml version="1.0" standalone="no"?>
<!DOCTYPE svg PUBLIC "-//W3C//DTD SVG 1.1//EN" "http://www.w3.org/Graphics/SVG/1.1/DTD/svg11.dtd" >
<svg xmlns="http://www.w3.org/2000/svg" xmlns:xlink="http://www.w3.org/1999/xlink" version="1.1">
<metadata>
Created by FontForge 20170731 at Mon Jan 23 20:29:32 2017
 By Aleksey,,,
Copyright 2017 Production Systems SAS - All rights reserved - End-User License Agreement:  http://www.productiontype.com/license
</metadata>
<defs>
<font id="ColumbiaSans-Regular" horiz-adv-x="507" >
  <font-face 
    font-family="Columbia Sans"
    font-weight="400"
    font-stretch="normal"
    units-per-em="1000"
    panose-1="2 0 0 0 0 0 0 0 0 0"
    ascent="790"
    descent="-210"
    x-height="474"
    cap-height="680"
    bbox="-8 -209 921 740"
    underline-thickness="28"
    underline-position="-290"
    unicode-range="U+0020-201D"
  />
<missing-glyph horiz-adv-x="545" 
 />
    <glyph glyph-name=".notdef" horiz-adv-x="545" 
 />
    <glyph glyph-name=".null" horiz-adv-x="0" 
 />
    <glyph glyph-name="nonmarkingreturn" horiz-adv-x="333" 
 />
    <glyph glyph-name="space" unicode=" " horiz-adv-x="251" 
 />
    <glyph glyph-name="exclam" unicode="!" horiz-adv-x="240" 
d="M107 190l-44 490h114l-44 -490h-26zM120 0q-23 0 -37 15t-14 39q0 23 14.5 39t36.5 16t37 -16t15 -39q0 -24 -14.5 -39t-37.5 -15z" />
    <glyph glyph-name="quotedbl" unicode="&#x22;" horiz-adv-x="379" 
d="M101 478v252h42v-252h-42zM236 478v252h42v-252h-42z" />
    <glyph glyph-name="ampersand" unicode="&#x26;" horiz-adv-x="694" 
d="M666 143q-3 -64 -30.5 -108.5t-80.5 -44.5q-57 0 -127 83q-80 -83 -169 -83q-86 0 -141.5 49.5t-55.5 134.5q0 69 38 115t107 90q-58 84 -58 155q0 61 45.5 108.5t122.5 47.5q62 0 103 -33t41 -84q0 -14 -2.5 -27t-9.5 -24.5t-12.5 -20.5t-18 -19t-19.5 -16t-24.5 -15.5
t-24.5 -13.5t-27.5 -14.5t-26.5 -13.5q3 -4 11.5 -16t13.5 -19l142 -198l2 -2q27 62 27 156q0 16 -4 44h84q-23 -128 -87 -228q34 -45 54 -62.5t45 -17.5q30 0 44 20.5t20 59.5zM225 572q0 -59 58 -145q48 32 74 64.5t26 76.5t-22.5 68.5t-56.5 24.5q-39 0 -59 -23.5
t-20 -65.5zM150 218q0 -70 41 -114.5t115 -44.5q59 0 104 38q-10 11 -19 25l-145 202l-27 36q-69 -57 -69 -142z" />
    <glyph glyph-name="quotesingle" unicode="'" horiz-adv-x="245" 
d="M101 478v252h42v-252h-42z" />
    <glyph glyph-name="parenleft" unicode="(" horiz-adv-x="309" 
d="M290 -135q-96 46 -157.5 167.5t-61.5 263.5t61.5 264t157.5 167l12 -23q-77 -37 -138 -146t-61 -262q0 -152 60.5 -260.5t138.5 -147.5z" />
    <glyph glyph-name="parenright" unicode=")" horiz-adv-x="309" 
d="M20 -135l-13 23q78 39 139 147.5t61 260.5q0 153 -61.5 262t-138.5 146l13 23q95 -45 157 -167t62 -264t-62 -263.5t-157 -167.5z" />
    <glyph glyph-name="plus" unicode="+" 
d="M455 239h-184v-174h-36v174h-184v42h184v174h36v-174h184v-42z" />
    <glyph glyph-name="comma" unicode="," horiz-adv-x="242" 
d="M35 -165q58 98 58 183q0 50 -19 81h91q13 -20 13 -44q0 -23 -16 -56.5t-31.5 -57t-58.5 -82.5q-11 -16 -17 -24h-20z" />
    <glyph glyph-name="hyphen" unicode="-" horiz-adv-x="296" 
d="M24 236v55h248v-55h-248z" />
    <glyph glyph-name="period" unicode="." horiz-adv-x="242" 
d="M120 0q-23 0 -38.5 17t-15.5 43t15.5 43t38.5 17q25 0 40 -17t15 -43t-15 -43t-40 -17z" />
    <glyph glyph-name="slash" unicode="/" horiz-adv-x="290" 
d="M-8 -138l275 868h31l-274 -868h-32z" />
    <glyph glyph-name="zero" unicode="0" 
d="M245 -10q-98 0 -156 89.5t-58 243.5q0 69 13.5 132t40 117t72.5 86t105 32q98 0 155.5 -89t57.5 -242q0 -167 -63 -268t-167 -101zM279 47q61 0 83.5 58t22.5 192q0 143 -45.5 241t-116.5 98q-57 0 -82 -56.5t-25 -179.5q0 -148 46 -250.5t117 -102.5z" />
    <glyph glyph-name="one" unicode="1" 
d="M238 0v599l-185 -116l-15 29l296 188h4v-700h-100z" />
    <glyph glyph-name="two" unicode="2" 
d="M47 0v28q27 30 73 82t64.5 73t50.5 58.5t43.5 55t30 46t24.5 47.5t11 42.5t5 48.5q0 76 -40.5 116.5t-92.5 40.5t-77.5 -36t-20.5 -104h-66q-1 80 61.5 136t151.5 56q87 0 137 -50t50 -130q0 -24 -5 -46t-11.5 -40.5t-24.5 -43t-31 -41.5t-45.5 -50t-53.5 -54
t-68.5 -67.5t-79.5 -77.5h323l-11 -90h-398z" />
    <glyph glyph-name="three" unicode="3" 
d="M459 227q0 -97 -78 -167t-201 -70q-101 0 -149 47l39 59q69 -60 152 -60q61 0 102 37t41 107q0 73 -53 117t-153 44h-12v32h23q65 0 106 33.5t41 94.5q0 55 -31.5 87t-87.5 32q-38 0 -75.5 -20t-59.5 -60l-20 8q21 65 74.5 103.5t118.5 38.5q82 0 133 -38.5t51 -104.5
q0 -40 -27.5 -77.5t-74.5 -65.5q141 -54 141 -177z" />
    <glyph glyph-name="four" unicode="4" 
d="M491 188h-120v-188h-100v188h-270v25l351 487h19v-448h130zM68 252h203v280z" />
    <glyph glyph-name="five" unicode="5" 
d="M171 -10q-101 0 -149 47l40 59q64 -59 149 -59q71 0 110 40t39 100q0 166 -291 185l90 318h279l-13 -91h-257l-40 -129q158 -13 237 -75.5t79 -154.5q0 -104 -79.5 -172t-193.5 -68z" />
    <glyph glyph-name="six" unicode="6" 
d="M479 226q0 -100 -62 -168t-157 -68q-99 0 -162 81t-63 223q0 76 25.5 149t73.5 133t127 91.5t176 19.5v-23q-58 5 -106.5 -12t-82 -48.5t-58 -76.5t-37.5 -93t-18 -100q69 72 163 72q81 0 131 -51t50 -129zM132 269q0 -117 41 -175t113 -58q58 0 89.5 35.5t31.5 85.5
q0 77 -49.5 124t-118.5 47q-61 0 -106 -29q-1 -10 -1 -30z" />
    <glyph glyph-name="seven" unicode="7" 
d="M93 0q173 311 308 590h-343l11 90h381v-29q-25 -67 -79 -206.5t-94.5 -248.5t-69.5 -196h-114z" />
    <glyph glyph-name="eight" unicode="8" 
d="M471 171q0 -77 -61.5 -129t-155.5 -52q-90 0 -154 43.5t-64 117.5q0 58 38 98.5t121 87.5q-65 35 -101 77.5t-36 112.5t55.5 116.5t134.5 46.5q89 0 141.5 -44t52.5 -100q0 -47 -26.5 -81t-112.5 -84q40 -20 62.5 -34t51 -39.5t41.5 -59t13 -77.5zM144 557
q0 -60 34.5 -95.5t100.5 -68.5q83 59 83 145q0 57 -30.5 86.5t-86.5 29.5q-46 0 -73.5 -26.5t-27.5 -70.5zM124 170q0 -68 36.5 -106t97.5 -38q54 0 89.5 31.5t35.5 87.5q0 33 -11 59t-38.5 48.5t-44.5 33t-59 32.5q-7 4 -11 6q-47 -35 -71 -69t-24 -85z" />
    <glyph glyph-name="nine" unicode="9" 
d="M467 385q0 -76 -25.5 -149t-73 -133t-126.5 -91.5t-175 -19.5v23q71 -6 127.5 20t91 76.5t54.5 109t27 124.5q-67 -72 -163 -72q-81 0 -131 51t-50 129q0 101 62.5 168.5t157.5 67.5q98 0 161 -81t63 -223zM96 522q0 -77 49.5 -124t118.5 -47q60 0 105 29q1 10 1 30
q0 118 -41 175.5t-112 57.5q-59 0 -90 -35.5t-31 -85.5z" />
    <glyph glyph-name="question" unicode="?" horiz-adv-x="427" 
d="M114 190l-16 195q119 1 177.5 25.5t58.5 82.5q0 114 -214 114h-25v77q141 -36 215.5 -92.5t74.5 -142.5q0 -75 -67 -115.5t-172 -45.5l-7 -98h-25zM126 0q-21 0 -36 15.5t-15 38.5t15 39t36 16t36.5 -16t15.5 -39q0 -24 -15 -39t-37 -15z" />
    <glyph glyph-name="A" unicode="A" horiz-adv-x="666" 
d="M30 0l287 684h35l283 -684h-114l-94 226h-264l-93 -226h-40zM178 262h234l-118 282z" />
    <glyph glyph-name="B" unicode="B" horiz-adv-x="650" 
d="M108 0v680h242q86 0 137.5 -38.5t51.5 -114.5q0 -47 -36.5 -84.5t-98.5 -60.5q91 -9 141 -55.5t50 -127.5q0 -88 -72 -143.5t-176 -55.5h-239zM296 645h-83v-260h89q59 0 93 31.5t34 92.5t-35.5 98.5t-97.5 37.5zM323 349h-110v-314h117q73 0 114 39t41 113
q0 77 -43 119.5t-119 42.5z" />
    <glyph glyph-name="C" unicode="C" horiz-adv-x="717" 
d="M400 -10q-141 0 -238 97t-97 247q0 146 92.5 251t234.5 105q113 0 187 -66.5t70 -158.5h-80q2 84 -41.5 132.5t-136.5 48.5q-108 0 -166 -65t-58 -183q0 -135 74 -221t202 -86q72 0 125.5 34t73.5 96l22 -5q-8 -39 -25.5 -75.5t-48 -72t-80 -57t-110.5 -21.5z" />
    <glyph glyph-name="D" unicode="D" horiz-adv-x="785" 
d="M108 0v680h233q174 0 276 -82.5t102 -241.5q0 -155 -116.5 -255.5t-281.5 -100.5h-213zM301 645h-88v-610h104q137 0 215 75.5t78 218.5q0 147 -82.5 231.5t-226.5 84.5z" />
    <glyph glyph-name="E" unicode="E" horiz-adv-x="577" 
d="M108 0v680h400v-35h-295v-262h236v-34h-236v-314h317v-35h-422z" />
    <glyph glyph-name="F" unicode="F" horiz-adv-x="543" 
d="M108 0v680h398v-35h-293v-278h233v-36h-233v-331h-105z" />
    <glyph glyph-name="G" unicode="G" horiz-adv-x="753" 
d="M399 -10q-141 0 -237.5 97t-96.5 247q0 146 95.5 251t240.5 105q112 0 187 -65t73 -159h-81q3 83 -42.5 131.5t-137.5 48.5q-112 0 -172.5 -65t-60.5 -184q0 -146 76.5 -244.5t203.5 -98.5q64 0 122 21v210h-122v35h228v-224q-137 -106 -276 -106z" />
    <glyph glyph-name="H" unicode="H" horiz-adv-x="764" 
d="M550 0v347h-337v-347h-105v680h105v-298h337v298h105v-680h-105z" />
    <glyph glyph-name="I" unicode="I" horiz-adv-x="322" 
d="M108 0v680h105v-680h-105z" />
    <glyph glyph-name="J" unicode="J" horiz-adv-x="547" 
d="M256 -11q-90 0 -145.5 56t-55.5 155h74q-1 -10 -1 -28q0 -139 101 -139q114 0 114 170v477h106v-475q0 -58 -17 -101.5t-46 -67.5t-61.5 -35.5t-68.5 -11.5z" />
    <glyph glyph-name="K" unicode="K" horiz-adv-x="682" 
d="M513 0l-300 338v-338h-105v680h105v-333l321 333h58v-4l-290 -285l340 -379v-12h-129z" />
    <glyph glyph-name="L" unicode="L" horiz-adv-x="554" 
d="M519 35v-35h-411v680h105v-645h306z" />
    <glyph glyph-name="M" unicode="M" horiz-adv-x="852" 
d="M108 0v680h53l284 -537l247 537h53v-680h-106v469l-210 -469h-35l-243 473v-473h-43z" />
    <glyph glyph-name="N" unicode="N" horiz-adv-x="762" 
d="M611 5l-460 504v-509h-43v680l16 -3l22 3l465 -510v510h42v-680l-20 2l-17 -2z" />
    <glyph glyph-name="O" unicode="O" horiz-adv-x="803" 
d="M401 -10q-145 0 -240.5 100t-95.5 251q0 150 95.5 249.5t240.5 99.5t240.5 -99.5t95.5 -249.5q0 -151 -95.5 -251t-240.5 -100zM436 35q93 0 145 63t52 174q0 95 -32.5 180t-94 139.5t-137.5 54.5q-94 0 -146.5 -61.5t-52.5 -169.5q0 -153 75 -266.5t191 -113.5z" />
    <glyph glyph-name="P" unicode="P" horiz-adv-x="603" 
d="M108 0v680h227q101 0 158.5 -43.5t57.5 -129.5q0 -85 -76 -137.5t-185 -52.5h-77v-317h-105zM293 645h-80v-293h86q68 0 105.5 36t37.5 105q0 72 -39.5 112t-109.5 40z" />
    <glyph glyph-name="Q" unicode="Q" horiz-adv-x="803" 
d="M686 -202q-103 -7 -181 39.5t-101 152.5h-3q-145 0 -240.5 100t-95.5 251q0 150 95.5 249.5t240.5 99.5t240.5 -99.5t95.5 -249.5q0 -140 -83.5 -237.5t-214.5 -111.5q40 -108 247 -90v-104zM436 35q93 0 145 63t52 174q0 95 -32.5 180t-94 139.5t-137.5 54.5
q-94 0 -146.5 -61.5t-52.5 -169.5q0 -153 75 -266.5t191 -113.5z" />
    <glyph glyph-name="R" unicode="R" horiz-adv-x="640" 
d="M108 0v680h231q97 0 152 -41.5t55 -123.5q0 -61 -46.5 -106.5t-122.5 -65.5l232 -331v-12h-117l-226 330h-53v-330h-105zM294 645h-81v-280h87q64 0 100.5 34.5t36.5 99.5q0 69 -38.5 107.5t-104.5 38.5z" />
    <glyph glyph-name="S" unicode="S" horiz-adv-x="631" 
d="M316 -10q-96 0 -163.5 53t-67.5 150h84q-1 -9 -1 -28q0 -71 34.5 -101.5t104.5 -30.5t110.5 33.5t40.5 88.5q0 54 -36.5 87.5t-88.5 51t-104 37.5t-88.5 63t-36.5 112q0 74 59.5 129t151.5 55q85 0 150.5 -48.5t64.5 -133.5h-74q1 11 1 32q0 51 -32.5 79t-85.5 28
q-67 0 -103.5 -31.5t-36.5 -84.5q0 -38 19.5 -65.5t50.5 -43.5t68.5 -29.5t75.5 -29t69 -36t50.5 -57t19.5 -86.5q0 -84 -68 -139t-168 -55z" />
    <glyph glyph-name="T" unicode="T" horiz-adv-x="633" 
d="M35 645v35h563v-35h-229v-645h-105v645h-229z" />
    <glyph glyph-name="U" unicode="U" horiz-adv-x="734" 
d="M370 -10q-124 0 -199 69.5t-75 200.5v420h106v-406q0 -108 52.5 -158t144.5 -50q99 0 147.5 55.5t48.5 176.5v382h43v-409q0 -127 -69.5 -204t-198.5 -77z" />
    <glyph glyph-name="V" unicode="V" horiz-adv-x="666" 
d="M635 680l-287 -684h-35l-283 684h115l228 -540l222 540h40z" />
    <glyph glyph-name="W" unicode="W" horiz-adv-x="951" 
d="M297 -4l-6 2l-1 -2h-28l-232 684h115l171 -516l134 414l-37 102h115l189 -514l163 514h41l-223 -684l-6 2l-1 -2h-27l-192 524z" />
    <glyph glyph-name="X" unicode="X" horiz-adv-x="673" 
d="M517 0l-206 305l-230 -305h-46l257 333l-234 347h119l180 -267l195 267h45l-221 -295l260 -385h-119z" />
    <glyph glyph-name="Y" unicode="Y" horiz-adv-x="650" 
d="M274 0v317l-248 363h124l216 -316l213 316h46l-246 -359v-321h-105z" />
    <glyph glyph-name="Z" unicode="Z" horiz-adv-x="621" 
d="M51 0v10l382 635h-365v35h500v-9l-384 -636h386v-35h-519z" />
    <glyph glyph-name="a" unicode="a" horiz-adv-x="528" 
d="M351 0v74q-73 -83 -158 -83q-61 0 -93 30.5t-32 77.5q0 61 65.5 99.5t217.5 76.5v25q0 64 -31.5 104t-90.5 40q-89 0 -80 -109h-61q0 65 57 106.5t124 41.5q86 0 131 -41.5t45 -116.5v-325h-94zM159 124q0 -33 21.5 -51.5t60.5 -18.5q53 0 110 45v147
q-117 -28 -154.5 -55.5t-37.5 -66.5z" />
    <glyph glyph-name="b" unicode="b" horiz-adv-x="584" 
d="M531 256q0 -111 -65.5 -188t-174.5 -77q-126 0 -207 67v663l92 9h2v-366q40 62 80.5 90.5t100.5 28.5q77 0 124.5 -63.5t47.5 -163.5zM178 76q52 -55 119 -55q52 0 86 32t46 74.5t12 94.5q0 81 -34 132t-95 51q-82 0 -134 -73v-256z" />
    <glyph glyph-name="c" unicode="c" horiz-adv-x="517" 
d="M274 -9q-100 0 -160 67.5t-60 174.5t61.5 178.5t165.5 71.5q69 0 121 -41.5t61 -119.5h-81q-3 67 -28.5 99.5t-83.5 32.5q-66 0 -99 -49.5t-33 -119.5q0 -94 49 -153.5t130 -59.5q110 0 139 100l18 -5q-23 -86 -75.5 -131t-124.5 -45z" />
    <glyph glyph-name="d" unicode="d" horiz-adv-x="589" 
d="M225 -9q-77 0 -124 63.5t-47 163.5q0 112 65.5 188.5t173.5 76.5q60 0 113 -16v254l92 9h2v-730h-94v111q-40 -62 -81 -91t-100 -29zM273 69q81 0 133 73v256q-49 55 -118 55q-53 0 -86.5 -32t-45.5 -74.5t-12 -93.5q0 -81 34 -132.5t95 -51.5z" />
    <glyph glyph-name="e" unicode="e" horiz-adv-x="530" 
d="M483 167q-25 -85 -81 -130.5t-130 -45.5q-98 0 -158 65.5t-60 169.5q0 109 63 183t168 74q84 0 136 -49t53 -142h-334v-13q0 -93 48 -150t134 -57q49 0 87.5 25t55.5 75zM268 454q-55 0 -86.5 -38.5t-39.5 -98.5h239q-3 64 -32 100.5t-81 36.5z" />
    <glyph glyph-name="f" unicode="f" horiz-adv-x="350" 
d="M340 449h-136v-449h-95v449h-78v25h78v79q0 86 50.5 136.5t123.5 50.5q79 0 112 -58l-54 -31q-18 37 -33.5 51.5t-37.5 14.5q-66 0 -66 -76v-167h136v-25z" />
    <glyph glyph-name="g" unicode="g" horiz-adv-x="535" 
d="M504 -33q0 -60 -71.5 -118t-179.5 -58q-89 0 -147.5 36.5t-58.5 72.5q0 42 87 110q-44 30 -44 68q0 41 86 110q-47 18 -74.5 55t-27.5 85q0 69 51.5 112t132.5 43q36 0 66 -9h167v-52h-3l-110 27q65 -44 65 -121q0 -68 -52.5 -111t-132.5 -43q-30 0 -56 6
q-40 -29 -40 -64q0 -44 61 -44h137q62 0 103 -27.5t41 -77.5zM274 202q38 0 58 27.5t20 76.5q0 59 -30 104t-79 45q-38 0 -58.5 -27t-20.5 -73q0 -62 30 -107.5t80 -45.5zM120 -68q0 -42 42.5 -71t112.5 -29q142 0 142 75q0 34 -25 56t-71 22h-89q-45 0 -76 14
q-36 -36 -36 -67z" />
    <glyph glyph-name="h" unicode="h" horiz-adv-x="581" 
d="M307 403q-71 0 -125 -71v-332h-95v721l92 9h3v-365q39 60 78.5 89t93.5 29q73 0 109 -41.5t36 -116.5v-325h-96v286q0 117 -96 117z" />
    <glyph glyph-name="i" unicode="i" horiz-adv-x="265" 
d="M132 614q-23 0 -38 15t-15 38t15 37.5t38 14.5q24 0 39.5 -14.5t15.5 -37.5t-15.5 -38t-39.5 -15zM85 0v465l92 9h3v-474h-95z" />
    <glyph glyph-name="j" unicode="j" horiz-adv-x="265" 
d="M132 614q-23 0 -38 15t-15 38t15 37.5t38 14.5q24 0 39.5 -14.5t15.5 -37.5t-15.5 -38t-39.5 -15zM11 -209l-5 21q35 5 57 25t22 71v557l92 9h3v-493q0 -85 -49.5 -135t-119.5 -55z" />
    <glyph glyph-name="k" unicode="k" horiz-adv-x="529" 
d="M87 0v721l92 9h3v-730h-95zM384 0l-201 243q168 154 239 231h60v-4q-109 -90 -215 -183l249 -278v-9h-132z" />
    <glyph glyph-name="l" unicode="l" horiz-adv-x="272" 
d="M89 0v721l92 9h2v-730h-94z" />
    <glyph glyph-name="m" unicode="m" horiz-adv-x="875" 
d="M294 403q-67 0 -116 -69v-334h-94v465l92 9h2v-109q38 60 75 89t88 29q124 0 142 -121q39 63 75.5 92t88.5 29q145 0 145 -158v-325h-95v286q0 117 -96 117q-67 0 -116 -70v-8v-325h-94v286q0 117 -97 117z" />
    <glyph glyph-name="n" unicode="n" horiz-adv-x="578" 
d="M303 403q-70 0 -125 -71v-332h-94v465l92 9h2v-109q39 60 78.5 89t94.5 29q72 0 107.5 -41.5t35.5 -116.5v-325h-94v286q0 117 -97 117z" />
    <glyph glyph-name="o" unicode="o" horiz-adv-x="575" 
d="M287 -9q-100 0 -166.5 70t-66.5 177q0 105 66.5 175t166.5 70q101 0 167.5 -70t66.5 -175q0 -107 -66.5 -177t-167.5 -70zM314 31q53 0 83 40.5t30 110.5q0 98 -47.5 179t-117.5 81q-53 0 -83.5 -39t-30.5 -105q0 -103 48 -185t118 -82z" />
    <glyph glyph-name="p" unicode="p" horiz-adv-x="584" 
d="M178 -200h-94v665l92 9h2v-110q40 62 80.5 90.5t100.5 28.5q77 0 124.5 -63.5t47.5 -163.5q0 -111 -65.5 -188t-174.5 -77q-60 0 -113 17v-208zM312 405q-82 0 -134 -73v-256q52 -55 119 -55q52 0 86 32t46 74.5t12 94.5q0 81 -34 132t-95 51z" />
    <glyph glyph-name="q" unicode="q" horiz-adv-x="584" 
d="M406 -200v311q-40 -62 -81 -91t-100 -29q-77 0 -124 63.5t-47 163.5q0 112 65.5 188.5t173.5 76.5q74 0 131 -22l74 13h2v-674h-94zM273 69q81 0 133 73v256q-49 55 -118 55q-53 0 -86.5 -32t-45.5 -74.5t-12 -93.5q0 -81 34 -132.5t95 -51.5z" />
    <glyph glyph-name="r" unicode="r" horiz-adv-x="409" 
d="M301 403q-73 0 -123 -70v-333h-94v465l92 9h2v-108q38 60 73.5 88.5t84.5 28.5q26 0 40 -3v-93h-4q-32 16 -71 16z" />
    <glyph glyph-name="s" unicode="s" horiz-adv-x="471" 
d="M244 -10q-74 0 -125 37t-52 107h66q-1 -7 -1 -17q0 -95 97 -95q52 0 79 22t27 58q0 34 -26 55t-63 34t-74 28.5t-63 48.5t-26 84q0 52 44.5 92t114.5 40q62 0 111 -36t50 -95h-57v16q0 82 -88 82q-47 0 -71.5 -21.5t-24.5 -58.5q0 -34 26.5 -55t64 -34t74.5 -28
t63.5 -47.5t26.5 -81.5q0 -55 -48.5 -95t-124.5 -40z" />
    <glyph glyph-name="t" unicode="t" horiz-adv-x="390" 
d="M379 99q-58 -108 -150 -108q-54 0 -87 32t-33 95v331h-78v25h78v88l90 39h5v-127h136v-25h-136v-292q0 -97 75 -97q50 0 87 47z" />
    <glyph glyph-name="u" unicode="u" horiz-adv-x="568" 
d="M389 0v107q-38 -59 -76.5 -87.5t-92.5 -28.5q-138 0 -138 159v315l92 9h3v-285q0 -117 91 -117q71 0 121 68v325l92 9h3v-474h-95z" />
    <glyph glyph-name="v" unicode="v" horiz-adv-x="498" 
d="M466 468q-100 -216 -197 -471h-18l-220 468v9h108l150 -343q101 250 131 343h46v-6z" />
    <glyph glyph-name="w" unicode="w" horiz-adv-x="762" 
d="M381 321q-27 -55 -77 -169t-69 -155h-14l-190 468v9h108l129 -335q17 41 41.5 101t37 90.5t28 71.5t26.5 76h20l155 -345q91 284 106 341h48v-6q-17 -42 -78.5 -209t-98.5 -262h-16z" />
    <glyph glyph-name="x" unicode="x" horiz-adv-x="522" 
d="M380 0l-140 200q-32 -44 -85 -114.5t-64 -85.5h-49v5q62 65 182 218l-179 242v9h113l128 -184q103 137 135 184h48v-4q-10 -13 -70.5 -84.5t-97.5 -116.5l193 -260v-9h-114z" />
    <glyph glyph-name="y" unicode="y" horiz-adv-x="499" 
d="M298 45q-71 -178 -92 -245h-46v6q48 90 98 202l-218 457v9h108l155 -349q67 184 119 349h46v-6q-47 -112 -170 -423z" />
    <glyph glyph-name="z" unicode="z" horiz-adv-x="496" 
d="M68 389v85h382v-6l-299 -382h303l-12 -86h-389v7l300 382h-285z" />
    <glyph glyph-name="guillemotleft" unicode="&#xab;" horiz-adv-x="439" 
d="M379 113l-11 -10q-96 100 -153 153v13q57 53 153 153l11 -10q-53 -104 -74 -150q20 -44 74 -149zM203 113l-11 -10q-96 100 -153 153v13q57 53 153 153l11 -10q-53 -104 -74 -150q20 -44 74 -149z" />
    <glyph glyph-name="guillemotright" unicode="&#xbb;" horiz-adv-x="439" 
d="M223 256q-55 -53 -153 -153l-11 10q33 59 74 150q-43 93 -74 149l11 10q98 -100 153 -153v-13zM399 256q-55 -53 -153 -153l-11 10q33 59 74 150q-43 93 -74 149l11 10q98 -100 153 -153v-13z" />
    <glyph glyph-name="quoteleft" unicode="&#x2018;" horiz-adv-x="242" 
d="M71 466q-13 20 -13 45q0 50 110 200q9 13 14 20h20q-59 -101 -59 -183q0 -52 20 -82h-92z" />
    <glyph glyph-name="quoteright" unicode="&#x2019;" horiz-adv-x="242" 
d="M40 466q58 98 58 183q0 50 -19 81h91q14 -20 14 -44q0 -9 -1.5 -18t-6 -20t-8 -19.5t-12.5 -23t-14 -23t-18 -26.5t-19 -26.5t-22 -31t-23 -32.5h-20z" />
    <glyph glyph-name="quotedblleft" unicode="&#x201c;" horiz-adv-x="392" 
d="M71 466q-13 20 -13 45q0 50 110 200q9 13 14 20h20q-59 -101 -59 -183q0 -52 20 -82h-92zM221 466q-13 20 -13 45q0 50 110 200q3 5 4.5 7l4.5 6t5 7h20q-59 -101 -59 -183q0 -52 20 -82h-92z" />
    <glyph glyph-name="quotedblright" unicode="&#x201d;" horiz-adv-x="392" 
d="M40 466q58 98 58 183q0 50 -19 81h91q14 -20 14 -44q0 -9 -1.5 -18t-6 -20t-8 -19.5t-12.5 -23t-14 -23t-18 -26.5t-19 -26.5t-22 -31t-23 -32.5h-20zM190 466q58 98 58 183q0 50 -19 81h91q14 -20 14 -44q0 -9 -1.5 -18t-6 -20t-8 -19.5t-12.5 -23t-14 -23t-18 -26.5
t-19 -26.5t-22 -31t-23 -32.5h-20z" />
    <glyph glyph-name="idotaccent" horiz-adv-x="265" 
d="M133 614q-22 0 -36.5 14.5t-14.5 37.5q0 24 14 39t37 15q21 0 35.5 -15t14.5 -39q0 -22 -14.5 -37t-35.5 -15zM85 0v465l92 9h3v-474h-95z" />
    </font>
</defs>
</svg>
