<?xml version="1.0" standalone="no"?>
<!DOCTYPE svg PUBLIC "-//W3C//DTD SVG 1.1//EN" "http://www.w3.org/Graphics/SVG/1.1/DTD/svg11.dtd" >
<svg xmlns="http://www.w3.org/2000/svg" xmlns:xlink="http://www.w3.org/1999/xlink" version="1.1">
<metadata>
Created by FontForge 20170731 at Sun Dec 10 12:17:02 2017
 By Aleksey,,,
Copyright (c) 2015 The Monotype Corporation. All rights reserved.
</metadata>
<defs>
<font id="PlantinMTW05-Light" horiz-adv-x="333" >
  <font-face 
    font-family="PlantinMTW05-Light"
    font-weight="300"
    font-stretch="normal"
    units-per-em="1000"
    panose-1="2 2 3 3 5 4 5 2 3 4"
    ascent="800"
    descent="-200"
    x-height="450"
    cap-height="682"
    bbox="-177 -250 1151 910"
    underline-thickness="50"
    underline-position="-175"
    unicode-range="U+000D-FB04"
  />
<missing-glyph horiz-adv-x="500" 
d="M0 700h500v-700h-500v700zM80 650l170 -255l170 255h-340zM50 605v-510l170 255zM450 95v510l-170 -255zM420 50l-170 255l-170 -255h340z" />
    <glyph glyph-name="uniFB00" unicode="ff" horiz-adv-x="625" 
d="M710 639q0 -17 -11.5 -28.5t-27.5 -11.5q-25 0 -48.5 25t-34 29t-17.5 4q-15 0 -33 -13t-26 -43q-6 -22 -6 -72v-79h95v-36h-95v-282q0 -60 8 -78t25 -23t41 -5h21v-26h-251v26q28 0 47 6.5t25 28.5t6 71v282h-236v-289q0 -47 7 -67.5t25.5 -26t42.5 -5.5v-26h-237v26h8
q36 0 51 9t20 28.5t5 58.5v292h-90v36h27q14 0 29.5 1t24.5 7q7 5 14.5 34t11.5 43q8 27 24 53t34 41q30 25 70.5 37.5t80.5 12.5q33 0 62.5 -9.5t45 -24.5t19.5 -29q52 78 148 78q45 0 70 -14.5t25 -40.5zM192 450h165q49 0 61 8q7 5 10.5 14t4.5 34q2 39 13 66
q-11 -5 -19 -5q-2 0 -7 0.5t-15 4.5t-25 25.5t-24.5 30t-21.5 13t-29 4.5q-113 0 -113 -179v-16z" />
    <glyph glyph-name="uniFB01" unicode="fi" horiz-adv-x="573" 
d="M467 621q0 -17 -10.5 -28.5t-27.5 -11.5q-8 0 -19.5 4.5t-37.5 35.5q-33 39 -75 39q-58 0 -87.5 -40t-29.5 -107v-63h194q18 0 38 1t49 9h19v-356q0 -45 16 -61.5t58 -16.5v-26h-223v26q39 0 55 17.5t16 63.5v245q0 35 -13 48.5t-46 13.5h-163v-308q0 -45 16 -62.5
t59 -17.5v-26h-224v26q20 1 36 5t24 17q11 19 11 70v296h-83v36h19q29 0 41.5 4t18.5 16q3 7 8 33t7 34q17 74 79 117q59 40 138 40q52 0 94.5 -20t42.5 -53z" />
    <glyph glyph-name="uniFB02" unicode="fl" horiz-adv-x="573" 
d="M414 681q7 1 24 5.5t24 7.5h19v-590q0 -42 14.5 -60t54.5 -18h4v-26h-223v26q42 0 57 18.5t15 66.5v303h-223v-309q0 -35 11.5 -56.5t63.5 -22.5v-26h-224v26q41 0 56 17t15 65v306h-83v36h25q28 0 40 5.5t17 22.5l12 63q16 66 74 109.5t142 43.5q37 0 85 -13zM180 520
v-70h223v140q-12 8 -25 23.5t-22 24.5q-11 10 -23 16t-37 6q-28 0 -55 -13t-44 -48t-17 -79z" />
    <glyph glyph-name="uniFB03" unicode="ffi" horiz-adv-x="875" 
d="M771 621q0 -15 -11 -27.5t-29 -12.5q-22 0 -39.5 19.5t-18.5 20.5q-23 25 -40.5 32t-38.5 7q-20 0 -42.5 -9t-38.5 -29q-19 -24 -27 -67q-4 -19 -4 -105h188q60 0 93 10h19v-328q0 -32 1.5 -52.5t10.5 -33.5q13 -20 61 -20v-26h-222v26q39 0 55 16q8 8 12 27.5t4 61.5
v205q0 24 -2 39.5t-9 24.5q-11 14 -60 14h-151v-284q0 -49 6.5 -70t24 -27.5t44.5 -6.5v-26h-224v26q27 0 39 5q15 6 23.5 26t8.5 87v270h-222v-282q0 -32 1.5 -53.5t11.5 -34.5q13 -18 62 -18v-26h-232v26q34 0 53 8q9 4 17.5 17.5t8.5 79.5v283h-79v36h17q36 0 47 10
q9 9 15 41q3 15 12 37.5t21 42.5q8 14 20.5 28t24.5 23q21 17 58.5 31.5t84.5 14.5q77 0 136 -47q43 33 83.5 48t85.5 15q56 0 99 -20q42 -19 42 -53zM182 450h175q40 0 46 30l16 83q-5 2 -14 7.5t-38 38.5q-32 35 -77 35q-26 0 -49 -13.5t-36.5 -38.5t-18.5 -51
q-4 -19 -4 -91z" />
    <glyph glyph-name="uniFB04" unicode="ffl" horiz-adv-x="875" 
d="M716 681q11 0 48 13h18v-562q0 -53 6.5 -73t23 -26.5t43.5 -6.5v-26h-222v26q19 0 33.5 4t22.5 13q9 10 12 30.5t3 58.5v282h-222v-282q0 -61 8 -78q4 -9 15 -18t52 -10v-26h-224v26q26 0 42.5 6.5t22.5 27.5t6 71v283h-222v-283q0 -51 5.5 -70.5t21 -27t48.5 -7.5v-26
h-232v26q37 0 52.5 6t21 24.5t5.5 75.5v282h-79v36h16q30 0 42 5t17 22l11 43q9 29 25 57.5t36 46.5q27 25 69.5 39.5t83.5 14.5q77 0 136 -47q79 63 172 63q32 0 56.5 -6.5t26.5 -6.5zM482 450h222v139l-39 42q-13 14 -27 21.5t-41 7.5q-115 0 -115 -156v-54zM182 450h169
q20 0 34 6t19 29l15 78q-6 2 -16.5 9.5t-29.5 30.5q-21 25 -39 33t-42 8q-21 0 -42 -9.5t-36.5 -29t-23.5 -48.5t-8 -66v-41z" />
    <glyph glyph-name=".notdef" horiz-adv-x="500" 
d="M0 700h500v-700h-500v700zM80 650l170 -255l170 255h-340zM50 605v-510l170 255zM450 95v510l-170 -255zM420 50l-170 255l-170 -255h340z" />
    <glyph glyph-name="glyph1" horiz-adv-x="0" 
 />
    <glyph glyph-name="glyph1" horiz-adv-x="0" 
 />
    <glyph glyph-name="uni000D" unicode="&#xd;" horiz-adv-x="270" 
 />
    <glyph glyph-name="space" unicode=" " horiz-adv-x="270" 
 />
    <glyph glyph-name="exclam" unicode="!" horiz-adv-x="271" 
d="M191 44q0 -23 -16.5 -39t-38.5 -16t-38.5 16t-16.5 39t16.5 39t38.5 16t38.5 -16t16.5 -39zM144 188h-27q-1 14 -3.5 49.5t-16 218.5t-13.5 202q0 20 9 29.5t33 9.5h21q39 0 39 -36q0 -9 -12.5 -148t-29.5 -325z" />
    <glyph glyph-name="quotedbl" unicode="&#x22;" horiz-adv-x="322" 
d="M118 608q0 -35 -21.5 -129.5t-25.5 -111.5h-22l-27 123q-19 82 -19 118q0 25 16.5 42t39.5 17q26 0 42.5 -17t16.5 -42zM320 608q0 -35 -21.5 -129.5t-25.5 -111.5h-22l-27 123q-19 82 -19 118q0 25 16.5 42t39.5 17q26 0 42.5 -17t16.5 -42z" />
    <glyph glyph-name="numbersign" unicode="#" horiz-adv-x="668" 
d="M207 482l41 200h51l-41 -200h212l42 200h51l-41 -200h100v-51h-111l-40 -189h151v-51h-161l-42 -201h-51l42 201h-213l-42 -201h-51l42 201h-101v51h111l40 189h-151v51h162zM247 431l-40 -189h213l40 189h-213z" />
    <glyph glyph-name="dollar" unicode="$" horiz-adv-x="552" 
d="M187 654v40h29v-34q28 7 58 7q28 0 57 -7v34h29v-41q51 -15 84.5 -46.5t33.5 -61.5q0 -13 -10 -23.5t-25 -10.5q-13 0 -24.5 7t-18 19.5t-15.5 37.5q-11 30 -25 38v-255q70 -34 102 -77.5t32 -102.5q0 -28 -12 -63.5t-44.5 -67.5t-77.5 -47v-108h-29v102q-35 -6 -57 -6
q-28 0 -58 6v-102h-29v107q-26 6 -56 21.5t-50.5 41t-20.5 48.5q0 18 12 30.5t28 12.5q13 0 24 -8.5t20 -41.5q14 -52 43 -64v289q-65 32 -92.5 71t-27.5 93q0 58 31 100t89 62zM216 631v-223l115 -39v258q-27 11 -63 11q-25 0 -52 -7zM187 418v204q-32 -14 -51 -42.5
t-19 -61.5q0 -32 17 -56t53 -44zM216 318v-291q33 -10 63 -10q22 0 52 6v255q-62 23 -115 40zM360 265v-232q38 17 60.5 48.5t22.5 69.5q0 72 -83 114z" />
    <glyph glyph-name="percent" unicode="%" horiz-adv-x="792" 
d="M150 -42l449 736h42l-448 -736h-43zM303 492q0 -77 -36.5 -123.5t-96.5 -46.5q-61 0 -97 46t-36 124q0 77 36 123t97 46q60 0 96.5 -46t36.5 -123zM170 344q41 0 59 35t18 112q0 49 -7.5 83.5t-26 49.5t-44.5 15q-40 0 -58 -35.5t-18 -112.5q0 -78 18.5 -112.5
t58.5 -34.5zM755 164q0 -77 -36.5 -123.5t-96.5 -46.5q-61 0 -97 46t-36 124q0 77 36 123t97 46q60 0 96.5 -46t36.5 -123zM622 16q40 0 58.5 34.5t18.5 112.5q0 49 -7.5 83.5t-26 49.5t-44.5 15q-40 0 -58 -35.5t-18 -112.5q0 -78 18.5 -112.5t58.5 -34.5z" />
    <glyph glyph-name="ampersand" unicode="&#x26;" horiz-adv-x="740" 
d="M465 567q0 -29 -28.5 -58t-113.5 -85q45 -45 94 -106.5t88 -126.5q28 36 49.5 85t21.5 73q0 26 -15 40.5t-49 20.5v28h205v-28q-35 -3 -68 -37q-22 -24 -41 -63q-50 -101 -85 -145q12 -22 32.5 -49.5t37.5 -44.5q12 -12 31.5 -23.5t44.5 -13.5q38 -3 42 -5.5t5.5 -6
t1.5 -9.5q0 -10 -12 -17.5t-59 -7.5q-64 0 -103.5 23.5t-81.5 80.5q-109 -104 -232 -104q-83 0 -140 52.5t-57 126.5q0 51 26.5 96t75.5 77l90 59q-76 86 -76 127q0 28 22.5 64.5t72.5 70t88 33.5q22 0 51.5 -15t55.5 -47.5t26 -64.5zM256 492l46 -46q50 38 71.5 61.5
t21.5 48.5q0 13 -11.5 34.5t-37 41t-48.5 19.5q-9 0 -27.5 -10t-37 -32t-18.5 -43q0 -16 11.5 -36t29.5 -38zM292 50q79 0 150 70l-22 33t-55 79t-117 142q-50 -35 -80 -65q-23 -23 -34 -43.5t-11 -49.5q0 -37 24.5 -77.5t65.5 -64.5t79 -24z" />
    <glyph glyph-name="quotesingle" unicode="'" horiz-adv-x="161" 
d="M138 608q0 -35 -21.5 -129.5t-25.5 -111.5h-22l-27 123q-19 82 -19 118q0 25 16.5 42t39.5 17q26 0 42.5 -17t16.5 -42z" />
    <glyph glyph-name="parenleft" unicode="(" horiz-adv-x="406" 
d="M363 693l21 -29q-106 -77 -162.5 -186t-56.5 -234q0 -120 59.5 -230.5t159.5 -177.5l-21 -30q-115 67 -184 185.5t-69 253.5q0 145 62 256.5t191 191.5z" />
    <glyph glyph-name="parenright" unicode=")" horiz-adv-x="406" 
d="M22 664l21 29q129 -80 191 -191.5t62 -256.5q0 -135 -69 -253.5t-184 -185.5l-21 30q100 67 159.5 177.5t59.5 230.5q0 125 -56.5 234t-162.5 186z" />
    <glyph glyph-name="asterisk" unicode="*" horiz-adv-x="510" 
d="M211 528l33 169h26l35 -169l165 20l9 -26l-149 -80l71 -156l-21 -16l-124 120l-125 -120l-21 16l72 156l-150 80l8 26z" />
    <glyph glyph-name="plus" unicode="+" horiz-adv-x="667" 
d="M307 290v237h53v-237h237v-53h-237v-237h-53v237h-237v53h237z" />
    <glyph glyph-name="comma" unicode="," horiz-adv-x="271" 
d="M222 16q0 -43 -23.5 -83t-70 -62.5t-100.5 -24.5v26q32 2 67.5 14t59 39t23.5 61q0 44 -38 58q-7 3 -21 4t-19 2q-39 10 -39 49q0 24 16.5 39.5t42.5 15.5q30 0 55.5 -23.5t36 -55.5t10.5 -59z" />
    <glyph glyph-name="hyphen" unicode="-" horiz-adv-x="375" 
d="M38 262h300v-72h-300v72z" />
    <glyph glyph-name="period" unicode="." horiz-adv-x="271" 
d="M191 44q0 -23 -16.5 -39t-38.5 -16t-38.5 16t-16.5 39t16.5 39t38.5 16t38.5 -16t16.5 -39z" />
    <glyph glyph-name="slash" unicode="/" horiz-adv-x="267" 
d="M0 -135l224 829h43l-224 -829h-43z" />
    <glyph glyph-name="zero" unicode="0" horiz-adv-x="542" 
d="M493 328q0 -193 -89 -282q-27 -27 -63.5 -42.5t-69.5 -15.5q-83 0 -148 74q-35 41 -55 109.5t-20 156.5q0 148 55 238q30 48 75 74.5t93 26.5q32 0 70.5 -15.5t66.5 -45.5t48.5 -76.5t28.5 -100.5t8 -101zM271 20q21 0 43.5 9t38 26.5t23.5 35.5q32 70 32 237
q0 82 -6.5 136.5t-21.5 89.5q-9 22 -25.5 42t-38.5 29.5t-46 9.5q-26 0 -50 -12.5t-39 -34.5t-23 -45q-25 -72 -25 -215q0 -81 6.5 -132.5t20.5 -87.5q35 -88 111 -88z" />
    <glyph glyph-name="one" unicode="1" horiz-adv-x="542" 
d="M282 666h32v-554q0 -46 15.5 -63t57.5 -17h22v-32h-264v32h25q40 0 53 17t13 67v360q0 70 -56 70h-47v32q40 13 81 36t68 52z" />
    <glyph glyph-name="two" unicode="2" horiz-adv-x="542" 
d="M463 494q0 -78 -86 -181q-38 -46 -97 -100l-151 -141h248q30 0 48 18.5t36 70.5h34l-55 -161h-390v36l195 195q66 66 99.5 132.5t33.5 114.5q0 53 -41 88t-104 35q-80 0 -148 -67l-22 21q50 56 99 84t114 28q30 0 62 -9t59.5 -30t46.5 -55t19 -79z" />
    <glyph glyph-name="three" unicode="3" horiz-adv-x="542" 
d="M430 527q0 -30 -15 -58.5t-40.5 -47t-49.5 -27.5v-2q68 -18 105.5 -62.5t37.5 -104.5q0 -41 -16.5 -83t-50.5 -77t-86 -56t-119 -21q-57 0 -100.5 16t-43.5 40q0 9 11.5 23t25.5 14q9 0 42 -19.5t59.5 -28.5t50.5 -9q62 0 102.5 50.5t40.5 124.5q0 63 -39 95t-115 32
q-47 0 -109 -9l6 31q100 7 159.5 53t59.5 111q0 41 -35 69.5t-86 28.5q-36 0 -68 -14t-64 -44l-20 22q40 49 85.5 71t102.5 22q29 0 59 -7.5t54 -25t40 -45t16 -62.5z" />
    <glyph glyph-name="four" unicode="4" horiz-adv-x="542" 
d="M32 215l324 451h48v-444h98v-64h-98v-170h-78v170h-294v57zM324 571l-249 -349h251v349h-2z" />
    <glyph glyph-name="five" unicode="5" horiz-adv-x="542" 
d="M437 656l13 21l27 -16l-40 -72h-226l-51 -111q143 -22 221 -87.5t78 -164.5q0 -33 -12 -68.5t-30 -62.5q-32 -48 -89.5 -77.5t-138.5 -29.5q-24 0 -54 3.5t-52 13.5t-22 22q0 11 16 28.5t29 17.5q6 0 38 -13t59.5 -19t50.5 -6q64 0 107 44.5t43 108.5q0 30 -14.5 62
t-44.5 60q-27 25 -79 49t-173 47l113 250h231z" />
    <glyph glyph-name="six" unicode="6" horiz-adv-x="542" 
d="M425 666l28 -24q-127 -40 -206.5 -114.5t-100.5 -182.5q36 29 79 45.5t84 16.5q49 0 94 -26.5t69 -74.5t24 -98q0 -43 -16.5 -83.5t-47 -71t-71.5 -48t-87 -17.5q-24 0 -54 6.5t-59 24.5t-54 49.5t-40.5 81.5t-15.5 108q0 82 26.5 153t76 124t119 86.5t152.5 44.5z
M139 302q-2 -17 -2.5 -26.5t-0.5 -18.5q0 -53 13 -108t48 -92t84 -37q28 0 58 16.5t51 59t21 95.5q0 68 -40 114.5t-102 46.5q-59 0 -130 -50z" />
    <glyph glyph-name="seven" unicode="7" horiz-adv-x="542" 
d="M95 656h404l-266 -668h-42l238 596h-248q-41 0 -62.5 -18t-35.5 -72h-31z" />
    <glyph glyph-name="eight" unicode="8" horiz-adv-x="542" 
d="M472 527q0 -20 -9.5 -41.5t-39 -50t-108.5 -82.5q92 -53 133.5 -99.5t41.5 -99.5q0 -35 -14 -62t-37.5 -48.5t-66.5 -38.5t-103 -17q-66 0 -114.5 19.5t-77.5 55t-29 80.5q0 41 27.5 75t136.5 102q-161 83 -161 179q0 41 20.5 74t48 51.5t64.5 30.5t87 12
q57 0 101.5 -17.5t72 -50t27.5 -72.5zM287 371q55 36 87 75t32 75q0 35 -23 63.5t-56 39.5t-62 11t-62.5 -10.5t-58.5 -37.5t-25 -64q0 -15 9 -32t42 -43q38 -30 117 -77zM272 20q49 0 83 21.5t46.5 49.5t12.5 48t-10 41.5t-41 45.5t-123 77q-120 -95 -120 -160
q0 -25 14 -53t52 -49t86 -21z" />
    <glyph glyph-name="nine" unicode="9" horiz-adv-x="542" 
d="M494 395q0 -100 -41.5 -186.5t-127.5 -145t-205 -75.5l-28 24q133 42 212 120.5t95 176.5q-36 -29 -79 -45.5t-84 -16.5q-29 0 -60.5 10.5t-59.5 35t-47.5 64t-19.5 89.5q0 44 17 84.5t47 71t71 48t87 17.5q101 0 162 -75.5t61 -196.5zM275 302q61 0 131 50q2 17 2.5 27
t0.5 19q0 38 -6.5 79t-26 80.5t-50.5 58.5t-64 19q-54 0 -91 -49t-37 -123q0 -68 40.5 -114.5t100.5 -46.5z" />
    <glyph glyph-name="colon" unicode=":" horiz-adv-x="271" 
d="M191 405q0 -23 -16.5 -39t-38.5 -16t-38.5 16t-16.5 39t16.5 39t38.5 16t38.5 -16t16.5 -39zM191 44q0 -23 -16.5 -39t-38.5 -16t-38.5 16t-16.5 39t16.5 39t38.5 16t38.5 -16t16.5 -39z" />
    <glyph glyph-name="semicolon" unicode=";" horiz-adv-x="271" 
d="M191 405q0 -23 -16.5 -39t-38.5 -16t-38.5 16t-16.5 39t16.5 39t38.5 16t38.5 -16t16.5 -39zM222 16q0 -43 -23.5 -83t-70 -62.5t-100.5 -24.5v26q32 2 67.5 14t59 39t23.5 61q0 31 -18 46t-44 16q-23 1 -39 13.5t-16 37.5q0 24 16.5 39.5t42.5 15.5q30 0 55.5 -23.5
t36 -55.5t10.5 -59z" />
    <glyph glyph-name="less" unicode="&#x3c;" horiz-adv-x="667" 
d="M70 288l526 222v-57l-456 -189l456 -188v-57l-526 222v47z" />
    <glyph glyph-name="equal" unicode="=" horiz-adv-x="667" 
d="M70 406h527v-53h-527v53zM70 178h527v-53h-527v53z" />
    <glyph glyph-name="greater" unicode="&#x3e;" horiz-adv-x="667" 
d="M70 510l526 -222v-47l-526 -222v57l456 189l-456 188v57z" />
    <glyph glyph-name="question" unicode="?" horiz-adv-x="427" 
d="M104 44q0 22 16 38.5t39 16.5t39 -16.5t16 -38.5q0 -23 -16.5 -39t-38.5 -16t-38.5 16t-16.5 39zM169 173h-28l2 18q0 20 -7 65t-7 58q0 7 9 15.5t35 16.5t31 10q28 9 53 21q64 31 64 87q0 42 -22 80.5t-50 59t-57 20.5q-26 0 -62 -11.5t-40 -11.5q-11 0 -18 8.5t-7 23.5
q0 29 24.5 46.5t65.5 17.5q34 0 71.5 -27.5t74.5 -77.5q35 -48 54.5 -95.5t19.5 -74.5q0 -40 -26 -75t-77 -55q-52 -21 -65 -30t-18 -16q-16 -23 -20 -73z" />
    <glyph glyph-name="at" unicode="@" horiz-adv-x="917" 
d="M860 363q0 -68 -24.5 -137.5t-68.5 -120.5q-34 -40 -83 -63.5t-103 -23.5q-38 0 -60.5 19.5t-22.5 52.5q0 30 10 71l-2 2q-54 -75 -96 -110t-87 -35q-16 0 -36 11t-34 38.5t-14 60.5q0 57 24 120.5t68 119.5q32 40 67.5 66.5t62.5 35.5t44 9q28 0 49 -18.5t25 -50.5h2
l15 54l93 8l-92 -317q-11 -38 -11 -63q0 -15 11 -26.5t25 -11.5q44 0 103 50q34 30 60.5 79t36.5 97.5t10 84.5q0 65 -23 121.5t-65 97.5t-101 63.5t-127 22.5q-40 0 -92.5 -11.5t-107 -43.5t-98.5 -79t-73.5 -106.5t-40.5 -117.5t-11 -103q0 -84 28.5 -156.5t80 -124
t122 -79.5t151.5 -28q136 0 240 72.5t155 198.5h29q-20 -64 -62 -119.5t-99 -95.5t-125.5 -62t-138.5 -22q-91 0 -170.5 32t-137.5 90.5t-89.5 138.5t-31.5 171q0 134 65 244.5t171 169t226 58.5q80 0 146 -24.5t112 -69t70.5 -106.5t24.5 -134zM378 89q27 0 59 27.5t60 72
t45.5 96.5t17.5 98q0 30 -14 49t-37 19q-21 0 -48.5 -23t-58.5 -77t-49.5 -113t-18.5 -90q0 -28 12 -43.5t32 -15.5z" />
    <glyph glyph-name="A" unicode="A" horiz-adv-x="729" 
d="M297 682h93l232 -550q17 -41 37.5 -68t61.5 -35v-29h-266v29q44 2 63.5 15t19.5 40t-18 70l-50 116h-268q-2 -6 -6 -15.5t-25.5 -67t-21.5 -83.5q0 -33 23 -53t64 -22v-29h-228v29q17 1 34 12.5t29 29.5q17 24 29 51.5t35 83.5l177 441zM329 607l-111 -294h234z" />
    <glyph glyph-name="B" unicode="B" horiz-adv-x="677" 
d="M27 682h350q77 0 134 -28q38 -19 62.5 -54t24.5 -80q0 -66 -51.5 -108t-144.5 -52v-2q106 -11 165 -55t59 -122q0 -37 -18 -71.5t-51 -59.5q-68 -50 -181 -50h-349v29h9q53 0 73.5 19t20.5 66v459q0 44 -22 62t-72 18h-9v29zM223 372h98q84 0 128 34.5t44 98.5
q0 66 -42 107t-111 41h-117v-281zM223 343v-246q0 -33 21.5 -50.5t75.5 -17.5h53q42 0 76 17q31 17 50 50.5t19 81.5q0 81 -57.5 123t-155.5 42h-82z" />
    <glyph glyph-name="C" unicode="C" horiz-adv-x="771" 
d="M681 648l26 -151h-33q-43 84 -100 123.5t-135 39.5q-48 0 -96 -16t-91.5 -59.5t-63.5 -108t-20 -129.5q0 -126 65 -216q78 -109 214 -109q92 0 149.5 43t84.5 131h31l-3 -146q-50 -28 -127.5 -45t-146.5 -17q-80 0 -149.5 25.5t-120 72t-78 111t-27.5 138.5q0 39 11 87.5
t40 95t77.5 87t118 65t140.5 24.5q59 0 122.5 -12.5t111.5 -33.5z" />
    <glyph glyph-name="D" unicode="D" horiz-adv-x="844" 
d="M27 682h386q78 0 146.5 -24t119 -68.5t78.5 -106.5t28 -134q0 -68 -24 -131t-70 -113q-48 -53 -121 -79t-191 -26h-352v29h11q58 0 79.5 18.5t21.5 65.5v455q0 48 -22.5 66.5t-76.5 18.5h-13v29zM232 653v-517q0 -60 32 -83.5t104 -23.5q125 0 195 44q58 37 87.5 104
t29.5 145q0 76 -24 138t-68.5 105t-106 65.5t-134.5 22.5h-115z" />
    <glyph glyph-name="E" unicode="E" horiz-adv-x="656" 
d="M24 682h559l6 -147h-29q-36 118 -166 118h-171v-284h138q58 0 95 25t39 83h29v-244h-29q-5 38 -20.5 60.5t-45 34.5t-75.5 12h-131v-214q0 -39 6 -58t22 -27q11 -5 32 -8.5t75 -3.5q94 0 153 31t96 101h32l-41 -161h-574v29h15q51 0 71 20t20 65v457q0 43 -20.5 62.5
t-73.5 19.5h-12v29z" />
    <glyph glyph-name="F" unicode="F" horiz-adv-x="625" 
d="M14 682h594v-155h-29q-23 70 -64 98t-113 28h-179v-273h144q62 0 92 21.5t35 73.5h29v-247h-29q-8 67 -40 95t-95 28h-136v-240q0 -27 8 -46t29.5 -27.5t59.5 -8.5h21v-29h-323v29h17q54 0 74.5 20t20.5 64v458q0 21 -6.5 41t-27.5 30.5t-70 10.5h-12v29z" />
    <glyph glyph-name="G" unicode="G" horiz-adv-x="844" 
d="M713 646l12 -149h-29q-31 78 -93.5 120.5t-148.5 42.5q-62 0 -115.5 -22.5t-92.5 -64t-60 -99t-21 -124.5q0 -70 21.5 -130.5t61 -105t94 -68.5t117.5 -24q49 0 98.5 13t81.5 35v160q0 49 -23 66.5t-80 17.5h-19v29h315v-29h-10q-49 0 -69.5 -20t-20.5 -62v-192
q-147 -52 -266 -52q-118 0 -213 41.5t-145.5 119.5t-50.5 182q0 76 29.5 143t84 116.5t131.5 76.5t167 27q61 0 119 -11.5t125 -36.5z" />
    <glyph glyph-name="H" unicode="H" horiz-adv-x="823" 
d="M25 682h299v-29h-17q-49 0 -68 -21t-19 -61v-204h383v205q0 42 -21 61.5t-75 19.5h-8v29h299v-29q-58 0 -80 -16.5t-22 -65.5v-458q0 -46 20 -65t64 -19h18v-29h-299v29h9q51 0 73 18t22 64v218h-383v-208q0 -53 20 -72.5t74 -19.5h10v-29h-299v29q59 0 80.5 18t21.5 68
v456q0 44 -20 63t-72 19h-10v29z" />
    <glyph glyph-name="I" unicode="I" horiz-adv-x="354" 
d="M22 682h310v-29h-17q-49 0 -70 -19.5t-21 -59.5v-462q0 -44 20.5 -63.5t68.5 -19.5h19v-29h-310v29h13q52 0 74 18t22 62v466q0 44 -22 61t-76 17h-11v29z" />
    <glyph glyph-name="J" unicode="J" horiz-adv-x="313" 
d="M3 682h309v-29q-58 -1 -81 -18.5t-23 -64.5v-493q0 -76 -16.5 -124t-47.5 -79q-46 -46 -110 -46q-20 0 -44.5 6.5t-42 23.5t-17.5 38q0 19 12.5 31.5t32.5 12.5q10 0 20 -3.5t17.5 -12t21 -33t34.5 -24.5q26 0 36.5 24.5t10.5 81.5v604q0 40 -22 58t-65 18h-25v29z" />
    <glyph glyph-name="K" unicode="K" horiz-adv-x="802" 
d="M22 682h304v-29h-11q-57 0 -75.5 -20t-18.5 -73v-441q0 -50 20 -70t67 -20h18v-29h-304v29h10q53 0 74.5 17.5t21.5 63.5v462q0 42 -20 61.5t-66 19.5h-20v29zM442 682h281v-29q-54 -2 -122 -52q-29 -21 -126.5 -102t-147.5 -117q56 -43 184 -155q108 -95 137 -119.5
t54 -42.5q47 -33 97 -36v-29h-161q-38 28 -127.5 107.5t-147.5 130.5t-133 110q150 108 159.5 115.5t24.5 19.5q49 40 69 61.5t24.5 36t4.5 19.5q0 47 -70 53v29z" />
    <glyph glyph-name="L" unicode="L" horiz-adv-x="688" 
d="M15 682h322v-29h-23q-36 0 -55 -8.5t-27.5 -27.5t-8.5 -55v-451q0 -41 22 -61.5t69 -20.5h126q56 0 85 11q28 11 59 38t69 89h30l-47 -167h-625v29h15q58 0 81 17t23 68v459q0 44 -23 62t-80 18h-12v29z" />
    <glyph glyph-name="M" unicode="M" horiz-adv-x="1000" 
d="M99 682h175q4 -31 26 -97.5t72 -178.5q48 -108 71 -153q28 -53 58 -127q16 43 65 138.5t63 123.5q50 100 71.5 163t21.5 131h189v-29h-9q-41 0 -57.5 -18t-16.5 -58q0 -27 11 -106l43 -323q5 -36 12 -60t26 -40q17 -15 63 -19v-29h-290v29q44 1 69.5 23t25.5 58
q0 27 -9 109l-39 339h-2q-19 -56 -63 -148l-74 -145q-101 -201 -110 -265h-39q-19 76 -63 168l-77 163q-5 10 -17 36t-34.5 76t-43.5 115h-2l-53 -353q-9 -56 -9 -80q0 -45 21 -67t72 -29v-29h-236v29q33 3 52 22t31 45q17 38 34 132l37 212q16 91 16 135q0 37 -21 57.5
t-57 20.5h-3v29z" />
    <glyph glyph-name="N" unicode="N" horiz-adv-x="844" 
d="M9 682h148l522 -537v390q0 26 -9.5 54t-37.5 46t-74 18v29h267v-29q-59 -3 -83.5 -37t-24.5 -113v-394q0 -20 8 -64q7 -38 7 -54h-53q-29 47 -78 97l-419 436v-386q0 -49 31 -77.5t92 -31.5v-29h-280v29h12q23 0 48.5 10.5t42 37.5t16.5 61v422q-43 45 -66 66
q-13 12 -31.5 19t-37.5 8v29z" />
    <glyph glyph-name="O" unicode="O" horiz-adv-x="813" 
d="M754 340q0 -46 -14.5 -102t-47 -103.5t-73.5 -79t-96 -49.5t-119 -18q-71 0 -135 25.5t-111 72t-73 112t-26 141.5q0 74 26 139.5t73.5 113.5t112 75t138.5 27q78 0 143 -29t110 -79t68.5 -114t23.5 -132zM417 22q49 0 92 19t74.5 54.5t48.5 87.5t17 115q0 78 -19 145
t-53.5 115.5t-82.5 75t-103 26.5q-40 0 -74.5 -14t-61 -36t-47 -54.5t-32.5 -77t-12 -97.5q0 -70 18 -135.5t51 -116t80.5 -79t103.5 -28.5z" />
    <glyph glyph-name="P" unicode="P" horiz-adv-x="625" 
d="M22 682h276q97 0 138 -10q77 -19 116.5 -62t39.5 -105q0 -39 -17 -74.5t-48 -62t-73.5 -41t-91.5 -14.5q-34 0 -57.5 4.5t-23.5 19.5q0 8 6.5 13t13.5 5l40 -2q27 0 61 12t58 45t24 80q0 46 -19.5 82t-57.5 58.5t-90 22.5h-95v-541q0 -46 21 -64.5t75 -18.5h15v-29h-307
v29h12q50 0 70.5 19.5t20.5 63.5v460q0 45 -22 63t-75 18h-10v29z" />
    <glyph glyph-name="Q" unicode="Q" horiz-adv-x="813" 
d="M754 340q0 -63 -20 -121t-57 -104.5t-87 -77.5t-107 -41v-2q8 -4 15.5 -7.5t79.5 -40.5t118 -53.5t98 -27.5v-38q-28 -6 -57 -6q-105 0 -251 75q-35 18 -86 50t-64 38q-8 4 -71 31q-57 25 -103 70t-74.5 108.5t-28.5 144.5q0 73 26 139t73.5 114.5t112 75.5t138.5 27
q39 0 86 -10t91.5 -36.5t83 -70.5t61.5 -108t23 -129zM417 22q49 0 92 18.5t74 54.5t48.5 88t17.5 115q0 89 -28.5 172t-77.5 130q-30 28 -70.5 44t-81.5 16q-40 0 -80.5 -16.5t-73.5 -51t-53 -88t-20 -123.5q0 -74 18.5 -140t52.5 -115t81 -76.5t101 -27.5z" />
    <glyph glyph-name="R" unicode="R" horiz-adv-x="729" 
d="M26 682h340q71 0 124 -24.5t81 -62.5t28 -87q0 -40 -19 -73.5t-60.5 -59.5t-110.5 -36l82 -90l114 -133q33 -38 62 -61t58 -24v-21q-44 -10 -76 -10q-40 0 -73.5 22t-78.5 76l-166 199q-9 12 -19.5 18.5t-30.5 6.5h-60v-208q0 -47 21 -66t72 -19h9v-29h-297v29h9
q52 0 72.5 18.5t20.5 66.5v457q0 43 -20.5 62.5t-70.5 19.5h-11v29zM221 359h80q96 0 143 34.5t47 104.5q0 77 -48 116t-136 39h-86v-294z" />
    <glyph glyph-name="S" unicode="S" horiz-adv-x="594" 
d="M508 638v-136h-34q-11 75 -57.5 116.5t-120.5 41.5q-30 0 -63.5 -9t-55 -33t-21.5 -57q0 -28 22.5 -57.5t105.5 -73.5q101 -52 138 -77q56 -38 83 -79.5t27 -90.5q0 -38 -14.5 -73t-45 -62.5t-77.5 -43.5t-108 -16q-51 0 -112 13.5t-111 35.5l-3 174h34q9 -90 59 -137
t135 -47q69 0 114 32t45 82q0 41 -26 72t-80 63l-140 80q-45 27 -73 53.5t-40 55.5t-12 58q0 76 60 123.5t160 47.5q105 0 211 -56z" />
    <glyph glyph-name="T" unicode="T" horiz-adv-x="781" 
d="M32 682h716l13 -161h-28q-28 68 -63.5 100t-85.5 32h-147v-536q0 -49 20 -68.5t74 -19.5h12v-29h-302v29h17q27 0 47.5 7.5t29.5 27.5t9 55v534h-134q-41 0 -70 -15t-50.5 -43t-40.5 -74h-29z" />
    <glyph glyph-name="U" unicode="U" horiz-adv-x="802" 
d="M11 682h309v-29h-18q-50 0 -72.5 -17t-22.5 -60v-353q0 -62 28 -105t74 -65t110 -22q115 0 173.5 67.5t58.5 187.5v238q0 35 -7.5 63t-30.5 46.5t-77 19.5v29h253v-29q-47 -5 -69 -21.5t-28 -43t-6 -56.5v-259q0 -139 -71.5 -212t-214.5 -73q-68 0 -122.5 17t-90.5 47
t-54.5 71t-18.5 87v356q0 52 -22 69.5t-72 17.5h-9v29z" />
    <glyph glyph-name="V" unicode="V" horiz-adv-x="729" 
d="M9 682h269v-29q-39 -2 -58.5 -16t-19.5 -38q0 -6 3.5 -25.5t16.5 -47.5l108 -229q38 -83 77 -172q0 1 2 5.5t38 86.5t48 112q7 17 32 79.5t38 103.5t13 71t-20 49.5t-52 20.5v29h216v-29q-38 -6 -64.5 -33.5t-44.5 -79.5q-38 -112 -59 -160l-76 -181q-46 -102 -58 -138
q-11 -32 -19 -73h-48q-4 28 -25.5 87t-45.5 110l-160 345q-2 4 -14 31t-25.5 48t-31.5 32t-40 12v29z" />
    <glyph glyph-name="W" unicode="W" horiz-adv-x="1021" 
d="M8 682h238v-29q-25 -2 -42 -18t-17 -42q0 -11 9 -40.5t70 -160.5q77 -164 128 -296q10 27 47 98l60 117l-103 217q-21 44 -35 69t-27 39t-42 17v29h231v-29q-23 -2 -36.5 -16.5t-13.5 -36.5q0 -30 18 -66l60 -119l43 82q35 66 35 95q0 24 -15.5 41.5t-38.5 19.5v29h184
v-29q-44 -4 -89 -84q-11 -20 -26 -48t-41 -79t-33 -65q114 -242 120 -260q63 135 98 216q50 116 63 155q24 72 24 96q0 30 -16.5 48.5t-47.5 20.5v29h196v-29q-19 -4 -33.5 -12t-28.5 -31q-19 -31 -41 -85l-96 -231q-2 -5 -6 -14t-58 -126.5t-60 -165.5h-42q-4 20 -19 60
t-33 77l-72 151l-94 -185q-36 -70 -44 -103h-43q-4 31 -55 146l-143 318l-52 123q-18 41 -37.5 59.5t-43.5 18.5v29z" />
    <glyph glyph-name="X" unicode="X" horiz-adv-x="771" 
d="M18 682h314v-29h-13q-64 0 -64 -37q0 -13 13.5 -37t67 -88.5t73.5 -89.5l82 97q62 73 62 104q0 48 -78 51v29h253v-29q-31 -5 -53 -19q-27 -17 -66 -56.5t-101.5 -115t-74.5 -89.5l211 -252q56 -67 81.5 -79t57.5 -13v-29h-320v29q40 1 61 12.5t21 30.5q0 18 -16.5 45
t-52.5 70l-101 119q-21 -25 -72 -83.5t-69 -87t-18 -49.5q0 -50 72 -57v-29h-261v29q40 1 84 36t110 114l131 156l-128 157q-11 14 -25.5 30t-35 37.5t-25.5 27.5q-31 34 -57 50t-59 16h-4v29z" />
    <glyph glyph-name="Y" unicode="Y" horiz-adv-x="729" 
d="M8 682h298v-29h-18q-64 0 -64 -40q0 -9 5.5 -26.5t36.5 -62.5l132 -197l106 149q20 29 36 62.5t16 50.5q0 55 -77 64v29h243v-29q-36 -1 -69.5 -34t-86.5 -110l-155 -225v-170q0 -45 21 -65t71 -20h9v-29h-294v29h5q53 0 74 19.5t21 65.5v176l-184 273q-28 42 -52.5 64.5
t-73.5 25.5v29z" />
    <glyph glyph-name="Z" unicode="Z" horiz-adv-x="688" 
d="M89 682h547v-23l-482 -626h291q62 0 96 28q39 32 88 116h30l-45 -177h-575v29l476 620h-225q-34 0 -61.5 -4t-49.5 -19q-36 -24 -61 -101h-29v157z" />
    <glyph glyph-name="bracketleft" unicode="[" horiz-adv-x="344" 
d="M129 682h201v-34h-15q-63 0 -89 -13t-26 -57v-656q0 -39 21.5 -54t96.5 -15h12v-34h-201v863z" />
    <glyph glyph-name="backslash" unicode="\" horiz-adv-x="267" 
d="M224 -135l-224 829h43l224 -829h-43z" />
    <glyph glyph-name="bracketright" unicode="]" horiz-adv-x="344" 
d="M14 682h201v-863h-201v34h12q65 0 91.5 12t26.5 57v656q0 44 -26 57t-89 13h-15v34z" />
    <glyph glyph-name="asciicircum" unicode="^" horiz-adv-x="486" 
d="M24 332l209 350h19l209 -350h-51l-168 281l-167 -281h-51z" />
    <glyph glyph-name="underscore" unicode="_" horiz-adv-x="500" 
d="M-9 -75h517v-50h-517v50z" />
    <glyph glyph-name="grave" unicode="`" 
d="M240 523h-35q-7 8 -22.5 26t-47.5 53.5t-36 41.5t-4 11t3 10.5t22 5.5h21q23 0 35 -5q11 -5 19 -24z" />
    <glyph glyph-name="a" unicode="a" horiz-adv-x="469" 
d="M378 342v-237q0 -47 27 -47q18 0 36 11l9 -25q-47 -55 -85 -55q-61 0 -65 80q-35 -38 -73 -59t-73 -21q-37 0 -65.5 17t-39.5 42.5t-11 47.5q0 24 10.5 47t44.5 44q10 6 36 18.5t56 22.5l115 39v80q0 25 -14.5 45.5t-37 28.5t-43.5 8q-15 0 -35 -5.5t-34.5 -19.5
t-14.5 -29q0 -12 11.5 -31t13 -23t1.5 -6q0 -9 -29.5 -22t-36.5 -13q-8 0 -17.5 21t-9.5 42q0 38 31 67t74 39.5t77 10.5q142 0 142 -118zM194 50q26 0 54 14.5t52 40.5v136l-119 -52q-62 -27 -62 -71q0 -30 21 -49t54 -19z" />
    <glyph glyph-name="b" unicode="b" horiz-adv-x="552" 
d="M156 694v-322q44 46 82 67t82 21q33 0 67.5 -13.5t62 -44.5t45.5 -75.5t18 -94.5q0 -45 -16.5 -88.5t-48 -78.5t-77.5 -55.5t-101 -20.5q-56 0 -101.5 14.5t-90.5 44.5v554l-71 33v15zM156 338v-199q0 -32 16.5 -58.5t47.5 -44.5t70 -18q67 0 106 49t39 132
q0 89 -43.5 143t-109.5 54q-63 0 -126 -58z" />
    <glyph glyph-name="c" unicode="c" horiz-adv-x="469" 
d="M434 368q0 -20 -10.5 -31.5t-27.5 -11.5q-12 0 -23.5 7.5t-24.5 39.5q-11 29 -31 44t-55 15q-66 0 -104.5 -46.5t-38.5 -124.5q0 -32 8.5 -66t32 -67.5t59 -50t71.5 -16.5q69 0 131 62l20 -14q-32 -55 -81 -87t-102 -32q-45 0 -85 17.5t-69.5 49t-46 73.5t-16.5 89
q0 50 18 95t50.5 78t77 51t95.5 18q66 0 109 -26t43 -66z" />
    <glyph glyph-name="d" unicode="d" horiz-adv-x="563" 
d="M474 694v-597q0 -28 9.5 -43t32.5 -15q19 0 31 3v-26l-151 -26v83q-45 -45 -82.5 -64.5t-83.5 -19.5q-80 0 -135 61q-26 30 -40 70t-14 81q0 47 17.5 94t50.5 86q33 38 78.5 58.5t94.5 20.5q66 0 114 -36v178l-77 33v15zM275 48q64 0 121 61v172q0 25 -8.5 53.5
t-27.5 49.5q-39 44 -101 44t-101 -49t-39 -132q0 -88 45 -144q45 -55 111 -55z" />
    <glyph glyph-name="e" unicode="e" horiz-adv-x="458" 
d="M428 284h-321v-17q0 -46 14 -84.5t38.5 -66t58 -42t70.5 -14.5q28 0 57 9t66 46l17 -17q-73 -109 -179 -109q-44 0 -78 14.5t-61 38.5t-49 70t-22 109q0 50 15 94t42.5 76.5t65.5 50.5t82 18q75 0 128 -50.5t56 -125.5zM111 312h223q-6 56 -34.5 87.5t-72.5 31.5
q-31 0 -57.5 -19t-40.5 -47t-18 -53z" />
    <glyph glyph-name="f" unicode="f" 
d="M411 639q0 -17 -11.5 -28.5t-29.5 -11.5q-22 0 -49 26t-38 30.5t-18 4.5q-18 0 -37 -10.5t-31 -37t-12 -58.5v-104h116v-36h-116v-306q0 -47 14.5 -64.5t52.5 -17.5h35v-26h-264v26h10q42 0 58 17t16 64v307h-82v36h19q35 0 50 7.5t18 33.5q1 5 3 24t4 31.5t4 22.5
q12 55 62.5 90t121.5 35q49 0 76.5 -14.5t27.5 -40.5z" />
    <glyph glyph-name="g" unicode="g" horiz-adv-x="510" 
d="M451 426l45 2v-58q-6 -3 -32 -3q-31 0 -79 14l-2 -2q9 -11 17 -31.5t8 -49.5q0 -40 -23.5 -77.5t-66.5 -57.5t-88 -20q-41 0 -65 10q-18 -14 -30.5 -28.5t-12.5 -24.5q0 -17 24.5 -24t79.5 -7h85q76 0 118.5 -26t42.5 -77q0 -43 -33.5 -81.5t-97 -59t-133.5 -20.5
q-35 0 -79 8.5t-74 31.5t-30 55q0 24 22 52.5t62 57.5q-27 7 -42 21t-15 31q0 19 17 41t66 64q-38 18 -60.5 53.5t-22.5 77.5t23 81t66.5 60t90.5 21q14 0 32.5 -2t54.5 -12.5t63.5 -15t68.5 -4.5zM241 175q40 0 64.5 29t24.5 75q0 27 -8 62t-32.5 61t-64.5 26
q-42 0 -66.5 -30t-24.5 -83q0 -64 29 -102t78 -38zM228 -153q54 0 99 13t68.5 33t23.5 44q0 29 -26.5 42.5t-117.5 13.5q-77 0 -130 8q-58 -45 -58 -81q0 -32 40.5 -52.5t100.5 -20.5z" />
    <glyph glyph-name="h" unicode="h" horiz-adv-x="552" 
d="M163 694v-319q88 85 173 85q60 0 96 -37.5t36 -99.5v-219q0 -42 14 -60t56 -18v-26h-217v26q40 0 54.5 19t14.5 63v188q0 107 -90 107q-34 0 -70 -15.5t-67 -43.5v-235q0 -49 16 -66t58 -17v-26h-226v26q41 0 57.5 16t16.5 55v505l-70 33v15z" />
    <glyph glyph-name="i" unicode="i" horiz-adv-x="260" 
d="M185 643q0 -21 -15 -36t-36 -15t-36 15t-15 36t15 36t36 15t36 -15t15 -36zM174 460v-353q0 -54 19.5 -67.5t50.5 -13.5v-26h-226v26q46 0 62 16.5t16 67.5v259l-73 33v15z" />
    <glyph glyph-name="j" unicode="j" horiz-adv-x="250" 
d="M180 643q0 -21 -15 -36t-36 -15t-36 15t-15 36t15 36t36 15t36 -15t15 -36zM176 460v-411q0 -44 -18.5 -79.5t-121.5 -157.5l-24 22q42 63 64 115.5t22 99.5v319l-78 33v16z" />
    <glyph glyph-name="k" unicode="k" horiz-adv-x="490" 
d="M156 694v-590q0 -35 9.5 -52t27 -21.5t37.5 -4.5v-26h-219v26q37 1 52 18.5t15 51.5v506l-66 33v15zM237 450h233v-26q-24 -2 -45.5 -10t-48 -28.5t-143.5 -124.5l181 -170q30 -28 47 -42t37 -23v-26h-89q-41 31 -68 56l-181 178l102 90q20 17 31.5 31.5t11.5 28.5
q0 19 -15.5 29t-52.5 11v26z" />
    <glyph glyph-name="l" unicode="l" horiz-adv-x="250" 
d="M163 694v-585q0 -48 15 -65.5t56 -17.5v-26h-222v26q45 1 59 19t14 70v487l-73 31v17z" />
    <glyph glyph-name="m" unicode="m" horiz-adv-x="854" 
d="M172 460v-79q34 37 78 58t86 21q45 0 81 -24t46 -61q81 85 171 85q35 0 70 -17.5t49.5 -45.5t14.5 -57v-235q0 -45 15 -62t57 -17v-26h-219v26h3q37 0 51.5 19.5t14.5 59.5v189q0 106 -98 106q-30 0 -62.5 -14t-59.5 -39v-245q0 -38 14 -57t51 -19h7v-26h-224v26h6
q19 0 36 6.5t24.5 24.5t7.5 50v208q0 36 -26.5 60t-70.5 24q-23 0 -56.5 -11t-66.5 -41v-242q0 -43 14.5 -61t56.5 -18v-26h-228v26q47 0 63 17t16 71v254l-69 34v15z" />
    <glyph glyph-name="n" unicode="n" horiz-adv-x="563" 
d="M173 460v-86q86 86 173 86q60 0 96.5 -38.5t36.5 -104.5v-213q0 -45 16.5 -61.5t56.5 -16.5v-26h-229v26q46 0 62 17.5t16 65.5v202q0 27 -14 49.5t-35 31.5t-41 9q-35 0 -72 -16.5t-66 -43.5v-235q0 -38 12 -59t63 -21h5v-26h-233v26q43 0 59 17.5t16 65.5v259l-71 33
v14z" />
    <glyph glyph-name="o" unicode="o" horiz-adv-x="531" 
d="M490 228q0 -48 -17 -92t-47 -77t-71 -51.5t-87 -18.5q-48 0 -90 17.5t-72.5 49.5t-47.5 75.5t-17 92.5t17 93t48 76t72.5 49.5t87.5 17.5t87.5 -17.5t72 -49.5t47.5 -74.5t17 -90.5zM284 18q41 0 72.5 24t43.5 60t12 66q0 46 -11.5 97t-31 86.5t-41.5 53.5q-31 26 -74 26
q-36 0 -65 -16t-49.5 -52t-20.5 -95q0 -37 11 -82t28 -79q45 -89 126 -89z" />
    <glyph glyph-name="p" unicode="p" horiz-adv-x="573" 
d="M167 460v-84q78 84 165 84q81 0 136 -61.5t55 -151.5q0 -37 -13 -80t-47 -87t-82.5 -67.5t-93.5 -23.5q-30 0 -62.5 10t-57.5 27v-116q0 -34 6.5 -47.5t25 -19t57.5 -5.5v-26h-239v26q40 0 56 13t16 43v474l-72 34v14zM167 342v-170q0 -64 39.5 -107.5t99.5 -43.5
q63 0 101 50t38 131q0 92 -43.5 146.5t-113.5 54.5q-63 0 -121 -61z" />
    <glyph glyph-name="q" unicode="q" horiz-adv-x="552" 
d="M439 412v31q0 5 1 11t17 6q7 0 12 -1t5 -17v-536q0 -37 16.5 -52.5t58.5 -15.5h4v-26h-236v26q56 1 67.5 21.5t11.5 59.5v161q-78 -91 -162 -91q-30 0 -62.5 11.5t-61 38.5t-48.5 71.5t-20 104.5q0 52 18 97t50.5 78.5t77.5 51.5t96 18q42 0 82.5 -12.5t72.5 -35.5z
M272 55q25 0 53 9.5t71 47.5v197q0 23 -12.5 52t-45.5 49.5t-75 20.5q-65 0 -104 -47t-39 -132q0 -87 42 -142t110 -55z" />
    <glyph glyph-name="r" unicode="r" horiz-adv-x="375" 
d="M173 460v-115h2q29 60 58.5 85t59.5 25q26 0 51 -18.5t25 -36.5q0 -15 -11 -37t-23 -22q-11 0 -34 24t-42 24q-14 0 -30.5 -13.5t-55.5 -74.5v-198q0 -46 17 -61.5t62 -15.5h23v-26h-259v26h5q42 0 58 16t16 55v271l-79 34v14z" />
    <glyph glyph-name="s" unicode="s" horiz-adv-x="396" 
d="M319 417v-106h-26q-22 120 -102 120q-35 0 -57 -19t-22 -49q0 -21 12 -39.5t59 -41.5q2 -1 40.5 -19t53.5 -28q75 -47 75 -114q0 -57 -45 -94.5t-112 -37.5q-33 0 -71 10t-67 27v124h26q3 -28 15 -59.5t39 -52t62 -20.5q36 0 62 23.5t26 55.5q0 21 -13 40t-62 45
q-2 1 -44.5 21.5t-58.5 31.5q-65 42 -65 104q0 26 13.5 53.5t50 47.5t82.5 20q71 0 129 -43z" />
    <glyph glyph-name="t" unicode="t" horiz-adv-x="313" 
d="M144 548h25v-98h138v-36h-138v-311q0 -35 14.5 -50.5t53.5 -15.5q32 0 79 8v-31q-27 -10 -64 -17.5t-63 -7.5q-98 0 -98 99v326h-80v23q49 14 81.5 41.5t51.5 69.5z" />
    <glyph glyph-name="u" unicode="u" horiz-adv-x="563" 
d="M163 458v-311q0 -45 24.5 -70.5t71.5 -25.5q68 0 132 58v241q0 43 -18 58t-64 16v26q64 0 160 8v-366q0 -26 9 -38t32 -12l33 2v-26l-152 -28v87q-38 -41 -83.5 -64.5t-87.5 -23.5q-61 0 -98 41t-37 98v229q0 33 -16.5 48t-61.5 19v26q111 1 156 8z" />
    <glyph glyph-name="v" unicode="v" horiz-adv-x="500" 
d="M12 450h207v-26q-63 -3 -63 -38q0 -17 12 -44l110 -252l66 163q37 93 37 118q0 23 -16.5 37t-44.5 16v26h172v-26q-24 -2 -45.5 -19t-41.5 -68l-139 -349h-25l-164 378q-13 31 -26 43.5t-39 14.5v26z" />
    <glyph glyph-name="w" unicode="w" horiz-adv-x="729" 
d="M6 450h186v-26q-50 -3 -50 -40q0 -11 17 -54l96 -241l97 243q-9 28 -20 52.5t-28 31t-35 8.5v26h212v-26q-62 -4 -62 -38q0 -16 17 -61l90 -229l85 225q12 33 12 52q0 48 -56 51v26h152v-26q-23 -2 -39 -19.5t-33 -63.5l-133 -353h-26l-122 309l-123 -309h-26l-149 368
q-16 38 -26 49.5t-36 18.5v26z" />
    <glyph glyph-name="x" unicode="x" horiz-adv-x="521" 
d="M19 450h200v-26q-43 0 -43 -23q0 -3 2 -9.5t16 -24.5l80 -97l46 52q40 44 40 68q0 30 -48 34v26h172v-26q-43 -2 -87 -52l-107 -123l128 -156q34 -41 49 -51q21 -14 38 -16v-26h-215v26q49 6 49 31q0 8 -7.5 22t-40.5 54t-49 60l-62 -70q-31 -36 -31 -56q0 -36 57 -41
v-26h-183v26q40 4 110 82l93 106l-131 159q-24 30 -38.5 40t-37.5 11v26z" />
    <glyph glyph-name="y" unicode="y" horiz-adv-x="500" 
d="M12 450h212v-26q-24 -1 -42 -7.5t-18 -27.5q0 -9 5.5 -28t23.5 -58t20 -44l75 -167l64 168q33 86 33 110t-14 36.5t-47 17.5v26h165v-26q-16 -3 -33 -13.5t-30 -35.5q-3 -7 -8.5 -19.5t-27.5 -67.5l-92 -245l-46 -121q-14 -32 -34.5 -58.5t-45.5 -39t-50 -12.5
q-33 0 -55.5 15.5t-22.5 38.5q0 17 12 29.5t27 12.5q13 0 28.5 -13t24 -17t21.5 -4q28 0 50 28t45 93l-165 362q-15 30 -22.5 41.5t-17.5 16.5q-13 7 -35 9v26z" />
    <glyph glyph-name="z" unicode="z" horiz-adv-x="458" 
d="M43 343v121h8q13 0 27 -7t42 -7h290v-24l-292 -400h109q64 0 102.5 27t64.5 91h24l-24 -144h-373v23l296 401h-96q-65 0 -95 -16.5t-57 -64.5h-26z" />
    <glyph glyph-name="braceleft" unicode="{" horiz-adv-x="474" 
d="M403 705v-18q-51 -11 -80.5 -41t-29.5 -71q0 -21 10.5 -77t10.5 -80q0 -39 -20.5 -74.5t-53.5 -58.5t-64 -36q31 -13 64 -36t53.5 -58.5t20.5 -74.5q0 -20 -10.5 -77.5t-10.5 -79.5q0 -40 29 -70t81 -42v-18q-76 14 -124 66.5t-48 119.5q0 22 11 75.5t11 73.5
q0 38 -32 70.5t-84 39.5v22q52 7 84 39.5t32 70.5q0 20 -11 73.5t-11 75.5q0 66 47.5 118.5t124.5 67.5z" />
    <glyph glyph-name="bar" unicode="|" horiz-adv-x="510" 
d="M234 -250v1000h43v-1000h-43z" />
    <glyph glyph-name="braceright" unicode="}" horiz-adv-x="474" 
d="M71 687v18q77 -15 124.5 -67.5t47.5 -118.5q0 -22 -11 -75.5t-11 -73.5q0 -38 32 -70.5t84 -39.5v-22q-52 -7 -84 -39.5t-32 -70.5q0 -20 11 -73.5t11 -75.5q0 -67 -48 -119.5t-124 -66.5v18q52 12 81 42t29 70q0 22 -10.5 79.5t-10.5 77.5q0 39 20.5 74.5t53.5 58.5
t64 36q-31 13 -64 36t-53.5 58.5t-20.5 74.5q0 24 10.5 80t10.5 77q0 41 -29.5 71t-80.5 41z" />
    <glyph glyph-name="asciitilde" unicode="~" horiz-adv-x="667" 
d="M487 249q34 0 56 24.5t26 65.5h28q-3 -72 -37 -110.5t-92 -38.5q-21 0 -53 8t-97 36q-68 29 -94 36.5t-43 7.5q-68 0 -84 -88h-28q1 46 15.5 78.5t42.5 51.5t71 19q45 0 147 -45q104 -45 142 -45z" />
    <glyph glyph-name="uni00A0" unicode="&#xa0;" horiz-adv-x="270" 
 />
    <glyph glyph-name="exclamdown" unicode="&#xa1;" horiz-adv-x="271" 
d="M190 405q0 -23 -16.5 -39t-38.5 -16t-38.5 16t-16.5 39t16.5 39t38.5 16t38.5 -16t16.5 -39zM127 261h27l3.5 -49t16 -216t13.5 -208t-19 -33q-9 -3 -33 -3q-25 0 -35 5q-15 8 -15 32z" />
    <glyph glyph-name="cent" unicode="&#xa2;" horiz-adv-x="469" 
d="M300 460l66 181h29l-68 -185q51 -9 79 -32t28 -56q0 -20 -10.5 -31.5t-27.5 -11.5q-8 0 -16 3t-13.5 9t-19.5 38q-12 29 -33 44l-120 -328q43 -31 96 -31q69 0 131 62l20 -14q-32 -55 -81 -87t-102 -32q-22 0 -48 6t-45 16l-68 -186h-28l72 199q-22 14 -45.5 40.5
t-38.5 67t-16 86.5q0 36 11.5 76.5t44 81.5t82.5 62.5t102 21.5h19zM172 110l117 318q-10 3 -29 3q-28 0 -54 -11t-45.5 -32.5t-30.5 -54t-11 -73.5q0 -45 13.5 -84t39.5 -66z" />
    <glyph glyph-name="sterling" unicode="&#xa3;" horiz-adv-x="708" 
d="M684 626q0 -14 -9.5 -26.5t-24.5 -12.5q-6 0 -18.5 4t-40.5 30q-37 35 -80 35q-42 0 -74 -47q-32 -45 -92 -267l-53 -193h140l-10 -29h-138q-30 -96 -61 -154q39 14 73 14q64 0 131 -53q38 -29 59.5 -41.5t42.5 -12.5q19 0 33.5 12t14.5 27q0 14 -16 41.5t-16 44.5
q0 18 11 30t27 12q22 0 36.5 -18.5t14.5 -47.5q0 -24 -11.5 -54t-31.5 -55q-44 -53 -113 -53q-25 0 -53 11t-70 48q-35 31 -61 45t-58 14q-18 0 -34 -4q-23 -53 -49.5 -84t-48.5 -31q-16 0 -26.5 10.5t-10.5 26.5q0 27 24.5 55t65.5 47l49 170h-130l8 29h130l52 196
q48 182 119.5 265.5t174.5 83.5q25 0 54 -6.5t49.5 -23.5t20.5 -38z" />
    <glyph glyph-name="currency" unicode="&#xa4;" horiz-adv-x="667" 
d="M100 518l36 37l63 -63q58 48 135 48q37 0 74.5 -13.5t60.5 -33.5l62 62l36 -37l-62 -62q22 -26 34.5 -61.5t12.5 -72.5q0 -33 -12 -71t-35 -64l62 -62l-36 -36l-62 62q-60 -47 -135 -47q-40 0 -75 13t-60 35l-63 -63l-36 36l63 63q-47 58 -47 134q0 39 13.5 75.5
t33.5 57.5zM333 155q25 0 53.5 9t56.5 32.5t42.5 58t14.5 67.5q0 25 -8.5 52.5t-29.5 52.5t-54 43t-76 18q-25 0 -52.5 -8.5t-55.5 -32t-42.5 -58t-14.5 -67.5q0 -68 49 -117.5t117 -49.5z" />
    <glyph glyph-name="yen" unicode="&#xa5;" horiz-adv-x="729" 
d="M36 682h298v-28h-16q-36 0 -51 -9.5t-15 -31.5q0 -26 36 -82l108 -164h4l103 153q25 37 25 69q0 55 -77 64v29h243v-29q-29 0 -56.5 -22t-58.5 -66l-148 -212h217v-29h-237v-121h237v-29h-237v-63q0 -44 20.5 -63t75.5 -19h5v-29h-294v29h14q46 0 66 20t20 62v63h-242v29
h242v121h-242v29h226l-142 213q-34 51 -58 68q-23 17 -66 19v29z" />
    <glyph glyph-name="brokenbar" unicode="&#xa6;" horiz-adv-x="510" 
d="M234 325v350h43v-350h-43zM234 -175v350h43v-350h-43z" />
    <glyph glyph-name="section" unicode="&#xa7;" horiz-adv-x="406" 
d="M353 628q0 -16 -10 -25.5t-27 -9.5q-8 0 -20 4.5t-35.5 25.5t-38.5 27t-30 6q-25 0 -42.5 -16t-17.5 -40q0 -13 4.5 -28t11.5 -29t14.5 -26.5l18 -30t14.5 -24.5q11 -19 49 -81.5t60.5 -106t36.5 -82.5q28 -81 28 -157q0 -103 -55.5 -164.5t-148.5 -61.5q-22 0 -49.5 6.5
t-47 23t-19.5 36.5q0 17 13 28t31 11q8 0 20 -5t37 -27.5t40 -29t29 -6.5q23 0 38 17t15 41q0 22 -13 53.5t-60 101.5q-62 90 -95.5 151.5t-51 121t-17.5 125.5q0 50 15.5 94t43 76t65.5 49.5t81 17.5q22 0 48.5 -6t45.5 -22.5t19 -37.5zM104 599h-2q-15 -23 -24 -57t-9 -67
q0 -66 25 -141q11 -32 30.5 -73.5t60.5 -104t45 -69.5q66 -102 72 -192h2q32 57 32 132q0 95 -60 217q-17 34 -62 111.5t-56 96.5q-26 48 -40 79.5t-14 67.5z" />
    <glyph glyph-name="dieresis" unicode="&#xa8;" 
d="M109 596q0 -20 -14.5 -34.5t-34.5 -14.5t-34.5 14.5t-14.5 34.5t14.5 34.5t34.5 14.5t34.5 -14.5t14.5 -34.5zM321 596q0 -20 -14.5 -34.5t-34.5 -14.5t-34.5 14.5t-14.5 34.5t14.5 34.5t34.5 14.5t34.5 -14.5t14.5 -34.5z" />
    <glyph glyph-name="copyright" unicode="&#xa9;" horiz-adv-x="771" 
d="M732 336q0 -68 -26.5 -131.5t-74 -111.5t-111.5 -75.5t-134 -27.5q-69 0 -132.5 27t-111.5 75t-75 111.5t-27 132.5q0 68 26.5 131.5t74 111.5t111.5 75.5t134 27.5t134 -27.5t111.5 -75.5t74 -111.5t26.5 -131.5zM386 20q64 0 122.5 25t102 69t67.5 101.5t24 120.5
t-24.5 121t-68 102t-102 68.5t-122.5 24.5t-122 -25t-101.5 -69t-67.5 -101.5t-24 -120.5t24 -120.5t67.5 -101.5t102 -69t122.5 -25zM513 537q15 0 24 22h19l10 -137h-19q-36 115 -148 115q-72 0 -114 -51.5t-42 -138.5q0 -97 42.5 -149.5t118.5 -52.5q96 0 152 80l19 -10
q-33 -49 -81 -74t-107 -25q-48 0 -90.5 17t-72.5 47t-46.5 70t-16.5 83q0 47 18.5 89t52 72.5t78.5 47.5t94 17q34 0 68.5 -11t40.5 -11z" />
    <glyph glyph-name="ordfeminine" unicode="&#xaa;" horiz-adv-x="302" 
d="M243 634v-135q0 -20 3 -33t15 -13t23 7l7 -15q-14 -16 -29 -24.5t-26 -8.5q-15 0 -27 9t-15 39q-46 -48 -95 -48q-33 0 -54.5 18t-21.5 45q0 47 66 69l105 34v44q0 26 -16 39.5t-45 13.5q-21 0 -38 -10t-17 -22q0 -8 8.5 -21t8.5 -14q0 -5 -17.5 -13.5t-23.5 -8.5
q-7 0 -13.5 13t-6.5 27q0 13 12 29t42 27.5t65 11.5q45 0 67.5 -17t22.5 -43zM125 448q17 0 35.5 9t33.5 24v81l-59 -23q-32 -13 -45.5 -24t-13.5 -26q0 -18 14 -29.5t35 -11.5z" />
    <glyph glyph-name="guillemotleft" unicode="&#xab;" horiz-adv-x="354" 
d="M45 250l146 226h18l-87 -226l87 -224h-18zM194 250l101 174h17l-53 -174l53 -179h-17z" />
    <glyph glyph-name="logicalnot" unicode="&#xac;" horiz-adv-x="667" 
d="M70 406h527v-281h-53v228h-474v53z" />
    <glyph glyph-name="uni00AD" unicode="&#xad;" horiz-adv-x="375" 
d="M38 262h300v-72h-300v72z" />
    <glyph glyph-name="registered" unicode="&#xae;" horiz-adv-x="771" 
d="M732 336q0 -68 -26.5 -131.5t-74 -111.5t-111.5 -75.5t-134 -27.5t-133.5 27t-111 75t-74.5 111.5t-27 132.5t27 133t74.5 111.5t111.5 74.5t133 27q70 0 134 -27.5t111.5 -75.5t74 -111.5t26.5 -131.5zM386 20q64 0 122.5 25t102 69t67.5 101.5t24 120.5t-24.5 121
t-68 102t-102 68.5t-122.5 24.5q-47 0 -100 -16.5t-100.5 -56.5t-73 -87.5t-33.5 -86.5t-8 -69q0 -63 24 -120.5t67.5 -101.5t102 -69t122.5 -25zM194 549h191q61 0 102 -30.5t41 -79.5q0 -81 -109 -108l102 -146q15 -21 26.5 -31t32.5 -12v-16h-90l-144 198h-36v-141
q0 -17 9 -29t48 -12v-16h-179v16q23 0 37 8.5t14 38.5v299q0 22 -9.5 32.5t-35.5 10.5v18zM310 520v-175h12q61 0 94 24t33 65q0 40 -28.5 66.5t-71.5 26.5q-12 0 -39 -7z" />
    <glyph glyph-name="macron" unicode="&#xaf;" 
d="M-13 626h359v-59h-359v59z" />
    <glyph glyph-name="degree" unicode="&#xb0;" horiz-adv-x="371" 
d="M342 525q0 -39 -20.5 -77t-58.5 -59t-78 -21q-32 0 -68 15.5t-62.5 54.5t-26.5 87q0 39 20.5 77t58.5 59t78 21q32 0 68 -15.5t62.5 -54.5t26.5 -87zM185 417q21 0 46 10.5t43.5 38t18.5 59.5q0 20 -10.5 45t-37.5 44t-61 19q-21 0 -46 -11t-43 -38.5t-18 -58.5
q0 -21 10.5 -46t38 -43.5t59.5 -18.5z" />
    <glyph glyph-name="plusminus" unicode="&#xb1;" horiz-adv-x="667" 
d="M307 447v237h53v-237h237v-53h-237v-237h-53v237h-237v53h237zM70 53h527v-53h-527v53z" />
    <glyph glyph-name="uni00B2" unicode="&#xb2;" 
d="M285 592q0 -22 -13.5 -45t-43 -53t-133.5 -113v-2h129q20 0 29 8t20 37h32l-35 -89h-240v23l103 89q90 77 90 135q0 26 -22.5 43t-57.5 17q-22 0 -42 -8t-45 -29l-19 16q30 32 62.5 46.5t71.5 14.5q23 0 50 -9t45.5 -31.5t18.5 -49.5z" />
    <glyph glyph-name="uni00B3" unicode="&#xb3;" 
d="M267 607q0 -42 -57 -68v-2q34 -5 56.5 -28.5t22.5 -54.5q0 -54 -47.5 -89.5t-118.5 -35.5q-36 0 -63.5 9.5t-27.5 21.5q0 8 9.5 15.5t18.5 7.5q7 0 27 -10t34 -14.5t28 -4.5q33 0 56 24.5t23 60.5q0 62 -85 62q-26 0 -71 -5l4 23q43 2 74.5 15t43 31.5t11.5 34.5
q0 19 -19 33.5t-47 14.5q-21 0 -43 -11t-34 -23l-18 17q26 27 53 39t64 12q45 0 75.5 -21.5t30.5 -53.5z" />
    <glyph glyph-name="acute" unicode="&#xb4;" 
d="M238 655q0 -2 -1.5 -6.5t-38.5 -46t-70 -79.5h-35q5 14 26.5 70.5t25.5 62.5q6 8 15.5 11.5t53.5 3.5q12 0 18 -3.5t6 -12.5z" />
    <glyph glyph-name="mu" unicode="&#xb5;" horiz-adv-x="506" 
d="M57 456h78v-305q0 -48 24 -74.5t71 -26.5q38 0 78 20t56 45v341h78v-318q0 -52 10 -77t37 -25q16 0 30 10.5t25 56.5h25q-1 -29 -13.5 -55.5t-39.5 -43t-59 -16.5q-41 0 -63 22.5t-29 67.5q-39 -37 -81 -63.5t-92 -26.5q-27 0 -53 9.5t-53 41.5l-1 -38q0 -25 3.5 -54
t14.5 -66t11 -50q0 -20 -13 -34t-32 -14q-20 0 -33.5 13.5t-13.5 32.5q0 15 12 56t17.5 89t5.5 108v374z" />
    <glyph glyph-name="paragraph" unicode="&#xb6;" horiz-adv-x="438" 
d="M208 682h232v-18q-33 -1 -49.5 -11.5t-16.5 -67.5v-780h-29v852h-90v-852h-29v523h-11q-104 0 -160.5 44t-56.5 126q0 84 57.5 134t152.5 50z" />
    <glyph glyph-name="periodcentered" unicode="&#xb7;" horiz-adv-x="271" 
d="M191 270q0 -22 -16.5 -38.5t-38.5 -16.5q-23 0 -39 16.5t-16 38.5t16 38.5t39 16.5q22 0 38.5 -16t16.5 -39z" />
    <glyph glyph-name="cedilla" unicode="&#xb8;" 
d="M115 -70l42 76h25l-19 -38q27 -5 42.5 -21.5t15.5 -39.5q0 -37 -31 -59t-92 -22h-10v26h5q33 0 52 10.5t19 30.5q0 12 -10.5 23.5t-38.5 13.5z" />
    <glyph glyph-name="uni00B9" unicode="&#xb9;" 
d="M171 682h28v-289q0 -17 5 -26t34 -9h17v-23h-169v23h17q16 0 26.5 3.5t10.5 24.5v195q0 10 -1.5 17t-6.5 10t-12 4t-21.5 1.5t-19.5 0.5v21q54 15 92 47z" />
    <glyph glyph-name="ordmasculine" unicode="&#xba;" horiz-adv-x="344" 
d="M319 555q0 -29 -13.5 -61t-49 -57t-81.5 -25q-63 0 -105.5 40.5t-42.5 100.5q0 22 6.5 42.5t21 41t45.5 39t73 18.5q63 0 104.5 -40.5t41.5 -98.5zM185 429q35 0 59 26t24 64q0 27 -8.5 62t-25.5 60q-10 15 -28 25.5t-41 10.5q-39 0 -63 -26t-24 -71q0 -8 4 -33.5
t20 -60.5q28 -57 83 -57z" />
    <glyph glyph-name="guillemotright" unicode="&#xbb;" horiz-adv-x="354" 
d="M232 250l-87 226h18l146 -226l-146 -224h-18zM95 250l-53 174h17l101 -174l-101 -179h-17z" />
    <glyph glyph-name="onequarter" unicode="&#xbc;" horiz-adv-x="792" 
d="M397 114l192 232h39v-226h59v-39h-59v-86h-58v86h-173v33zM570 120v158l-133 -158h133zM171 682h28v-289q0 -17 5 -26t34 -9h17v-23h-169v23h17q16 0 26.5 3.5t10.5 24.5v195q0 10 -1.5 17t-6.5 10t-12 4t-21.5 1.5t-19.5 0.5v21q54 15 92 47zM114 -42l449 736h42
l-448 -736h-43z" />
    <glyph glyph-name="onehalf" unicode="&#xbd;" horiz-adv-x="792" 
d="M171 682h28v-289q0 -17 5 -26t34 -9h17v-23h-169v23h17q16 0 26.5 3.5t10.5 24.5v195q0 10 -1.5 17t-6.5 10t-12 4t-21.5 1.5t-19.5 0.5v21q54 15 92 47zM114 -42l449 736h42l-448 -736h-43zM699 257q0 -22 -13.5 -45t-43 -53t-133.5 -113v-2h129q20 0 29 8t20 37h32
l-35 -89h-240v23l103 89q90 77 90 135q0 26 -22.5 43t-57.5 17q-22 0 -42 -8t-45 -29l-19 16q30 32 62.5 46.5t71.5 14.5q23 0 50 -9t45.5 -31.5t18.5 -49.5z" />
    <glyph glyph-name="threequarters" unicode="&#xbe;" horiz-adv-x="792" 
d="M397 114l192 232h39v-226h59v-39h-59v-86h-58v86h-173v33zM570 120v158l-133 -158h133zM279 607q0 -42 -57 -68v-2q34 -5 56.5 -28.5t22.5 -54.5q0 -54 -47.5 -89.5t-118.5 -35.5q-36 0 -63.5 9.5t-27.5 21.5q0 8 9.5 15.5t18.5 7.5q7 0 27 -10t34 -14.5t28 -4.5
q33 0 56 24.5t23 60.5q0 62 -85 62q-26 0 -71 -5l4 23q43 2 74.5 15t43 31.5t11.5 34.5q0 19 -19 33.5t-47 14.5q-21 0 -43 -11t-34 -23l-18 17q26 27 53 39t64 12q45 0 75.5 -21.5t30.5 -53.5zM114 -42l449 736h42l-448 -736h-43z" />
    <glyph glyph-name="questiondown" unicode="&#xbf;" horiz-adv-x="427" 
d="M323 405q0 -22 -16 -38.5t-39 -16.5t-39 16.5t-16 38.5q0 23 16.5 39t38.5 16t38.5 -16t16.5 -39zM258 276h28l-1 -19q0 -27 6.5 -69t6.5 -53q0 -7 -9 -15.5t-35 -16.5t-31 -10q-28 -9 -53 -21q-64 -31 -64 -87q0 -42 22 -80.5t50 -59t57 -20.5q26 0 62 11.5t40 11.5
q11 0 18 -8.5t7 -23.5q0 -29 -24.5 -46.5t-65.5 -17.5q-34 0 -71.5 27.5t-74.5 77.5q-35 48 -54.5 95.5t-19.5 74.5q0 40 26.5 75.5t76.5 54.5q33 13 53 23t30 23q16 23 20 73z" />
    <glyph glyph-name="Agrave" unicode="&#xc0;" horiz-adv-x="729" 
d="M297 682h93l232 -550q17 -41 37.5 -68t61.5 -35v-29h-266v29q44 2 63.5 15t19.5 40t-18 70l-50 116h-268q-2 -6 -6 -15.5t-25.5 -67t-21.5 -83.5q0 -33 23 -53t64 -22v-29h-228v29q17 1 34 12.5t29 29.5q17 24 29 51.5t35 83.5l177 441zM329 607l-111 -294h234zM438 739
h-35q-7 8 -22.5 26t-47.5 53.5t-36 41.5t-4 11t3 10.5t22 5.5h21q23 0 35 -5q11 -5 19 -24z" />
    <glyph glyph-name="Aacute" unicode="&#xc1;" horiz-adv-x="729" 
d="M297 682h93l232 -550q17 -41 37.5 -68t61.5 -35v-29h-266v29q44 2 63.5 15t19.5 40t-18 70l-50 116h-268q-2 -6 -6 -15.5t-25.5 -67t-21.5 -83.5q0 -33 23 -53t64 -22v-29h-228v29q17 1 34 12.5t29 29.5q17 24 29 51.5t35 83.5l177 441zM329 607l-111 -294h234zM436 871
q0 -2 -1.5 -6.5t-38.5 -46t-70 -79.5h-35q5 14 26.5 70.5t25.5 62.5q6 8 15.5 11.5t53.5 3.5q12 0 18 -3.5t6 -12.5z" />
    <glyph glyph-name="Acircumflex" unicode="&#xc2;" horiz-adv-x="729" 
d="M297 682h93l232 -550q17 -41 37.5 -68t61.5 -35v-29h-266v29q44 2 63.5 15t19.5 40t-18 70l-50 116h-268q-2 -6 -6 -15.5t-25.5 -67t-21.5 -83.5q0 -33 23 -53t64 -22v-29h-228v29q17 1 34 12.5t29 29.5q17 24 29 51.5t35 83.5l177 441zM329 607l-111 -294h234zM340 886
h91l86 -148h-46l-95 93l-77 -93h-44z" />
    <glyph glyph-name="Atilde" unicode="&#xc3;" horiz-adv-x="729" 
d="M297 682h93l232 -550q17 -41 37.5 -68t61.5 -35v-29h-266v29q44 2 63.5 15t19.5 40t-18 70l-50 116h-268q-2 -6 -6 -15.5t-25.5 -67t-21.5 -83.5q0 -33 23 -53t64 -22v-29h-228v29q17 1 34 12.5t29 29.5q17 24 29 51.5t35 83.5l177 441zM329 607l-111 -294h234zM495 875
l27 -15q-8 -48 -36 -79t-57 -31q-24 0 -73.5 26t-64.5 26q-14 0 -26.5 -9t-29.5 -42l-28 12q7 47 32.5 79t60.5 32q16 0 33 -6.5t54.5 -25.5t52.5 -19q33 0 55 52z" />
    <glyph glyph-name="Adieresis" unicode="&#xc4;" horiz-adv-x="729" 
d="M297 682h93l232 -550q17 -41 37.5 -68t61.5 -35v-29h-266v29q44 2 63.5 15t19.5 40t-18 70l-50 116h-268q-2 -6 -6 -15.5t-25.5 -67t-21.5 -83.5q0 -33 23 -53t64 -22v-29h-228v29q17 1 34 12.5t29 29.5q17 24 29 51.5t35 83.5l177 441zM329 607l-111 -294h234zM307 812
q0 -20 -14.5 -34.5t-34.5 -14.5t-34.5 14.5t-14.5 34.5t14.5 34.5t34.5 14.5t34.5 -14.5t14.5 -34.5zM519 812q0 -20 -14.5 -34.5t-34.5 -14.5t-34.5 14.5t-14.5 34.5t14.5 34.5t34.5 14.5t34.5 -14.5t14.5 -34.5z" />
    <glyph glyph-name="Aring" unicode="&#xc5;" horiz-adv-x="729" 
d="M297 682h93l232 -550q17 -41 37.5 -68t61.5 -35v-29h-266v29q44 2 63.5 15t19.5 40t-18 70l-50 116h-268q-2 -6 -6 -15.5t-25.5 -67t-21.5 -83.5q0 -33 23 -53t64 -22v-29h-228v29q17 1 34 12.5t29 29.5q17 24 29 51.5t35 83.5l177 441zM329 607l-111 -294h234zM450 825
q0 -35 -25.5 -60.5t-59.5 -25.5q-16 0 -36 8.5t-35 30.5t-15 47q0 34 25.5 59.5t60.5 25.5q16 0 36 -8.5t34.5 -30t14.5 -46.5zM364 769q23 0 39.5 16.5t16.5 39.5t-16.5 39t-39.5 16t-39 -16t-16 -39t16 -39.5t39 -16.5z" />
    <glyph glyph-name="AE" unicode="&#xc6;" horiz-adv-x="990" 
d="M202 682h586l50 -148h-31q-56 71 -101.5 95t-112.5 24h-179l90 -284h174q36 0 55 15t19 43q0 9 -3 30.5t-6 30.5h30l84 -250h-29q-27 45 -51.5 67t-54 28.5t-60.5 6.5h-149l65 -210q17 -54 25 -70.5t19 -23.5t25 -7h106q58 0 96 30t80 114h33l-33 -173h-515v29h6
q35 0 53.5 17.5t18.5 45.5q0 5 -0.5 10.5t-7.5 28.5l-67 209h-218q-40 -92 -61 -154.5t-21 -86.5q0 -31 22 -49.5t63 -20.5v-29h-223v29q34 7 55.5 32t50.5 90l170 385q19 46 19 65q0 50 -72 52v29zM212 369h196l-83 250q-49 -99 -113 -250z" />
    <glyph glyph-name="Ccedilla" unicode="&#xc7;" horiz-adv-x="771" 
d="M681 648l26 -151h-33q-44 85 -100.5 124t-134.5 39q-66 0 -117.5 -25t-85.5 -68.5t-51 -100t-17 -119.5q0 -129 66 -218q79 -107 213 -107q92 0 149.5 43t84.5 131h31l-3 -146q-48 -26 -124 -44t-148 -18l-33 1l-11 -21q27 -5 42.5 -21.5t15.5 -39.5q0 -37 -31 -59
t-92 -22h-10v26h5q33 0 52 10.5t19 30.5q0 12 -10.5 23.5t-38.5 13.5l34 62q-71 8 -130.5 37.5t-101.5 75t-64.5 105t-22.5 125.5q0 60 19 114.5t52.5 97.5t85.5 78.5t115 52t115 16.5q59 0 122.5 -12.5t111.5 -33.5z" />
    <glyph glyph-name="Egrave" unicode="&#xc8;" horiz-adv-x="656" 
d="M24 682h559l6 -147h-29q-36 118 -166 118h-171v-284h138q58 0 95 25t39 83h29v-244h-29q-5 38 -20.5 60.5t-45 34.5t-75.5 12h-131v-214q0 -39 6 -58t22 -27q11 -5 32 -8.5t75 -3.5q94 0 153 31t96 101h32l-41 -161h-574v29h15q51 0 71 20t20 65v457q0 43 -20.5 62.5
t-73.5 19.5h-12v29zM402 739h-35q-7 8 -22.5 26t-47.5 53.5t-36 41.5t-4 11t3 10.5t22 5.5h21q23 0 35 -5q11 -5 19 -24z" />
    <glyph glyph-name="Eacute" unicode="&#xc9;" horiz-adv-x="656" 
d="M24 682h559l6 -147h-29q-36 118 -166 118h-171v-284h138q58 0 95 25t39 83h29v-244h-29q-5 38 -20.5 60.5t-45 34.5t-75.5 12h-131v-214q0 -39 6 -58t22 -27q11 -5 32 -8.5t75 -3.5q94 0 153 31t96 101h32l-41 -161h-574v29h15q51 0 71 20t20 65v457q0 43 -20.5 62.5
t-73.5 19.5h-12v29zM400 871q0 -2 -1.5 -6.5t-38.5 -46t-70 -79.5h-35q5 14 26.5 70.5t25.5 62.5q6 8 15.5 11.5t53.5 3.5q12 0 18 -3.5t6 -12.5z" />
    <glyph glyph-name="Ecircumflex" unicode="&#xca;" horiz-adv-x="656" 
d="M24 682h559l6 -147h-29q-36 118 -166 118h-171v-284h138q58 0 95 25t39 83h29v-244h-29q-5 38 -20.5 60.5t-45 34.5t-75.5 12h-131v-214q0 -39 6 -58t22 -27q11 -5 32 -8.5t75 -3.5q94 0 153 31t96 101h32l-41 -161h-574v29h15q51 0 71 20t20 65v457q0 43 -20.5 62.5
t-73.5 19.5h-12v29zM282 886h91l86 -148h-46l-95 93l-77 -93h-44z" />
    <glyph glyph-name="Edieresis" unicode="&#xcb;" horiz-adv-x="656" 
d="M24 682h559l6 -147h-29q-36 118 -166 118h-171v-284h138q58 0 95 25t39 83h29v-244h-29q-5 38 -20.5 60.5t-45 34.5t-75.5 12h-131v-214q0 -39 6 -58t22 -27q11 -5 32 -8.5t75 -3.5q94 0 153 31t96 101h32l-41 -161h-574v29h15q51 0 71 20t20 65v457q0 43 -20.5 62.5
t-73.5 19.5h-12v29zM286 812q0 -20 -14.5 -34.5t-34.5 -14.5t-34.5 14.5t-14.5 34.5t14.5 34.5t34.5 14.5t34.5 -14.5t14.5 -34.5zM498 812q0 -20 -14.5 -34.5t-34.5 -14.5t-34.5 14.5t-14.5 34.5t14.5 34.5t34.5 14.5t34.5 -14.5t14.5 -34.5z" />
    <glyph glyph-name="Igrave" unicode="&#xcc;" horiz-adv-x="354" 
d="M22 682h310v-29h-17q-49 0 -70 -19.5t-21 -59.5v-462q0 -44 20.5 -63.5t68.5 -19.5h19v-29h-310v29h13q52 0 74 18t22 62v466q0 44 -22 61t-76 17h-11v29zM251 739h-35q-7 8 -22.5 26t-47.5 53.5t-36 41.5t-4 11t3 10.5t22 5.5h21q23 0 35 -5q11 -5 19 -24z" />
    <glyph glyph-name="Iacute" unicode="&#xcd;" horiz-adv-x="354" 
d="M22 682h310v-29h-17q-49 0 -70 -19.5t-21 -59.5v-462q0 -44 20.5 -63.5t68.5 -19.5h19v-29h-310v29h13q52 0 74 18t22 62v466q0 44 -22 61t-76 17h-11v29zM249 871q0 -2 -1.5 -6.5t-38.5 -46t-70 -79.5h-35q5 14 26.5 70.5t25.5 62.5q6 8 15.5 11.5t53.5 3.5
q12 0 18 -3.5t6 -12.5z" />
    <glyph glyph-name="Icircumflex" unicode="&#xce;" horiz-adv-x="354" 
d="M22 682h310v-29h-17q-49 0 -70 -19.5t-21 -59.5v-462q0 -44 20.5 -63.5t68.5 -19.5h19v-29h-310v29h13q52 0 74 18t22 62v466q0 44 -22 61t-76 17h-11v29zM131 886h91l86 -148h-46l-95 93l-77 -93h-44z" />
    <glyph glyph-name="Idieresis" unicode="&#xcf;" horiz-adv-x="354" 
d="M22 682h310v-29h-17q-49 0 -70 -19.5t-21 -59.5v-462q0 -44 20.5 -63.5t68.5 -19.5h19v-29h-310v29h13q52 0 74 18t22 62v466q0 44 -22 61t-76 17h-11v29zM120 812q0 -20 -14.5 -34.5t-34.5 -14.5t-34.5 14.5t-14.5 34.5t14.5 34.5t34.5 14.5t34.5 -14.5t14.5 -34.5z
M332 812q0 -20 -14.5 -34.5t-34.5 -14.5t-34.5 14.5t-14.5 34.5t14.5 34.5t34.5 14.5t34.5 -14.5t14.5 -34.5z" />
    <glyph glyph-name="Eth" unicode="&#xd0;" horiz-adv-x="844" 
d="M27 682h385q82 0 151.5 -25t119 -70t76 -106.5t26.5 -130.5q0 -142 -95 -246q-23 -25 -62 -50.5t-101.5 -39.5t-150.5 -14h-349v29h11q58 0 79.5 18.5t21.5 66.5v213h-110v29h110v212q0 48 -22.5 66.5t-72.5 18.5h-17v29zM232 356h209v-29h-209v-189q0 -37 11 -60.5
t40 -36t82 -12.5q92 0 158 24.5t109 87.5q23 34 35.5 82.5t12.5 98.5q0 75 -23.5 137t-68 105t-106.5 66t-136 23h-114v-297z" />
    <glyph glyph-name="Ntilde" unicode="&#xd1;" horiz-adv-x="844" 
d="M9 682h148l522 -537v390q0 26 -9.5 54t-37.5 46t-74 18v29h267v-29q-59 -3 -83.5 -37t-24.5 -113v-394q0 -20 8 -64q7 -38 7 -54h-53q-29 47 -78 97l-419 436v-386q0 -49 31 -77.5t92 -31.5v-29h-280v29h12q23 0 48.5 10.5t42 37.5t16.5 61v422q-43 45 -66 66
q-13 12 -31.5 19t-37.5 8v29zM553 875l27 -15q-8 -48 -36 -79t-57 -31q-24 0 -73.5 26t-64.5 26q-14 0 -26.5 -9t-29.5 -42l-28 12q7 47 32.5 79t60.5 32q16 0 33 -6.5t54.5 -25.5t52.5 -19q33 0 55 52z" />
    <glyph glyph-name="Ograve" unicode="&#xd2;" horiz-adv-x="813" 
d="M754 340q0 -46 -14.5 -102t-47 -103.5t-73.5 -79t-96 -49.5t-119 -18q-71 0 -135 25.5t-111 72t-73 112t-26 141.5q0 74 26 139.5t73.5 113.5t112 75t138.5 27q78 0 143 -29t110 -79t68.5 -114t23.5 -132zM417 22q49 0 92 19t74.5 54.5t48.5 87.5t17 115q0 78 -19 145
t-53.5 115.5t-82.5 75t-103 26.5q-40 0 -74.5 -14t-61 -36t-47 -54.5t-32.5 -77t-12 -97.5q0 -70 18 -135.5t51 -116t80.5 -79t103.5 -28.5zM480 739h-35q-7 8 -22.5 26t-47.5 53.5t-36 41.5t-4 11t3 10.5t22 5.5h21q23 0 35 -5q11 -5 19 -24z" />
    <glyph glyph-name="Oacute" unicode="&#xd3;" horiz-adv-x="813" 
d="M754 340q0 -46 -14.5 -102t-47 -103.5t-73.5 -79t-96 -49.5t-119 -18q-71 0 -135 25.5t-111 72t-73 112t-26 141.5q0 74 26 139.5t73.5 113.5t112 75t138.5 27q78 0 143 -29t110 -79t68.5 -114t23.5 -132zM417 22q49 0 92 19t74.5 54.5t48.5 87.5t17 115q0 78 -19 145
t-53.5 115.5t-82.5 75t-103 26.5q-40 0 -74.5 -14t-61 -36t-47 -54.5t-32.5 -77t-12 -97.5q0 -70 18 -135.5t51 -116t80.5 -79t103.5 -28.5zM478 871q0 -2 -1.5 -6.5t-38.5 -46t-70 -79.5h-35q5 14 26.5 70.5t25.5 62.5q6 8 15.5 11.5t53.5 3.5q12 0 18 -3.5t6 -12.5z" />
    <glyph glyph-name="Ocircumflex" unicode="&#xd4;" horiz-adv-x="813" 
d="M754 340q0 -46 -14.5 -102t-47 -103.5t-73.5 -79t-96 -49.5t-119 -18q-71 0 -135 25.5t-111 72t-73 112t-26 141.5q0 74 26 139.5t73.5 113.5t112 75t138.5 27q78 0 143 -29t110 -79t68.5 -114t23.5 -132zM417 22q49 0 92 19t74.5 54.5t48.5 87.5t17 115q0 78 -19 145
t-53.5 115.5t-82.5 75t-103 26.5q-40 0 -74.5 -14t-61 -36t-47 -54.5t-32.5 -77t-12 -97.5q0 -70 18 -135.5t51 -116t80.5 -79t103.5 -28.5zM360 886h91l86 -148h-46l-95 93l-77 -93h-44z" />
    <glyph glyph-name="Otilde" unicode="&#xd5;" horiz-adv-x="813" 
d="M754 340q0 -46 -14.5 -102t-47 -103.5t-73.5 -79t-96 -49.5t-119 -18q-71 0 -135 25.5t-111 72t-73 112t-26 141.5q0 74 26 139.5t73.5 113.5t112 75t138.5 27q78 0 143 -29t110 -79t68.5 -114t23.5 -132zM417 22q49 0 92 19t74.5 54.5t48.5 87.5t17 115q0 78 -19 145
t-53.5 115.5t-82.5 75t-103 26.5q-40 0 -74.5 -14t-61 -36t-47 -54.5t-32.5 -77t-12 -97.5q0 -70 18 -135.5t51 -116t80.5 -79t103.5 -28.5zM537 875l27 -15q-8 -48 -36 -79t-57 -31q-24 0 -73.5 26t-64.5 26q-14 0 -26.5 -9t-29.5 -42l-28 12q7 47 32.5 79t60.5 32
q16 0 33 -6.5t54.5 -25.5t52.5 -19q33 0 55 52z" />
    <glyph glyph-name="Odieresis" unicode="&#xd6;" horiz-adv-x="813" 
d="M754 340q0 -46 -14.5 -102t-47 -103.5t-73.5 -79t-96 -49.5t-119 -18q-71 0 -135 25.5t-111 72t-73 112t-26 141.5q0 74 26 139.5t73.5 113.5t112 75t138.5 27q78 0 143 -29t110 -79t68.5 -114t23.5 -132zM417 22q49 0 92 19t74.5 54.5t48.5 87.5t17 115q0 78 -19 145
t-53.5 115.5t-82.5 75t-103 26.5q-40 0 -74.5 -14t-61 -36t-47 -54.5t-32.5 -77t-12 -97.5q0 -70 18 -135.5t51 -116t80.5 -79t103.5 -28.5zM349 812q0 -20 -14.5 -34.5t-34.5 -14.5t-34.5 14.5t-14.5 34.5t14.5 34.5t34.5 14.5t34.5 -14.5t14.5 -34.5zM561 812
q0 -20 -14.5 -34.5t-34.5 -14.5t-34.5 14.5t-14.5 34.5t14.5 34.5t34.5 14.5t34.5 -14.5t14.5 -34.5z" />
    <glyph glyph-name="multiply" unicode="&#xd7;" horiz-adv-x="668" 
d="M334 300l203 203l37 -37l-203 -203l203 -203l-37 -37l-203 203l-202 -202l-37 37l202 202l-202 202l37 37z" />
    <glyph glyph-name="Oslash" unicode="&#xd8;" horiz-adv-x="813" 
d="M632 616l73 82l23 -20l-74 -83q52 -56 76 -123t24 -132q0 -61 -18.5 -115t-46.5 -95t-69 -73t-96.5 -50.5t-119.5 -18.5t-123 21t-101 56l-71 -79l-22 19l71 80q-99 102 -99 254q0 75 26.5 140.5t74 113.5t112 74.5t137.5 26.5q65 0 118.5 -19t104.5 -59zM219 153
l360 403q-34 49 -82 76.5t-106 27.5q-39 0 -79 -16t-73.5 -49.5t-54 -88t-20.5 -125.5q0 -63 15 -123t40 -105zM595 529l-361 -403q77 -104 183 -104q49 0 91.5 18.5t74 54t49 87.5t17.5 116q0 63 -15 128.5t-39 102.5z" />
    <glyph glyph-name="Ugrave" unicode="&#xd9;" horiz-adv-x="802" 
d="M11 682h309v-29h-18q-50 0 -72.5 -17t-22.5 -60v-353q0 -62 28 -105t74 -65t110 -22q115 0 173.5 67.5t58.5 187.5v238q0 35 -7.5 63t-30.5 46.5t-77 19.5v29h253v-29q-47 -5 -69 -21.5t-28 -43t-6 -56.5v-259q0 -139 -71.5 -212t-214.5 -73q-68 0 -122.5 17t-90.5 47
t-54.5 71t-18.5 87v356q0 52 -22 69.5t-72 17.5h-9v29zM475 739h-35q-7 8 -22.5 26t-47.5 53.5t-36 41.5t-4 11t3 10.5t22 5.5h21q23 0 35 -5q11 -5 19 -24z" />
    <glyph glyph-name="Uacute" unicode="&#xda;" horiz-adv-x="802" 
d="M11 682h309v-29h-18q-50 0 -72.5 -17t-22.5 -60v-353q0 -62 28 -105t74 -65t110 -22q115 0 173.5 67.5t58.5 187.5v238q0 35 -7.5 63t-30.5 46.5t-77 19.5v29h253v-29q-47 -5 -69 -21.5t-28 -43t-6 -56.5v-259q0 -139 -71.5 -212t-214.5 -73q-68 0 -122.5 17t-90.5 47
t-54.5 71t-18.5 87v356q0 52 -22 69.5t-72 17.5h-9v29zM473 871q0 -2 -1.5 -6.5t-38.5 -46t-70 -79.5h-35q5 14 26.5 70.5t25.5 62.5q6 8 15.5 11.5t53.5 3.5q12 0 18 -3.5t6 -12.5z" />
    <glyph glyph-name="Ucircumflex" unicode="&#xdb;" horiz-adv-x="802" 
d="M11 682h309v-29h-18q-50 0 -72.5 -17t-22.5 -60v-353q0 -62 28 -105t74 -65t110 -22q115 0 173.5 67.5t58.5 187.5v238q0 35 -7.5 63t-30.5 46.5t-77 19.5v29h253v-29q-47 -5 -69 -21.5t-28 -43t-6 -56.5v-259q0 -139 -71.5 -212t-214.5 -73q-68 0 -122.5 17t-90.5 47
t-54.5 71t-18.5 87v356q0 52 -22 69.5t-72 17.5h-9v29zM355 886h91l86 -148h-46l-95 93l-77 -93h-44z" />
    <glyph glyph-name="Udieresis" unicode="&#xdc;" horiz-adv-x="802" 
d="M11 682h309v-29h-18q-50 0 -72.5 -17t-22.5 -60v-353q0 -62 28 -105t74 -65t110 -22q115 0 173.5 67.5t58.5 187.5v238q0 35 -7.5 63t-30.5 46.5t-77 19.5v29h253v-29q-47 -5 -69 -21.5t-28 -43t-6 -56.5v-259q0 -139 -71.5 -212t-214.5 -73q-68 0 -122.5 17t-90.5 47
t-54.5 71t-18.5 87v356q0 52 -22 69.5t-72 17.5h-9v29zM344 812q0 -20 -14.5 -34.5t-34.5 -14.5t-34.5 14.5t-14.5 34.5t14.5 34.5t34.5 14.5t34.5 -14.5t14.5 -34.5zM556 812q0 -20 -14.5 -34.5t-34.5 -14.5t-34.5 14.5t-14.5 34.5t14.5 34.5t34.5 14.5t34.5 -14.5
t14.5 -34.5z" />
    <glyph glyph-name="Yacute" unicode="&#xdd;" horiz-adv-x="729" 
d="M8 682h298v-29h-18q-64 0 -64 -40q0 -9 5.5 -26.5t36.5 -62.5l132 -197l106 149q20 29 36 62.5t16 50.5q0 55 -77 64v29h243v-29q-36 -1 -69.5 -34t-86.5 -110l-155 -225v-170q0 -45 21 -65t71 -20h9v-29h-294v29h5q53 0 74 19.5t21 65.5v176l-184 273q-28 42 -52.5 64.5
t-73.5 25.5v29zM436 871q0 -2 -1.5 -6.5t-38.5 -46t-70 -79.5h-35q5 14 26.5 70.5t25.5 62.5q6 8 15.5 11.5t53.5 3.5q12 0 18 -3.5t6 -12.5z" />
    <glyph glyph-name="Thorn" unicode="&#xde;" horiz-adv-x="625" 
d="M22 682h303v-29h-8q-52 0 -73.5 -18t-21.5 -69v-24h76q54 0 83 -2t55 -8q75 -18 115.5 -60.5t40.5 -106.5q0 -39 -17 -74.5t-48 -62t-73.5 -41t-91.5 -14.5q-34 0 -57.5 4.5t-23.5 19.5q0 7 6.5 12.5t16.5 5.5l37 -2q26 0 60 11.5t58.5 44t24.5 81.5q0 46 -19.5 82
t-57.5 58.5t-90 22.5h-95v-401q0 -45 20.5 -64t71.5 -19h19v-29h-307v29h12q29 0 50.5 7t31 26t9.5 53v455q0 45 -21 64t-71 19h-15v29z" />
    <glyph glyph-name="germandbls" unicode="&#xdf;" horiz-adv-x="563" 
d="M484 550q0 -50 -39 -90t-99 -51v-2q79 -15 125 -72.5t46 -136.5q0 -30 -9 -64.5t-32 -69.5t-55.5 -53.5t-62.5 -18.5q-36 0 -63 19.5t-27 45.5q0 18 11.5 30t27.5 12q9 0 18 -4.5t13 -28t10 -31.5t15 -9.5t13 -1.5q13 0 28.5 11t26.5 41.5t11 69.5q0 46 -13 88t-36 75
t-55 53t-69 24v28q64 10 99 44t35 87q0 23 -11 50t-39.5 47t-62.5 20q-28 0 -56 -12t-47.5 -46t-19.5 -78v-422q0 -26 6 -43.5t21 -25.5t32 -9v-26h-207v26h3q37 0 52 17t15 51v320h-69v18q0 8 4.5 13t19 8t19.5 5q9 4 14 9.5t10 20t8 26.5t4 17q18 75 55 109q29 26 63 40
t82 14q80 0 132.5 -41.5t52.5 -102.5z" />
    <glyph glyph-name="agrave" unicode="&#xe0;" horiz-adv-x="469" 
d="M378 342v-237q0 -47 27 -47q18 0 36 11l9 -25q-47 -55 -85 -55q-61 0 -65 80q-35 -38 -73 -59t-73 -21q-37 0 -65.5 17t-39.5 42.5t-11 47.5q0 24 10.5 47t44.5 44q10 6 36 18.5t56 22.5l115 39v80q0 25 -14.5 45.5t-37 28.5t-43.5 8q-15 0 -35 -5.5t-34.5 -19.5
t-14.5 -29q0 -12 11.5 -31t13 -23t1.5 -6q0 -9 -29.5 -22t-36.5 -13q-8 0 -17.5 21t-9.5 42q0 38 31 67t74 39.5t77 10.5q142 0 142 -118zM194 50q26 0 54 14.5t52 40.5v136l-119 -52q-62 -27 -62 -71q0 -30 21 -49t54 -19zM308 523h-35q-7 8 -22.5 26t-47.5 53.5t-36 41.5
t-4 11t3 10.5t22 5.5h21q23 0 35 -5q11 -5 19 -24z" />
    <glyph glyph-name="aacute" unicode="&#xe1;" horiz-adv-x="469" 
d="M378 342v-237q0 -47 27 -47q18 0 36 11l9 -25q-47 -55 -85 -55q-61 0 -65 80q-35 -38 -73 -59t-73 -21q-37 0 -65.5 17t-39.5 42.5t-11 47.5q0 24 10.5 47t44.5 44q10 6 36 18.5t56 22.5l115 39v80q0 25 -14.5 45.5t-37 28.5t-43.5 8q-15 0 -35 -5.5t-34.5 -19.5
t-14.5 -29q0 -12 11.5 -31t13 -23t1.5 -6q0 -9 -29.5 -22t-36.5 -13q-8 0 -17.5 21t-9.5 42q0 38 31 67t74 39.5t77 10.5q142 0 142 -118zM194 50q26 0 54 14.5t52 40.5v136l-119 -52q-62 -27 -62 -71q0 -30 21 -49t54 -19zM306 655q0 -2 -1.5 -6.5t-38.5 -46t-70 -79.5h-35
q5 14 26.5 70.5t25.5 62.5q6 8 15.5 11.5t53.5 3.5q12 0 18 -3.5t6 -12.5z" />
    <glyph glyph-name="acircumflex" unicode="&#xe2;" horiz-adv-x="469" 
d="M378 342v-237q0 -47 27 -47q18 0 36 11l9 -25q-47 -55 -85 -55q-61 0 -65 80q-35 -38 -73 -59t-73 -21q-37 0 -65.5 17t-39.5 42.5t-11 47.5q0 24 10.5 47t44.5 44q10 6 36 18.5t56 22.5l115 39v80q0 25 -14.5 45.5t-37 28.5t-43.5 8q-15 0 -35 -5.5t-34.5 -19.5
t-14.5 -29q0 -12 11.5 -31t13 -23t1.5 -6q0 -9 -29.5 -22t-36.5 -13q-8 0 -17.5 21t-9.5 42q0 38 31 67t74 39.5t77 10.5q142 0 142 -118zM194 50q26 0 54 14.5t52 40.5v136l-119 -52q-62 -27 -62 -71q0 -30 21 -49t54 -19zM188 670h91l86 -148h-46l-95 93l-77 -93h-44z" />
    <glyph glyph-name="atilde" unicode="&#xe3;" horiz-adv-x="469" 
d="M378 342v-237q0 -47 27 -47q18 0 36 11l9 -25q-47 -55 -85 -55q-61 0 -65 80q-35 -38 -73 -59t-73 -21q-37 0 -65.5 17t-39.5 42.5t-11 47.5q0 24 10.5 47t44.5 44q10 6 36 18.5t56 22.5l115 39v80q0 25 -14.5 45.5t-37 28.5t-43.5 8q-15 0 -35 -5.5t-34.5 -19.5
t-14.5 -29q0 -12 11.5 -31t13 -23t1.5 -6q0 -9 -29.5 -22t-36.5 -13q-8 0 -17.5 21t-9.5 42q0 38 31 67t74 39.5t77 10.5q142 0 142 -118zM194 50q26 0 54 14.5t52 40.5v136l-119 -52q-62 -27 -62 -71q0 -30 21 -49t54 -19zM365 659l27 -15q-8 -48 -36 -79t-57 -31
q-24 0 -73.5 26t-64.5 26q-14 0 -26.5 -9t-29.5 -42l-28 12q7 47 32.5 79t60.5 32q16 0 33 -6.5t54.5 -25.5t52.5 -19q33 0 55 52z" />
    <glyph glyph-name="adieresis" unicode="&#xe4;" horiz-adv-x="469" 
d="M378 342v-237q0 -47 27 -47q18 0 36 11l9 -25q-47 -55 -85 -55q-61 0 -65 80q-35 -38 -73 -59t-73 -21q-37 0 -65.5 17t-39.5 42.5t-11 47.5q0 24 10.5 47t44.5 44q10 6 36 18.5t56 22.5l115 39v80q0 25 -14.5 45.5t-37 28.5t-43.5 8q-15 0 -35 -5.5t-34.5 -19.5
t-14.5 -29q0 -12 11.5 -31t13 -23t1.5 -6q0 -9 -29.5 -22t-36.5 -13q-8 0 -17.5 21t-9.5 42q0 38 31 67t74 39.5t77 10.5q142 0 142 -118zM194 50q26 0 54 14.5t52 40.5v136l-119 -52q-62 -27 -62 -71q0 -30 21 -49t54 -19zM177 596q0 -20 -14.5 -34.5t-34.5 -14.5
t-34.5 14.5t-14.5 34.5t14.5 34.5t34.5 14.5t34.5 -14.5t14.5 -34.5zM389 596q0 -20 -14.5 -34.5t-34.5 -14.5t-34.5 14.5t-14.5 34.5t14.5 34.5t34.5 14.5t34.5 -14.5t14.5 -34.5z" />
    <glyph glyph-name="aring" unicode="&#xe5;" horiz-adv-x="469" 
d="M378 342v-237q0 -47 27 -47q18 0 36 11l9 -25q-47 -55 -85 -55q-61 0 -65 80q-35 -38 -73 -59t-73 -21q-37 0 -65.5 17t-39.5 42.5t-11 47.5q0 24 10.5 47t44.5 44q10 6 36 18.5t56 22.5l115 39v80q0 25 -14.5 45.5t-37 28.5t-43.5 8q-15 0 -35 -5.5t-34.5 -19.5
t-14.5 -29q0 -12 11.5 -31t13 -23t1.5 -6q0 -9 -29.5 -22t-36.5 -13q-8 0 -17.5 21t-9.5 42q0 38 31 67t74 39.5t77 10.5q142 0 142 -118zM194 50q26 0 54 14.5t52 40.5v136l-119 -52q-62 -27 -62 -71q0 -30 21 -49t54 -19zM320 609q0 -35 -25.5 -60.5t-59.5 -25.5
q-16 0 -36 8.5t-35 30.5t-15 47q0 34 25.5 59.5t60.5 25.5q16 0 36 -8.5t34.5 -30t14.5 -46.5zM234 553q23 0 39.5 16.5t16.5 39.5t-16.5 39t-39.5 16t-39 -16t-16 -39t16 -39.5t39 -16.5z" />
    <glyph glyph-name="ae" unicode="&#xe6;" horiz-adv-x="698" 
d="M369 396q52 64 125 64q65 0 105.5 -39.5t53.5 -115.5l-275 -61v-15q0 -94 32 -127q18 -20 45 -31t57 -11q75 0 135 67l17 -16q-29 -56 -79 -89t-105 -33q-48 0 -91 23.5t-74 69.5q-39 -44 -82.5 -68.5t-84.5 -24.5q-22 0 -47.5 10t-44 36.5t-18.5 60.5q0 60 66 98.5
t196 63.5v75q0 42 -23 68.5t-64 26.5q-20 0 -42.5 -9t-32.5 -21.5t-10 -23.5q0 -16 12 -33.5t12 -22.5t-9 -12.5t-27 -15.5t-26 -8q-11 0 -23 25t-12 42q0 15 10.5 33t35 35t64 30t88.5 13q40 0 67.5 -15t48.5 -49zM379 273l186 43q-5 37 -21 64t-36.5 36.5t-38.5 9.5
q-40 0 -65 -32t-25 -94v-27zM190 47q21 0 46.5 10t63.5 48v127q-105 -25 -143 -52t-38 -64q0 -30 19.5 -49.5t51.5 -19.5z" />
    <glyph glyph-name="ccedilla" unicode="&#xe7;" horiz-adv-x="469" 
d="M434 368q0 -20 -10.5 -31.5t-27.5 -11.5q-14 0 -24.5 8t-24.5 42q-12 28 -31.5 42t-53.5 14q-65 0 -104 -46.5t-39 -124.5q0 -32 8.5 -66t32 -67.5t59 -50t71.5 -16.5q69 0 131 62l20 -14q-32 -55 -80.5 -87t-105.5 -32q-13 0 -20 2l-12 -23q27 -5 42.5 -21.5t15.5 -39.5
q0 -37 -31 -59t-92 -22h-10v26h5q33 0 52 10.5t19 30.5q0 12 -10.5 23.5t-38.5 13.5l36 64q-48 11 -85 40.5t-61 76.5t-24 107q0 50 18 95t50.5 78t77 51t95.5 18q65 0 108.5 -26t43.5 -66z" />
    <glyph glyph-name="egrave" unicode="&#xe8;" horiz-adv-x="458" 
d="M428 284h-321v-17q0 -46 14 -84.5t38.5 -66t58 -42t70.5 -14.5q28 0 57 9t66 46l17 -17q-73 -109 -179 -109q-44 0 -78 14.5t-61 38.5t-49 70t-22 109q0 50 15 94t42.5 76.5t65.5 50.5t82 18q75 0 128 -50.5t56 -125.5zM111 312h223q-6 56 -34.5 87.5t-72.5 31.5
q-31 0 -57.5 -19t-40.5 -47t-18 -53zM303 523h-35q-7 8 -22.5 26t-47.5 53.5t-36 41.5t-4 11t3 10.5t22 5.5h21q23 0 35 -5q11 -5 19 -24z" />
    <glyph glyph-name="eacute" unicode="&#xe9;" horiz-adv-x="458" 
d="M428 284h-321v-17q0 -46 14 -84.5t38.5 -66t58 -42t70.5 -14.5q28 0 57 9t66 46l17 -17q-73 -109 -179 -109q-44 0 -78 14.5t-61 38.5t-49 70t-22 109q0 50 15 94t42.5 76.5t65.5 50.5t82 18q75 0 128 -50.5t56 -125.5zM111 312h223q-6 56 -34.5 87.5t-72.5 31.5
q-31 0 -57.5 -19t-40.5 -47t-18 -53zM301 655q0 -2 -1.5 -6.5t-38.5 -46t-70 -79.5h-35q5 14 26.5 70.5t25.5 62.5q6 8 15.5 11.5t53.5 3.5q12 0 18 -3.5t6 -12.5z" />
    <glyph glyph-name="ecircumflex" unicode="&#xea;" horiz-adv-x="458" 
d="M428 284h-321v-17q0 -46 14 -84.5t38.5 -66t58 -42t70.5 -14.5q28 0 57 9t66 46l17 -17q-73 -109 -179 -109q-44 0 -78 14.5t-61 38.5t-49 70t-22 109q0 50 15 94t42.5 76.5t65.5 50.5t82 18q75 0 128 -50.5t56 -125.5zM111 312h223q-6 56 -34.5 87.5t-72.5 31.5
q-31 0 -57.5 -19t-40.5 -47t-18 -53zM183 670h91l86 -148h-46l-95 93l-77 -93h-44z" />
    <glyph glyph-name="edieresis" unicode="&#xeb;" horiz-adv-x="458" 
d="M428 284h-321v-17q0 -46 14 -84.5t38.5 -66t58 -42t70.5 -14.5q28 0 57 9t66 46l17 -17q-73 -109 -179 -109q-44 0 -78 14.5t-61 38.5t-49 70t-22 109q0 50 15 94t42.5 76.5t65.5 50.5t82 18q75 0 128 -50.5t56 -125.5zM111 312h223q-6 56 -34.5 87.5t-72.5 31.5
q-31 0 -57.5 -19t-40.5 -47t-18 -53zM172 596q0 -20 -14.5 -34.5t-34.5 -14.5t-34.5 14.5t-14.5 34.5t14.5 34.5t34.5 14.5t34.5 -14.5t14.5 -34.5zM384 596q0 -20 -14.5 -34.5t-34.5 -14.5t-34.5 14.5t-14.5 34.5t14.5 34.5t34.5 14.5t34.5 -14.5t14.5 -34.5z" />
    <glyph glyph-name="igrave" unicode="&#xec;" horiz-adv-x="260" 
d="M174 460v-352q0 -55 19.5 -68.5t50.5 -13.5v-26h-226v26q46 0 62 16.5t16 67.5v259l-73 33v15zM204 523h-35q-7 8 -22.5 26t-47.5 53.5t-36 41.5t-4 11t3 10.5t22 5.5h21q23 0 35 -5q11 -5 19 -24z" />
    <glyph glyph-name="iacute" unicode="&#xed;" horiz-adv-x="260" 
d="M174 460v-352q0 -55 19.5 -68.5t50.5 -13.5v-26h-226v26q46 0 62 16.5t16 67.5v259l-73 33v15zM202 655q0 -2 -1.5 -6.5t-38.5 -46t-70 -79.5h-35q5 14 26.5 70.5t25.5 62.5q6 8 15.5 11.5t53.5 3.5q12 0 18 -3.5t6 -12.5z" />
    <glyph glyph-name="icircumflex" unicode="&#xee;" horiz-adv-x="260" 
d="M174 460v-352q0 -55 19.5 -68.5t50.5 -13.5v-26h-226v26q46 0 62 16.5t16 67.5v259l-73 33v15zM84 670h91l86 -148h-46l-95 93l-77 -93h-44z" />
    <glyph glyph-name="idieresis" unicode="&#xef;" horiz-adv-x="260" 
d="M174 460v-352q0 -55 19.5 -68.5t50.5 -13.5v-26h-226v26q46 0 62 16.5t16 67.5v259l-73 33v15zM73 596q0 -20 -14.5 -34.5t-34.5 -14.5t-34.5 14.5t-14.5 34.5t14.5 34.5t34.5 14.5t34.5 -14.5t14.5 -34.5zM285 596q0 -20 -14.5 -34.5t-34.5 -14.5t-34.5 14.5t-14.5 34.5
t14.5 34.5t34.5 14.5t34.5 -14.5t14.5 -34.5z" />
    <glyph glyph-name="eth" unicode="&#xf0;" horiz-adv-x="521" 
d="M164 665l35 25q53 -26 97 -62l94 62l16 -22l-88 -59q78 -72 123 -174q43 -98 43 -194q0 -119 -68 -187q-31 -31 -73 -48t-82 -17q-93 0 -159 69q-32 33 -48.5 77t-16.5 90q0 44 16.5 87.5t47.5 77.5t71.5 52t81.5 18q13 0 33 -3t56 -27l2 2q-37 87 -82 140l-99 -65
l-16 22l96 64q-40 43 -80 72zM278 18q59 0 93.5 45.5t34.5 120.5q0 35 -10.5 81t-29.5 83q-21 40 -52 61.5t-68 21.5q-58 0 -94.5 -42.5t-36.5 -113.5q0 -98 44 -178q45 -79 119 -79z" />
    <glyph glyph-name="ntilde" unicode="&#xf1;" horiz-adv-x="563" 
d="M173 460v-86q86 86 173 86q60 0 96.5 -38.5t36.5 -104.5v-213q0 -45 16.5 -61.5t56.5 -16.5v-26h-229v26q46 0 62 17.5t16 65.5v202q0 27 -14 49.5t-35 31.5t-41 9q-35 0 -72 -16.5t-66 -43.5v-235q0 -38 12 -59t63 -21h5v-26h-233v26q43 0 59 17.5t16 65.5v259l-71 33
v14zM412 659l27 -15q-8 -48 -36 -79t-57 -31q-24 0 -73.5 26t-64.5 26q-14 0 -26.5 -9t-29.5 -42l-28 12q7 47 32.5 79t60.5 32q16 0 33 -6.5t54.5 -25.5t52.5 -19q33 0 55 52z" />
    <glyph glyph-name="ograve" unicode="&#xf2;" horiz-adv-x="531" 
d="M490 228q0 -48 -17 -92t-47 -77t-71 -51.5t-87 -18.5q-48 0 -90 17.5t-72.5 49.5t-47.5 75.5t-17 92.5t17 93t48 76t72.5 49.5t87.5 17.5t87.5 -17.5t72 -49.5t47.5 -74.5t17 -90.5zM284 18q41 0 72.5 24t43.5 60t12 66q0 46 -11.5 97t-31 86.5t-41.5 53.5q-31 26 -74 26
q-36 0 -65 -16t-49.5 -52t-20.5 -95q0 -37 11 -82t28 -79q45 -89 126 -89zM339 523h-35q-7 8 -22.5 26t-47.5 53.5t-36 41.5t-4 11t3 10.5t22 5.5h21q23 0 35 -5q11 -5 19 -24z" />
    <glyph glyph-name="oacute" unicode="&#xf3;" horiz-adv-x="531" 
d="M490 228q0 -48 -17 -92t-47 -77t-71 -51.5t-87 -18.5q-48 0 -90 17.5t-72.5 49.5t-47.5 75.5t-17 92.5t17 93t48 76t72.5 49.5t87.5 17.5t87.5 -17.5t72 -49.5t47.5 -74.5t17 -90.5zM284 18q41 0 72.5 24t43.5 60t12 66q0 46 -11.5 97t-31 86.5t-41.5 53.5q-31 26 -74 26
q-36 0 -65 -16t-49.5 -52t-20.5 -95q0 -37 11 -82t28 -79q45 -89 126 -89zM337 655q0 -2 -1.5 -6.5t-38.5 -46t-70 -79.5h-35q5 14 26.5 70.5t25.5 62.5q6 8 15.5 11.5t53.5 3.5q12 0 18 -3.5t6 -12.5z" />
    <glyph glyph-name="ocircumflex" unicode="&#xf4;" horiz-adv-x="531" 
d="M490 228q0 -48 -17 -92t-47 -77t-71 -51.5t-87 -18.5q-48 0 -90 17.5t-72.5 49.5t-47.5 75.5t-17 92.5t17 93t48 76t72.5 49.5t87.5 17.5t87.5 -17.5t72 -49.5t47.5 -74.5t17 -90.5zM284 18q41 0 72.5 24t43.5 60t12 66q0 46 -11.5 97t-31 86.5t-41.5 53.5q-31 26 -74 26
q-36 0 -65 -16t-49.5 -52t-20.5 -95q0 -37 11 -82t28 -79q45 -89 126 -89zM219 670h91l86 -148h-46l-95 93l-77 -93h-44z" />
    <glyph glyph-name="otilde" unicode="&#xf5;" horiz-adv-x="531" 
d="M490 228q0 -48 -17 -92t-47 -77t-71 -51.5t-87 -18.5q-48 0 -90 17.5t-72.5 49.5t-47.5 75.5t-17 92.5t17 93t48 76t72.5 49.5t87.5 17.5t87.5 -17.5t72 -49.5t47.5 -74.5t17 -90.5zM284 18q41 0 72.5 24t43.5 60t12 66q0 46 -11.5 97t-31 86.5t-41.5 53.5q-31 26 -74 26
q-36 0 -65 -16t-49.5 -52t-20.5 -95q0 -37 11 -82t28 -79q45 -89 126 -89zM396 659l27 -15q-8 -48 -36 -79t-57 -31q-24 0 -73.5 26t-64.5 26q-14 0 -26.5 -9t-29.5 -42l-28 12q7 47 32.5 79t60.5 32q16 0 33 -6.5t54.5 -25.5t52.5 -19q33 0 55 52z" />
    <glyph glyph-name="odieresis" unicode="&#xf6;" horiz-adv-x="531" 
d="M490 228q0 -48 -17 -92t-47 -77t-71 -51.5t-87 -18.5q-48 0 -90 17.5t-72.5 49.5t-47.5 75.5t-17 92.5t17 93t48 76t72.5 49.5t87.5 17.5t87.5 -17.5t72 -49.5t47.5 -74.5t17 -90.5zM284 18q41 0 72.5 24t43.5 60t12 66q0 46 -11.5 97t-31 86.5t-41.5 53.5q-31 26 -74 26
q-36 0 -65 -16t-49.5 -52t-20.5 -95q0 -37 11 -82t28 -79q45 -89 126 -89zM208 596q0 -20 -14.5 -34.5t-34.5 -14.5t-34.5 14.5t-14.5 34.5t14.5 34.5t34.5 14.5t34.5 -14.5t14.5 -34.5zM420 596q0 -20 -14.5 -34.5t-34.5 -14.5t-34.5 14.5t-14.5 34.5t14.5 34.5t34.5 14.5
t34.5 -14.5t14.5 -34.5z" />
    <glyph glyph-name="divide" unicode="&#xf7;" horiz-adv-x="668" 
d="M369 464q0 -15 -10 -25.5t-25 -10.5t-25.5 10.5t-10.5 25.5t10.5 25t25.5 10t25 -10t10 -25zM70 290h527v-53h-527v53zM369 64q0 -15 -10 -25.5t-25 -10.5t-25.5 10.5t-10.5 25.5t10.5 25t25.5 10t25 -10t10 -25z" />
    <glyph glyph-name="oslash" unicode="&#xf8;" horiz-adv-x="531" 
d="M407 410l68 76l19 -18l-68 -75q64 -69 64 -165q0 -35 -9.5 -69.5t-25 -60t-30.5 -41.5q-31 -33 -72.5 -50.5t-84.5 -17.5q-42 0 -82.5 15t-70.5 43l-70 -77l-19 18l70 78q-55 70 -55 158q0 48 16.5 92t48.5 77q66 67 160 67q40 0 78.5 -14t62.5 -36zM150 126l213 236
q-41 69 -109 69q-34 0 -66.5 -17t-50.5 -56t-18 -90q0 -31 9 -73.5t22 -68.5zM377 338l-215 -238q18 -36 50 -59t72 -23q57 0 92.5 44t35.5 106q0 88 -35 170z" />
    <glyph glyph-name="ugrave" unicode="&#xf9;" horiz-adv-x="563" 
d="M163 458v-311q0 -45 24.5 -70.5t71.5 -25.5q68 0 132 58v241q0 43 -18 58t-64 16v26q64 0 160 8v-366q0 -26 9 -38t32 -12l33 2v-26l-152 -28v87q-38 -41 -83.5 -64.5t-87.5 -23.5q-61 0 -98 41t-37 98v229q0 33 -16.5 48t-61.5 19v26q111 1 156 8zM355 523h-35
q-7 8 -22.5 26t-47.5 53.5t-36 41.5t-4 11t3 10.5t22 5.5h21q23 0 35 -5q11 -5 19 -24z" />
    <glyph glyph-name="uacute" unicode="&#xfa;" horiz-adv-x="563" 
d="M163 458v-311q0 -45 24.5 -70.5t71.5 -25.5q68 0 132 58v241q0 43 -18 58t-64 16v26q64 0 160 8v-366q0 -26 9 -38t32 -12l33 2v-26l-152 -28v87q-38 -41 -83.5 -64.5t-87.5 -23.5q-61 0 -98 41t-37 98v229q0 33 -16.5 48t-61.5 19v26q111 1 156 8zM353 655
q0 -2 -1.5 -6.5t-38.5 -46t-70 -79.5h-35q5 14 26.5 70.5t25.5 62.5q6 8 15.5 11.5t53.5 3.5q12 0 18 -3.5t6 -12.5z" />
    <glyph glyph-name="ucircumflex" unicode="&#xfb;" horiz-adv-x="563" 
d="M163 458v-311q0 -45 24.5 -70.5t71.5 -25.5q68 0 132 58v241q0 43 -18 58t-64 16v26q64 0 160 8v-366q0 -26 9 -38t32 -12l33 2v-26l-152 -28v87q-38 -41 -83.5 -64.5t-87.5 -23.5q-61 0 -98 41t-37 98v229q0 33 -16.5 48t-61.5 19v26q111 1 156 8zM235 670h91l86 -148
h-46l-95 93l-77 -93h-44z" />
    <glyph glyph-name="udieresis" unicode="&#xfc;" horiz-adv-x="563" 
d="M163 458v-311q0 -45 24.5 -70.5t71.5 -25.5q68 0 132 58v241q0 43 -18 58t-64 16v26q64 0 160 8v-366q0 -26 9 -38t32 -12l33 2v-26l-152 -28v87q-38 -41 -83.5 -64.5t-87.5 -23.5q-61 0 -98 41t-37 98v229q0 33 -16.5 48t-61.5 19v26q111 1 156 8zM224 596
q0 -20 -14.5 -34.5t-34.5 -14.5t-34.5 14.5t-14.5 34.5t14.5 34.5t34.5 14.5t34.5 -14.5t14.5 -34.5zM436 596q0 -20 -14.5 -34.5t-34.5 -14.5t-34.5 14.5t-14.5 34.5t14.5 34.5t34.5 14.5t34.5 -14.5t14.5 -34.5z" />
    <glyph glyph-name="yacute" unicode="&#xfd;" horiz-adv-x="500" 
d="M12 450h212v-26q-24 -1 -42 -7.5t-18 -27.5q0 -9 5.5 -28t23.5 -58t20 -44l75 -167l64 168q33 86 33 110t-14 36.5t-47 17.5v26h165v-26q-16 -3 -33 -13.5t-30 -35.5q-3 -7 -8.5 -19.5t-27.5 -67.5l-92 -245l-46 -121q-14 -32 -34.5 -58.5t-45.5 -39t-50 -12.5
q-33 0 -55.5 15.5t-22.5 38.5q0 17 12 29.5t27 12.5q13 0 28.5 -13t24 -17t21.5 -4q28 0 50 28t45 93l-165 362q-15 30 -22.5 41.5t-17.5 16.5q-13 7 -35 9v26zM322 655q0 -2 -1.5 -6.5t-38.5 -46t-70 -79.5h-35q5 14 26.5 70.5t25.5 62.5q6 8 15.5 11.5t53.5 3.5
q12 0 18 -3.5t6 -12.5z" />
    <glyph glyph-name="thorn" unicode="&#xfe;" horiz-adv-x="573" 
d="M167 694v-318q78 84 165 84q83 0 138 -63q26 -29 39.5 -69t13.5 -81q0 -48 -18.5 -96t-53.5 -86q-34 -37 -78 -56.5t-86 -19.5q-30 0 -62.5 10t-57.5 27v-119q0 -38 17 -53.5t66 -15.5h6v-26h-239v26q39 0 55.5 16.5t16.5 49.5v698l-72 34v14zM167 342v-170
q0 -26 9.5 -55.5t28.5 -51.5q39 -44 101 -44q63 0 101 50t38 131q0 92 -43.5 146.5t-113.5 54.5q-63 0 -121 -61z" />
    <glyph glyph-name="ydieresis" unicode="&#xff;" horiz-adv-x="500" 
d="M12 450h212v-26q-24 -1 -42 -7.5t-18 -27.5q0 -9 5.5 -28t23.5 -58t20 -44l75 -167l64 168q33 86 33 110t-14 36.5t-47 17.5v26h165v-26q-16 -3 -33 -13.5t-30 -35.5q-3 -7 -8.5 -19.5t-27.5 -67.5l-92 -245l-46 -121q-14 -32 -34.5 -58.5t-45.5 -39t-50 -12.5
q-33 0 -55.5 15.5t-22.5 38.5q0 17 12 29.5t27 12.5q13 0 28.5 -13t24 -17t21.5 -4q28 0 50 28t45 93l-165 362q-15 30 -22.5 41.5t-17.5 16.5q-13 7 -35 9v26zM193 596q0 -20 -14.5 -34.5t-34.5 -14.5t-34.5 14.5t-14.5 34.5t14.5 34.5t34.5 14.5t34.5 -14.5t14.5 -34.5z
M405 596q0 -20 -14.5 -34.5t-34.5 -14.5t-34.5 14.5t-14.5 34.5t14.5 34.5t34.5 14.5t34.5 -14.5t14.5 -34.5z" />
    <glyph glyph-name="Amacron" unicode="&#x100;" horiz-adv-x="729" 
d="M297 682h93l232 -550q17 -41 37.5 -68t61.5 -35v-29h-266v29q44 2 63.5 15t19.5 40t-18 70l-50 116h-268q-2 -6 -6 -15.5t-25.5 -67t-21.5 -83.5q0 -33 23 -53t64 -22v-29h-228v29q17 1 34 12.5t29 29.5q17 24 29 51.5t35 83.5l177 441zM329 607l-111 -294h234zM179 842
h359v-59h-359v59z" />
    <glyph glyph-name="amacron" unicode="&#x101;" horiz-adv-x="469" 
d="M378 342v-237q0 -47 27 -47q18 0 36 11l9 -25q-47 -55 -85 -55q-61 0 -65 80q-35 -38 -73 -59t-73 -21q-37 0 -65.5 17t-39.5 42.5t-11 47.5q0 24 10.5 47t44.5 44q10 6 36 18.5t56 22.5l115 39v80q0 25 -14.5 45.5t-37 28.5t-43.5 8q-15 0 -35 -5.5t-34.5 -19.5
t-14.5 -29q0 -12 11.5 -31t13 -23t1.5 -6q0 -9 -29.5 -22t-36.5 -13q-8 0 -17.5 21t-9.5 42q0 38 31 67t74 39.5t77 10.5q142 0 142 -118zM194 50q26 0 54 14.5t52 40.5v136l-119 -52q-62 -27 -62 -71q0 -30 21 -49t54 -19zM49 626h359v-59h-359v59z" />
    <glyph glyph-name="Abreve" unicode="&#x102;" horiz-adv-x="729" 
d="M297 682h93l232 -550q17 -41 37.5 -68t61.5 -35v-29h-266v29q44 2 63.5 15t19.5 40t-18 70l-50 116h-268q-2 -6 -6 -15.5t-25.5 -67t-21.5 -83.5q0 -33 23 -53t64 -22v-29h-228v29q17 1 34 12.5t29 29.5q17 24 29 51.5t35 83.5l177 441zM329 607l-111 -294h234zM231 881
h14q8 -33 36.5 -51.5t72.5 -18.5t73 18.5t37 51.5h14q-1 -26 -13 -58.5t-42.5 -56t-68.5 -23.5q-22 0 -49.5 12t-49.5 44.5t-24 81.5z" />
    <glyph glyph-name="abreve" unicode="&#x103;" horiz-adv-x="469" 
d="M378 342v-237q0 -47 27 -47q18 0 36 11l9 -25q-47 -55 -85 -55q-61 0 -65 80q-35 -38 -73 -59t-73 -21q-37 0 -65.5 17t-39.5 42.5t-11 47.5q0 24 10.5 47t44.5 44q10 6 36 18.5t56 22.5l115 39v80q0 25 -14.5 45.5t-37 28.5t-43.5 8q-15 0 -35 -5.5t-34.5 -19.5
t-14.5 -29q0 -12 11.5 -31t13 -23t1.5 -6q0 -9 -29.5 -22t-36.5 -13q-8 0 -17.5 21t-9.5 42q0 38 31 67t74 39.5t77 10.5q142 0 142 -118zM194 50q26 0 54 14.5t52 40.5v136l-119 -52q-62 -27 -62 -71q0 -30 21 -49t54 -19zM112 665h14q8 -33 36.5 -51.5t72.5 -18.5t73 18.5
t37 51.5h14q-1 -26 -13 -58.5t-42.5 -56t-68.5 -23.5q-22 0 -49.5 12t-49.5 44.5t-24 81.5z" />
    <glyph glyph-name="Aogonek" unicode="&#x104;" horiz-adv-x="729" 
d="M297 682h93l232 -550q17 -41 37.5 -68t61.5 -35v-29h-101q-37 -34 -37 -73q0 -24 16.5 -39.5t42.5 -15.5q33 0 67 15v-41q-35 -20 -65 -20q-22 0 -47.5 9t-43.5 32t-18 51q0 16 6.5 33.5t37.5 48.5h-124v29q44 2 63.5 15t19.5 40q0 29 -18 70l-50 116h-268
q-3 -9 -17.5 -46.5t-25 -68.5t-10.5 -51q0 -33 23 -53t64 -22v-29h-228v29q32 3 57.5 34.5t69.5 142.5l177 441zM329 607l-111 -294h234z" />
    <glyph glyph-name="aogonek" unicode="&#x105;" horiz-adv-x="469" 
d="M378 342v-237q0 -47 27 -47q18 0 36 11l9 -25q-14 -18 -32.5 -32.5t-30.5 -18.5q-30 -33 -30 -66q0 -24 16.5 -39.5t42.5 -15.5q33 0 67 15v-41q-10 -6 -25.5 -13t-39.5 -7q-22 0 -47.5 9t-43.5 32t-18 51q0 18 7 35t28 39q-43 12 -44 77q-35 -39 -73 -59.5t-73 -20.5
q-37 0 -65.5 17t-39.5 42.5t-11 47.5q0 34 17.5 57t41.5 36t49 24q24 11 154 54v80q0 34 -26 58t-69 24q-15 0 -35 -5.5t-34.5 -19.5t-14.5 -29q0 -12 13 -33.5t13 -26.5q0 -9 -29.5 -22t-36.5 -13q-8 0 -17.5 21t-9.5 42q0 38 31 67t74 39.5t77 10.5q142 0 142 -118z
M194 50q56 0 106 55v136l-121 -53q-60 -26 -60 -70q0 -30 21 -49t54 -19z" />
    <glyph glyph-name="Cacute" unicode="&#x106;" horiz-adv-x="771" 
d="M681 648l26 -151h-33q-43 84 -100 123.5t-135 39.5q-48 0 -96 -16t-91.5 -59.5t-63.5 -108t-20 -129.5q0 -126 65 -216q78 -109 214 -109q92 0 149.5 43t84.5 131h31l-3 -146q-50 -28 -127.5 -45t-146.5 -17q-80 0 -149.5 25.5t-120 72t-78 111t-27.5 138.5q0 39 11 87.5
t40 95t77.5 87t118 65t140.5 24.5q59 0 122.5 -12.5t111.5 -33.5zM529 871q0 -2 -1.5 -6.5t-38.5 -46t-70 -79.5h-35q5 14 26.5 70.5t25.5 62.5q6 8 15.5 11.5t53.5 3.5q12 0 18 -3.5t6 -12.5z" />
    <glyph glyph-name="cacute" unicode="&#x107;" horiz-adv-x="469" 
d="M434 368q0 -20 -10.5 -31.5t-27.5 -11.5q-12 0 -23.5 7.5t-24.5 39.5q-11 29 -31 44t-55 15q-66 0 -104.5 -46.5t-38.5 -124.5q0 -32 8.5 -66t32 -67.5t59 -50t71.5 -16.5q69 0 131 62l20 -14q-32 -55 -81 -87t-102 -32q-45 0 -85 17.5t-69.5 49t-46 73.5t-16.5 89
q0 50 18 95t50.5 78t77 51t95.5 18q66 0 109 -26t43 -66zM359 655q0 -2 -1.5 -6.5t-38.5 -46t-70 -79.5h-35q5 14 26.5 70.5t25.5 62.5q6 8 15.5 11.5t53.5 3.5q12 0 18 -3.5t6 -12.5z" />
    <glyph glyph-name="Ccircumflex" unicode="&#x108;" horiz-adv-x="771" 
d="M681 648l26 -151h-33q-43 84 -100 123.5t-135 39.5q-48 0 -96 -16t-91.5 -59.5t-63.5 -108t-20 -129.5q0 -126 65 -216q78 -109 214 -109q92 0 149.5 43t84.5 131h31l-3 -146q-50 -28 -127.5 -45t-146.5 -17q-80 0 -149.5 25.5t-120 72t-78 111t-27.5 138.5q0 39 11 87.5
t40 95t77.5 87t118 65t140.5 24.5q59 0 122.5 -12.5t111.5 -33.5zM409 886h91l86 -148h-46l-95 93l-77 -93h-44z" />
    <glyph glyph-name="ccircumflex" unicode="&#x109;" horiz-adv-x="469" 
d="M434 368q0 -20 -10.5 -31.5t-27.5 -11.5q-12 0 -23.5 7.5t-24.5 39.5q-11 29 -31 44t-55 15q-66 0 -104.5 -46.5t-38.5 -124.5q0 -32 8.5 -66t32 -67.5t59 -50t71.5 -16.5q69 0 131 62l20 -14q-32 -55 -81 -87t-102 -32q-45 0 -85 17.5t-69.5 49t-46 73.5t-16.5 89
q0 50 18 95t50.5 78t77 51t95.5 18q66 0 109 -26t43 -66zM243 670h91l86 -148h-46l-95 93l-77 -93h-44z" />
    <glyph glyph-name="Cdotaccent" unicode="&#x10a;" horiz-adv-x="771" 
d="M681 648l26 -151h-33q-43 84 -100 123.5t-135 39.5q-48 0 -96 -16t-91.5 -59.5t-63.5 -108t-20 -129.5q0 -126 65 -216q78 -109 214 -109q92 0 149.5 43t84.5 131h31l-3 -146q-50 -28 -127.5 -45t-146.5 -17q-80 0 -149.5 25.5t-120 72t-78 111t-27.5 138.5q0 39 11 87.5
t40 95t77.5 87t118 65t140.5 24.5q59 0 122.5 -12.5t111.5 -33.5zM493 812q0 -20 -14.5 -34.5t-34.5 -14.5t-34.5 14.5t-14.5 34.5t14.5 34.5t34.5 14.5t34.5 -14.5t14.5 -34.5z" />
    <glyph glyph-name="cdotaccent" unicode="&#x10b;" horiz-adv-x="469" 
d="M434 368q0 -20 -10.5 -31.5t-27.5 -11.5q-12 0 -23.5 7.5t-24.5 39.5q-11 29 -31 44t-55 15q-66 0 -104.5 -46.5t-38.5 -124.5q0 -32 8.5 -66t32 -67.5t59 -50t71.5 -16.5q69 0 131 62l20 -14q-32 -55 -81 -87t-102 -32q-45 0 -85 17.5t-69.5 49t-46 73.5t-16.5 89
q0 50 18 95t50.5 78t77 51t95.5 18q66 0 109 -26t43 -66zM320 596q0 -20 -14.5 -34.5t-34.5 -14.5t-34.5 14.5t-14.5 34.5t14.5 34.5t34.5 14.5t34.5 -14.5t14.5 -34.5z" />
    <glyph glyph-name="Ccaron" unicode="&#x10c;" horiz-adv-x="771" 
d="M681 648l26 -151h-33q-43 84 -100 123.5t-135 39.5q-48 0 -96 -16t-91.5 -59.5t-63.5 -108t-20 -129.5q0 -126 65 -216q78 -109 214 -109q92 0 149.5 43t84.5 131h31l-3 -146q-50 -28 -127.5 -45t-146.5 -17q-80 0 -149.5 25.5t-120 72t-78 111t-27.5 138.5q0 39 11 87.5
t40 95t77.5 87t118 65t140.5 24.5q59 0 122.5 -12.5t111.5 -33.5zM359 886l95 -93l77 93h44l-85 -148h-91l-86 148h46z" />
    <glyph glyph-name="ccaron" unicode="&#x10d;" horiz-adv-x="469" 
d="M434 368q0 -20 -10.5 -31.5t-27.5 -11.5q-12 0 -23.5 7.5t-24.5 39.5q-11 29 -31 44t-55 15q-66 0 -104.5 -46.5t-38.5 -124.5q0 -32 8.5 -66t32 -67.5t59 -50t71.5 -16.5q69 0 131 62l20 -14q-32 -55 -81 -87t-102 -32q-45 0 -85 17.5t-69.5 49t-46 73.5t-16.5 89
q0 50 18 95t50.5 78t77 51t95.5 18q66 0 109 -26t43 -66zM191 670l95 -93l77 93h44l-85 -148h-91l-86 148h46z" />
    <glyph glyph-name="Dcaron" unicode="&#x10e;" horiz-adv-x="844" 
d="M27 682h386q78 0 146.5 -24t119 -68.5t78.5 -106.5t28 -134q0 -68 -24 -131t-70 -113q-48 -53 -121 -79t-191 -26h-352v29h11q58 0 79.5 18.5t21.5 65.5v455q0 48 -22.5 66.5t-76.5 18.5h-13v29zM232 653v-517q0 -60 32 -83.5t104 -23.5q125 0 195 44q58 37 87.5 104
t29.5 145q0 76 -24 138t-68.5 105t-106 65.5t-134.5 22.5h-115zM284 886l95 -93l77 93h44l-85 -148h-91l-86 148h46z" />
    <glyph glyph-name="dcaron" unicode="&#x10f;" horiz-adv-x="563" 
d="M474 694v-597q0 -28 9.5 -43t32.5 -15q19 0 31 3v-26l-151 -26v83q-45 -45 -82.5 -64.5t-83.5 -19.5q-80 0 -135 61q-26 30 -40 70t-14 81q0 47 17.5 94t50.5 86q33 38 78.5 58.5t94.5 20.5q66 0 114 -36v178l-77 33v15zM275 48q64 0 121 61v172q0 25 -8.5 53.5
t-27.5 49.5q-39 44 -101 44t-101 -49t-39 -132q0 -88 45 -144q45 -55 111 -55zM670 598q0 -22 -11 -48t-41.5 -50.5t-72.5 -38.5l-9 25q33 11 53.5 25t28 30t7.5 30q0 16 -6.5 26t-18.5 10l-23 -2q-19 0 -31 13t-12 29q0 21 14 34t37 13q17 0 36.5 -10t34 -34t14.5 -52z" />
    <glyph glyph-name="Dcroat" unicode="&#x110;" horiz-adv-x="844" 
d="M27 682h385q82 0 151.5 -25t119 -70t76 -106.5t26.5 -130.5q0 -142 -95 -246q-23 -25 -62 -50.5t-101.5 -39.5t-150.5 -14h-349v29h11q58 0 79.5 18.5t21.5 66.5v213h-110v29h110v212q0 48 -22.5 66.5t-72.5 18.5h-17v29zM232 356h209v-29h-209v-189q0 -37 11 -60.5
t40 -36t82 -12.5q92 0 158 24.5t109 87.5q23 34 35.5 82.5t12.5 98.5q0 75 -23.5 137t-68 105t-106.5 66t-136 23h-114v-297z" />
    <glyph glyph-name="dcroat" unicode="&#x111;" horiz-adv-x="563" 
d="M474 694v-146h63v-29h-63v-422q0 -28 9.5 -43t32.5 -15q19 0 31 3v-26l-151 -26v83q-45 -45 -82.5 -64.5t-83.5 -19.5q-39 0 -73.5 16t-60.5 45t-40.5 68t-14.5 83q0 45 16.5 91t48 84t76.5 61t99 23q65 0 115 -36v95h-147v29h147v54l-77 33v15zM275 48q64 0 121 61v178
q0 39 -21.5 75.5t-53 51t-62.5 14.5q-63 0 -101.5 -49t-38.5 -132q0 -88 44.5 -143.5t111.5 -55.5z" />
    <glyph glyph-name="Emacron" unicode="&#x112;" horiz-adv-x="656" 
d="M24 682h559l6 -147h-29q-36 118 -166 118h-171v-284h138q58 0 95 25t39 83h29v-244h-29q-5 38 -20.5 60.5t-45 34.5t-75.5 12h-131v-214q0 -39 6 -58t22 -27q11 -5 32 -8.5t75 -3.5q94 0 153 31t96 101h32l-41 -161h-574v29h15q51 0 71 20t20 65v457q0 43 -20.5 62.5
t-73.5 19.5h-12v29zM150 842h359v-59h-359v59z" />
    <glyph glyph-name="emacron" unicode="&#x113;" horiz-adv-x="458" 
d="M428 284h-321v-17q0 -46 14 -84.5t38.5 -66t58 -42t70.5 -14.5q28 0 57 9t66 46l17 -17q-73 -109 -179 -109q-44 0 -78 14.5t-61 38.5t-49 70t-22 109q0 50 15 94t42.5 76.5t65.5 50.5t82 18q75 0 128 -50.5t56 -125.5zM111 312h223q-6 56 -34.5 87.5t-72.5 31.5
q-31 0 -57.5 -19t-40.5 -47t-18 -53zM59 626h359v-59h-359v59z" />
    <glyph glyph-name="Ebreve" unicode="&#x114;" horiz-adv-x="656" 
d="M24 682h559l6 -147h-29q-36 118 -166 118h-171v-284h138q58 0 95 25t39 83h29v-244h-29q-5 38 -20.5 60.5t-45 34.5t-75.5 12h-131v-214q0 -39 6 -58t22 -27q11 -5 32 -8.5t75 -3.5q94 0 153 31t96 101h32l-41 -161h-574v29h15q51 0 71 20t20 65v457q0 43 -20.5 62.5
t-73.5 19.5h-12v29zM196 881h14q8 -33 36.5 -51.5t72.5 -18.5t73 18.5t37 51.5h14q-1 -26 -13 -58.5t-42.5 -56t-68.5 -23.5q-22 0 -49.5 12t-49.5 44.5t-24 81.5z" />
    <glyph glyph-name="ebreve" unicode="&#x115;" horiz-adv-x="458" 
d="M428 284h-321v-17q0 -46 14 -84.5t38.5 -66t58 -42t70.5 -14.5q28 0 57 9t66 46l17 -17q-73 -109 -179 -109q-44 0 -78 14.5t-61 38.5t-49 70t-22 109q0 50 15 94t42.5 76.5t65.5 50.5t82 18q75 0 128 -50.5t56 -125.5zM111 312h223q-6 56 -34.5 87.5t-72.5 31.5
q-31 0 -57.5 -19t-40.5 -47t-18 -53zM124 665h14q8 -33 36.5 -51.5t72.5 -18.5t73 18.5t37 51.5h14q-1 -26 -13 -58.5t-42.5 -56t-68.5 -23.5q-22 0 -49.5 12t-49.5 44.5t-24 81.5z" />
    <glyph glyph-name="Edotaccent" unicode="&#x116;" horiz-adv-x="656" 
d="M24 682h559l6 -147h-29q-36 118 -166 118h-171v-284h138q58 0 95 25t39 83h29v-244h-29q-5 38 -20.5 60.5t-45 34.5t-75.5 12h-131v-214q0 -39 6 -58t22 -27q11 -5 32 -8.5t75 -3.5q94 0 153 31t96 101h32l-41 -161h-574v29h15q51 0 71 20t20 65v457q0 43 -20.5 62.5
t-73.5 19.5h-12v29zM379 812q0 -20 -14.5 -34.5t-34.5 -14.5t-34.5 14.5t-14.5 34.5t14.5 34.5t34.5 14.5t34.5 -14.5t14.5 -34.5z" />
    <glyph glyph-name="edotaccent" unicode="&#x117;" horiz-adv-x="458" 
d="M428 284h-321v-17q0 -46 14 -84.5t38.5 -66t58 -42t70.5 -14.5q28 0 57 9t66 46l17 -17q-73 -109 -179 -109q-44 0 -78 14.5t-61 38.5t-49 70t-22 109q0 50 15 94t42.5 76.5t65.5 50.5t82 18q75 0 128 -50.5t56 -125.5zM111 312h223q-6 56 -34.5 87.5t-72.5 31.5
q-31 0 -57.5 -19t-40.5 -47t-18 -53zM290 596q0 -20 -14.5 -34.5t-34.5 -14.5t-34.5 14.5t-14.5 34.5t14.5 34.5t34.5 14.5t34.5 -14.5t14.5 -34.5z" />
    <glyph glyph-name="Eogonek" unicode="&#x118;" horiz-adv-x="656" 
d="M24 682h559l6 -147h-29q-14 45 -41 72.5t-62 36.5t-67 9h-167v-284h139q27 0 58 7.5t52 32t23 68.5h29v-244h-29q-5 38 -20.5 60.5t-45 34.5t-75.5 12h-131v-214q0 -45 7 -62t30 -26t98 -9h8q87 0 146 31.5t95 100.5h32l-41 -161h-45q-37 -34 -37 -73q0 -24 16.5 -39.5
t42.5 -15.5q33 0 67 15v-41q-10 -6 -25.5 -13t-39.5 -7q-22 0 -47.5 9t-43.5 32t-18 51q0 16 6.5 33.5t37.5 48.5h-488v29h14q51 0 71.5 20t20.5 66v455q0 33 -11 51.5t-33.5 25t-51.5 6.5h-10v29z" />
    <glyph glyph-name="eogonek" unicode="&#x119;" horiz-adv-x="458" 
d="M428 284h-321v-13q0 -51 13.5 -87t33.5 -61.5t55.5 -44t78.5 -18.5q28 0 57 9t66 46l17 -17q-65 -97 -155 -107q-27 -31 -27 -64q0 -24 16.5 -39.5t42.5 -15.5q36 0 67 15v-41q-10 -6 -25.5 -13t-39.5 -7q-22 0 -47.5 9t-43.5 32t-18 51q0 17 7 34t27 38q-87 7 -140 72
t-53 159q0 50 15 94t42.5 76.5t65.5 50.5t82 18q75 0 128 -50.5t56 -125.5zM111 312h223q-7 56 -34.5 87.5t-72.5 31.5q-31 0 -57.5 -19t-40.5 -47t-18 -53z" />
    <glyph glyph-name="Ecaron" unicode="&#x11a;" horiz-adv-x="656" 
d="M24 682h559l6 -147h-29q-36 118 -166 118h-171v-284h138q58 0 95 25t39 83h29v-244h-29q-5 38 -20.5 60.5t-45 34.5t-75.5 12h-131v-214q0 -39 6 -58t22 -27q11 -5 32 -8.5t75 -3.5q94 0 153 31t96 101h32l-41 -161h-574v29h15q51 0 71 20t20 65v457q0 43 -20.5 62.5
t-73.5 19.5h-12v29zM260 886l95 -93l77 93h44l-85 -148h-91l-86 148h46z" />
    <glyph glyph-name="ecaron" unicode="&#x11b;" horiz-adv-x="458" 
d="M428 284h-321v-17q0 -46 14 -84.5t38.5 -66t58 -42t70.5 -14.5q28 0 57 9t66 46l17 -17q-73 -109 -179 -109q-44 0 -78 14.5t-61 38.5t-49 70t-22 109q0 50 15 94t42.5 76.5t65.5 50.5t82 18q75 0 128 -50.5t56 -125.5zM111 312h223q-6 56 -34.5 87.5t-72.5 31.5
q-31 0 -57.5 -19t-40.5 -47t-18 -53zM153 670l95 -93l77 93h44l-85 -148h-91l-86 148h46z" />
    <glyph glyph-name="Gcircumflex" unicode="&#x11c;" horiz-adv-x="844" 
d="M713 646l12 -149h-29q-31 78 -93.5 120.5t-148.5 42.5q-62 0 -115.5 -22.5t-92.5 -64t-60 -99t-21 -124.5q0 -70 21.5 -130.5t61 -105t94 -68.5t117.5 -24q49 0 98.5 13t81.5 35v160q0 49 -23 66.5t-80 17.5h-19v29h315v-29h-10q-49 0 -69.5 -20t-20.5 -62v-192
q-147 -52 -266 -52q-118 0 -213 41.5t-145.5 119.5t-50.5 182q0 76 29.5 143t84 116.5t131.5 76.5t167 27q61 0 119 -11.5t125 -36.5zM430 886h91l86 -148h-46l-95 93l-77 -93h-44z" />
    <glyph glyph-name="gcircumflex" unicode="&#x11d;" horiz-adv-x="510" 
d="M451 426l45 2v-58q-6 -3 -32 -3q-31 0 -79 14l-2 -2q9 -11 17 -31.5t8 -49.5q0 -40 -23.5 -77.5t-66.5 -57.5t-88 -20q-41 0 -65 10q-18 -14 -30.5 -28.5t-12.5 -24.5q0 -17 24.5 -24t79.5 -7h85q76 0 118.5 -26t42.5 -77q0 -43 -33.5 -81.5t-97 -59t-133.5 -20.5
q-35 0 -79 8.5t-74 31.5t-30 55q0 24 22 52.5t62 57.5q-27 7 -42 21t-15 31q0 19 17 41t66 64q-38 18 -60.5 53.5t-22.5 77.5t23 81t66.5 60t90.5 21q14 0 32.5 -2t54.5 -12.5t63.5 -15t68.5 -4.5zM241 175q40 0 64.5 29t24.5 75q0 27 -8 62t-32.5 61t-64.5 26
q-42 0 -66.5 -30t-24.5 -83q0 -64 29 -102t78 -38zM228 -153q54 0 99 13t68.5 33t23.5 44q0 29 -26.5 42.5t-117.5 13.5q-77 0 -130 8q-58 -45 -58 -81q0 -32 40.5 -52.5t100.5 -20.5zM208 670h91l86 -148h-46l-95 93l-77 -93h-44z" />
    <glyph glyph-name="Gbreve" unicode="&#x11e;" horiz-adv-x="844" 
d="M713 646l12 -149h-29q-31 78 -93.5 120.5t-148.5 42.5q-62 0 -115.5 -22.5t-92.5 -64t-60 -99t-21 -124.5q0 -70 21.5 -130.5t61 -105t94 -68.5t117.5 -24q49 0 98.5 13t81.5 35v160q0 49 -23 66.5t-80 17.5h-19v29h315v-29h-10q-49 0 -69.5 -20t-20.5 -62v-192
q-147 -52 -266 -52q-118 0 -213 41.5t-145.5 119.5t-50.5 182q0 76 29.5 143t84 116.5t131.5 76.5t167 27q61 0 119 -11.5t125 -36.5zM339 881h14q8 -33 36.5 -51.5t72.5 -18.5t73 18.5t37 51.5h14q-1 -26 -13 -58.5t-42.5 -56t-68.5 -23.5q-22 0 -49.5 12t-49.5 44.5
t-24 81.5z" />
    <glyph glyph-name="gbreve" unicode="&#x11f;" horiz-adv-x="510" 
d="M451 426l45 2v-58q-6 -3 -32 -3q-31 0 -79 14l-2 -2q9 -11 17 -31.5t8 -49.5q0 -40 -23.5 -77.5t-66.5 -57.5t-88 -20q-41 0 -65 10q-18 -14 -30.5 -28.5t-12.5 -24.5q0 -17 24.5 -24t79.5 -7h85q76 0 118.5 -26t42.5 -77q0 -43 -33.5 -81.5t-97 -59t-133.5 -20.5
q-35 0 -79 8.5t-74 31.5t-30 55q0 24 22 52.5t62 57.5q-27 7 -42 21t-15 31q0 19 17 41t66 64q-38 18 -60.5 53.5t-22.5 77.5t23 81t66.5 60t90.5 21q14 0 32.5 -2t54.5 -12.5t63.5 -15t68.5 -4.5zM241 175q40 0 64.5 29t24.5 75q0 27 -8 62t-32.5 61t-64.5 26
q-42 0 -66.5 -30t-24.5 -83q0 -64 29 -102t78 -38zM228 -153q54 0 99 13t68.5 33t23.5 44q0 29 -26.5 42.5t-117.5 13.5q-77 0 -130 8q-58 -45 -58 -81q0 -32 40.5 -52.5t100.5 -20.5zM114 665h14q8 -33 36.5 -51.5t72.5 -18.5t73 18.5t37 51.5h14q-1 -26 -13 -58.5
t-42.5 -56t-68.5 -23.5q-22 0 -49.5 12t-49.5 44.5t-24 81.5z" />
    <glyph glyph-name="Gdotaccent" unicode="&#x120;" horiz-adv-x="844" 
d="M713 646l12 -149h-29q-31 78 -93.5 120.5t-148.5 42.5q-62 0 -115.5 -22.5t-92.5 -64t-60 -99t-21 -124.5q0 -70 21.5 -130.5t61 -105t94 -68.5t117.5 -24q49 0 98.5 13t81.5 35v160q0 49 -23 66.5t-80 17.5h-19v29h315v-29h-10q-49 0 -69.5 -20t-20.5 -62v-192
q-147 -52 -266 -52q-118 0 -213 41.5t-145.5 119.5t-50.5 182q0 76 29.5 143t84 116.5t131.5 76.5t167 27q61 0 119 -11.5t125 -36.5zM511 812q0 -20 -14.5 -34.5t-34.5 -14.5t-34.5 14.5t-14.5 34.5t14.5 34.5t34.5 14.5t34.5 -14.5t14.5 -34.5z" />
    <glyph glyph-name="gdotaccent" unicode="&#x121;" horiz-adv-x="510" 
d="M451 426l45 2v-58q-6 -3 -32 -3q-31 0 -79 14l-2 -2q9 -11 17 -31.5t8 -49.5q0 -40 -23.5 -77.5t-66.5 -57.5t-88 -20q-41 0 -65 10q-18 -14 -30.5 -28.5t-12.5 -24.5q0 -17 24.5 -24t79.5 -7h85q76 0 118.5 -26t42.5 -77q0 -43 -33.5 -81.5t-97 -59t-133.5 -20.5
q-35 0 -79 8.5t-74 31.5t-30 55q0 24 22 52.5t62 57.5q-27 7 -42 21t-15 31q0 19 17 41t66 64q-38 18 -60.5 53.5t-22.5 77.5t23 81t66.5 60t90.5 21q14 0 32.5 -2t54.5 -12.5t63.5 -15t68.5 -4.5zM241 175q40 0 64.5 29t24.5 75q0 27 -8 62t-32.5 61t-64.5 26
q-42 0 -66.5 -30t-24.5 -83q0 -64 29 -102t78 -38zM228 -153q54 0 99 13t68.5 33t23.5 44q0 29 -26.5 42.5t-117.5 13.5q-77 0 -130 8q-58 -45 -58 -81q0 -32 40.5 -52.5t100.5 -20.5zM293 596q0 -20 -14.5 -34.5t-34.5 -14.5t-34.5 14.5t-14.5 34.5t14.5 34.5t34.5 14.5
t34.5 -14.5t14.5 -34.5z" />
    <glyph glyph-name="uni0122" unicode="&#x122;" horiz-adv-x="844" 
d="M713 646l12 -149h-29q-31 78 -93.5 120.5t-148.5 42.5q-62 0 -115.5 -22.5t-92.5 -64t-60 -99t-21 -124.5q0 -70 21.5 -130.5t61 -105t94 -68.5t117.5 -24q49 0 98.5 13t81.5 35v160q0 49 -23 66.5t-80 17.5h-19v29h315v-29h-10q-49 0 -69.5 -20t-20.5 -62v-192
q-147 -52 -266 -52q-118 0 -213 41.5t-145.5 119.5t-50.5 182q0 76 29.5 143t84 116.5t131.5 76.5t167 27q61 0 119 -11.5t125 -36.5zM533 -97q0 -41 -36.5 -72t-99.5 -32v21q44 2 70 20t26 45q0 12 -7.5 22.5t-24.5 10.5t-30 8t-13 25q0 14 11.5 25t32.5 11q15 0 31.5 -9
t28 -30.5t11.5 -44.5z" />
    <glyph glyph-name="uni0123" unicode="&#x123;" horiz-adv-x="510" 
d="M451 426l45 2v-58q-6 -3 -32 -3q-31 0 -79 14l-2 -2q9 -11 17 -31.5t8 -49.5q0 -40 -23.5 -77.5t-66.5 -57.5t-88 -20q-41 0 -65 10q-18 -14 -30.5 -28.5t-12.5 -24.5q0 -17 24.5 -24t79.5 -7h85q76 0 118.5 -26t42.5 -77q0 -43 -33.5 -81.5t-97 -59t-133.5 -20.5
q-35 0 -79 8.5t-74 31.5t-30 55q0 24 22 52.5t62 57.5q-27 7 -42 21t-15 31q0 19 17 41t66 64q-38 18 -60.5 53.5t-22.5 77.5t23 81t66.5 60t90.5 21q14 0 32.5 -2t54.5 -12.5t63.5 -15t68.5 -4.5zM241 175q40 0 64.5 29t24.5 75q0 27 -8 62t-32.5 61t-64.5 26
q-42 0 -66.5 -30t-24.5 -83q0 -64 29 -102t78 -38zM228 -153q54 0 99 13t68.5 33t23.5 44q0 29 -26.5 42.5t-117.5 13.5q-77 0 -130 8q-58 -45 -58 -81q0 -32 40.5 -52.5t100.5 -20.5zM312 698v-21q-48 -3 -72 -21t-24 -44q0 -16 9.5 -24.5t24.5 -8.5q16 0 28.5 -8.5
t12.5 -24.5q0 -14 -11.5 -25t-32.5 -11q-22 0 -40 15t-24.5 34.5t-6.5 34.5q0 43 37 73t99 31z" />
    <glyph glyph-name="Hcircumflex" unicode="&#x124;" horiz-adv-x="823" 
d="M25 682h299v-29h-17q-49 0 -68 -21t-19 -61v-204h383v205q0 42 -21 61.5t-75 19.5h-8v29h299v-29q-58 0 -80 -16.5t-22 -65.5v-458q0 -46 20 -65t64 -19h18v-29h-299v29h9q51 0 73 18t22 64v218h-383v-208q0 -53 20 -72.5t74 -19.5h10v-29h-299v29q59 0 80.5 18t21.5 68
v456q0 44 -20 63t-72 19h-10v29zM376 886h91l86 -148h-46l-95 93l-77 -93h-44z" />
    <glyph glyph-name="hcircumflex" unicode="&#x125;" horiz-adv-x="552" 
d="M163 694v-319q88 85 173 85q60 0 96 -37.5t36 -99.5v-219q0 -42 14 -60t56 -18v-26h-217v26q40 0 54.5 19t14.5 63v188q0 107 -90 107q-34 0 -70 -15.5t-67 -43.5v-235q0 -49 16 -66t58 -17v-26h-226v26q41 0 57.5 16t16.5 55v505l-70 33v15zM89 872h91l86 -148h-46
l-95 93l-77 -93h-44z" />
    <glyph glyph-name="Hbar" unicode="&#x126;" horiz-adv-x="823" 
d="M25 682h299v-29h-19q-36 0 -55.5 -13t-24.5 -32t-5 -37v-76h383v77q0 42 -21 61.5t-73 19.5h-10v29h299v-29q-58 0 -80 -16.5t-22 -65.5v-76h64v-30h-64v-352q0 -46 20 -65t64 -19h18v-29h-299v29h9q52 0 73.5 18.5t21.5 64.5v217h-383v-208q0 -53 20 -72.5t74 -19.5h10
v-29h-299v29q59 0 80.5 18t21.5 68v350h-64v30h64v76q0 44 -20 63t-72 19h-10v29zM220 367h383v98h-383v-98z" />
    <glyph glyph-name="hbar" unicode="&#x127;" horiz-adv-x="552" 
d="M163 694v-144h157v-29h-157v-146q87 85 173 85q60 0 96 -37.5t36 -99.5v-219q0 -42 14 -60t56 -18v-26h-217v26q31 0 50 13.5t19 68.5v189q0 106 -90 106q-35 0 -71 -16t-66 -43v-235q0 -49 16 -66t58 -17v-26h-226v26q40 0 57 16t17 54v425h-60v29h60v52l-70 33v15z" />
    <glyph glyph-name="Itilde" unicode="&#x128;" horiz-adv-x="354" 
d="M22 682h310v-29h-17q-49 0 -70 -19.5t-21 -59.5v-462q0 -44 20.5 -63.5t68.5 -19.5h19v-29h-310v29h13q52 0 74 18t22 62v466q0 44 -22 61t-76 17h-11v29zM307 875l27 -15q-8 -48 -36 -79t-57 -31q-24 0 -73.5 26t-64.5 26q-14 0 -26.5 -9t-29.5 -42l-28 12q7 47 32.5 79
t60.5 32q16 0 33 -6.5t54.5 -25.5t52.5 -19q33 0 55 52z" />
    <glyph glyph-name="itilde" unicode="&#x129;" horiz-adv-x="260" 
d="M174 460v-352q0 -55 19.5 -68.5t50.5 -13.5v-26h-226v26q46 0 62 16.5t16 67.5v259l-73 33v15zM251 659l27 -15q-8 -48 -36 -79t-57 -31q-24 0 -73.5 26t-64.5 26q-14 0 -26.5 -9t-29.5 -42l-28 12q7 47 32.5 79t60.5 32q16 0 33 -6.5t54.5 -25.5t52.5 -19q33 0 55 52z
" />
    <glyph glyph-name="Imacron" unicode="&#x12a;" horiz-adv-x="354" 
d="M22 682h310v-29h-17q-49 0 -70 -19.5t-21 -59.5v-462q0 -44 20.5 -63.5t68.5 -19.5h19v-29h-310v29h13q52 0 74 18t22 62v466q0 44 -22 61t-76 17h-11v29zM-4 842h359v-59h-359v59z" />
    <glyph glyph-name="imacron" unicode="&#x12b;" horiz-adv-x="260" 
d="M174 460v-352q0 -55 19.5 -68.5t50.5 -13.5v-26h-226v26q46 0 62 16.5t16 67.5v259l-73 33v15zM-51 626h359v-59h-359v59z" />
    <glyph glyph-name="Ibreve" unicode="&#x12c;" horiz-adv-x="354" 
d="M22 682h310v-29h-17q-49 0 -70 -19.5t-21 -59.5v-462q0 -44 20.5 -63.5t68.5 -19.5h19v-29h-310v29h13q52 0 74 18t22 62v466q0 44 -22 61t-76 17h-11v29zM59 881h14q8 -33 36.5 -51.5t72.5 -18.5t73 18.5t37 51.5h14q-1 -26 -13 -58.5t-42.5 -56t-68.5 -23.5
q-22 0 -49.5 12t-49.5 44.5t-24 81.5z" />
    <glyph glyph-name="ibreve" unicode="&#x12d;" horiz-adv-x="260" 
d="M174 460v-352q0 -55 19.5 -68.5t50.5 -13.5v-26h-226v26q46 0 62 16.5t16 67.5v259l-73 33v15zM1 665h14q8 -33 36.5 -51.5t72.5 -18.5t73 18.5t37 51.5h14q-1 -26 -13 -58.5t-42.5 -56t-68.5 -23.5q-22 0 -49.5 12t-49.5 44.5t-24 81.5z" />
    <glyph glyph-name="Iogonek" unicode="&#x12e;" horiz-adv-x="354" 
d="M22 682h310v-29h-16q-46 0 -69 -17t-23 -62v-462q0 -44 20.5 -63.5t68.5 -19.5h19v-29h-135q-37 -34 -37 -73q0 -24 16.5 -39.5t42.5 -15.5q33 0 67 15v-41q-10 -6 -25.5 -13t-39.5 -7q-22 0 -47.5 9t-43.5 32t-18 51q0 16 6.5 33.5t37.5 48.5h-134v29h13q52 0 74 18
t22 62v466q0 44 -21.5 61t-75.5 17h-12v29z" />
    <glyph glyph-name="iogonek" unicode="&#x12f;" horiz-adv-x="260" 
d="M185 643q0 -21 -15 -36t-36 -15t-36 15t-15 36t15 36t36 15t36 -15t15 -36zM174 460v-353q0 -54 19.5 -67.5t50.5 -13.5v-26h-91q-37 -34 -37 -73q0 -24 16.5 -39.5t42.5 -15.5q33 0 67 15v-41q-10 -6 -25.5 -13t-39.5 -7q-22 0 -47.5 9t-43.5 32t-18 51q0 16 6.5 33.5
t37.5 48.5h-94v26q46 0 62 16.5t16 67.5v259l-73 33v15z" />
    <glyph glyph-name="Idotaccent" unicode="&#x130;" horiz-adv-x="354" 
d="M22 682h310v-29h-17q-49 0 -70 -19.5t-21 -59.5v-462q0 -44 20.5 -63.5t68.5 -19.5h19v-29h-310v29h13q52 0 74 18t22 62v466q0 44 -22 61t-76 17h-11v29zM234 812q0 -20 -14.5 -34.5t-34.5 -14.5t-34.5 14.5t-14.5 34.5t14.5 34.5t34.5 14.5t34.5 -14.5t14.5 -34.5z" />
    <glyph glyph-name="dotlessi" unicode="&#x131;" horiz-adv-x="260" 
d="M174 460v-352q0 -55 19.5 -68.5t50.5 -13.5v-26h-226v26q46 0 62 16.5t16 67.5v259l-73 33v15z" />
    <glyph glyph-name="IJ" unicode="&#x132;" horiz-adv-x="667" 
d="M22 682h310v-29h-17q-49 0 -70 -19.5t-21 -59.5v-462q0 -44 20.5 -63.5t68.5 -19.5h19v-29h-310v29h13q52 0 74 18t22 62v466q0 44 -22 61t-76 17h-11v29zM357 682h309v-29q-58 -1 -81 -18.5t-23 -64.5v-493q0 -76 -16.5 -124t-47.5 -79q-46 -46 -110 -46
q-20 0 -44.5 6.5t-42 23.5t-17.5 38q0 19 12.5 31.5t32.5 12.5q10 0 20 -3.5t17.5 -12t21 -33t34.5 -24.5q26 0 36.5 24.5t10.5 81.5v604q0 40 -22 58t-65 18h-25v29z" />
    <glyph glyph-name="ij" unicode="&#x133;" horiz-adv-x="510" 
d="M185 643q0 -21 -15 -36t-36 -15t-36 15t-15 36t15 36t36 15t36 -15t15 -36zM174 460v-353q0 -54 19.5 -67.5t50.5 -13.5v-26h-226v26q46 0 62 16.5t16 67.5v259l-73 33v15zM441 643q0 -21 -15 -36t-36 -15t-36 15t-15 36t15 36t36 15t36 -15t15 -36zM437 460v-411
q0 -44 -18.5 -79.5t-121.5 -157.5l-24 22q42 63 64 115.5t22 99.5v319l-78 33v16z" />
    <glyph glyph-name="Jcircumflex" unicode="&#x134;" horiz-adv-x="313" 
d="M3 682h309v-29q-58 -1 -81 -18.5t-23 -64.5v-493q0 -76 -16.5 -124t-47.5 -79q-46 -46 -110 -46q-20 0 -44.5 6.5t-42 23.5t-17.5 38q0 19 12.5 31.5t32.5 12.5q10 0 20 -3.5t17.5 -12t21 -33t34.5 -24.5q26 0 36.5 24.5t10.5 81.5v604q0 40 -22 58t-65 18h-25v29z
M112 886h91l86 -148h-46l-95 93l-77 -93h-44z" />
    <glyph glyph-name="jcircumflex" unicode="&#x135;" horiz-adv-x="250" 
d="M82 670h91l86 -148h-46l-95 93l-77 -93h-44zM176 460v-417q0 -43 -25 -84q-22 -37 -115 -147l-24 22q41 63 63.5 116t22.5 99v319l-78 33v16z" />
    <glyph glyph-name="uni0136" unicode="&#x136;" horiz-adv-x="802" 
d="M22 682h304v-29h-11q-57 0 -75.5 -20t-18.5 -73v-441q0 -50 20 -70t67 -20h18v-29h-304v29h10q53 0 74.5 17.5t21.5 63.5v462q0 42 -20 61.5t-66 19.5h-20v29zM442 682h281v-29q-54 -2 -122 -52q-29 -21 -126.5 -102t-147.5 -117q56 -43 184 -155q108 -95 137 -119.5
t54 -42.5q47 -33 97 -36v-29h-161q-38 28 -127.5 107.5t-147.5 130.5t-133 110q150 108 159.5 115.5t24.5 19.5q49 40 69 61.5t24.5 36t4.5 19.5q0 47 -70 53v29zM502 -97q0 -41 -36.5 -72t-99.5 -32v21q44 2 70 20t26 45q0 12 -7.5 22.5t-24.5 10.5t-30 8t-13 25
q0 14 11.5 25t32.5 11q15 0 31.5 -9t28 -30.5t11.5 -44.5z" />
    <glyph glyph-name="uni0137" unicode="&#x137;" horiz-adv-x="490" 
d="M156 694v-590q0 -35 9.5 -52t27 -21.5t37.5 -4.5v-26h-219v26q37 1 52 18.5t15 51.5v506l-66 33v15zM237 450h233v-26q-24 -2 -45.5 -10t-48 -28.5t-143.5 -124.5l181 -170q30 -28 47 -42t37 -23v-26h-89q-41 31 -68 56l-181 178l102 90q20 17 31.5 31.5t11.5 28.5
q0 19 -15.5 29t-52.5 11v26zM366 -97q0 -41 -36.5 -72t-99.5 -32v21q44 2 70 20t26 45q0 12 -7.5 22.5t-24.5 10.5t-30 8t-13 25q0 14 11.5 25t32.5 11q15 0 31.5 -9t28 -30.5t11.5 -44.5z" />
    <glyph glyph-name="kgreenlandic" unicode="&#x138;" horiz-adv-x="490" 
d="M156 451v-346q0 -46 16.5 -62.5t57.5 -16.5v-26h-219v26q19 1 35.5 7t24 22t7.5 42v262l-66 33v15zM237 450h233v-26q-29 -1 -58 -16q-13 -6 -34.5 -22t-144.5 -125q17 -16 118 -111.5t113 -103.5q20 -15 34 -20v-26h-89q-41 31 -68 56l-181 178q7 6 22 19.5t69 60
t54 70.5q0 19 -15.5 29t-52.5 11v26z" />
    <glyph glyph-name="Lacute" unicode="&#x139;" horiz-adv-x="688" 
d="M15 682h322v-29h-23q-36 0 -55 -8.5t-27.5 -27.5t-8.5 -55v-451q0 -41 22 -61.5t69 -20.5h126q56 0 85 11q28 11 59 38t69 89h30l-47 -167h-625v29h15q58 0 81 17t23 68v459q0 44 -23 62t-80 18h-12v29zM454 871q0 -2 -1.5 -6.5t-38.5 -46t-70 -79.5h-35q5 14 26.5 70.5
t25.5 62.5q6 8 15.5 11.5t53.5 3.5q12 0 18 -3.5t6 -12.5z" />
    <glyph glyph-name="lacute" unicode="&#x13a;" horiz-adv-x="250" 
d="M163 694v-585q0 -48 15 -65.5t56 -17.5v-26h-222v26q45 1 59 19t14 70v487l-73 31v17zM208 864q0 -2 -1.5 -6.5t-38.5 -46t-70 -79.5h-35q5 14 26.5 70.5t25.5 62.5q6 8 15.5 11.5t53.5 3.5q12 0 18 -3.5t6 -12.5z" />
    <glyph glyph-name="uni013B" unicode="&#x13b;" horiz-adv-x="688" 
d="M15 682h322v-29h-23q-36 0 -55 -8.5t-27.5 -27.5t-8.5 -55v-451q0 -41 22 -61.5t69 -20.5h126q56 0 85 11q28 11 59 38t69 89h30l-47 -167h-625v29h15q58 0 81 17t23 68v459q0 44 -23 62t-80 18h-12v29zM422 -97q0 -41 -36.5 -72t-99.5 -32v21q44 2 70 20t26 45
q0 12 -7.5 22.5t-24.5 10.5t-30 8t-13 25q0 14 11.5 25t32.5 11q15 0 31.5 -9t28 -30.5t11.5 -44.5z" />
    <glyph glyph-name="uni013C" unicode="&#x13c;" horiz-adv-x="250" 
d="M163 694v-585q0 -48 15 -65.5t56 -17.5v-26h-222v26q45 1 59 19t14 70v487l-73 31v17zM188 -97q0 -41 -36.5 -72t-99.5 -32v21q44 2 70 20t26 45q0 12 -7.5 22.5t-24.5 10.5t-30 8t-13 25q0 14 11.5 25t32.5 11q15 0 31.5 -9t28 -30.5t11.5 -44.5z" />
    <glyph glyph-name="Lcaron" unicode="&#x13d;" horiz-adv-x="688" 
d="M15 682h322v-29h-23q-36 0 -55 -8.5t-27.5 -27.5t-8.5 -55v-451q0 -41 22 -61.5t69 -20.5h126q56 0 85 11q28 11 59 38t69 89h30l-47 -167h-625v29h15q58 0 81 17t23 68v459q0 44 -23 62t-80 18h-12v29zM541 586q0 -22 -11 -48t-41.5 -50.5t-72.5 -38.5l-9 25
q33 11 53.5 25t28 30t7.5 30q0 16 -6.5 26t-18.5 10l-23 -2q-19 0 -31 13t-12 29q0 21 14 34t37 13q17 0 36.5 -10t34 -34t14.5 -52z" />
    <glyph glyph-name="lcaron" unicode="&#x13e;" horiz-adv-x="250" 
d="M163 694v-585q0 -48 15 -65.5t56 -17.5v-26h-222v26q45 1 59 19t14 70v487l-73 31v17zM359 598q0 -22 -11 -48t-41.5 -50.5t-72.5 -38.5l-9 25q33 11 53.5 25t28 30t7.5 30q0 16 -6.5 26t-18.5 10l-23 -2q-19 0 -31 13t-12 29q0 21 14 34t37 13q17 0 36.5 -10t34 -34
t14.5 -52z" />
    <glyph glyph-name="Ldot" unicode="&#x13f;" horiz-adv-x="688" 
d="M15 682h322v-29h-23q-36 0 -55 -8.5t-27.5 -27.5t-8.5 -55v-451q0 -41 22 -61.5t69 -20.5h126q56 0 85 11q28 11 59 38t69 89h30l-47 -167h-625v29h15q58 0 81 17t23 68v459q0 44 -23 62t-80 18h-12v29zM440 371q0 -20 -14.5 -34.5t-34.5 -14.5t-34.5 14.5t-14.5 34.5
t14.5 34.5t34.5 14.5t34.5 -14.5t14.5 -34.5z" />
    <glyph glyph-name="ldot" unicode="&#x140;" horiz-adv-x="275" 
d="M163 694v-585q0 -48 15 -65.5t56 -17.5v-26h-222v26q45 1 59 19t14 70v487l-73 31v17zM321 369q0 -20 -14.5 -34.5t-34.5 -14.5t-34.5 14.5t-14.5 34.5t14.5 34.5t34.5 14.5t34.5 -14.5t14.5 -34.5z" />
    <glyph glyph-name="Lslash" unicode="&#x141;" horiz-adv-x="688" 
d="M15 682h322v-29h-23q-51 0 -71 -20t-20 -66v-157l130 104v-56l-130 -104v-243q0 -41 22 -61.5t69 -20.5h146q61 0 105.5 33.5t87.5 104.5h30l-47 -167h-625v29h15q59 0 81.5 17.5t22.5 67.5v175l-90 -72v56l90 72v228q0 43 -23 61.5t-75 18.5h-17v29z" />
    <glyph glyph-name="lslash" unicode="&#x142;" horiz-adv-x="271" 
d="M163 694v-309l92 77v-51l-92 -77v-225q0 -48 15 -65.5t56 -17.5v-26h-222v26q35 1 54 14t19 76v161l-101 -84v52l101 83v274l-73 31v17z" />
    <glyph glyph-name="Nacute" unicode="&#x143;" horiz-adv-x="844" 
d="M9 682h148l522 -537v390q0 26 -9.5 54t-37.5 46t-74 18v29h267v-29q-59 -3 -83.5 -37t-24.5 -113v-394q0 -20 8 -64q7 -38 7 -54h-53q-29 47 -78 97l-419 436v-386q0 -49 31 -77.5t92 -31.5v-29h-280v29h12q23 0 48.5 10.5t42 37.5t16.5 61v422q-43 45 -66 66
q-13 12 -31.5 19t-37.5 8v29zM509 871q0 -2 -1.5 -6.5t-38.5 -46t-70 -79.5h-35q5 14 26.5 70.5t25.5 62.5q6 8 15.5 11.5t53.5 3.5q12 0 18 -3.5t6 -12.5z" />
    <glyph glyph-name="nacute" unicode="&#x144;" horiz-adv-x="563" 
d="M173 460v-86q86 86 173 86q60 0 96.5 -38.5t36.5 -104.5v-213q0 -45 16.5 -61.5t56.5 -16.5v-26h-229v26q46 0 62 17.5t16 65.5v202q0 27 -14 49.5t-35 31.5t-41 9q-35 0 -72 -16.5t-66 -43.5v-235q0 -38 12 -59t63 -21h5v-26h-233v26q43 0 59 17.5t16 65.5v259l-71 33
v14zM384 655q0 -2 -1.5 -6.5t-38.5 -46t-70 -79.5h-35q5 14 26.5 70.5t25.5 62.5q6 8 15.5 11.5t53.5 3.5q12 0 18 -3.5t6 -12.5z" />
    <glyph glyph-name="uni0145" unicode="&#x145;" horiz-adv-x="844" 
d="M9 682h148l522 -537v390q0 26 -9.5 54t-37.5 46t-74 18v29h267v-29q-59 -3 -83.5 -37t-24.5 -113v-394q0 -20 8 -64q7 -38 7 -54h-53q-29 47 -78 97l-419 436v-386q0 -49 31 -77.5t92 -31.5v-29h-280v29h12q23 0 48.5 10.5t42 37.5t16.5 61v422q-43 45 -66 66
q-13 12 -31.5 19t-37.5 8v29zM528 -97q0 -41 -36.5 -72t-99.5 -32v21q44 2 70 20t26 45q0 12 -7.5 22.5t-24.5 10.5t-30 8t-13 25q0 14 11.5 25t32.5 11q15 0 31.5 -9t28 -30.5t11.5 -44.5z" />
    <glyph glyph-name="uni0146" unicode="&#x146;" horiz-adv-x="563" 
d="M173 460v-86q86 86 173 86q60 0 96.5 -38.5t36.5 -104.5v-213q0 -45 16.5 -61.5t56.5 -16.5v-26h-229v26q46 0 62 17.5t16 65.5v202q0 27 -14 49.5t-35 31.5t-41 9q-35 0 -72 -16.5t-66 -43.5v-235q0 -38 12 -59t63 -21h5v-26h-233v26q43 0 59 17.5t16 65.5v259l-71 33
v14zM357 -97q0 -41 -36.5 -72t-99.5 -32v21q44 2 70 20t26 45q0 12 -7.5 22.5t-24.5 10.5t-30 8t-13 25q0 14 11.5 25t32.5 11q15 0 31.5 -9t28 -30.5t11.5 -44.5z" />
    <glyph glyph-name="Ncaron" unicode="&#x147;" horiz-adv-x="844" 
d="M9 682h148l522 -537v390q0 26 -9.5 54t-37.5 46t-74 18v29h267v-29q-59 -3 -83.5 -37t-24.5 -113v-394q0 -20 8 -64q7 -38 7 -54h-53q-29 47 -78 97l-419 436v-386q0 -49 31 -77.5t92 -31.5v-29h-280v29h12q23 0 48.5 10.5t42 37.5t16.5 61v422q-43 45 -66 66
q-13 12 -31.5 19t-37.5 8v29zM337 886l95 -93l77 93h44l-85 -148h-91l-86 148h46z" />
    <glyph glyph-name="ncaron" unicode="&#x148;" horiz-adv-x="563" 
d="M173 460v-86q86 86 173 86q60 0 96.5 -38.5t36.5 -104.5v-213q0 -45 16.5 -61.5t56.5 -16.5v-26h-229v26q46 0 62 17.5t16 65.5v202q0 27 -14 49.5t-35 31.5t-41 9q-35 0 -72 -16.5t-66 -43.5v-235q0 -38 12 -59t63 -21h5v-26h-233v26q43 0 59 17.5t16 65.5v259l-71 33
v14zM211 670l95 -93l77 93h44l-85 -148h-91l-86 148h46z" />
    <glyph glyph-name="napostrophe" unicode="&#x149;" horiz-adv-x="563" 
d="M173 460v-86q86 86 173 86q60 0 96.5 -38.5t36.5 -104.5v-213q0 -45 16.5 -61.5t56.5 -16.5v-26h-229v26q46 0 62 17.5t16 65.5v202q0 27 -14 49.5t-35 31.5t-41 9q-35 0 -72 -16.5t-66 -43.5v-235q0 -38 12 -59t63 -21h5v-26h-233v26q43 0 59 17.5t16 65.5v259l-71 33
v14zM102 611q0 -19 -11.5 -42.5t-43.5 -42.5t-81 -19v21q42 2 69 19t27 45q0 33 -34 34q-18 1 -29.5 10t-11.5 23t11.5 25t32.5 11q23 0 40.5 -15.5t24 -35t6.5 -33.5z" />
    <glyph glyph-name="Eng" unicode="&#x14a;" horiz-adv-x="844" 
d="M9 682h148l522 -537v391q0 56 -31.5 86.5t-89.5 30.5v29h267v-29q-59 -3 -83.5 -37t-24.5 -113v-542q0 -24 -5.5 -49.5t-16.5 -41.5q-27 -42 -97 -42q-48 0 -76 20.5t-28 51.5q0 17 13.5 28.5t31.5 11.5q15 0 31 -10q11 -8 23.5 -31.5t22 -27.5t16.5 -4q26 0 37 23
q10 21 10 101q-10 17 -31.5 44.5t-46.5 52.5l-419 436v-386q0 -49 31 -77.5t92 -31.5v-29h-280v29h12q23 0 48.5 10.5t42 37.5t16.5 61v422l-56 57q-33 33 -79 36v29z" />
    <glyph glyph-name="eng" unicode="&#x14b;" horiz-adv-x="563" 
d="M173 460v-86q86 86 173 86q35 0 64 -14.5t48.5 -46.5t20.5 -86l2 -198l1 -115q0 -29 -5 -56.5t-16.5 -46t-32.5 -37.5q-19 -17 -39.5 -27t-47.5 -10q-33 0 -55.5 19t-22.5 42q0 19 12 29.5t27 10.5q25 0 44 -45q7 -18 11 -21t13 -3q15 0 23 18.5t8 80.5v357
q0 27 -14 49.5t-35 31.5t-41 9q-35 0 -72 -16t-66 -44v-238q0 -35 12 -56t61 -21h7v-26h-233v26q43 0 59 18t16 66v258l-71 33v14z" />
    <glyph glyph-name="Omacron" unicode="&#x14c;" horiz-adv-x="813" 
d="M754 340q0 -46 -14.5 -102t-47 -103.5t-73.5 -79t-96 -49.5t-119 -18q-71 0 -135 25.5t-111 72t-73 112t-26 141.5q0 74 26 139.5t73.5 113.5t112 75t138.5 27q78 0 143 -29t110 -79t68.5 -114t23.5 -132zM417 22q49 0 92 19t74.5 54.5t48.5 87.5t17 115q0 78 -19 145
t-53.5 115.5t-82.5 75t-103 26.5q-40 0 -74.5 -14t-61 -36t-47 -54.5t-32.5 -77t-12 -97.5q0 -70 18 -135.5t51 -116t80.5 -79t103.5 -28.5zM227 842h359v-59h-359v59z" />
    <glyph glyph-name="omacron" unicode="&#x14d;" horiz-adv-x="531" 
d="M490 228q0 -48 -17 -92t-47 -77t-71 -51.5t-87 -18.5q-48 0 -90 17.5t-72.5 49.5t-47.5 75.5t-17 92.5t17 93t48 76t72.5 49.5t87.5 17.5t87.5 -17.5t72 -49.5t47.5 -74.5t17 -90.5zM284 18q41 0 72.5 24t43.5 60t12 66q0 46 -11.5 97t-31 86.5t-41.5 53.5q-31 26 -74 26
q-36 0 -65 -16t-49.5 -52t-20.5 -95q0 -37 11 -82t28 -79q45 -89 126 -89zM90 626h359v-59h-359v59z" />
    <glyph glyph-name="Obreve" unicode="&#x14e;" horiz-adv-x="813" 
d="M754 340q0 -46 -14.5 -102t-47 -103.5t-73.5 -79t-96 -49.5t-119 -18q-71 0 -135 25.5t-111 72t-73 112t-26 141.5q0 74 26 139.5t73.5 113.5t112 75t138.5 27q78 0 143 -29t110 -79t68.5 -114t23.5 -132zM417 22q49 0 92 19t74.5 54.5t48.5 87.5t17 115q0 78 -19 145
t-53.5 115.5t-82.5 75t-103 26.5q-40 0 -74.5 -14t-61 -36t-47 -54.5t-32.5 -77t-12 -97.5q0 -70 18 -135.5t51 -116t80.5 -79t103.5 -28.5zM283 881h14q8 -33 36.5 -51.5t72.5 -18.5t73 18.5t37 51.5h14q-1 -26 -13 -58.5t-42.5 -56t-68.5 -23.5q-22 0 -49.5 12t-49.5 44.5
t-24 81.5z" />
    <glyph glyph-name="obreve" unicode="&#x14f;" horiz-adv-x="531" 
d="M490 228q0 -48 -17 -92t-47 -77t-71 -51.5t-87 -18.5q-48 0 -90 17.5t-72.5 49.5t-47.5 75.5t-17 92.5t17 93t48 76t72.5 49.5t87.5 17.5t87.5 -17.5t72 -49.5t47.5 -74.5t17 -90.5zM284 18q41 0 72.5 24t43.5 60t12 66q0 46 -11.5 97t-31 86.5t-41.5 53.5q-31 26 -74 26
q-36 0 -65 -16t-49.5 -52t-20.5 -95q0 -37 11 -82t28 -79q45 -89 126 -89zM141 665h14q8 -33 36.5 -51.5t72.5 -18.5t73 18.5t37 51.5h14q-1 -26 -13 -58.5t-42.5 -56t-68.5 -23.5q-22 0 -49.5 12t-49.5 44.5t-24 81.5z" />
    <glyph glyph-name="Ohungarumlaut" unicode="&#x150;" horiz-adv-x="813" 
d="M754 340q0 -46 -14.5 -102t-47 -103.5t-73.5 -79t-96 -49.5t-119 -18q-71 0 -135 25.5t-111 72t-73 112t-26 141.5q0 74 26 139.5t73.5 113.5t112 75t138.5 27q78 0 143 -29t110 -79t68.5 -114t23.5 -132zM417 22q49 0 92 19t74.5 54.5t48.5 87.5t17 115q0 78 -19 145
t-53.5 115.5t-82.5 75t-103 26.5q-40 0 -74.5 -14t-61 -36t-47 -54.5t-32.5 -77t-12 -97.5q0 -70 18 -135.5t51 -116t80.5 -79t103.5 -28.5zM454 868q0 -2 -1.5 -6.5t-38.5 -46t-70 -79.5h-35q5 14 26.5 70.5t25.5 62.5q6 8 15.5 11.5t53.5 3.5q12 0 18 -3.5t6 -12.5z
M583 868q0 -2 -1.5 -6.5t-38.5 -46t-70 -79.5h-35q5 14 26.5 70.5t25.5 62.5q6 8 15.5 11.5t53.5 3.5q12 0 18 -3.5t6 -12.5z" />
    <glyph glyph-name="ohungarumlaut" unicode="&#x151;" horiz-adv-x="531" 
d="M490 228q0 -48 -17 -92t-47 -77t-71 -51.5t-87 -18.5q-48 0 -90 17.5t-72.5 49.5t-47.5 75.5t-17 92.5t17 93t48 76t72.5 49.5t87.5 17.5t87.5 -17.5t72 -49.5t47.5 -74.5t17 -90.5zM284 18q41 0 72.5 24t43.5 60t12 66q0 46 -11.5 97t-31 86.5t-41.5 53.5q-31 26 -74 26
q-36 0 -65 -16t-49.5 -52t-20.5 -95q0 -37 11 -82t28 -79q45 -89 126 -89zM308 652q0 -2 -1.5 -6.5t-38.5 -46t-70 -79.5h-35q5 14 26.5 70.5t25.5 62.5q6 8 15.5 11.5t53.5 3.5q12 0 18 -3.5t6 -12.5zM437 652q0 -2 -1.5 -6.5t-38.5 -46t-70 -79.5h-35q5 14 26.5 70.5
t25.5 62.5q6 8 15.5 11.5t53.5 3.5q12 0 18 -3.5t6 -12.5z" />
    <glyph glyph-name="OE" unicode="&#x152;" horiz-adv-x="1042" 
d="M365 682h599l7 -151h-26q-23 64 -56 93t-110 29h-277v-2q82 -45 125 -109.5t54 -167.5h108q44 0 66 23.5t24 79.5h29v-245h-29q0 26 -10 53t-35.5 43.5t-58.5 16.5h-94v-7q0 -97 -45.5 -176t-126.5 -131v-2h307q100 0 164 143h32l-32 -172h-596q-68 0 -128.5 25.5
t-105.5 72t-70 108.5t-25 131q0 34 8.5 78.5t31.5 89t61.5 85t94.5 66.5t114 26zM386 34q41 0 75.5 19.5t59.5 56t38.5 89.5t13.5 116q0 60 -12 119.5t-37.5 107.5t-66 77t-92.5 29q-34 0 -69.5 -12t-65.5 -42t-50 -80t-20 -120q0 -67 15.5 -132t44.5 -116.5t72 -81.5
t94 -30z" />
    <glyph glyph-name="oe" unicode="&#x153;" horiz-adv-x="750" 
d="M402 384q27 37 64 56.5t78 19.5q73 0 120 -48t53 -128h-283q5 -112 45 -168t117 -56q35 0 62 15t52 48l19 -12q-13 -26 -36.5 -55t-59 -48t-70.5 -19q-42 0 -83.5 22t-70.5 60q-78 -82 -161 -82q-40 0 -78 18.5t-67 51t-45.5 76t-16.5 90.5q0 48 16 91t44.5 75.5
t66.5 50.5t80 18t83.5 -20.5t70.5 -55.5zM256 18q38 0 63.5 23t35 60t9.5 70q0 125 -33.5 192.5t-95.5 67.5q-49 0 -78.5 -42t-29.5 -120q0 -118 33.5 -184.5t95.5 -66.5zM435 312h190q-2 25 -11.5 53t-32 47t-51.5 19q-38 0 -64 -31.5t-31 -87.5z" />
    <glyph glyph-name="Racute" unicode="&#x154;" horiz-adv-x="729" 
d="M26 682h340q71 0 124 -24.5t81 -62.5t28 -87q0 -40 -19 -73.5t-60.5 -59.5t-110.5 -36l82 -90l114 -133q33 -38 62 -61t58 -24v-21q-44 -10 -76 -10q-40 0 -73.5 22t-78.5 76l-166 199q-9 12 -19.5 18.5t-30.5 6.5h-60v-208q0 -47 21 -66t72 -19h9v-29h-297v29h9
q52 0 72.5 18.5t20.5 66.5v457q0 43 -20.5 62.5t-70.5 19.5h-11v29zM221 359h80q96 0 143 34.5t47 104.5q0 77 -48 116t-136 39h-86v-294zM408 871q0 -2 -1.5 -6.5t-38.5 -46t-70 -79.5h-35q5 14 26.5 70.5t25.5 62.5q6 8 15.5 11.5t53.5 3.5q12 0 18 -3.5t6 -12.5z" />
    <glyph glyph-name="racute" unicode="&#x155;" horiz-adv-x="375" 
d="M173 460v-115h2q29 60 58.5 85t59.5 25q26 0 51 -18.5t25 -36.5q0 -15 -11 -37t-23 -22q-11 0 -34 24t-42 24q-14 0 -30.5 -13.5t-55.5 -74.5v-198q0 -46 17 -61.5t62 -15.5h23v-26h-259v26h5q42 0 58 16t16 55v271l-79 34v14zM259 655q0 -2 -1.5 -6.5t-38.5 -46
t-70 -79.5h-35q5 14 26.5 70.5t25.5 62.5q6 8 15.5 11.5t53.5 3.5q12 0 18 -3.5t6 -12.5z" />
    <glyph glyph-name="uni0156" unicode="&#x156;" horiz-adv-x="729" 
d="M26 682h340q71 0 124 -24.5t81 -62.5t28 -87q0 -40 -19 -73.5t-60.5 -59.5t-110.5 -36l82 -90l114 -133q33 -38 62 -61t58 -24v-21q-44 -10 -76 -10q-40 0 -73.5 22t-78.5 76l-166 199q-9 12 -19.5 18.5t-30.5 6.5h-60v-208q0 -47 21 -66t72 -19h9v-29h-297v29h9
q52 0 72.5 18.5t20.5 66.5v457q0 43 -20.5 62.5t-70.5 19.5h-11v29zM221 359h80q96 0 143 34.5t47 104.5q0 77 -48 116t-136 39h-86v-294zM480 -97q0 -41 -36.5 -72t-99.5 -32v21q44 2 70 20t26 45q0 12 -7.5 22.5t-24.5 10.5t-30 8t-13 25q0 14 11.5 25t32.5 11
q15 0 31.5 -9t28 -30.5t11.5 -44.5z" />
    <glyph glyph-name="uni0157" unicode="&#x157;" horiz-adv-x="375" 
d="M173 460v-115h2q29 60 58.5 85t59.5 25q26 0 51 -18.5t25 -36.5q0 -15 -11 -37t-23 -22q-11 0 -34 24t-42 24q-14 0 -30.5 -13.5t-55.5 -74.5v-198q0 -46 17 -61.5t62 -15.5h23v-26h-259v26h5q42 0 58 16t16 55v271l-79 34v14zM202 -97q0 -41 -36.5 -72t-99.5 -32v21
q44 2 70 20t26 45q0 12 -7.5 22.5t-24.5 10.5t-30 8t-13 25q0 14 11.5 25t32.5 11q15 0 31.5 -9t28 -30.5t11.5 -44.5z" />
    <glyph glyph-name="Rcaron" unicode="&#x158;" horiz-adv-x="729" 
d="M26 682h340q71 0 124 -24.5t81 -62.5t28 -87q0 -40 -19 -73.5t-60.5 -59.5t-110.5 -36l82 -90l114 -133q33 -38 62 -61t58 -24v-21q-44 -10 -76 -10q-40 0 -73.5 22t-78.5 76l-166 199q-9 12 -19.5 18.5t-30.5 6.5h-60v-208q0 -47 21 -66t72 -19h9v-29h-297v29h9
q52 0 72.5 18.5t20.5 66.5v457q0 43 -20.5 62.5t-70.5 19.5h-11v29zM221 359h80q96 0 143 34.5t47 104.5q0 77 -48 116t-136 39h-86v-294zM207 886l95 -93l77 93h44l-85 -148h-91l-86 148h46z" />
    <glyph glyph-name="rcaron" unicode="&#x159;" horiz-adv-x="375" 
d="M173 460v-115h2q29 60 58.5 85t59.5 25q26 0 51 -18.5t25 -36.5q0 -15 -11 -37t-23 -22q-11 0 -34 24t-42 24q-14 0 -30.5 -13.5t-55.5 -74.5v-198q0 -46 17 -61.5t62 -15.5h23v-26h-259v26h5q42 0 58 16t16 55v271l-79 34v14zM111 670l95 -93l77 93h44l-85 -148h-91
l-86 148h46z" />
    <glyph glyph-name="Sacute" unicode="&#x15a;" horiz-adv-x="594" 
d="M508 638v-136h-34q-11 75 -57.5 116.5t-120.5 41.5q-30 0 -63.5 -9t-55 -33t-21.5 -57q0 -28 22.5 -57.5t105.5 -73.5q101 -52 138 -77q56 -38 83 -79.5t27 -90.5q0 -38 -14.5 -73t-45 -62.5t-77.5 -43.5t-108 -16q-51 0 -112 13.5t-111 35.5l-3 174h34q9 -90 59 -137
t135 -47q69 0 114 32t45 82q0 41 -26 72t-80 63l-140 80q-45 27 -73 53.5t-40 55.5t-12 58q0 76 60 123.5t160 47.5q105 0 211 -56zM386 871q0 -2 -1.5 -6.5t-38.5 -46t-70 -79.5h-35q5 14 26.5 70.5t25.5 62.5q6 8 15.5 11.5t53.5 3.5q12 0 18 -3.5t6 -12.5z" />
    <glyph glyph-name="sacute" unicode="&#x15b;" horiz-adv-x="396" 
d="M319 417v-106h-26q-22 120 -102 120q-35 0 -57 -19t-22 -49q0 -21 12 -39.5t59 -41.5q2 -1 40.5 -19t53.5 -28q75 -47 75 -114q0 -57 -45 -94.5t-112 -37.5q-33 0 -71 10t-67 27v124h26q3 -28 15 -59.5t39 -52t62 -20.5q36 0 62 23.5t26 55.5q0 21 -13 40t-62 45
q-2 1 -44.5 21.5t-58.5 31.5q-65 42 -65 104q0 26 13.5 53.5t50 47.5t82.5 20q71 0 129 -43zM288 655q0 -2 -1.5 -6.5t-38.5 -46t-70 -79.5h-35q5 14 26.5 70.5t25.5 62.5q6 8 15.5 11.5t53.5 3.5q12 0 18 -3.5t6 -12.5z" />
    <glyph glyph-name="Scircumflex" unicode="&#x15c;" horiz-adv-x="594" 
d="M508 638v-136h-34q-11 75 -57.5 116.5t-120.5 41.5q-30 0 -63.5 -9t-55 -33t-21.5 -57q0 -28 22.5 -57.5t105.5 -73.5q101 -52 138 -77q56 -38 83 -79.5t27 -90.5q0 -38 -14.5 -73t-45 -62.5t-77.5 -43.5t-108 -16q-51 0 -112 13.5t-111 35.5l-3 174h34q9 -90 59 -137
t135 -47q69 0 114 32t45 82q0 41 -26 72t-80 63l-140 80q-45 27 -73 53.5t-40 55.5t-12 58q0 76 60 123.5t160 47.5q105 0 211 -56zM264 886h91l86 -148h-46l-95 93l-77 -93h-44z" />
    <glyph glyph-name="scircumflex" unicode="&#x15d;" horiz-adv-x="396" 
d="M319 417v-106h-26q-22 120 -102 120q-35 0 -57 -19t-22 -49q0 -21 12 -39.5t59 -41.5q2 -1 40.5 -19t53.5 -28q75 -47 75 -114q0 -57 -45 -94.5t-112 -37.5q-33 0 -71 10t-67 27v124h26q3 -28 15 -59.5t39 -52t62 -20.5q36 0 62 23.5t26 55.5q0 21 -13 40t-62 45
q-2 1 -44.5 21.5t-58.5 31.5q-65 42 -65 104q0 26 13.5 53.5t50 47.5t82.5 20q71 0 129 -43zM150 670h91l86 -148h-46l-95 93l-77 -93h-44z" />
    <glyph glyph-name="Scedilla" unicode="&#x15e;" horiz-adv-x="594" 
d="M508 638v-136h-34q-11 75 -58 116.5t-120 41.5q-30 0 -63.5 -9t-55 -33t-21.5 -57q0 -19 10.5 -40t40 -43.5t79.5 -48.5q104 -55 134 -75q57 -38 84.5 -79.5t27.5 -91.5q0 -41 -14 -72t-37.5 -56t-70 -45.5t-113.5 -21.5l-10 -20q27 -5 42.5 -21.5t15.5 -39.5
q0 -37 -31 -59t-92 -22h-10v26h5q33 0 52 10.5t19 30.5q0 12 -10.5 23.5t-38.5 13.5l32 59q-49 2 -106 15t-101 33l-3 174h34q9 -90 59 -137t135 -47q69 0 114 32t45 82q0 39 -24.5 70.5t-81.5 64.5q-16 9 -78 44t-87 52q-48 32 -74 68t-26 83q0 76 60 123.5t160 47.5
q106 0 211 -56z" />
    <glyph glyph-name="scedilla" unicode="&#x15f;" horiz-adv-x="396" 
d="M319 417v-106h-26q-11 61 -36 90.5t-66 29.5q-35 0 -57 -19t-22 -49q0 -52 70 -80q73 -30 120 -65q50 -38 50 -97q0 -24 -13 -53t-48 -51.5t-81 -26.5l-11 -22q27 -5 42.5 -21.5t15.5 -39.5q0 -37 -31 -59t-92 -22h-10v26h5q33 0 52 10.5t19 30.5q0 32 -48 37l31 59
q-33 2 -67 11.5t-59 25.5v124h26q3 -28 15 -59.5t39 -52t62 -20.5q36 0 62 23.5t26 55.5q0 52 -75 85q-76 34 -121 66q-47 35 -47 91q0 26 13.5 53.5t50 47.5t82.5 20q71 0 129 -43z" />
    <glyph glyph-name="Scaron" unicode="&#x160;" horiz-adv-x="594" 
d="M508 638v-136h-34q-11 75 -57.5 116.5t-120.5 41.5q-30 0 -63.5 -9t-55 -33t-21.5 -57q0 -28 22.5 -57.5t105.5 -73.5q101 -52 138 -77q56 -38 83 -79.5t27 -90.5q0 -38 -14.5 -73t-45 -62.5t-77.5 -43.5t-108 -16q-51 0 -112 13.5t-111 35.5l-3 174h34q9 -90 59 -137
t135 -47q69 0 114 32t45 82q0 41 -26 72t-80 63l-140 80q-45 27 -73 53.5t-40 55.5t-12 58q0 76 60 123.5t160 47.5q105 0 211 -56zM212 886l95 -93l77 93h44l-85 -148h-91l-86 148h46z" />
    <glyph glyph-name="scaron" unicode="&#x161;" horiz-adv-x="396" 
d="M319 417v-106h-26q-22 120 -102 120q-35 0 -57 -19t-22 -49q0 -21 12 -39.5t59 -41.5q2 -1 40.5 -19t53.5 -28q75 -47 75 -114q0 -57 -45 -94.5t-112 -37.5q-33 0 -71 10t-67 27v124h26q3 -28 15 -59.5t39 -52t62 -20.5q36 0 62 23.5t26 55.5q0 21 -13 40t-62 45
q-2 1 -44.5 21.5t-58.5 31.5q-65 42 -65 104q0 26 13.5 53.5t50 47.5t82.5 20q71 0 129 -43zM113 670l95 -93l77 93h44l-85 -148h-91l-86 148h46z" />
    <glyph glyph-name="uni0162" unicode="&#x162;" horiz-adv-x="781" 
d="M32 682h716l13 -161h-28q-28 68 -63.5 100t-85.5 32h-147v-536q0 -49 20 -68.5t74 -19.5h12v-29h-302v29h17q27 0 47.5 7.5t29.5 27.5t9 55v534h-134q-41 0 -70 -15t-50.5 -43t-40.5 -74h-29zM454 -97q0 -41 -36.5 -72t-99.5 -32v21q44 2 70 20t26 45q0 12 -7.5 22.5
t-24.5 10.5t-30 8t-13 25q0 14 11.5 25t32.5 11q15 0 31.5 -9t28 -30.5t11.5 -44.5z" />
    <glyph glyph-name="uni0163" unicode="&#x163;" horiz-adv-x="313" 
d="M144 548h25v-98h138v-36h-138v-311q0 -35 14.5 -50.5t53.5 -15.5q32 0 79 8v-31q-27 -10 -64 -17.5t-63 -7.5q-98 0 -98 99v326h-80v23q49 14 81.5 41.5t51.5 69.5zM225 -97q0 -41 -36.5 -72t-99.5 -32v21q44 2 70 20t26 45q0 12 -7.5 22.5t-24.5 10.5t-30 8t-13 25
q0 14 11.5 25t32.5 11q15 0 31.5 -9t28 -30.5t11.5 -44.5z" />
    <glyph glyph-name="Tcaron" unicode="&#x164;" horiz-adv-x="781" 
d="M32 682h716l13 -161h-28q-28 68 -63.5 100t-85.5 32h-147v-536q0 -49 20 -68.5t74 -19.5h12v-29h-302v29h17q27 0 47.5 7.5t29.5 27.5t9 55v534h-134q-41 0 -70 -15t-50.5 -43t-40.5 -74h-29zM309 886l95 -93l77 93h44l-85 -148h-91l-86 148h46z" />
    <glyph glyph-name="tcaron" unicode="&#x165;" horiz-adv-x="313" 
d="M144 548h25v-98h138v-36h-138v-311q0 -35 14.5 -50.5t53.5 -15.5q32 0 79 8v-31q-27 -10 -64 -17.5t-63 -7.5q-98 0 -98 99v326h-80v23q49 14 81.5 41.5t51.5 69.5zM365 598q0 -22 -11 -48t-41.5 -50.5t-72.5 -38.5l-9 25q33 11 53.5 25t28 30t7.5 30q0 16 -6.5 26
t-18.5 10l-23 -2q-19 0 -31 13t-12 29q0 21 14 34t37 13q17 0 36.5 -10t34 -34t14.5 -52z" />
    <glyph glyph-name="Tbar" unicode="&#x166;" horiz-adv-x="781" 
d="M32 682h716l13 -161h-28q-21 51 -46 81.5t-52 40.5t-51 10h-147v-280h148v-29h-148v-228q0 -48 20.5 -67.5t73.5 -19.5h12v-29h-302v29h13q52 0 71 20t19 71v224h-150v29h150v280h-133q-42 0 -71.5 -15t-50.5 -43t-40 -74h-29z" />
    <glyph glyph-name="tbar" unicode="&#x167;" horiz-adv-x="313" 
d="M144 548h25v-98h138v-36h-138v-143h125v-29h-125v-139q0 -35 14.5 -50.5t53.5 -15.5q32 0 79 8v-31q-27 -10 -64 -17.5t-63 -7.5q-98 0 -98 99v154h-73v29h73v143h-80v23q96 27 133 111z" />
    <glyph glyph-name="Utilde" unicode="&#x168;" horiz-adv-x="802" 
d="M11 682h309v-29h-18q-50 0 -72.5 -17t-22.5 -60v-353q0 -62 28 -105t74 -65t110 -22q115 0 173.5 67.5t58.5 187.5v238q0 35 -7.5 63t-30.5 46.5t-77 19.5v29h253v-29q-47 -5 -69 -21.5t-28 -43t-6 -56.5v-259q0 -139 -71.5 -212t-214.5 -73q-68 0 -122.5 17t-90.5 47
t-54.5 71t-18.5 87v356q0 52 -22 69.5t-72 17.5h-9v29zM555 875l27 -15q-8 -48 -36 -79t-57 -31q-24 0 -73.5 26t-64.5 26q-14 0 -26.5 -9t-29.5 -42l-28 12q7 47 32.5 79t60.5 32q16 0 33 -6.5t54.5 -25.5t52.5 -19q33 0 55 52z" />
    <glyph glyph-name="utilde" unicode="&#x169;" horiz-adv-x="563" 
d="M163 458v-311q0 -45 24.5 -70.5t71.5 -25.5q68 0 132 58v241q0 43 -18 58t-64 16v26q64 0 160 8v-366q0 -26 9 -38t32 -12l33 2v-26l-152 -28v87q-38 -41 -83.5 -64.5t-87.5 -23.5q-61 0 -98 41t-37 98v229q0 33 -16.5 48t-61.5 19v26q111 1 156 8zM390 659l27 -15
q-8 -48 -36 -79t-57 -31q-24 0 -73.5 26t-64.5 26q-14 0 -26.5 -9t-29.5 -42l-28 12q7 47 32.5 79t60.5 32q16 0 33 -6.5t54.5 -25.5t52.5 -19q33 0 55 52z" />
    <glyph glyph-name="Umacron" unicode="&#x16a;" horiz-adv-x="802" 
d="M11 682h309v-29h-18q-50 0 -72.5 -17t-22.5 -60v-353q0 -62 28 -105t74 -65t110 -22q115 0 173.5 67.5t58.5 187.5v238q0 35 -7.5 63t-30.5 46.5t-77 19.5v29h253v-29q-47 -5 -69 -21.5t-28 -43t-6 -56.5v-259q0 -139 -71.5 -212t-214.5 -73q-68 0 -122.5 17t-90.5 47
t-54.5 71t-18.5 87v356q0 52 -22 69.5t-72 17.5h-9v29zM242 842h359v-59h-359v59z" />
    <glyph glyph-name="umacron" unicode="&#x16b;" horiz-adv-x="563" 
d="M163 458v-311q0 -45 24.5 -70.5t71.5 -25.5q68 0 132 58v241q0 43 -18 58t-64 16v26q64 0 160 8v-366q0 -26 9 -38t32 -12l33 2v-26l-152 -28v87q-38 -41 -83.5 -64.5t-87.5 -23.5q-61 0 -98 41t-37 98v229q0 33 -16.5 48t-61.5 19v26q111 1 156 8zM78 626h359v-59h-359
v59z" />
    <glyph glyph-name="Ubreve" unicode="&#x16c;" horiz-adv-x="802" 
d="M11 682h309v-29h-18q-50 0 -72.5 -17t-22.5 -60v-353q0 -62 28 -105t74 -65t110 -22q115 0 173.5 67.5t58.5 187.5v238q0 35 -7.5 63t-30.5 46.5t-77 19.5v29h253v-29q-47 -5 -69 -21.5t-28 -43t-6 -56.5v-259q0 -139 -71.5 -212t-214.5 -73q-68 0 -122.5 17t-90.5 47
t-54.5 71t-18.5 87v356q0 52 -22 69.5t-72 17.5h-9v29zM297 881h14q8 -33 36.5 -51.5t72.5 -18.5t73 18.5t37 51.5h14q-1 -26 -13 -58.5t-42.5 -56t-68.5 -23.5q-22 0 -49.5 12t-49.5 44.5t-24 81.5z" />
    <glyph glyph-name="ubreve" unicode="&#x16d;" horiz-adv-x="563" 
d="M163 458v-311q0 -45 24.5 -70.5t71.5 -25.5q68 0 132 58v241q0 43 -18 58t-64 16v26q64 0 160 8v-366q0 -26 9 -38t32 -12l33 2v-26l-152 -28v87q-38 -41 -83.5 -64.5t-87.5 -23.5q-61 0 -98 41t-37 98v229q0 33 -16.5 48t-61.5 19v26q111 1 156 8zM128 665h14
q8 -33 36.5 -51.5t72.5 -18.5t73 18.5t37 51.5h14q-1 -26 -13 -58.5t-42.5 -56t-68.5 -23.5q-22 0 -49.5 12t-49.5 44.5t-24 81.5z" />
    <glyph glyph-name="Uring" unicode="&#x16e;" horiz-adv-x="802" 
d="M11 682h309v-29h-18q-50 0 -72.5 -17t-22.5 -60v-353q0 -62 28 -105t74 -65t110 -22q115 0 173.5 67.5t58.5 187.5v238q0 35 -7.5 63t-30.5 46.5t-77 19.5v29h253v-29q-47 -5 -69 -21.5t-28 -43t-6 -56.5v-259q0 -139 -71.5 -212t-214.5 -73q-68 0 -122.5 17t-90.5 47
t-54.5 71t-18.5 87v356q0 52 -22 69.5t-72 17.5h-9v29zM516 825q0 -35 -25.5 -60.5t-59.5 -25.5q-16 0 -36 8.5t-35 30.5t-15 47q0 34 25.5 59.5t60.5 25.5q16 0 36 -8.5t34.5 -30t14.5 -46.5zM430 769q23 0 39.5 16.5t16.5 39.5t-16.5 39t-39.5 16t-39 -16t-16 -39
t16 -39.5t39 -16.5z" />
    <glyph glyph-name="uring" unicode="&#x16f;" horiz-adv-x="563" 
d="M163 458v-311q0 -45 24.5 -70.5t71.5 -25.5q68 0 132 58v241q0 43 -18 58t-64 16v26q64 0 160 8v-366q0 -26 9 -38t32 -12l33 2v-26l-152 -28v87q-38 -41 -83.5 -64.5t-87.5 -23.5q-61 0 -98 41t-37 98v229q0 33 -16.5 48t-61.5 19v26q111 1 156 8zM348 609
q0 -35 -25.5 -60.5t-59.5 -25.5q-16 0 -36 8.5t-35 30.5t-15 47q0 34 25.5 59.5t60.5 25.5q16 0 36 -8.5t34.5 -30t14.5 -46.5zM262 553q23 0 39.5 16.5t16.5 39.5t-16.5 39t-39.5 16t-39 -16t-16 -39t16 -39.5t39 -16.5z" />
    <glyph glyph-name="Uhungarumlaut" unicode="&#x170;" horiz-adv-x="802" 
d="M11 682h309v-29h-18q-50 0 -72.5 -17t-22.5 -60v-353q0 -62 28 -105t74 -65t110 -22q115 0 173.5 67.5t58.5 187.5v238q0 35 -7.5 63t-30.5 46.5t-77 19.5v29h253v-29q-47 -5 -69 -21.5t-28 -43t-6 -56.5v-259q0 -139 -71.5 -212t-214.5 -73q-68 0 -122.5 17t-90.5 47
t-54.5 71t-18.5 87v356q0 52 -22 69.5t-72 17.5h-9v29zM454 868q0 -2 -1.5 -6.5t-38.5 -46t-70 -79.5h-35q5 14 26.5 70.5t25.5 62.5q6 8 15.5 11.5t53.5 3.5q12 0 18 -3.5t6 -12.5zM583 868q0 -2 -1.5 -6.5t-38.5 -46t-70 -79.5h-35q5 14 26.5 70.5t25.5 62.5
q6 8 15.5 11.5t53.5 3.5q12 0 18 -3.5t6 -12.5z" />
    <glyph glyph-name="uhungarumlaut" unicode="&#x171;" horiz-adv-x="563" 
d="M163 458v-311q0 -45 24.5 -70.5t71.5 -25.5q68 0 132 58v241q0 43 -18 58t-64 16v26q64 0 160 8v-366q0 -26 9 -38t32 -12l33 2v-26l-152 -28v87q-38 -41 -83.5 -64.5t-87.5 -23.5q-61 0 -98 41t-37 98v229q0 33 -16.5 48t-61.5 19v26q111 1 156 8zM299 652
q0 -2 -1.5 -6.5t-38.5 -46t-70 -79.5h-35q5 14 26.5 70.5t25.5 62.5q6 8 15.5 11.5t53.5 3.5q12 0 18 -3.5t6 -12.5zM428 652q0 -2 -1.5 -6.5t-38.5 -46t-70 -79.5h-35q5 14 26.5 70.5t25.5 62.5q6 8 15.5 11.5t53.5 3.5q12 0 18 -3.5t6 -12.5z" />
    <glyph glyph-name="Uogonek" unicode="&#x172;" horiz-adv-x="802" 
d="M11 682h309v-29h-13q-55 0 -77.5 -16.5t-22.5 -60.5v-354q0 -61 28 -104t74 -65t110 -22q112 0 172 67t60 189v237q0 35 -7.5 63t-30.5 46.5t-77 19.5v29h253v-29q-58 -6 -80.5 -31.5t-22.5 -93.5v-254q0 -133 -64.5 -206t-194.5 -79q-12 -14 -19 -31t-7 -31
q0 -24 16.5 -39.5t42.5 -15.5q33 0 67 15v-41q-10 -6 -25.5 -13t-39.5 -7q-22 0 -47.5 9t-43.5 32t-18 51q0 17 6.5 33t26.5 37q-49 1 -98 13.5t-87.5 40t-62.5 70t-24 98.5v360q0 48 -22.5 65.5t-71.5 17.5h-9v29z" />
    <glyph glyph-name="uogonek" unicode="&#x173;" horiz-adv-x="563" 
d="M163 458v-311q0 -45 24.5 -70.5t71.5 -25.5q68 0 132 58v240q0 43 -17.5 58.5t-64.5 16.5v26q84 1 160 8v-367q0 -25 9.5 -37t32.5 -12l32 2v-26l-103 -19q-36 -35 -36 -72q0 -24 16.5 -39.5t42.5 -15.5q33 0 67 15v-41q-10 -6 -25.5 -13t-39.5 -7q-22 0 -47.5 9
t-43.5 32t-18 51q0 19 7.5 35.5t27.5 37.5v86q-38 -41 -83.5 -64.5t-87.5 -23.5q-30 0 -61 13t-52.5 48t-21.5 78v229q0 33 -16 48t-62 19v26l103 3q43 3 53 5z" />
    <glyph glyph-name="Wcircumflex" unicode="&#x174;" horiz-adv-x="1021" 
d="M8 682h238v-29q-25 -2 -42 -18t-17 -42q0 -11 9 -40.5t70 -160.5q77 -164 128 -296q10 27 47 98l60 117l-103 217q-21 44 -35 69t-27 39t-42 17v29h231v-29q-23 -2 -36.5 -16.5t-13.5 -36.5q0 -30 18 -66l60 -119l43 82q35 66 35 95q0 24 -15.5 41.5t-38.5 19.5v29h184
v-29q-44 -4 -89 -84q-11 -20 -26 -48t-41 -79t-33 -65q114 -242 120 -260q63 135 98 216q50 116 63 155q24 72 24 96q0 30 -16.5 48.5t-47.5 20.5v29h196v-29q-19 -4 -33.5 -12t-28.5 -31q-19 -31 -41 -85l-96 -231q-2 -5 -6 -14t-58 -126.5t-60 -165.5h-42q-4 20 -19 60
t-33 77l-72 151l-94 -185q-36 -70 -44 -103h-43q-4 31 -55 146l-143 318l-52 123q-18 41 -37.5 59.5t-43.5 18.5v29zM495 886h91l86 -148h-46l-95 93l-77 -93h-44z" />
    <glyph glyph-name="wcircumflex" unicode="&#x175;" horiz-adv-x="729" 
d="M6 450h186v-26q-50 -3 -50 -40q0 -11 17 -54l96 -241l97 243q-9 28 -20 52.5t-28 31t-35 8.5v26h212v-26q-62 -4 -62 -38q0 -16 17 -61l90 -229l85 225q12 33 12 52q0 48 -56 51v26h152v-26q-23 -2 -39 -19.5t-33 -63.5l-133 -353h-26l-122 309l-123 -309h-26l-149 368
q-16 38 -26 49.5t-36 18.5v26zM332 670h91l86 -148h-46l-95 93l-77 -93h-44z" />
    <glyph glyph-name="Ycircumflex" unicode="&#x176;" horiz-adv-x="729" 
d="M8 682h298v-29h-18q-64 0 -64 -40q0 -9 5.5 -26.5t36.5 -62.5l132 -197l106 149q20 29 36 62.5t16 50.5q0 55 -77 64v29h243v-29q-36 -1 -69.5 -34t-86.5 -110l-155 -225v-170q0 -45 21 -65t71 -20h9v-29h-294v29h5q53 0 74 19.5t21 65.5v176l-184 273q-28 42 -52.5 64.5
t-73.5 25.5v29zM338 886h91l86 -148h-46l-95 93l-77 -93h-44z" />
    <glyph glyph-name="ycircumflex" unicode="&#x177;" horiz-adv-x="500" 
d="M12 450h212v-26q-24 -1 -42 -7.5t-18 -27.5q0 -9 5.5 -28t23.5 -58t20 -44l75 -167l64 168q33 86 33 110t-14 36.5t-47 17.5v26h165v-26q-16 -3 -33 -13.5t-30 -35.5q-3 -7 -8.5 -19.5t-27.5 -67.5l-92 -245l-46 -121q-14 -32 -34.5 -58.5t-45.5 -39t-50 -12.5
q-33 0 -55.5 15.5t-22.5 38.5q0 17 12 29.5t27 12.5q13 0 28.5 -13t24 -17t21.5 -4q28 0 50 28t45 93l-165 362q-15 30 -22.5 41.5t-17.5 16.5q-13 7 -35 9v26zM219 670h91l86 -148h-46l-95 93l-77 -93h-44z" />
    <glyph glyph-name="Ydieresis" unicode="&#x178;" horiz-adv-x="729" 
d="M8 682h298v-29h-18q-64 0 -64 -40q0 -9 5.5 -26.5t36.5 -62.5l132 -197l106 149q20 29 36 62.5t16 50.5q0 55 -77 64v29h243v-29q-36 -1 -69.5 -34t-86.5 -110l-155 -225v-170q0 -45 21 -65t71 -20h9v-29h-294v29h5q53 0 74 19.5t21 65.5v176l-184 273q-28 42 -52.5 64.5
t-73.5 25.5v29zM307 812q0 -20 -14.5 -34.5t-34.5 -14.5t-34.5 14.5t-14.5 34.5t14.5 34.5t34.5 14.5t34.5 -14.5t14.5 -34.5zM519 812q0 -20 -14.5 -34.5t-34.5 -14.5t-34.5 14.5t-14.5 34.5t14.5 34.5t34.5 14.5t34.5 -14.5t14.5 -34.5z" />
    <glyph glyph-name="Zacute" unicode="&#x179;" horiz-adv-x="688" 
d="M89 682h547v-23l-482 -626h291q62 0 96 28q39 32 88 116h30l-45 -177h-575v29l476 620h-225q-34 0 -61.5 -4t-49.5 -19q-36 -24 -61 -101h-29v157zM457 871q0 -2 -1.5 -6.5t-38.5 -46t-70 -79.5h-35q5 14 26.5 70.5t25.5 62.5q6 8 15.5 11.5t53.5 3.5q12 0 18 -3.5
t6 -12.5z" />
    <glyph glyph-name="zacute" unicode="&#x17a;" horiz-adv-x="458" 
d="M43 343v121h8q13 0 27 -7t42 -7h290v-24l-292 -400h109q64 0 102.5 27t64.5 91h24l-24 -144h-373v23l296 401h-96q-65 0 -95 -16.5t-57 -64.5h-26zM329 655q0 -2 -1.5 -6.5t-38.5 -46t-70 -79.5h-35q5 14 26.5 70.5t25.5 62.5q6 8 15.5 11.5t53.5 3.5q12 0 18 -3.5
t6 -12.5z" />
    <glyph glyph-name="Zdotaccent" unicode="&#x17b;" horiz-adv-x="688" 
d="M89 682h547v-23l-482 -626h291q62 0 96 28q39 32 88 116h30l-45 -177h-575v29l476 620h-225q-34 0 -61.5 -4t-49.5 -19q-36 -24 -61 -101h-29v157zM413 812q0 -20 -14.5 -34.5t-34.5 -14.5t-34.5 14.5t-14.5 34.5t14.5 34.5t34.5 14.5t34.5 -14.5t14.5 -34.5z" />
    <glyph glyph-name="zdotaccent" unicode="&#x17c;" horiz-adv-x="458" 
d="M43 343v121h8q13 0 27 -7t42 -7h290v-24l-292 -400h109q64 0 102.5 27t64.5 91h24l-24 -144h-373v23l296 401h-96q-65 0 -95 -16.5t-57 -64.5h-26zM281 596q0 -20 -14.5 -34.5t-34.5 -14.5t-34.5 14.5t-14.5 34.5t14.5 34.5t34.5 14.5t34.5 -14.5t14.5 -34.5z" />
    <glyph glyph-name="Zcaron" unicode="&#x17d;" horiz-adv-x="688" 
d="M89 682h547v-23l-482 -626h291q62 0 96 28q39 32 88 116h30l-45 -177h-575v29l476 620h-225q-34 0 -61.5 -4t-49.5 -19q-36 -24 -61 -101h-29v157zM259 886l95 -93l77 93h44l-85 -148h-91l-86 148h46z" />
    <glyph glyph-name="zcaron" unicode="&#x17e;" horiz-adv-x="458" 
d="M43 343v121h8q13 0 27 -7t42 -7h290v-24l-292 -400h109q64 0 102.5 27t64.5 91h24l-24 -144h-373v23l296 401h-96q-65 0 -95 -16.5t-57 -64.5h-26zM144 670l95 -93l77 93h44l-85 -148h-91l-86 148h46z" />
    <glyph glyph-name="florin" unicode="&#x192;" horiz-adv-x="542" 
d="M574 641q0 -15 -10.5 -25t-23.5 -10q-10 0 -21 7.5t-19 19.5q-17 27 -34 27q-14 0 -23 -12q-6 -7 -15.5 -27.5t-16.5 -50.5l-35 -140h89l-6 -26h-89l-76 -317q-66 -275 -209 -275q-33 0 -52.5 14t-19.5 37q0 15 10 26t24 11q9 0 19 -7t18 -20q17 -27 38 -27q23 0 40 28
t31 87l107 443h-99l6 26h99q26 129 78 196.5t119 67.5q33 0 52 -14.5t19 -38.5z" />
    <glyph glyph-name="AEacute" unicode="&#x1fc;" horiz-adv-x="990" 
d="M202 682h586l50 -148h-31q-56 71 -101.5 95t-112.5 24h-179l90 -284h174q36 0 55 15t19 43q0 9 -3 30.5t-6 30.5h30l84 -250h-29q-27 45 -51.5 67t-54 28.5t-60.5 6.5h-149l65 -210q17 -54 25 -70.5t19 -23.5t25 -7h106q58 0 96 30t80 114h33l-33 -173h-515v29h6
q35 0 53.5 17.5t18.5 45.5q0 5 -0.5 10.5t-7.5 28.5l-67 209h-218q-40 -92 -61 -154.5t-21 -86.5q0 -31 22 -49.5t63 -20.5v-29h-223v29q34 7 55.5 32t50.5 90l170 385q19 46 19 65q0 50 -72 52v29zM212 369h196l-83 250q-49 -99 -113 -250zM581 871q0 -2 -1.5 -6.5
t-38.5 -46t-70 -79.5h-35q5 14 26.5 70.5t25.5 62.5q6 8 15.5 11.5t53.5 3.5q12 0 18 -3.5t6 -12.5z" />
    <glyph glyph-name="aeacute" unicode="&#x1fd;" horiz-adv-x="698" 
d="M369 396q52 64 125 64q65 0 105.5 -39.5t53.5 -115.5l-275 -61v-15q0 -94 32 -127q18 -20 45 -31t57 -11q75 0 135 67l17 -16q-29 -56 -79 -89t-105 -33q-48 0 -91 23.5t-74 69.5q-39 -44 -82.5 -68.5t-84.5 -24.5q-22 0 -47.5 10t-44 36.5t-18.5 60.5q0 60 66 98.5
t196 63.5v75q0 42 -23 68.5t-64 26.5q-20 0 -42.5 -9t-32.5 -21.5t-10 -23.5q0 -16 12 -33.5t12 -22.5t-9 -12.5t-27 -15.5t-26 -8q-11 0 -23 25t-12 42q0 15 10.5 33t35 35t64 30t88.5 13q40 0 67.5 -15t48.5 -49zM379 273l186 43q-5 37 -21 64t-36.5 36.5t-38.5 9.5
q-40 0 -65 -32t-25 -94v-27zM190 47q21 0 46.5 10t63.5 48v127q-105 -25 -143 -52t-38 -64q0 -30 19.5 -49.5t51.5 -19.5zM455 655q0 -2 -1.5 -6.5t-38.5 -46t-70 -79.5h-35q5 14 26.5 70.5t25.5 62.5q6 8 15.5 11.5t53.5 3.5q12 0 18 -3.5t6 -12.5z" />
    <glyph glyph-name="Oslashacute" unicode="&#x1fe;" horiz-adv-x="813" 
d="M632 616l73 82l23 -20l-74 -83q52 -56 76 -123t24 -132q0 -61 -18.5 -115t-46.5 -95t-69 -73t-96.5 -50.5t-119.5 -18.5t-123 21t-101 56l-71 -79l-22 19l71 80q-99 102 -99 254q0 75 26.5 140.5t74 113.5t112 74.5t137.5 26.5q65 0 118.5 -19t104.5 -59zM219 153
l360 403q-34 49 -82 76.5t-106 27.5q-39 0 -79 -16t-73.5 -49.5t-54 -88t-20.5 -125.5q0 -63 15 -123t40 -105zM595 529l-361 -403q77 -104 183 -104q49 0 91.5 18.5t74 54t49 87.5t17.5 116q0 63 -15 128.5t-39 102.5zM494 871q0 -2 -1.5 -6.5t-38.5 -46t-70 -79.5h-35
q5 14 26.5 70.5t25.5 62.5q6 8 15.5 11.5t53.5 3.5q12 0 18 -3.5t6 -12.5z" />
    <glyph glyph-name="oslashacute" unicode="&#x1ff;" horiz-adv-x="531" 
d="M407 410l68 76l19 -18l-68 -75q64 -69 64 -165q0 -35 -9.5 -69.5t-25 -60t-30.5 -41.5q-31 -33 -72.5 -50.5t-84.5 -17.5q-42 0 -82.5 15t-70.5 43l-70 -77l-19 18l70 78q-55 70 -55 158q0 48 16.5 92t48.5 77q66 67 160 67q40 0 78.5 -14t62.5 -36zM150 126l213 236
q-41 69 -109 69q-34 0 -66.5 -17t-50.5 -56t-18 -90q0 -31 9 -73.5t22 -68.5zM377 338l-215 -238q18 -36 50 -59t72 -23q57 0 92.5 44t35.5 106q0 88 -35 170zM349 655q0 -2 -1.5 -6.5t-38.5 -46t-70 -79.5h-35q5 14 26.5 70.5t25.5 62.5q6 8 15.5 11.5t53.5 3.5
q12 0 18 -3.5t6 -12.5z" />
    <glyph glyph-name="uni0218" unicode="&#x218;" horiz-adv-x="594" 
d="M508 638v-136h-34q-11 75 -57.5 116.5t-120.5 41.5q-30 0 -63.5 -9t-55 -33t-21.5 -57q0 -28 22.5 -57.5t105.5 -73.5q101 -52 138 -77q56 -38 83 -79.5t27 -90.5q0 -38 -14.5 -73t-45 -62.5t-77.5 -43.5t-108 -16q-51 0 -112 13.5t-111 35.5l-3 174h34q9 -90 59 -137
t135 -47q69 0 114 32t45 82q0 41 -26 72t-80 63l-140 80q-45 27 -73 53.5t-40 55.5t-12 58q0 76 60 123.5t160 47.5q105 0 211 -56zM359 -97q0 -41 -36.5 -72t-99.5 -32v21q44 2 70 20t26 45q0 12 -7.5 22.5t-24.5 10.5t-30 8t-13 25q0 14 11.5 25t32.5 11q15 0 31.5 -9
t28 -30.5t11.5 -44.5z" />
    <glyph glyph-name="uni0219" unicode="&#x219;" horiz-adv-x="396" 
d="M319 417v-106h-26q-22 120 -102 120q-35 0 -57 -19t-22 -49q0 -21 12 -39.5t59 -41.5q2 -1 40.5 -19t53.5 -28q75 -47 75 -114q0 -57 -45 -94.5t-112 -37.5q-33 0 -71 10t-67 27v124h26q3 -28 15 -59.5t39 -52t62 -20.5q36 0 62 23.5t26 55.5q0 21 -13 40t-62 45
q-2 1 -44.5 21.5t-58.5 31.5q-65 42 -65 104q0 26 13.5 53.5t50 47.5t82.5 20q71 0 129 -43zM265 -97q0 -41 -36.5 -72t-99.5 -32v21q44 2 70 20t26 45q0 12 -7.5 22.5t-24.5 10.5t-30 8t-13 25q0 14 11.5 25t32.5 11q15 0 31.5 -9t28 -30.5t11.5 -44.5z" />
    <glyph glyph-name="uni021A" unicode="&#x21a;" horiz-adv-x="781" 
d="M32 682h716l13 -161h-28q-28 68 -63.5 100t-85.5 32h-147v-536q0 -49 20 -68.5t74 -19.5h12v-29h-302v29h17q27 0 47.5 7.5t29.5 27.5t9 55v534h-134q-41 0 -70 -15t-50.5 -43t-40.5 -74h-29zM454 -97q0 -41 -36.5 -72t-99.5 -32v21q44 2 70 20t26 45q0 12 -7.5 22.5
t-24.5 10.5t-30 8t-13 25q0 14 11.5 25t32.5 11q15 0 31.5 -9t28 -30.5t11.5 -44.5z" />
    <glyph glyph-name="uni021B" unicode="&#x21b;" horiz-adv-x="313" 
d="M144 548h25v-98h138v-36h-138v-311q0 -35 14.5 -50.5t53.5 -15.5q32 0 79 8v-31q-27 -10 -64 -17.5t-63 -7.5q-98 0 -98 99v326h-80v23q49 14 81.5 41.5t51.5 69.5zM225 -97q0 -41 -36.5 -72t-99.5 -32v21q44 2 70 20t26 45q0 12 -7.5 22.5t-24.5 10.5t-30 8t-13 25
q0 14 11.5 25t32.5 11q15 0 31.5 -9t28 -30.5t11.5 -44.5z" />
    <glyph glyph-name="circumflex" unicode="&#x2c6;" 
d="M120 670h91l86 -148h-46l-95 93l-77 -93h-44z" />
    <glyph glyph-name="caron" unicode="&#x2c7;" 
d="M81 670l95 -93l77 93h44l-85 -148h-91l-86 148h46z" />
    <glyph glyph-name="uni02C9" unicode="&#x2c9;" 
d="M-13 626h359v-59h-359v59z" />
    <glyph glyph-name="breve" unicode="&#x2d8;" 
d="M43 665h14q8 -33 36.5 -51.5t72.5 -18.5t73 18.5t37 51.5h14q-1 -26 -13 -58.5t-42.5 -56t-68.5 -23.5q-22 0 -49.5 12t-49.5 44.5t-24 81.5z" />
    <glyph glyph-name="dotaccent" unicode="&#x2d9;" 
d="M215 596q0 -20 -14.5 -34.5t-34.5 -14.5t-34.5 14.5t-14.5 34.5t14.5 34.5t34.5 14.5t34.5 -14.5t14.5 -34.5z" />
    <glyph glyph-name="ring" unicode="&#x2da;" 
d="M252 609q0 -35 -25.5 -60.5t-59.5 -25.5q-16 0 -36 8.5t-35 30.5t-15 47q0 34 25.5 59.5t60.5 25.5q16 0 36 -8.5t34.5 -30t14.5 -46.5zM166 553q23 0 39.5 16.5t16.5 39.5t-16.5 39t-39.5 16t-39 -16t-16 -39t16 -39.5t39 -16.5z" />
    <glyph glyph-name="ogonek" unicode="&#x2db;" 
d="M124 0h41q-37 -34 -37 -73q0 -24 16.5 -39.5t42.5 -15.5q33 0 67 15v-41q-35 -20 -65 -20q-22 0 -47.5 9t-43.5 32t-18 51q0 16 6.5 33.5t37.5 48.5z" />
    <glyph glyph-name="tilde" unicode="&#x2dc;" 
d="M297 659l27 -15q-8 -48 -36 -79t-57 -31q-24 0 -73.5 26t-64.5 26q-14 0 -26.5 -9t-29.5 -42l-28 12q7 47 32.5 79t60.5 32q16 0 33 -6.5t54.5 -25.5t52.5 -19q33 0 55 52z" />
    <glyph glyph-name="hungarumlaut" unicode="&#x2dd;" 
d="M227 652q0 -2 -1.5 -6.5t-38.5 -46t-70 -79.5h-35q5 14 26.5 70.5t25.5 62.5q6 8 15.5 11.5t53.5 3.5q12 0 18 -3.5t6 -12.5zM356 652q0 -2 -1.5 -6.5t-38.5 -46t-70 -79.5h-35q5 14 26.5 70.5t25.5 62.5q6 8 15.5 11.5t53.5 3.5q12 0 18 -3.5t6 -12.5z" />
    <glyph glyph-name="uni03A9" unicode="&#x3a9;" horiz-adv-x="709" 
d="M635 368q0 -76 -39.5 -151t-124.5 -158h112q22 0 36.5 10t32.5 64l23 -1l-24 -132h-226l-6 18q64 108 81 143q50 106 50 199q0 130 -54 203t-143 73q-93 0 -143.5 -73.5t-50.5 -208.5q0 -78 31.5 -156t96.5 -180l-7 -18h-225l-22 132l22 1q15 -43 29 -58.5t42 -15.5h108
q-82 70 -122 144t-40 157q0 65 21 121.5t59 97.5t90.5 63t112.5 22q63 0 115 -21.5t89 -61t56.5 -94t19.5 -119.5z" />
    <glyph glyph-name="uni03BC" unicode="&#x3bc;" horiz-adv-x="506" 
d="M57 456h78v-305q0 -48 24 -74.5t71 -26.5q38 0 78 20t56 45v341h78v-318q0 -52 10 -77t37 -25q16 0 30 10.5t25 56.5h25q-1 -29 -13.5 -55.5t-39.5 -43t-59 -16.5q-41 0 -63 22.5t-29 67.5q-39 -37 -81 -63.5t-92 -26.5q-27 0 -53 9.5t-53 41.5l-1 -38q0 -25 3.5 -54
t14.5 -66t11 -50q0 -20 -13 -34t-32 -14q-20 0 -33.5 13.5t-13.5 32.5q0 15 12 56t17.5 89t5.5 108v374z" />
    <glyph glyph-name="pi" unicode="&#x3c0;" horiz-adv-x="543" 
d="M493 451l21 -9q-7 -42 -33 -81q-24 -3 -67 -3q-5 -51 -5 -145l1 -77q1 -31 2 -42t5 -25q4 -12 14 -20.5t22 -8.5q13 0 24.5 7.5t24.5 22.5l12 -18q-17 -32 -42.5 -47.5t-53.5 -15.5q-43 0 -63 29t-20 94q0 81 11 248l-159 2v-16q0 -120 -18.5 -211t-44.5 -130
q-12 -5 -28.5 -10t-26.5 -6l-6 15q41 48 65.5 148.5t24.5 210.5q-35 0 -63.5 -9t-61.5 -36l-13 19q30 36 44 47q46 38 115 38l253 -4q23 0 36 3.5t30 29.5z" />
    <glyph glyph-name="Wgrave" unicode="&#x1e80;" horiz-adv-x="1021" 
d="M8 682h238v-29q-25 -2 -42 -18t-17 -42q0 -11 9 -40.5t70 -160.5q77 -164 128 -296q10 27 47 98l60 117l-103 217q-21 44 -35 69t-27 39t-42 17v29h231v-29q-23 -2 -36.5 -16.5t-13.5 -36.5q0 -30 18 -66l60 -119l43 82q35 66 35 95q0 24 -15.5 41.5t-38.5 19.5v29h184
v-29q-44 -4 -89 -84q-11 -20 -26 -48t-41 -79t-33 -65q114 -242 120 -260q63 135 98 216q50 116 63 155q24 72 24 96q0 30 -16.5 48.5t-47.5 20.5v29h196v-29q-19 -4 -33.5 -12t-28.5 -31q-19 -31 -41 -85l-96 -231q-2 -5 -6 -14t-58 -126.5t-60 -165.5h-42q-4 20 -19 60
t-33 77l-72 151l-94 -185q-36 -70 -44 -103h-43q-4 31 -55 146l-143 318l-52 123q-18 41 -37.5 59.5t-43.5 18.5v29zM583 739h-35q-7 8 -22.5 26t-47.5 53.5t-36 41.5t-4 11t3 10.5t22 5.5h21q23 0 35 -5q11 -5 19 -24z" />
    <glyph glyph-name="wgrave" unicode="&#x1e81;" horiz-adv-x="729" 
d="M6 450h186v-26q-50 -3 -50 -40q0 -11 17 -54l96 -241l97 243q-9 28 -20 52.5t-28 31t-35 8.5v26h212v-26q-62 -4 -62 -38q0 -16 17 -61l90 -229l85 225q12 33 12 52q0 48 -56 51v26h152v-26q-23 -2 -39 -19.5t-33 -63.5l-133 -353h-26l-122 309l-123 -309h-26l-149 368
q-16 38 -26 49.5t-36 18.5v26zM411 523h-35q-7 8 -22.5 26t-47.5 53.5t-36 41.5t-4 11t3 10.5t22 5.5h21q23 0 35 -5q11 -5 19 -24z" />
    <glyph glyph-name="Wacute" unicode="&#x1e82;" horiz-adv-x="1021" 
d="M8 682h238v-29q-25 -2 -42 -18t-17 -42q0 -11 9 -40.5t70 -160.5q77 -164 128 -296q10 27 47 98l60 117l-103 217q-21 44 -35 69t-27 39t-42 17v29h231v-29q-23 -2 -36.5 -16.5t-13.5 -36.5q0 -30 18 -66l60 -119l43 82q35 66 35 95q0 24 -15.5 41.5t-38.5 19.5v29h184
v-29q-44 -4 -89 -84q-11 -20 -26 -48t-41 -79t-33 -65q114 -242 120 -260q63 135 98 216q50 116 63 155q24 72 24 96q0 30 -16.5 48.5t-47.5 20.5v29h196v-29q-19 -4 -33.5 -12t-28.5 -31q-19 -31 -41 -85l-96 -231q-2 -5 -6 -14t-58 -126.5t-60 -165.5h-42q-4 20 -19 60
t-33 77l-72 151l-94 -185q-36 -70 -44 -103h-43q-4 31 -55 146l-143 318l-52 123q-18 41 -37.5 59.5t-43.5 18.5v29zM649 871q0 -2 -1.5 -6.5t-38.5 -46t-70 -79.5h-35q5 14 26.5 70.5t25.5 62.5q6 8 15.5 11.5t53.5 3.5q12 0 18 -3.5t6 -12.5z" />
    <glyph glyph-name="wacute" unicode="&#x1e83;" horiz-adv-x="729" 
d="M6 450h186v-26q-50 -3 -50 -40q0 -11 17 -54l96 -241l97 243q-9 28 -20 52.5t-28 31t-35 8.5v26h212v-26q-62 -4 -62 -38q0 -16 17 -61l90 -229l85 225q12 33 12 52q0 48 -56 51v26h152v-26q-23 -2 -39 -19.5t-33 -63.5l-133 -353h-26l-122 309l-123 -309h-26l-149 368
q-16 38 -26 49.5t-36 18.5v26zM471 655q0 -2 -1.5 -6.5t-38.5 -46t-70 -79.5h-35q5 14 26.5 70.5t25.5 62.5q6 8 15.5 11.5t53.5 3.5q12 0 18 -3.5t6 -12.5z" />
    <glyph glyph-name="Wdieresis" unicode="&#x1e84;" horiz-adv-x="1021" 
d="M8 682h238v-29q-25 -2 -42 -18t-17 -42q0 -11 9 -40.5t70 -160.5q77 -164 128 -296q10 27 47 98l60 117l-103 217q-21 44 -35 69t-27 39t-42 17v29h231v-29q-23 -2 -36.5 -16.5t-13.5 -36.5q0 -30 18 -66l60 -119l43 82q35 66 35 95q0 24 -15.5 41.5t-38.5 19.5v29h184
v-29q-44 -4 -89 -84q-11 -20 -26 -48t-41 -79t-33 -65q114 -242 120 -260q63 135 98 216q50 116 63 155q24 72 24 96q0 30 -16.5 48.5t-47.5 20.5v29h196v-29q-19 -4 -33.5 -12t-28.5 -31q-19 -31 -41 -85l-96 -231q-2 -5 -6 -14t-58 -126.5t-60 -165.5h-42q-4 20 -19 60
t-33 77l-72 151l-94 -185q-36 -70 -44 -103h-43q-4 31 -55 146l-143 318l-52 123q-18 41 -37.5 59.5t-43.5 18.5v29zM475 812q0 -20 -14.5 -34.5t-34.5 -14.5t-34.5 14.5t-14.5 34.5t14.5 34.5t34.5 14.5t34.5 -14.5t14.5 -34.5zM687 812q0 -20 -14.5 -34.5t-34.5 -14.5
t-34.5 14.5t-14.5 34.5t14.5 34.5t34.5 14.5t34.5 -14.5t14.5 -34.5z" />
    <glyph glyph-name="wdieresis" unicode="&#x1e85;" horiz-adv-x="729" 
d="M6 450h186v-26q-50 -3 -50 -40q0 -11 17 -54l96 -241l97 243q-9 28 -20 52.5t-28 31t-35 8.5v26h212v-26q-62 -4 -62 -38q0 -16 17 -61l90 -229l85 225q12 33 12 52q0 48 -56 51v26h152v-26q-23 -2 -39 -19.5t-33 -63.5l-133 -353h-26l-122 309l-123 -309h-26l-149 368
q-16 38 -26 49.5t-36 18.5v26zM321 596q0 -20 -14.5 -34.5t-34.5 -14.5t-34.5 14.5t-14.5 34.5t14.5 34.5t34.5 14.5t34.5 -14.5t14.5 -34.5zM533 596q0 -20 -14.5 -34.5t-34.5 -14.5t-34.5 14.5t-14.5 34.5t14.5 34.5t34.5 14.5t34.5 -14.5t14.5 -34.5z" />
    <glyph glyph-name="Ygrave" unicode="&#x1ef2;" horiz-adv-x="729" 
d="M8 682h298v-29h-18q-64 0 -64 -40q0 -9 5.5 -26.5t36.5 -62.5l132 -197l106 149q20 29 36 62.5t16 50.5q0 55 -77 64v29h243v-29q-36 -1 -69.5 -34t-86.5 -110l-155 -225v-170q0 -45 21 -65t71 -20h9v-29h-294v29h5q53 0 74 19.5t21 65.5v176l-184 273q-28 42 -52.5 64.5
t-73.5 25.5v29zM415 739h-35q-7 8 -22.5 26t-47.5 53.5t-36 41.5t-4 11t3 10.5t22 5.5h21q23 0 35 -5q11 -5 19 -24z" />
    <glyph glyph-name="ygrave" unicode="&#x1ef3;" horiz-adv-x="500" 
d="M12 450h212v-26q-24 -1 -42 -7.5t-18 -27.5q0 -9 5.5 -28t23.5 -58t20 -44l75 -167l64 168q33 86 33 110t-14 36.5t-47 17.5v26h165v-26q-16 -3 -33 -13.5t-30 -35.5q-3 -7 -8.5 -19.5t-27.5 -67.5l-92 -245l-46 -121q-14 -32 -34.5 -58.5t-45.5 -39t-50 -12.5
q-33 0 -55.5 15.5t-22.5 38.5q0 17 12 29.5t27 12.5q13 0 28.5 -13t24 -17t21.5 -4q28 0 50 28t45 93l-165 362q-15 30 -22.5 41.5t-17.5 16.5q-13 7 -35 9v26zM295 523h-35q-7 8 -22.5 26t-47.5 53.5t-36 41.5t-4 11t3 10.5t22 5.5h21q23 0 35 -5q11 -5 19 -24z" />
    <glyph glyph-name="figuredash" unicode="&#x2012;" horiz-adv-x="500" 
d="M-6 282h512v-64h-512v64z" />
    <glyph glyph-name="endash" unicode="&#x2013;" horiz-adv-x="500" 
d="M-6 282h512v-64h-512v64z" />
    <glyph glyph-name="emdash" unicode="&#x2014;" horiz-adv-x="1000" 
d="M-6 282h1012v-64h-1012v64z" />
    <glyph glyph-name="quoteleft" unicode="&#x2018;" horiz-adv-x="271" 
d="M198 694l9 -25q-47 -17 -72.5 -44.5t-25.5 -61.5q0 -20 7.5 -30t18.5 -10l27 2q21 0 34.5 -14t13.5 -32q0 -23 -15.5 -37.5t-41.5 -14.5q-19 0 -41 11t-37.5 37.5t-15.5 57.5q0 24 12.5 55t46.5 60.5t80 45.5z" />
    <glyph glyph-name="quoteright" unicode="&#x2019;" horiz-adv-x="271" 
d="M73 427l-9 25q47 17 72.5 44.5t25.5 61.5q0 20 -7.5 30t-18.5 10l-27 -2q-21 0 -34.5 14t-13.5 32q0 23 15.5 37.5t41.5 14.5q19 0 41 -11t37.5 -37.5t15.5 -57.5q0 -24 -12.5 -55t-46.5 -60.5t-80 -45.5z" />
    <glyph glyph-name="quotesinglbase" unicode="&#x201a;" horiz-adv-x="271" 
d="M212 7q0 -24 -12.5 -55t-46.5 -60.5t-80 -45.5l-9 25q47 17 72.5 45t25.5 61q0 16 -7 28t-19 12l-26 -2q-23 0 -36 14t-13 32q0 23 15.5 37.5t41.5 14.5q37 0 65.5 -30.5t28.5 -75.5z" />
    <glyph glyph-name="quotedblleft" unicode="&#x201c;" horiz-adv-x="521" 
d="M192 694l9 -25q-47 -17 -72.5 -44.5t-25.5 -61.5q0 -20 7.5 -30t18.5 -10l27 2q21 0 34.5 -14t13.5 -32q0 -23 -15.5 -37.5t-41.5 -14.5q-19 0 -41 11t-37.5 37.5t-15.5 57.5q0 24 12.5 55t46.5 60.5t80 45.5zM437 694l9 -25q-47 -17 -72.5 -44.5t-25.5 -61.5
q0 -20 7.5 -30t18.5 -10l27 2q21 0 34.5 -14t13.5 -32q0 -23 -15.5 -37.5t-41.5 -14.5q-19 0 -41 11t-37.5 37.5t-15.5 57.5q0 24 12.5 55t46.5 60.5t80 45.5z" />
    <glyph glyph-name="quotedblright" unicode="&#x201d;" horiz-adv-x="521" 
d="M84 427l-9 25q47 17 72.5 44.5t25.5 61.5q0 20 -7.5 30t-18.5 10l-27 -2q-21 0 -34.5 14t-13.5 32q0 23 15.5 37.5t41.5 14.5q19 0 41 -11t37.5 -37.5t15.5 -57.5q0 -24 -12.5 -55t-46.5 -60.5t-80 -45.5zM329 427l-9 25q47 17 72.5 44.5t25.5 61.5q0 20 -7.5 30
t-18.5 10l-27 -2q-21 0 -34.5 14t-13.5 32q0 23 15.5 37.5t41.5 14.5q19 0 41 -11t37.5 -37.5t15.5 -57.5q0 -24 -12.5 -55t-46.5 -60.5t-80 -45.5z" />
    <glyph glyph-name="quotedblbase" unicode="&#x201e;" horiz-adv-x="521" 
d="M208 7q0 -24 -12.5 -55t-46.5 -60.5t-80 -45.5l-9 25q47 17 72.5 45t25.5 61q0 16 -7 28t-19 12l-26 -2q-23 0 -36 14t-13 32q0 23 15.5 37.5t41.5 14.5q37 0 65.5 -30.5t28.5 -75.5zM453 7q0 -24 -12.5 -55t-46.5 -60.5t-80 -45.5l-9 25q47 17 72.5 45t25.5 61
q0 16 -7 28t-19 12l-26 -2q-23 0 -36 14t-13 32q0 23 15.5 37.5t41.5 14.5q37 0 65.5 -30.5t28.5 -75.5z" />
    <glyph glyph-name="dagger" unicode="&#x2020;" horiz-adv-x="521" 
d="M310 626l-30 -215q11 2 35.5 6.5t81.5 15t64 10.5q14 0 23 -8.5t9 -42.5q0 -24 -7.5 -34t-23.5 -10q-2 0 -8 0.5t-77 13.5t-97 18l29 -469l3 -68q0 -21 -11.5 -29.5t-40.5 -8.5q-21 0 -36.5 6t-15.5 32l2 32l31 505l-163 -30l-19 -2q-12 0 -22 8.5t-10 29.5q0 25 5 41
t27 16q4 0 20 -2.5t77.5 -14t84.5 -15.5l-30 215l-4 34q0 34 53 34q28 0 40.5 -8t12.5 -26z" />
    <glyph glyph-name="daggerdbl" unicode="&#x2021;" horiz-adv-x="490" 
d="M293 654q0 -3 -0.5 -9t-2.5 -23.5t-28 -170.5q155 30 161 30q17 0 23 -9.5t6 -33.5t-6.5 -35.5t-20.5 -11.5l-163 31l18 -173l-18 -173q36 7 93.5 19t69.5 12q27 0 27 -43q0 -25 -5.5 -36t-24.5 -11l-160 30q2 -13 7.5 -46t14.5 -85.5t9 -70.5t-7 -29t-37 -11
q-31 0 -42 7.5t-11 31.5q0 11 32 203l-160 -30q-17 0 -24 9.5t-7 33.5q0 47 28 47q14 0 163 -31l-18 173l18 173l-162 -31q-29 0 -29 43q0 20 4.5 33.5t25.5 13.5q8 0 161 -30q-32 190 -32 203q0 17 7 28.5t39 11.5q23 0 37 -5t14 -35z" />
    <glyph glyph-name="bullet" unicode="&#x2022;" horiz-adv-x="281" 
d="M269 330q0 -25 -13 -55t-45.5 -52t-70.5 -22q-24 0 -54 12.5t-52.5 45t-22.5 71.5q0 52 38.5 90.5t90.5 38.5q25 0 55 -13t52 -45.5t22 -70.5z" />
    <glyph glyph-name="onedotenleader" unicode="&#x2024;" horiz-adv-x="500" 
d="M305 44q0 -22 -16 -38.5t-39 -16.5q-22 0 -38.5 16t-16.5 39t16.5 39t38.5 16t38.5 -16t16.5 -39z" />
    <glyph glyph-name="twodotenleader" unicode="&#x2025;" horiz-adv-x="500" 
d="M180 44q0 -22 -16.5 -38.5t-38.5 -16.5q-23 0 -39 16t-16 39t16.5 39t38.5 16q23 0 39 -16.5t16 -38.5zM430 44q0 -22 -16 -38.5t-39 -16.5q-22 0 -38.5 16t-16.5 39t16.5 39t38.5 16t38.5 -16t16.5 -39z" />
    <glyph glyph-name="ellipsis" unicode="&#x2026;" horiz-adv-x="1000" 
d="M222 44q0 -22 -16 -38.5t-39 -16.5t-39 16.5t-16 38.5t16 38.5t39 16.5t39 -16.5t16 -38.5zM555 44q0 -22 -16 -38.5t-39 -16.5t-39 16.5t-16 38.5q0 23 16.5 39t38.5 16t38.5 -16t16.5 -39zM888 44q0 -22 -16 -38.5t-39 -16.5t-39 16.5t-16 38.5t16 38.5t39 16.5
t39 -16.5t16 -38.5z" />
    <glyph glyph-name="perthousand" unicode="&#x2030;" horiz-adv-x="1115" 
d="M129 -42l449 736h42l-448 -736h-43zM288 492q0 -77 -36.5 -123.5t-96.5 -46.5q-61 0 -97 46t-36 124q0 77 36 123t97 46q59 0 96 -46.5t37 -122.5zM155 344q40 0 58.5 34.5t18.5 112.5q0 49 -7.5 83.5t-26 49.5t-44.5 15q-40 0 -58 -35.5t-18 -112.5q0 -78 18.5 -112.5
t58.5 -34.5zM734 164q0 -77 -36.5 -123.5t-96.5 -46.5q-61 0 -97 46t-36 124q0 77 36 123t97 46q59 0 96 -46.5t37 -122.5zM1093 164q0 -77 -36.5 -123.5t-96.5 -46.5q-61 0 -97 46t-36 124q0 77 36 123t97 46q60 0 96.5 -46t36.5 -123zM601 16q40 0 58.5 34.5t18.5 112.5
q0 49 -7.5 83.5t-26 49.5t-44.5 15q-40 0 -58 -35.5t-18 -112.5q0 -78 18.5 -112.5t58.5 -34.5zM960 16q40 0 58.5 34.5t18.5 112.5q0 49 -7.5 83.5t-26 49.5t-44.5 15q-40 0 -58 -35.5t-18 -112.5q0 -78 18.5 -112.5t58.5 -34.5z" />
    <glyph glyph-name="guilsinglleft" unicode="&#x2039;" horiz-adv-x="240" 
d="M45 250l147 224h17l-87 -224l87 -224h-17z" />
    <glyph glyph-name="guilsinglright" unicode="&#x203a;" horiz-adv-x="240" 
d="M118 250l-87 224h17l147 -224l-147 -224h-17z" />
    <glyph glyph-name="fraction" unicode="&#x2044;" horiz-adv-x="125" 
d="M-177 -42l449 736h42l-448 -736h-43z" />
    <glyph glyph-name="uni2070" unicode="&#x2070;" 
d="M303 490q0 -95 -49 -141q-16 -16 -40 -25.5t-48 -9.5q-62 0 -101 51q-36 47 -36 125q0 83 38.5 130t98.5 47q63 0 100 -49t37 -128zM166 336q38 0 56.5 35.5t18.5 118.5t-18.5 119t-57.5 36q-29 0 -45 -20t-22 -50q-7 -35 -7 -85q0 -63 10 -97q17 -57 65 -57z" />
    <glyph glyph-name="uni2074" unicode="&#x2074;" 
d="M20 434l193 233h38v-227h58v-40h-58v-86h-58v86h-173v34zM193 440v161l-133 -161h133z" />
    <glyph glyph-name="uni2075" unicode="&#x2075;" 
d="M260 661l9 13l25 -13l-27 -40h-133l-26 -51q85 -14 129.5 -47.5t44.5 -83.5q0 -23 -12 -47t-34 -42q-45 -36 -120 -36q-35 0 -57.5 7t-22.5 18q0 4 11 14.5t21 10.5q2 0 33 -10t55 -10q28 0 48 14t27 31.5t7 30.5q0 42 -47 69t-138 39l70 133h137z" />
    <glyph glyph-name="uni2076" unicode="&#x2076;" 
d="M258 667l22 -17q-60 -11 -104.5 -42.5t-77.5 -96.5q12 10 37.5 16.5t51.5 6.5q22 0 49.5 -10t47.5 -36.5t20 -58.5q0 -34 -22.5 -63t-55 -40.5t-59.5 -11.5q-61 0 -99.5 38.5t-38.5 102.5q0 86 62.5 143.5t166.5 68.5zM91 475v-18q0 -38 12 -68t31 -41.5t38 -11.5
q31 0 50.5 22t19.5 64q0 34 -21 56t-56 22q-34 0 -74 -25z" />
    <glyph glyph-name="uni2077" unicode="&#x2077;" 
d="M58 661h250l-159 -347h-37l141 303h-132q-36 0 -44.5 -11t-15.5 -34h-31z" />
    <glyph glyph-name="uni2078" unicode="&#x2078;" 
d="M292 592q0 -15 -13.5 -31.5t-76.5 -57.5q44 -24 72.5 -47t28.5 -53q0 -38 -37 -63.5t-98 -25.5q-48 0 -81.5 13.5t-45 32.5t-11.5 36t14 34.5t81 56.5q-44 17 -68.5 41t-24.5 50q0 15 11 35.5t43 37t83 16.5q59 0 91 -21.5t32 -53.5zM176 518q25 11 44.5 31.5t19.5 39.5
q0 13 -9.5 27.5t-28.5 21.5t-40 7q-33 0 -55.5 -16t-22.5 -38q0 -6 1.5 -11t5 -9.5t8 -8t10.5 -7.5t12.5 -7.5t13.5 -7.5t13.5 -7.5t16 -8.5t11.5 -6zM169 336q19 0 36 6t29.5 20t12.5 32q0 11 -6 21t-27 23q-3 2 -65 34q-20 -11 -41.5 -33.5t-21.5 -42.5q0 -25 22 -42.5
t61 -17.5z" />
    <glyph glyph-name="uni2079" unicode="&#x2079;" 
d="M304 526q0 -31 -11 -65t-41 -68t-78 -54t-99 -25l-22 17q63 12 106.5 44t75.5 95q-14 -10 -38.5 -16.5t-50.5 -6.5q-23 0 -50.5 10.5t-47 37t-19.5 57.5q0 34 22.5 63t55 40.5t59.5 11.5q61 0 99.5 -38.5t38.5 -102.5zM167 481q35 0 75 25v15q0 56 -22 90t-59 34
q-29 0 -49.5 -21.5t-20.5 -64.5q0 -23 10.5 -42.5t29 -27.5t36.5 -8z" />
    <glyph glyph-name="uni207D" unicode="&#x207d;" horiz-adv-x="260" 
d="M235 755l15 -21q-67 -42 -105.5 -105t-38.5 -141q0 -79 38 -141.5t106 -105.5l-15 -20q-49 27 -88.5 69t-59 94.5t-19.5 103.5q0 82 43.5 152t123.5 115z" />
    <glyph glyph-name="uni207E" unicode="&#x207e;" horiz-adv-x="260" 
d="M10 734l15 21q80 -45 123.5 -115t43.5 -152q0 -51 -19.5 -103.5t-59 -94.5t-88.5 -69l-15 20q68 43 106 105.5t38 141.5q0 78 -38.5 141t-105.5 105z" />
    <glyph glyph-name="uni207F" unicode="&#x207f;" horiz-adv-x="360" 
d="M12 569l95 27v-51q57 51 111 51q85 0 85 -105v-92q0 -38 8.5 -50.5t38.5 -12.5v-16h-147v16q33 1 41.5 12.5t8.5 50.5v89q0 33 -12.5 51t-44.5 18q-17 0 -42 -8t-47 -27v-122q0 -30 4 -43t17 -17t31 -4v-16h-149v16q24 0 36 8.5t12 55.5v137l-46 20v12z" />
    <glyph glyph-name="uni2080" unicode="&#x2080;" 
d="M303 170q0 -95 -49 -141q-16 -16 -40 -25.5t-48 -9.5q-62 0 -101 51q-36 47 -36 125q0 83 38.5 130t98.5 47q63 0 100 -49t37 -128zM166 16q38 0 56.5 35.5t18.5 118.5t-18.5 119t-57.5 36q-29 0 -45 -20t-22 -50q-7 -35 -7 -85q0 -63 10 -97q17 -57 65 -57z" />
    <glyph glyph-name="uni2081" unicode="&#x2081;" 
d="M169 347h28v-289q0 -17 5 -26t34 -9h17v-23h-169v23h17q16 0 26.5 3.5t10.5 24.5v195q0 10 -1.5 17t-6.5 10t-12 4t-21.5 1.5t-19.5 0.5v21q54 15 92 47z" />
    <glyph glyph-name="uni2082" unicode="&#x2082;" 
d="M285 257q0 -22 -13.5 -45t-43 -53t-133.5 -113v-2h129q20 0 29 8t20 37h32l-35 -89h-240v23l103 89q90 77 90 135q0 26 -22.5 43t-57.5 17q-22 0 -42 -8t-45 -29l-19 16q30 32 62.5 46.5t71.5 14.5q23 0 50 -9t45.5 -31.5t18.5 -49.5z" />
    <glyph glyph-name="uni2083" unicode="&#x2083;" 
d="M267 272q0 -42 -57 -68v-2q34 -5 56.5 -28.5t22.5 -54.5q0 -54 -47.5 -89.5t-118.5 -35.5q-36 0 -63.5 9.5t-27.5 21.5q0 8 9.5 15.5t18.5 7.5q7 0 27 -10t34 -14.5t28 -4.5q33 0 56 24.5t23 60.5q0 62 -85 62q-26 0 -71 -5l4 23q43 2 74.5 15t43 31.5t11.5 34.5
q0 19 -19 33.5t-47 14.5q-21 0 -43 -11t-34 -23l-18 17q26 27 53 39t64 12q45 0 75.5 -21.5t30.5 -53.5z" />
    <glyph glyph-name="uni2084" unicode="&#x2084;" 
d="M20 114l193 233h38v-227h58v-40h-58v-86h-58v86h-173v34zM193 120v161l-133 -161h133z" />
    <glyph glyph-name="uni2085" unicode="&#x2085;" 
d="M260 341l9 13l25 -13l-27 -40h-133l-26 -51q85 -14 129.5 -47.5t44.5 -83.5q0 -23 -12 -47t-34 -42q-45 -36 -120 -36q-35 0 -57.5 7t-22.5 18q0 4 11 14.5t21 10.5q2 0 33 -10t55 -10q28 0 48 14t27 31.5t7 30.5q0 42 -47 69t-138 39l70 133h137z" />
    <glyph glyph-name="uni2086" unicode="&#x2086;" 
d="M258 347l22 -17q-60 -11 -104.5 -42.5t-77.5 -96.5q12 10 37.5 16.5t51.5 6.5q22 0 49.5 -10t47.5 -36.5t20 -58.5q0 -34 -22.5 -63t-55 -40.5t-59.5 -11.5q-61 0 -99.5 38.5t-38.5 102.5q0 86 62.5 143.5t166.5 68.5zM91 155v-18q0 -38 12 -68t31 -41.5t38 -11.5
q31 0 50.5 22t19.5 64q0 34 -21 56t-56 22q-34 0 -74 -25z" />
    <glyph glyph-name="uni2087" unicode="&#x2087;" 
d="M58 341h250l-159 -347h-37l141 303h-132q-36 0 -44.5 -11t-15.5 -34h-31z" />
    <glyph glyph-name="uni2088" unicode="&#x2088;" 
d="M290 272q0 -15 -13.5 -31.5t-76.5 -57.5q44 -24 72.5 -47t28.5 -53q0 -38 -37 -63.5t-98 -25.5q-48 0 -81.5 13.5t-45 32.5t-11.5 36t14 34.5t81 56.5q-44 17 -68.5 41t-24.5 50q0 15 11 35.5t43 37t83 16.5q59 0 91 -21.5t32 -53.5zM174 198q25 11 44.5 31.5t19.5 39.5
q0 13 -9.5 27.5t-28.5 21.5t-40 7q-33 0 -55.5 -16t-22.5 -38q0 -6 1.5 -11t5 -9.5t8 -8t10.5 -7.5t12.5 -7.5t13.5 -7.5t13.5 -7.5t16 -8.5t11.5 -6zM167 16q19 0 36 6t29.5 20t12.5 32q0 11 -6 21t-27 23q-3 2 -65 34q-20 -11 -41.5 -33.5t-21.5 -42.5q0 -25 22 -42.5
t61 -17.5z" />
    <glyph glyph-name="uni2089" unicode="&#x2089;" 
d="M304 206q0 -31 -11 -65t-41 -68t-78 -54t-99 -25l-22 17q63 12 106.5 44t75.5 95q-14 -10 -38.5 -16.5t-50.5 -6.5q-23 0 -50.5 10.5t-47 37t-19.5 57.5q0 34 22.5 63t55 40.5t59.5 11.5q61 0 99.5 -38.5t38.5 -102.5zM167 161q35 0 75 25v15q0 56 -22 90t-59 34
q-29 0 -49.5 -21.5t-20.5 -64.5q0 -23 10.5 -42.5t29 -27.5t36.5 -8z" />
    <glyph glyph-name="uni208D" unicode="&#x208d;" horiz-adv-x="260" 
d="M235 437l15 -21q-67 -42 -105.5 -105t-38.5 -141q0 -79 38 -141.5t106 -105.5l-15 -20q-49 27 -88.5 69t-59 94.5t-19.5 103.5q0 82 43.5 152t123.5 115z" />
    <glyph glyph-name="uni208E" unicode="&#x208e;" horiz-adv-x="260" 
d="M10 416l15 21q80 -45 123.5 -115t43.5 -152q0 -51 -19.5 -103.5t-59 -94.5t-88.5 -69l-15 20q68 43 106 105.5t38 141.5q0 78 -38.5 141t-105.5 105z" />
    <glyph glyph-name="colonmonetary" unicode="&#x20a1;" horiz-adv-x="771" 
d="M436 694l9 29h30l-9 -29q44 -1 113 -14l13 43h30l-16 -50q13 -3 26 -7t48 -18l27 -151h-32q-19 37 -38.5 64.5t-48.5 51.5l-182 -587q24 -4 38 -4l31 1q84 7 134 50t73 123h30l-5 -146q-56 -30 -131.5 -46t-148.5 -16l-32 2l-30 -98h-30l31 101q-62 8 -108 31l-40 -132
h-30l45 145q-81 48 -127 122q-46 77 -46 179q0 73 28.5 138t80 113t121 75.5t146.5 29.5zM255 107l171 555q-28 0 -67 -11t-75 -37.5t-61 -63t-40 -88.5t-15 -116q0 -69 22 -131t65 -108zM456 662l-179 -578q19 -17 41.5 -30t59.5 -23l185 599q-49 29 -107 32z" />
    <glyph glyph-name="Euro" unicode="&#x20ac;" horiz-adv-x="542" 
d="M470 622l15 -133h-30q-25 81 -58.5 112.5t-80.5 31.5q-149 0 -157 -248h298l-10 -29h-288v-56h278l-10 -29h-267q6 -120 47 -185t114 -65q36 0 72.5 14.5t78.5 47.5l23 -23q-43 -36 -61 -45q-52 -27 -120 -27q-46 0 -82 17.5t-61.5 42.5t-45 58.5t-32 76t-16.5 88.5h-46
l8 29h36l1 56h-45l8 29h40q7 62 29.5 114.5t56 89.5t74 57t82.5 20q38 0 78 -11.5t71 -32.5z" />
    <glyph glyph-name="uni2113" unicode="&#x2113;" horiz-adv-x="389" 
d="M301 574q0 -141 -142 -284v-85q0 -83 19.5 -124.5t69.5 -41.5q59 0 106 70l18 -16q-57 -103 -156 -103q-45 0 -72.5 17.5t-41.5 53t-14 91.5v92l-59 -44l-11 21l70 57v134q0 116 11 166q10 47 43 83q15 17 35 27t40 10q28 0 48.5 -19.5t28 -49t7.5 -55.5zM159 467v-135
q42 49 69 115t27 125q0 43 -12 70.5t-34 27.5t-33 -29q-17 -45 -17 -174z" />
    <glyph glyph-name="trademark" unicode="&#x2122;" horiz-adv-x="906" 
d="M-26 662h364l7 -103h-17q-4 34 -21.5 54t-82.5 20h-20v-288q0 -35 10 -47.5t41 -12.5v-17h-197v17q32 2 41 12.5t9 46.5v289h-23q-22 0 -37.5 -2t-30.5 -10q-12 -7 -21 -23t-12 -39h-16zM387 662h155l125 -265l123 265h148v-18q-32 0 -42 -12t-10 -49v-238q0 -28 6 -42.5
t46 -17.5v-17h-205v17q27 0 42 8t15 51v247h-2l-150 -323h-15l-150 320h-2v-249q0 -26 8 -40t53 -14v-17h-145v17q25 0 39.5 7.5t14.5 50.5v240q0 29 -6.5 45t-47.5 16v18z" />
    <glyph glyph-name="Omega" unicode="&#x2126;" horiz-adv-x="709" 
d="M635 368q0 -76 -39.5 -151t-124.5 -158h112q22 0 36.5 10t32.5 64l23 -1l-24 -132h-226l-6 18q64 108 81 143q50 106 50 199q0 130 -54 203t-143 73q-93 0 -143.5 -73.5t-50.5 -208.5q0 -78 31.5 -156t96.5 -180l-7 -18h-225l-22 132l22 1q15 -43 29 -58.5t42 -15.5h108
q-82 70 -122 144t-40 157q0 65 21 121.5t59 97.5t90.5 63t112.5 22q63 0 115 -21.5t89 -61t56.5 -94t19.5 -119.5z" />
    <glyph glyph-name="estimated" unicode="&#x212e;" horiz-adv-x="817" 
d="M786 317h-612l-4 -2v-187q0 -25 74 -73q74 -47 165 -47q70 0 133 30t109 82h55q-52 -61 -130.5 -96t-167.5 -35q-155 0 -266 99q-110 99 -110 238q0 137 110 238t266 101q154 0 266 -100q112 -99 112 -248zM170 529v-188l3 -5h470l2 5v187q0 24 -74 71q-73 46 -163 46
q-65 -3 -98 -15q-29 -11 -60 -29q-71 -45 -80 -72z" />
    <glyph glyph-name="onethird" unicode="&#x2153;" horiz-adv-x="792" 
d="M169 667h28v-289q0 -17 5 -26t34 -9h17v-23h-169v23h17q16 0 26.5 3.5t10.5 24.5v195q0 10 -1.5 17t-6.5 10t-12 4t-21.5 1.5t-19.5 0.5v21q54 15 92 47zM114 -42l449 736h42l-448 -736h-43zM696 272q0 -42 -57 -68v-2q34 -5 56.5 -28.5t22.5 -54.5q0 -54 -47.5 -89.5
t-118.5 -35.5q-36 0 -63.5 9.5t-27.5 21.5q0 8 9.5 15.5t18.5 7.5q7 0 27 -10t34 -14.5t28 -4.5q33 0 56 24.5t23 60.5q0 62 -85 62q-26 0 -71 -5l4 23q43 2 74.5 15t43 31.5t11.5 34.5q0 19 -19 33.5t-47 14.5q-21 0 -43 -11t-34 -23l-18 17q26 27 53 39t64 12
q45 0 75.5 -21.5t30.5 -53.5z" />
    <glyph glyph-name="twothirds" unicode="&#x2154;" horiz-adv-x="792" 
d="M285 577q0 -22 -13.5 -45t-43 -53t-133.5 -113v-2h129q20 0 29 8t20 37h32l-35 -89h-240v23l103 89q90 77 90 135q0 26 -22.5 43t-57.5 17q-22 0 -42 -8t-45 -29l-19 16q30 32 62.5 46.5t71.5 14.5q23 0 50 -9t45.5 -31.5t18.5 -49.5zM155 -42l449 736h42l-448 -736h-43z
M696 272q0 -42 -57 -68v-2q34 -5 56.5 -28.5t22.5 -54.5q0 -54 -47.5 -89.5t-118.5 -35.5q-36 0 -63.5 9.5t-27.5 21.5q0 8 9.5 15.5t18.5 7.5q7 0 27 -10t34 -14.5t28 -4.5q33 0 56 24.5t23 60.5q0 62 -85 62q-26 0 -71 -5l4 23q43 2 74.5 15t43 31.5t11.5 34.5
q0 19 -19 33.5t-47 14.5q-21 0 -43 -11t-34 -23l-18 17q26 27 53 39t64 12q45 0 75.5 -21.5t30.5 -53.5z" />
    <glyph glyph-name="oneeighth" unicode="&#x215b;" horiz-adv-x="792" 
d="M168 667h28v-289q0 -17 5 -26t34 -9h17v-23h-169v23h17q16 0 26.5 3.5t10.5 24.5v195q0 10 -1.5 17t-6.5 10t-12 4t-21.5 1.5t-19.5 0.5v21q54 15 92 47zM151 -42l449 736h42l-448 -736h-43zM738 272q0 -15 -13.5 -31.5t-76.5 -57.5q44 -24 72.5 -47t28.5 -53
q0 -38 -37 -63.5t-98 -25.5q-48 0 -81.5 13.5t-45 32.5t-11.5 36t14 34.5t81 56.5q-44 17 -68.5 41t-24.5 50q0 15 11 35.5t43 37t83 16.5q59 0 91 -21.5t32 -53.5zM622 198q25 11 44.5 31.5t19.5 39.5q0 13 -9.5 27.5t-28.5 21.5t-40 7q-33 0 -55.5 -16t-22.5 -38
q0 -6 1.5 -11t5 -9.5t8 -8t10.5 -7.5t12.5 -7.5t13.5 -7.5t13.5 -7.5t16 -8.5t11.5 -6zM615 16q19 0 36 6t29.5 20t12.5 32q0 11 -6 21t-27 23q-3 2 -65 34q-20 -11 -41.5 -33.5t-21.5 -42.5q0 -25 22 -42.5t61 -17.5z" />
    <glyph glyph-name="threeeighths" unicode="&#x215c;" horiz-adv-x="792" 
d="M266 592q0 -42 -57 -68v-2q34 -5 56.5 -28.5t22.5 -54.5q0 -54 -47.5 -89.5t-118.5 -35.5q-36 0 -63.5 9.5t-27.5 21.5q0 8 9.5 15.5t18.5 7.5q7 0 27 -10t34 -14.5t28 -4.5q33 0 56 24.5t23 60.5q0 62 -85 62q-26 0 -71 -5l4 23q43 2 74.5 15t43 31.5t11.5 34.5
q0 19 -19 33.5t-47 14.5q-21 0 -43 -11t-34 -23l-18 17q26 27 53 39t64 12q45 0 75.5 -21.5t30.5 -53.5zM151 -42l449 736h42l-448 -736h-43zM738 272q0 -15 -13.5 -31.5t-76.5 -57.5q44 -24 72.5 -47t28.5 -53q0 -38 -37 -63.5t-98 -25.5q-48 0 -81.5 13.5t-45 32.5
t-11.5 36t14 34.5t81 56.5q-44 17 -68.5 41t-24.5 50q0 15 11 35.5t43 37t83 16.5q59 0 91 -21.5t32 -53.5zM622 198q25 11 44.5 31.5t19.5 39.5q0 13 -9.5 27.5t-28.5 21.5t-40 7q-33 0 -55.5 -16t-22.5 -38q0 -6 1.5 -11t5 -9.5t8 -8t10.5 -7.5t12.5 -7.5t13.5 -7.5
t13.5 -7.5t16 -8.5t11.5 -6zM615 16q19 0 36 6t29.5 20t12.5 32q0 11 -6 21t-27 23q-3 2 -65 34q-20 -11 -41.5 -33.5t-21.5 -42.5q0 -25 22 -42.5t61 -17.5z" />
    <glyph glyph-name="fiveeighths" unicode="&#x215d;" horiz-adv-x="792" 
d="M260 661l9 13l25 -13l-27 -40h-133l-26 -51q85 -14 129.5 -47.5t44.5 -83.5q0 -23 -12 -47t-34 -42q-45 -36 -120 -36q-35 0 -57.5 7t-22.5 18q0 4 11 14.5t21 10.5q2 0 33 -10t55 -10q28 0 48 14t27 31.5t7 30.5q0 42 -47 69t-138 39l70 133h137zM136 -42l449 736h42
l-448 -736h-43zM738 272q0 -15 -13.5 -31.5t-76.5 -57.5q44 -24 72.5 -47t28.5 -53q0 -38 -37 -63.5t-98 -25.5q-48 0 -81.5 13.5t-45 32.5t-11.5 36t14 34.5t81 56.5q-44 17 -68.5 41t-24.5 50q0 15 11 35.5t43 37t83 16.5q59 0 91 -21.5t32 -53.5zM622 198
q25 11 44.5 31.5t19.5 39.5q0 13 -9.5 27.5t-28.5 21.5t-40 7q-33 0 -55.5 -16t-22.5 -38q0 -6 1.5 -11t5 -9.5t8 -8t10.5 -7.5t12.5 -7.5t13.5 -7.5t13.5 -7.5t16 -8.5t11.5 -6zM615 16q19 0 36 6t29.5 20t12.5 32q0 11 -6 21t-27 23q-3 2 -65 34q-20 -11 -41.5 -33.5
t-21.5 -42.5q0 -25 22 -42.5t61 -17.5z" />
    <glyph glyph-name="seveneighths" unicode="&#x215e;" horiz-adv-x="792" 
d="M58 661h250l-159 -347h-37l141 303h-132q-36 0 -44.5 -11t-15.5 -34h-31zM151 -42l449 736h42l-448 -736h-43zM738 272q0 -15 -13.5 -31.5t-76.5 -57.5q44 -24 72.5 -47t28.5 -53q0 -38 -37 -63.5t-98 -25.5q-48 0 -81.5 13.5t-45 32.5t-11.5 36t14 34.5t81 56.5
q-44 17 -68.5 41t-24.5 50q0 15 11 35.5t43 37t83 16.5q59 0 91 -21.5t32 -53.5zM622 198q25 11 44.5 31.5t19.5 39.5q0 13 -9.5 27.5t-28.5 21.5t-40 7q-33 0 -55.5 -16t-22.5 -38q0 -6 1.5 -11t5 -9.5t8 -8t10.5 -7.5t12.5 -7.5t13.5 -7.5t13.5 -7.5t16 -8.5t11.5 -6z
M615 16q19 0 36 6t29.5 20t12.5 32q0 11 -6 21t-27 23q-3 2 -65 34q-20 -11 -41.5 -33.5t-21.5 -42.5q0 -25 22 -42.5t61 -17.5z" />
    <glyph glyph-name="partialdiff" unicode="&#x2202;" horiz-adv-x="508" 
d="M458 377q0 -80 -16.5 -151t-48 -124t-76.5 -82.5t-99 -29.5q-79 0 -127.5 51.5t-48.5 140.5q0 43 15 85.5t42 73.5q28 32 69.5 51t83.5 19q27 0 55.5 -10t49 -27t31.5 -33q7 75 7 110q0 71 -19 122.5t-50 79.5q-18 16 -42 26.5t-46 10.5q-67 0 -132 -54q-11 0 -20 14.5
t-9 28.5l2 12q21 14 56 27t79 13q97 0 162 -80q40 -50 61 -122t21 -152zM217 18q29 0 52.5 17t43 46t39 84.5t29.5 136.5q-16 31 -46.5 52t-64.5 21q-47 0 -80 -27t-52.5 -78t-19.5 -122q0 -42 16.5 -74t39.5 -44t43 -12z" />
    <glyph glyph-name="Delta" unicode="&#x2206;" horiz-adv-x="610" 
d="M284 653l34 11l257 -643v-21h-541v21zM280 554l-197 -512h398z" />
    <glyph glyph-name="product" unicode="&#x220f;" horiz-adv-x="656" 
d="M26 656h602v-23q-45 -3 -62.5 -9t-21 -18.5t-3.5 -30.5v-567q0 -32 8.5 -44.5t28 -16.5t48.5 -6v-23h-241v23q37 2 53.5 6.5t22.5 16t6 44.5v590q0 13 -4 20.5t-27 7.5h-219q-13 0 -21 -3.5t-8 -21.5v-600q0 -29 7.5 -40t23.5 -14t44 -6v-23h-234v23q56 4 70.5 15.5
t14.5 51.5v566q0 27 -6.5 37.5t-24 15t-57.5 6.5v23z" />
    <glyph glyph-name="summation" unicode="&#x2211;" horiz-adv-x="533" 
d="M33 656h435l12 -152l-24 -5q-9 44 -21.5 78t-33.5 42q-20 8 -66 8h-207l184 -310l-217 -336h262q46 0 63.5 8.5t29 26.5t34.5 81l25 -7l-41 -175h-441v22l218 333l-212 364v22z" />
    <glyph glyph-name="minus" unicode="&#x2212;" horiz-adv-x="667" 
d="M70 290h527v-53h-527v53z" />
    <glyph glyph-name="uni2215" unicode="&#x2215;" horiz-adv-x="125" 
d="M-177 -42l449 736h42l-448 -736h-43z" />
    <glyph glyph-name="uni2219" unicode="&#x2219;" horiz-adv-x="271" 
d="M191 270q0 -22 -16.5 -38.5t-38.5 -16.5q-23 0 -39 16.5t-16 38.5t16 38.5t39 16.5q22 0 38.5 -16t16.5 -39z" />
    <glyph glyph-name="radical" unicode="&#x221a;" horiz-adv-x="528" 
d="M342 6l132 846l35 -9l-157 -979l-19 -11l-210 524l-84 -41l-10 30l144 69l167 -429h2z" />
    <glyph glyph-name="infinity" unicode="&#x221e;" horiz-adv-x="722" 
d="M365 307q47 51 58 61q55 49 115 49q62 0 99.5 -40.5t37.5 -104.5q0 -34 -14.5 -69t-50 -58.5t-78.5 -23.5q-42 0 -81 26t-89 84q-49 -59 -91 -84.5t-84 -25.5q-29 0 -61 14.5t-56 51.5t-24 80q0 65 42 107.5t105 42.5q42 0 84 -27t88 -83zM193 168q30 0 62.5 21t79.5 77
q-44 57 -77.5 81t-70.5 24q-20 0 -41.5 -10.5t-35.5 -36.5t-14 -58q0 -19 9 -42t33 -39.5t55 -16.5zM443 326l-53 -56q38 -44 72 -73t73 -29q18 0 39.5 10t36.5 35t15 54q0 47 -26.5 75.5t-67.5 28.5q-17 0 -37.5 -8t-51.5 -37z" />
    <glyph glyph-name="integral" unicode="&#x222b;" horiz-adv-x="352" 
d="M331 761q0 -18 -11 -28t-27 -10t-26.5 18t-15.5 20.5t-8 2.5q-19 0 -31 -33.5t-12 -89.5l1 -44l16 -341l3 -80v-39q0 -58 -5 -107q-13 -124 -54 -175q-33 -41 -84 -41q-24 0 -39.5 12.5t-15.5 32.5q0 17 13.5 28t31.5 11q13 0 24.5 -21.5t21.5 -21.5q34 0 41 97l1 28
q0 57 -19 422q-2 39 -2 92q0 309 142 309q22 0 38.5 -12.5t16.5 -29.5z" />
    <glyph glyph-name="approxequal" unicode="&#x2248;" horiz-adv-x="524" 
d="M361 337q26 0 47 17t41 52l32 -29q-15 -29 -36 -50.5t-44 -30t-42 -8.5q-39 0 -92.5 30t-71.5 35t-30 5q-22 0 -44 -14t-48 -55l-33 28q21 41 56.5 65t74.5 24t90 -29.5t69.5 -34.5t30.5 -5zM361 177q26 0 47 17t41 52l32 -29q-15 -29 -36 -50.5t-44 -30t-42 -8.5
q-39 0 -92.5 30t-71.5 35t-30 5q-22 0 -44 -14t-48 -55l-33 28q21 41 56.5 65t74.5 24t90 -29.5t69.5 -34.5t30.5 -5z" />
    <glyph glyph-name="notequal" unicode="&#x2260;" horiz-adv-x="524" 
d="M285 382l49 107l39 -18l-40 -89h142v-50h-162l-62 -133h224v-50h-244l-49 -109l-40 18l42 91h-137v50h157l61 133h-218v50h238z" />
    <glyph glyph-name="lessequal" unicode="&#x2264;" horiz-adv-x="524" 
d="M52 355l421 208v-58l-368 -175v-2l368 -176v-59l-421 209v53zM47 56h429v-51h-429v51z" />
    <glyph glyph-name="greaterequal" unicode="&#x2265;" horiz-adv-x="524" 
d="M53 563l421 -209v-52l-421 -209v59l368 175v2l-368 176v58zM48 56h427v-51h-427v51z" />
    <glyph glyph-name="lozenge" unicode="&#x25ca;" horiz-adv-x="535" 
d="M47 316l192 385h57l192 -385l-192 -383h-58zM266 646l-163 -329l164 -330h2l162 329l-162 330h-3z" />
    <glyph glyph-name="uniE000" unicode="&#xe000;" horiz-adv-x="521" 
d="M213 511h82l137 -381q12 -35 28 -62.5t42 -40.5v-27h-193v27q52 7 52 47q0 18 -8 44l-28 82h-179q-3 -9 -15 -45.5t-16 -54t-4 -26.5q0 -20 15.5 -33.5t38.5 -13.5v-27h-145v27q20 7 32 27q12 18 37 84l132 351zM238 443l-79 -209h150z" />
    <glyph glyph-name="uniE001" unicode="&#xe001;" horiz-adv-x="521" 
d="M22 501h255q33 0 69.5 -6t57.5 -18q29 -17 43 -42.5t14 -50.5q0 -84 -118 -120q72 -16 108.5 -50.5t36.5 -84.5q0 -33 -15.5 -57t-41.5 -41t-56 -23q-40 -8 -78 -8h-274v27q44 1 60 16.5t16 55.5v302q0 41 -16 56.5t-61 16.5v27zM180 276h60q20 0 49.5 4.5t44.5 12.5
q21 12 32 35t11 46q0 17 -7.5 37t-21.5 33q-32 30 -101 30h-67v-198zM180 249v-152q0 -37 21.5 -53.5t73.5 -16.5q67 0 95 26.5t28 79.5q0 116 -148 116h-70z" />
    <glyph glyph-name="uniE002" unicode="&#xe002;" horiz-adv-x="521" 
d="M469 479v-131h-26q-11 44 -36.5 77t-58 46t-63.5 13q-77 0 -123.5 -60.5t-46.5 -155.5q0 -47 13 -92t37.5 -80t59 -55t74.5 -20q34 0 69.5 17.5t58 52.5t26.5 77h26v-133q-78 -46 -193 -46q-51 0 -99.5 15.5t-84.5 50t-56.5 83.5t-20.5 107q0 50 17.5 98t52 85.5t87.5 60
t119 22.5q78 0 168 -32z" />
    <glyph glyph-name="uniE003" unicode="&#xe003;" horiz-adv-x="237" 
d="M205 598q0 -22 -11 -48t-41.5 -50.5t-72.5 -38.5l-9 25q33 11 53.5 25t28 30t7.5 30q0 16 -6.5 26t-18.5 10l-23 -2q-19 0 -31 13t-12 29q0 21 14 34t37 13q17 0 36.5 -10t34 -34t14.5 -52z" />
    <glyph glyph-name="uniE004" unicode="&#xe004;" horiz-adv-x="188" 
d="M171 698v-21q-48 -3 -72 -21t-24 -44q0 -16 9.5 -24.5t24.5 -8.5q16 0 28.5 -8.5t12.5 -24.5q0 -14 -11.5 -25t-32.5 -11q-22 0 -40 15t-24.5 34.5t-6.5 34.5q0 43 37 73t99 31z" />
    <glyph glyph-name="uniE005" unicode="&#xe005;" horiz-adv-x="573" 
d="M15 501h251q40 0 77.5 -7t64.5 -20q17 -8 38.5 -25.5t35.5 -34.5q53 -63 53 -163q0 -117 -70 -181q-76 -70 -190 -70h-260v27q45 1 60.5 16t15.5 55v304q0 42 -17 57t-59 15v27zM172 474v-372q0 -43 18 -59t68 -16q51 0 88.5 19t59 50t30.5 67t9 67q0 54 -21.5 109
t-58.5 87q-26 22 -59 35t-92 13h-42z" />
    <glyph glyph-name="uniE006" unicode="&#xe006;" horiz-adv-x="344" 
d="M56 501h233v-27q-43 -1 -59.5 -17t-16.5 -61v-291q0 -42 15.5 -60t60.5 -18v-27h-233v27q44 1 60 16t16 61v301q0 39 -16.5 53.5t-59.5 15.5v27z" />
    <glyph glyph-name="uniE007" unicode="&#xe007;" horiz-adv-x="458" 
d="M8 501h403v-115h-27q-8 39 -32.5 63.5t-58.5 24.5h-128v-194h96q28 0 48 14.5t23 59.5h27v-174h-27q-4 36 -19 54.5t-43 18.5h-105v-168q0 -31 22.5 -44.5t66.5 -13.5q64 0 96 24q14 10 30 29t33 53h27l-37 -133h-395v27q46 0 61 16t15 61v294q0 45 -15.5 60t-60.5 16v27
z" />
    <glyph glyph-name="uniE008" unicode="&#xe008;" horiz-adv-x="458" 
d="M26 501h413v-111h-26q-22 49 -47 66q-24 18 -70 18h-113v-195h107q25 0 43.5 16.5t21.5 56.5h27v-172h-27q-7 72 -64 72h-108v-143q0 -47 14.5 -64.5t58.5 -17.5h5v-27h-235v27q46 1 61 17.5t15 59.5v292q0 45 -16 61.5t-60 16.5v27z" />
    <glyph glyph-name="uniE009" unicode="&#xe009;" horiz-adv-x="573" 
d="M498 473v-110h-27q-12 42 -37.5 71t-57 39.5t-59.5 10.5q-41 0 -71.5 -14t-54 -37t-42 -65.5t-18.5 -101.5q0 -68 25.5 -124t69 -88.5t103.5 -32.5q40 0 86 19v120q0 35 -19 52t-61 17h-4v27h228v-28q-36 0 -49.5 -19t-13.5 -58v-124q-43 -18 -82.5 -28t-90.5 -10
q-66 0 -119.5 20t-89.5 55.5t-54.5 82t-18.5 98.5q0 55 20 104t57.5 85t90 56.5t113.5 20.5q39 0 76 -7.5t100 -30.5z" />
    <glyph glyph-name="uniE00A" unicode="&#xe00a;" horiz-adv-x="635" 
d="M28 501h233v-27q-43 -1 -59.5 -15.5t-16.5 -54.5v-132h265v131q0 40 -15.5 55t-60.5 16v27h233v-27q-34 -1 -50.5 -9t-21 -26t-4.5 -40v-302q0 -31 12.5 -50t63.5 -20v-27h-233v27q44 0 60 16t16 56v139h-265v-143q0 -38 16.5 -53t59.5 -15v-27h-233v27q43 0 59.5 16
t16.5 55v301q0 44 -15.5 59t-60.5 16v27z" />
    <glyph glyph-name="uniE00B" unicode="&#xe00b;" horiz-adv-x="344" 
d="M56 501h233v-27q-43 -1 -59.5 -16.5t-16.5 -60.5v-292q0 -42 15.5 -60t60.5 -18v-27h-233v27q43 0 59.5 16t16.5 62v294q0 43 -15.5 59t-60.5 16v27z" />
    <glyph glyph-name="uniE00C" unicode="&#xe00c;" horiz-adv-x="344" 
d="M74 501h235v-27q-44 0 -60.5 -15.5t-16.5 -54.5v-404q0 -45 -9 -72q-8 -23 -26 -48t-47.5 -41t-58.5 -16t-53.5 18.5t-24.5 41.5q0 19 11.5 30t27.5 11q14 0 23.5 -9t16.5 -28t8 -21q5 -11 20 -11t23 21.5t8 54.5v472q0 40 -16.5 55.5t-60.5 15.5v27z" />
    <glyph glyph-name="uniE00D" unicode="&#xe00d;" horiz-adv-x="573" 
d="M21 501h234v-27q-44 -1 -60 -17.5t-16 -60.5v-294q0 -24 5 -43t27 -26q17 -6 44 -6v-27h-234v27q42 0 59 14q10 9 14 22.5t4 40.5v292q0 43 -16.5 60t-60.5 18v27zM320 501h203v-27q-15 -1 -33 -11t-44.5 -31.5t-28.5 -23.5l-151 -123q38 -39 105.5 -110t86.5 -89
q55 -52 100 -59v-27h-126q-39 30 -128 129q-54 60 -78 85.5t-39 36.5l135 111q26 22 39.5 39.5t13.5 33.5q0 17 -15.5 27t-39.5 12v27z" />
    <glyph glyph-name="uniE00E" unicode="&#xe00e;" horiz-adv-x="521" 
d="M37 501h233v-27q-47 0 -60 -13q-16 -16 -16 -64v-290q0 -36 9 -48q11 -16 37.5 -24t61.5 -8q56 0 81 10q18 7 38 25.5t50 70.5h26l-37 -133h-423v27q44 1 60 16.5t16 56.5v302q0 41 -15.5 56t-60.5 16v27z" />
    <glyph glyph-name="uniE00F" unicode="&#xe00f;" horiz-adv-x="750" 
d="M76 501h162q1 -20 7 -48t53 -134q7 -17 38 -85t43 -102q47 97 101 200q23 43 35 82t14 87h154v-27q-59 0 -59 -57l32 -287q5 -39 15 -62.5t27 -31.5t35 -9v-27h-219v27q30 4 46.5 21.5t16.5 44.5q0 4 -3 32.5t-15 140t-16 148.5q-15 -46 -86 -181q-78 -146 -94 -233h-28
q-7 38 -23 84.5t-37 90.5q-52 114 -109 258l-36 -286q-4 -24 -4 -51q0 -67 56 -69v-27h-165v27q21 3 36 13.5t24 32.5t13 46l41 249q5 35 5 43q0 56 -60 63v27z" />
    <glyph glyph-name="uniE010" unicode="&#xe010;" horiz-adv-x="635" 
d="M14 501h136l349 -392v249q0 40 -10.5 65.5t-30 38t-51.5 12.5v27h201v-27q-38 0 -57.5 -25t-19.5 -87l1 -237q1 -46 9 -136h-42l-363 413v-268q0 -107 89 -107v-27h-196v27q29 0 45 11t23 33.5t7 61.5v298q-25 28 -42 36.5t-48 6.5v27z" />
    <glyph glyph-name="uniE011" unicode="&#xe011;" horiz-adv-x="573" 
d="M541 257q0 -58 -20 -108t-55 -86t-82.5 -55t-100.5 -19q-58 0 -105 20.5t-79.5 57t-49.5 84.5t-17 101q0 37 15 81.5t40 76.5q38 46 91.5 73.5t116.5 27.5q38 0 79.5 -12.5t83 -47t62.5 -87.5t21 -107zM300 16q72 0 111.5 53t39.5 150q0 50 -9.5 99t-31.5 85.5t-56 58.5
t-78 22q-69 0 -111.5 -54.5t-42.5 -151.5q0 -58 13.5 -107.5t38 -84t57.5 -52.5t69 -18z" />
    <glyph glyph-name="uniE012" unicode="&#xe012;" horiz-adv-x="521" 
d="M36 501h267q82 0 130 -40.5t48 -99.5q0 -45 -26.5 -79.5t-64 -48t-66.5 -13.5q-30 0 -52.5 7t-22.5 19q0 6 6 10t15 4l40 -2q3 0 11 0.5t25.5 7.5t33 30.5t15.5 60.5q0 58 -32.5 87.5t-81.5 29.5h-88v-371q0 -45 15.5 -60t60.5 -16v-27h-233v27q45 1 60.5 17t15.5 59v312
q0 34 -21.5 46.5t-54.5 12.5v27z" />
    <glyph glyph-name="uniE013" unicode="&#xe013;" horiz-adv-x="573" 
d="M541 257q0 -98 -53 -168t-143 -93q2 -2 21 -17t36 -28t43 -29.5t55 -30.5t54 -22v-38h-5q-59 0 -133 35q-73 34 -118 76t-56 50q-24 2 -56 14.5t-57 31.5t-40 37q-57 69 -57 167q0 56 20.5 105.5t56.5 86.5t84.5 57t101.5 20q46 0 90.5 -16.5t79.5 -49t55.5 -81
t20.5 -107.5zM300 16q72 0 111.5 53t39.5 150q0 84 -21.5 142t-61 90.5t-92.5 32.5q-68 0 -111 -54t-43 -152q0 -59 14 -108.5t38.5 -83.5t57 -52t68.5 -18z" />
    <glyph glyph-name="uniE014" unicode="&#xe014;" horiz-adv-x="521" 
d="M21 501h270q77 0 121 -33.5t44 -89.5q0 -45 -34.5 -77.5t-100.5 -48.5l46 -62l52 -82q24 -37 44 -57t42 -24v-27h-107q-19 15 -76 116q-53 96 -73 111q-4 3 -11.5 7.5t-36.5 4.5h-23v-138q0 -33 10.5 -52.5t65.5 -21.5v-27h-233v27q45 1 60.5 16t15.5 60v294q0 44 -15 60
t-61 17v27zM178 474v-208h57q68 0 101.5 26t33.5 75q0 22 -8.5 44.5t-26.5 35.5t-41.5 20t-63.5 7h-52z" />
    <glyph glyph-name="uniE015" unicode="&#xe015;" horiz-adv-x="406" 
d="M355 466v-102h-27q-5 39 -23 68.5t-42.5 40.5t-45.5 11q-20 0 -40.5 -8t-32.5 -26.5t-12 -36.5q0 -10 3 -22t22 -31q18 -18 82 -66t90 -74q23 -23 34 -45.5t11 -55.5q0 -58 -49.5 -94t-127.5 -36q-33 0 -64.5 5t-90.5 28v130h27q5 -31 21 -63.5t45 -52.5t61 -20
q19 0 43 8.5t41.5 29t17.5 44.5q0 22 -11.5 43.5t-58.5 57.5q-6 4 -51.5 38.5t-73 60.5t-38.5 51t-11 47q0 44 46 79.5t114 35.5q21 0 50 -6.5t56.5 -19t34.5 -19.5z" />
    <glyph glyph-name="uniE016" unicode="&#xe016;" horiz-adv-x="521" 
d="M41 501h439l8 -122h-27q-10 28 -27.5 51.5t-38 33.5t-38.5 10h-56v-379q0 -38 18 -53t58 -15v-27h-233v27q44 1 60 17.5t16 59.5v370h-45q-45 0 -70 -24t-45 -71h-27z" />
    <glyph glyph-name="uniE017" unicode="&#xe017;" horiz-adv-x="573" 
d="M16 501h233v-27q-41 0 -58.5 -15.5t-17.5 -56.5v-239q0 -67 33 -101.5t98 -34.5q29 0 56.5 8.5t45.5 22.5q21 17 32 45t11 72v221q0 44 -16 61t-60 17v27h184v-27q-44 -1 -60 -17.5t-16 -60.5v-204q0 -40 -7.5 -76.5t-23.5 -57.5q-26 -35 -72.5 -52t-100.5 -17
q-86 0 -135.5 42.5t-49.5 117.5v247q0 43 -15.5 60.5t-60.5 17.5v27z" />
    <glyph glyph-name="uniE018" unicode="&#xe018;" horiz-adv-x="750" 
d="M-6 282h762v-64h-762v64z" />
    <glyph glyph-name="uniE019" unicode="&#xe019;" horiz-adv-x="521" 
d="M20 501h206v-27q-27 -2 -43 -13.5t-16 -31.5q0 -17 14.5 -52.5t55 -125t57.5 -127.5l83 199q25 59 25 93q0 28 -17 42t-43 16v27h159v-27q-16 -6 -30.5 -21t-32.5 -60l-109 -266q-39 -96 -42 -138h-37q0 14 -5 33t-14 43t-22 53.5t-16 35.5l-111 250q-13 28 -25.5 47
t-36.5 23v27z" />
    <glyph glyph-name="uniE01A" unicode="&#xe01a;" horiz-adv-x="802" 
d="M14 501h192v-27q-20 0 -32.5 -9.5t-12.5 -23.5q0 -9 2 -18.5t12 -34.5l115 -284l103 258q-23 54 -30 67.5t-14.5 22t-10.5 11.5q-12 11 -35 11v27h219v-27q-16 0 -31.5 -5.5t-24 -17.5t-8.5 -24q0 -14 9 -37l106 -286l94 245q11 28 14.5 41t3.5 30q0 18 -15 34t-38 20v27
h156v-27q-20 -3 -33 -13t-24 -29q-9 -15 -22 -50l-143 -363l-9 -30h-35q-17 63 -28 93l-86 241l-97 -241q-10 -24 -15 -40t-14 -53h-39q-13 46 -37 106l-121 301q-16 41 -32 60q-15 18 -36 18h-3v27z" />
    <glyph glyph-name="uniE01B" unicode="&#xe01b;" horiz-adv-x="521" 
d="M18 501h218v-27q-57 0 -57 -36q0 -29 43 -79l50 -60l53 60q39 44 39 76q0 17 -13 28t-35 11v27h174v-27h-4q-24 0 -44 -20l-154 -178l135 -178q23 -31 47 -51.5t34 -20.5v-26h-216v27q53 0 53 31q0 9 -8 25t-46.5 65t-50.5 65l-51 -62q-20 -24 -31 -42t-11 -37
q0 -21 15.5 -33t42.5 -12v-27h-183v27q21 4 38.5 16.5t42.5 43.5l120 148l-138 182q-17 23 -30.5 37.5t-32.5 19.5v27z" />
    <glyph glyph-name="uniE01C" unicode="&#xe01c;" horiz-adv-x="573" 
d="M16 501h235v-27q-28 0 -42.5 -10.5t-14.5 -28.5q0 -10 6 -21.5t12.5 -21.5t7.5 -11l94 -140l98 138q17 25 17 47q0 9 -5.5 20.5t-15.5 18.5q-9 6 -36 9v27h185v-27q-18 0 -38 -12t-53 -58l-139 -191v-110q0 -45 15.5 -60t60.5 -16v-27h-233v27q45 1 60.5 16t15.5 60v93
l-145 217q-18 27 -35 44t-46 17h-4v27z" />
    <glyph glyph-name="uniE01D" unicode="&#xe01d;" horiz-adv-x="458" 
d="M42 501h390v-15l-318 -459h130q58 0 93 22q33 21 77 95h27l-49 -144h-375v27l307 447h-134q-44 0 -67 -17q-20 -16 -54 -76h-27v120z" />
    <glyph glyph-name="uniF637" unicode="&#xf637;" horiz-adv-x="360" 
d="M107 737v-192q57 51 111 51q85 0 85 -105v-92q0 -38 8.5 -50.5t38.5 -12.5v-16h-147v16q25 0 37.5 8t12.5 56v87q0 34 -12.5 52t-44.5 18q-17 0 -42 -8t-47 -27v-122q0 -30 4 -43t17 -17t31 -4v-16h-149v16q31 1 39.5 13t8.5 51v280l-46 18v12z" />
    <glyph glyph-name="uniF655" unicode="&#xf655;" 
d="M303 170q0 -95 -49 -141q-16 -16 -40 -25.5t-48 -9.5q-62 0 -101 51q-36 47 -36 125q0 83 38.5 130t98.5 47q63 0 100 -49t37 -128zM166 16q38 0 56.5 35.5t18.5 118.5t-18.5 119t-57.5 36q-29 0 -45 -20t-22 -50q-7 -35 -7 -85q0 -63 10 -97q17 -57 65 -57z" />
    <glyph glyph-name="uniF656" unicode="&#xf656;" 
d="M169 347h28v-289q0 -17 5 -26t34 -9h17v-23h-169v23h17q16 0 26.5 3.5t10.5 24.5v195q0 10 -1.5 17t-6.5 10t-12 4t-21.5 1.5t-19.5 0.5v21q54 15 92 47z" />
    <glyph glyph-name="uniF657" unicode="&#xf657;" 
d="M285 257q0 -22 -13.5 -45t-43 -53t-133.5 -113v-2h129q20 0 29 8t20 37h32l-35 -89h-240v23l103 89q90 77 90 135q0 26 -22.5 43t-57.5 17q-22 0 -42 -8t-45 -29l-19 16q30 32 62.5 46.5t71.5 14.5q23 0 50 -9t45.5 -31.5t18.5 -49.5z" />
    <glyph glyph-name="uniF658" unicode="&#xf658;" 
d="M267 272q0 -42 -57 -68v-2q34 -5 56.5 -28.5t22.5 -54.5q0 -54 -47.5 -89.5t-118.5 -35.5q-36 0 -63.5 9.5t-27.5 21.5q0 8 9.5 15.5t18.5 7.5q7 0 27 -10t34 -14.5t28 -4.5q33 0 56 24.5t23 60.5q0 62 -85 62q-26 0 -71 -5l4 23q43 2 74.5 15t43 31.5t11.5 34.5
q0 19 -19 33.5t-47 14.5q-21 0 -43 -11t-34 -23l-18 17q26 27 53 39t64 12q45 0 75.5 -21.5t30.5 -53.5z" />
    <glyph glyph-name="uniF659" unicode="&#xf659;" 
d="M20 114l193 233h38v-227h58v-40h-58v-86h-58v86h-173v34zM193 120v161l-133 -161h133z" />
    <glyph glyph-name="uniF65A" unicode="&#xf65a;" 
d="M260 341l9 13l25 -13l-27 -40h-133l-26 -51q85 -14 129.5 -47.5t44.5 -83.5q0 -23 -12 -47t-34 -42q-45 -36 -120 -36q-35 0 -57.5 7t-22.5 18q0 4 11 14.5t21 10.5q2 0 33 -10t55 -10q28 0 48 14t27 31.5t7 30.5q0 42 -47 69t-138 39l70 133h137z" />
    <glyph glyph-name="uniF65B" unicode="&#xf65b;" 
d="M258 347l22 -17q-60 -11 -104.5 -42.5t-77.5 -96.5q12 10 37.5 16.5t51.5 6.5q22 0 49.5 -10t47.5 -36.5t20 -58.5q0 -34 -22.5 -63t-55 -40.5t-59.5 -11.5q-61 0 -99.5 38.5t-38.5 102.5q0 86 62.5 143.5t166.5 68.5zM91 155v-18q0 -38 12 -68t31 -41.5t38 -11.5
q31 0 50.5 22t19.5 64q0 34 -21 56t-56 22q-34 0 -74 -25z" />
    <glyph glyph-name="uniF65C" unicode="&#xf65c;" 
d="M58 341h250l-159 -347h-37l141 303h-132q-36 0 -44.5 -11t-15.5 -34h-31z" />
    <glyph glyph-name="uniF65D" unicode="&#xf65d;" 
d="M290 272q0 -15 -13.5 -31.5t-76.5 -57.5q44 -24 72.5 -47t28.5 -53q0 -38 -37 -63.5t-98 -25.5q-48 0 -81.5 13.5t-45 32.5t-11.5 36t14 34.5t81 56.5q-44 17 -68.5 41t-24.5 50q0 15 11 35.5t43 37t83 16.5q59 0 91 -21.5t32 -53.5zM174 198q25 11 44.5 31.5t19.5 39.5
q0 13 -9.5 27.5t-28.5 21.5t-40 7q-33 0 -55.5 -16t-22.5 -38q0 -6 1.5 -11t5 -9.5t8 -8t10.5 -7.5t12.5 -7.5t13.5 -7.5t13.5 -7.5t16 -8.5t11.5 -6zM167 16q19 0 36 6t29.5 20t12.5 32q0 11 -6 21t-27 23q-3 2 -65 34q-20 -11 -41.5 -33.5t-21.5 -42.5q0 -25 22 -42.5
t61 -17.5z" />
    <glyph glyph-name="uniF65E" unicode="&#xf65e;" 
d="M304 206q0 -31 -11 -65t-41 -68t-78 -54t-99 -25l-22 17q63 12 106.5 44t75.5 95q-14 -10 -38.5 -16.5t-50.5 -6.5q-23 0 -50.5 10.5t-47 37t-19.5 57.5q0 34 22.5 63t55 40.5t59.5 11.5q61 0 99.5 -38.5t38.5 -102.5zM167 161q35 0 75 25v15q0 56 -22 90t-59 34
q-29 0 -49.5 -21.5t-20.5 -64.5q0 -23 10.5 -42.5t29 -27.5t36.5 -8z" />
    <glyph glyph-name="uniF661" unicode="&#xf661;" 
d="M303 490q0 -95 -49 -141q-16 -16 -40 -25.5t-48 -9.5q-62 0 -101 51q-36 47 -36 125q0 83 38.5 130t98.5 47q63 0 100 -49t37 -128zM166 336q38 0 56.5 35.5t18.5 118.5t-18.5 119t-57.5 36q-29 0 -45 -20t-22 -50q-7 -35 -7 -85q0 -63 10 -97q17 -57 65 -57z" />
    <glyph glyph-name="uniF662" unicode="&#xf662;" 
d="M171 682h28v-289q0 -17 5 -26t34 -9h17v-23h-169v23h17q16 0 26.5 3.5t10.5 24.5v195q0 10 -1.5 17t-6.5 10t-12 4t-21.5 1.5t-19.5 0.5v21q54 15 92 47z" />
    <glyph glyph-name="uniF663" unicode="&#xf663;" 
d="M285 592q0 -22 -13.5 -45t-43 -53t-133.5 -113v-2h129q20 0 29 8t20 37h32l-35 -89h-240v23l103 89q90 77 90 135q0 26 -22.5 43t-57.5 17q-22 0 -42 -8t-45 -29l-19 16q30 32 62.5 46.5t71.5 14.5q23 0 50 -9t45.5 -31.5t18.5 -49.5z" />
    <glyph glyph-name="uniF664" unicode="&#xf664;" 
d="M267 607q0 -42 -57 -68v-2q34 -5 56.5 -28.5t22.5 -54.5q0 -54 -47.5 -89.5t-118.5 -35.5q-36 0 -63.5 9.5t-27.5 21.5q0 8 9.5 15.5t18.5 7.5q7 0 27 -10t34 -14.5t28 -4.5q33 0 56 24.5t23 60.5q0 62 -85 62q-26 0 -71 -5l4 23q43 2 74.5 15t43 31.5t11.5 34.5
q0 19 -19 33.5t-47 14.5q-21 0 -43 -11t-34 -23l-18 17q26 27 53 39t64 12q45 0 75.5 -21.5t30.5 -53.5z" />
    <glyph glyph-name="uniF665" unicode="&#xf665;" 
d="M20 434l193 233h38v-227h58v-40h-58v-86h-58v86h-173v34zM193 440v161l-133 -161h133z" />
    <glyph glyph-name="uniF666" unicode="&#xf666;" 
d="M260 661l9 13l25 -13l-27 -40h-133l-26 -51q85 -14 129.5 -47.5t44.5 -83.5q0 -23 -12 -47t-34 -42q-45 -36 -120 -36q-35 0 -57.5 7t-22.5 18q0 4 11 14.5t21 10.5q2 0 33 -10t55 -10q28 0 48 14t27 31.5t7 30.5q0 42 -47 69t-138 39l70 133h137z" />
    <glyph glyph-name="uniF667" unicode="&#xf667;" 
d="M258 667l22 -17q-60 -11 -104.5 -42.5t-77.5 -96.5q12 10 37.5 16.5t51.5 6.5q22 0 49.5 -10t47.5 -36.5t20 -58.5q0 -34 -22.5 -63t-55 -40.5t-59.5 -11.5q-61 0 -99.5 38.5t-38.5 102.5q0 86 62.5 143.5t166.5 68.5zM91 475v-18q0 -38 12 -68t31 -41.5t38 -11.5
q31 0 50.5 22t19.5 64q0 34 -21 56t-56 22q-34 0 -74 -25z" />
    <glyph glyph-name="uniF668" unicode="&#xf668;" 
d="M58 661h250l-159 -347h-37l141 303h-132q-36 0 -44.5 -11t-15.5 -34h-31z" />
    <glyph glyph-name="uniF669" unicode="&#xf669;" 
d="M292 592q0 -15 -13.5 -31.5t-76.5 -57.5q44 -24 72.5 -47t28.5 -53q0 -38 -37 -63.5t-98 -25.5q-48 0 -81.5 13.5t-45 32.5t-11.5 36t14 34.5t81 56.5q-44 17 -68.5 41t-24.5 50q0 15 11 35.5t43 37t83 16.5q59 0 91 -21.5t32 -53.5zM176 518q25 11 44.5 31.5t19.5 39.5
q0 13 -9.5 27.5t-28.5 21.5t-40 7q-33 0 -55.5 -16t-22.5 -38q0 -6 1.5 -11t5 -9.5t8 -8t10.5 -7.5t12.5 -7.5t13.5 -7.5t13.5 -7.5t16 -8.5t11.5 -6zM169 336q19 0 36 6t29.5 20t12.5 32q0 11 -6 21t-27 23q-3 2 -65 34q-20 -11 -41.5 -33.5t-21.5 -42.5q0 -25 22 -42.5
t61 -17.5z" />
    <glyph glyph-name="uniF66A" unicode="&#xf66a;" 
d="M304 526q0 -31 -11 -65t-41 -68t-78 -54t-99 -25l-22 17q63 12 106.5 44t75.5 95q-14 -10 -38.5 -16.5t-50.5 -6.5q-23 0 -50.5 10.5t-47 37t-19.5 57.5q0 34 22.5 63t55 40.5t59.5 11.5q61 0 99.5 -38.5t38.5 -102.5zM167 481q35 0 75 25v15q0 56 -22 90t-59 34
q-29 0 -49.5 -21.5t-20.5 -64.5q0 -23 10.5 -42.5t29 -27.5t36.5 -8z" />
    <glyph glyph-name="uniF66D" unicode="&#xf66d;" horiz-adv-x="521" 
d="M213 511h82l137 -381q12 -35 28 -62.5t42 -40.5v-27h-193v27q52 7 52 47q0 18 -8 44l-28 82h-179q-3 -9 -15 -45.5t-16 -54t-4 -26.5q0 -20 15.5 -33.5t38.5 -13.5v-27h-145v27q20 7 32 27q12 18 37 84l132 351zM238 443l-79 -209h150zM138 686h14q8 -33 36.5 -51.5
t72.5 -18.5t73 18.5t37 51.5h14q-1 -26 -13 -58.5t-42.5 -56t-68.5 -23.5q-22 0 -49.5 12t-49.5 44.5t-24 81.5z" />
    <glyph glyph-name="uniF66E" unicode="&#xf66e;" horiz-adv-x="521" 
d="M213 511h82l137 -381q12 -35 28 -62.5t42 -40.5v-27h-193v27q52 7 52 47q0 18 -8 44l-28 82h-179q-3 -9 -15 -45.5t-16 -54t-4 -26.5q0 -20 15.5 -33.5t38.5 -13.5v-27h-145v27q20 7 32 27q12 18 37 84l132 351zM238 443l-79 -209h150zM119 632h277v-59h-277v59z" />
    <glyph glyph-name="uniF66F" unicode="&#xf66f;" horiz-adv-x="521" 
d="M213 511h82l137 -381q12 -35 28 -62.5t42 -40.5v-27h-68q-18 -22 -27 -36.5t-9 -35.5q0 -25 16.5 -40.5t42.5 -15.5q32 0 66 15v-41q-31 -20 -64 -20q-22 0 -47.5 9t-43.5 32t-18 51q0 17 8 35.5t36 46.5h-85v27q52 7 52 47q0 20 -8 44l-28 82h-179q-3 -9 -15 -45.5
t-16 -54t-4 -26.5q0 -20 15.5 -33.5t38.5 -13.5v-27h-145v27q16 6 28.5 21.5t40.5 89.5l132 351zM238 443l-79 -209h150z" />
    <glyph glyph-name="uniF670" unicode="&#xf670;" horiz-adv-x="802" 
d="M190 501h449l46 -119h-27q-35 49 -82 80q-5 3 -17 7.5t-50 4.5h-142l69 -203h89q29 0 48 8t19 33q0 11 -5 36h26l61 -174h-26q-17 32 -45 51t-60 19h-99l62 -181q12 -36 60 -36q84 0 100 6q32 12 51.5 33.5t40.5 56.5h27l-41 -123h-393v27h8q13 0 25.5 6t19 18t6.5 24
q0 11 -5.5 31t-44.5 138h-157l-48 -109q-12 -28 -12 -50q0 -26 16.5 -42t43.5 -16v-27h-177v27q22 4 38.5 16.5t33 38.5t37.5 73l105 238q10 23 10 40q0 22 -13.5 31.5t-46.5 9.5v27zM292 448l-76 -177h135zM493 678q0 -2 -1.5 -6.5t-38.5 -46t-70 -79.5h-35q5 14 26.5 70.5
t25.5 62.5q6 8 15.5 11.5t53.5 3.5q12 0 18 -3.5t6 -12.5z" />
    <glyph glyph-name="uniF671" unicode="&#xf671;" horiz-adv-x="521" 
d="M469 479v-131h-26q-11 44 -36.5 77t-58 46t-63.5 13q-77 0 -123.5 -60.5t-46.5 -155.5q0 -47 13 -92t37.5 -80t59 -55t74.5 -20q34 0 69.5 17.5t58 52.5t26.5 77h26v-133q-78 -46 -193 -46q-51 0 -99.5 15.5t-84.5 50t-56.5 83.5t-20.5 107q0 50 17.5 98t52 85.5t87.5 60
t119 22.5q78 0 168 -32zM387 678q0 -2 -1.5 -6.5t-38.5 -46t-70 -79.5h-35q5 14 26.5 70.5t25.5 62.5q6 8 15.5 11.5t53.5 3.5q12 0 18 -3.5t6 -12.5z" />
    <glyph glyph-name="uniF672" unicode="&#xf672;" horiz-adv-x="521" 
d="M469 479v-131h-26q-11 44 -36.5 77t-58 46t-63.5 13q-77 0 -123.5 -60.5t-46.5 -155.5q0 -47 13 -92t37.5 -80t59 -55t74.5 -20q34 0 69.5 17.5t58 52.5t26.5 77h26v-133q-78 -46 -193 -46q-51 0 -99.5 15.5t-84.5 50t-56.5 83.5t-20.5 107q0 50 17.5 98t52 85.5t87.5 60
t119 22.5q78 0 168 -32zM210 696l95 -93l77 93h44l-85 -148h-91l-86 148h46z" />
    <glyph glyph-name="uniF673" unicode="&#xf673;" horiz-adv-x="521" 
d="M469 479v-131h-26q-11 44 -36.5 77t-58 46t-63.5 13q-77 0 -123.5 -60.5t-46.5 -155.5q0 -47 13 -92t37.5 -80t59 -55t74.5 -20q34 0 69.5 17.5t58 52.5t26.5 77h26v-133q-78 -46 -193 -46q-51 0 -99.5 15.5t-84.5 50t-56.5 83.5t-20.5 107q0 50 17.5 98t52 85.5t87.5 60
t119 22.5q78 0 168 -32zM261 696h91l86 -148h-46l-95 93l-77 -93h-44z" />
    <glyph glyph-name="uniF674" unicode="&#xf674;" horiz-adv-x="521" 
d="M469 479v-131h-26q-11 44 -36.5 77t-58 46t-63.5 13q-77 0 -123.5 -60.5t-46.5 -155.5q0 -47 13 -92t37.5 -80t59 -55t74.5 -20q34 0 69.5 17.5t58 52.5t26.5 77h26v-133q-78 -46 -193 -46q-51 0 -99.5 15.5t-84.5 50t-56.5 83.5t-20.5 107q0 50 17.5 98t52 85.5t87.5 60
t119 22.5q78 0 168 -32zM343 603q0 -20 -14.5 -34.5t-34.5 -14.5t-34.5 14.5t-14.5 34.5t14.5 34.5t34.5 14.5t34.5 -14.5t14.5 -34.5z" />
    <glyph glyph-name="uniF675" unicode="&#xf675;" horiz-adv-x="573" 
d="M15 501h251q40 0 77.5 -7t64.5 -20q17 -8 38.5 -25.5t35.5 -34.5q53 -63 53 -163q0 -117 -70 -181q-76 -70 -190 -70h-260v27q45 1 60.5 16t15.5 55v304q0 42 -17 57t-59 15v27zM172 474v-372q0 -43 18 -59t68 -16q51 0 88.5 19t59 50t30.5 67t9 67q0 54 -21.5 109
t-58.5 87q-26 22 -59 35t-92 13h-42zM170 696l95 -93l77 93h44l-85 -148h-91l-86 148h46z" />
    <glyph glyph-name="uniF676" unicode="&#xf676;" horiz-adv-x="573" 
d="M15 501h265q44 0 87 -12q24 -6 47.5 -18t51.5 -40q69 -69 69 -180q0 -65 -23 -115t-64 -81q-36 -27 -77.5 -41t-96.5 -14h-259v27q44 0 60 15.5t16 54.5v150h-77v27h77v130q0 40 -16.5 54.5t-59.5 15.5v27zM172 274h129v-27h-129v-158q0 -38 24.5 -50t61.5 -12t72.5 12.5
t60.5 39.5t39.5 66t14.5 85q0 37 -11.5 79t-30 71t-36.5 45q-25 22 -60 35.5t-89 13.5h-46v-200z" />
    <glyph glyph-name="uniF677" unicode="&#xf677;" horiz-adv-x="458" 
d="M8 501h403v-115h-27q-8 39 -32.5 63.5t-58.5 24.5h-128v-194h96q28 0 48 14.5t23 59.5h27v-174h-27q-4 36 -19 54.5t-43 18.5h-105v-168q0 -31 22.5 -44.5t66.5 -13.5q64 0 96 24q14 10 30 29t33 53h27l-37 -133h-395v27q46 0 61 16t15 61v294q0 45 -15.5 60t-60.5 16v27
zM101 686h14q8 -33 36.5 -51.5t72.5 -18.5t73 18.5t37 51.5h14q-1 -26 -13 -58.5t-42.5 -56t-68.5 -23.5q-22 0 -49.5 12t-49.5 44.5t-24 81.5z" />
    <glyph glyph-name="uniF678" unicode="&#xf678;" horiz-adv-x="458" 
d="M8 501h403v-115h-27q-8 39 -32.5 63.5t-58.5 24.5h-128v-194h96q28 0 48 14.5t23 59.5h27v-174h-27q-4 36 -19 54.5t-43 18.5h-105v-168q0 -31 22.5 -44.5t66.5 -13.5q64 0 96 24q14 10 30 29t33 53h27l-37 -133h-395v27q46 0 61 16t15 61v294q0 45 -15.5 60t-60.5 16v27
zM137 696l95 -93l77 93h44l-85 -148h-91l-86 148h46z" />
    <glyph glyph-name="uniF679" unicode="&#xf679;" horiz-adv-x="458" 
d="M8 501h403v-115h-27q-8 39 -32.5 63.5t-58.5 24.5h-128v-194h96q28 0 48 14.5t23 59.5h27v-174h-27q-4 36 -19 54.5t-43 18.5h-105v-168q0 -31 22.5 -44.5t66.5 -13.5q64 0 96 24q14 10 30 29t33 53h27l-37 -133h-395v27q46 0 61 16t15 61v294q0 45 -15.5 60t-60.5 16v27
zM282 603q0 -20 -14.5 -34.5t-34.5 -14.5t-34.5 14.5t-14.5 34.5t14.5 34.5t34.5 14.5t34.5 -14.5t14.5 -34.5z" />
    <glyph glyph-name="uniF67A" unicode="&#xf67a;" horiz-adv-x="458" 
d="M8 501h403v-115h-27q-8 39 -32.5 63.5t-58.5 24.5h-128v-194h96q28 0 48 14.5t23 59.5h27v-174h-27q-4 36 -19 54.5t-43 18.5h-105v-168q0 -31 22.5 -44.5t66.5 -13.5q64 0 96 24q14 10 30 29t33 53h27l-37 -133h-395v27q46 0 61 16t15 61v294q0 45 -15.5 60t-60.5 16v27
zM95 632h277v-59h-277v59z" />
    <glyph glyph-name="uniF67B" unicode="&#xf67b;" horiz-adv-x="635" 
d="M14 501h136l349 -392v247q0 40 -10 66t-29.5 39t-52.5 13v27h201v-27q-28 -1 -44.5 -12.5t-24.5 -35t-8 -63.5v-396q0 -72 -18 -108t-74 -36q-20 0 -40 9.5t-29 23.5t-9 27q0 16 10.5 28.5t28.5 12.5q21 0 37 -33q0 -1 4.5 -11t8.5 -15.5t8.5 -7.5t9.5 -2q8 0 15 7.5
t10 19.5q6 21 6 82v25l-363 413v-268q0 -107 89 -107v-27h-196v27q39 0 57 22t18 80v302q-15 18 -31.5 30.5t-42.5 12.5h-16v27z" />
    <glyph glyph-name="uniF67C" unicode="&#xf67c;" horiz-adv-x="458" 
d="M8 501h403v-115h-27q-8 40 -33 64t-59 24h-127v-194h96q33 0 50.5 17t20.5 57h27v-174h-27q-8 73 -62 73h-105v-168q0 -32 22.5 -45t66.5 -13q30 0 57.5 6.5t52.5 29.5q24 21 49 70h27l-37 -133h-32q-18 -22 -27 -36.5t-9 -35.5q0 -25 16.5 -40.5t42.5 -15.5q32 0 66 15
v-41q-32 -20 -64 -20q-22 0 -47.5 9t-43.5 32t-18 51q0 17 8 35.5t36 46.5h-323v27q46 1 61 16.5t15 62.5v292q0 44 -15.5 59.5t-60.5 16.5v27z" />
    <glyph glyph-name="uniF67D" unicode="&#xf67d;" horiz-adv-x="573" 
d="M498 473v-110h-27q-12 42 -37.5 71t-57 39.5t-59.5 10.5q-41 0 -71.5 -14t-54 -37t-42 -65.5t-18.5 -101.5q0 -68 25.5 -124t69 -88.5t103.5 -32.5q40 0 86 19v120q0 35 -19 52t-61 17h-4v27h228v-28q-36 0 -49.5 -19t-13.5 -58v-124q-43 -18 -82.5 -28t-90.5 -10
q-66 0 -119.5 20t-89.5 55.5t-54.5 82t-18.5 98.5q0 55 20 104t57.5 85t90 56.5t113.5 20.5q39 0 76 -7.5t100 -30.5zM194 686h14q8 -33 36.5 -51.5t72.5 -18.5t73 18.5t37 51.5h14q-1 -26 -13 -58.5t-42.5 -56t-68.5 -23.5q-22 0 -49.5 12t-49.5 44.5t-24 81.5z" />
    <glyph glyph-name="uniF67E" unicode="&#xf67e;" horiz-adv-x="573" 
d="M498 473v-110h-27q-12 42 -37.5 71t-57 39.5t-59.5 10.5q-41 0 -71.5 -14t-54 -37t-42 -65.5t-18.5 -101.5q0 -68 25.5 -124t69 -88.5t103.5 -32.5q40 0 86 19v120q0 35 -19 52t-61 17h-4v27h228v-28q-36 0 -49.5 -19t-13.5 -58v-124q-43 -18 -82.5 -28t-90.5 -10
q-66 0 -119.5 20t-89.5 55.5t-54.5 82t-18.5 98.5q0 55 20 104t57.5 85t90 56.5t113.5 20.5q39 0 76 -7.5t100 -30.5zM283 696h91l86 -148h-46l-95 93l-77 -93h-44z" />
    <glyph glyph-name="uniF67F" unicode="&#xf67f;" horiz-adv-x="573" 
d="M498 473v-110h-27q-12 42 -37.5 71t-57 39.5t-59.5 10.5q-41 0 -71.5 -14t-54 -37t-42 -65.5t-18.5 -101.5q0 -68 25.5 -124t69 -88.5t103.5 -32.5q40 0 86 19v120q0 35 -19 52t-61 17h-4v27h228v-28q-36 0 -49.5 -19t-13.5 -58v-124q-43 -18 -82.5 -28t-90.5 -10
q-66 0 -119.5 20t-89.5 55.5t-54.5 82t-18.5 98.5q0 55 20 104t57.5 85t90 56.5t113.5 20.5q39 0 76 -7.5t100 -30.5zM392 -97q0 -41 -36.5 -72t-99.5 -32v21q44 2 70 20t26 45q0 12 -7.5 22.5t-24.5 10.5t-30 8t-13 25q0 14 11.5 25t32.5 11q15 0 31.5 -9t28 -30.5
t11.5 -44.5z" />
    <glyph glyph-name="uniF680" unicode="&#xf680;" horiz-adv-x="573" 
d="M498 473v-110h-27q-12 42 -37.5 71t-57 39.5t-59.5 10.5q-41 0 -71.5 -14t-54 -37t-42 -65.5t-18.5 -101.5q0 -68 25.5 -124t69 -88.5t103.5 -32.5q40 0 86 19v120q0 35 -19 52t-61 17h-4v27h228v-28q-36 0 -49.5 -19t-13.5 -58v-124q-43 -18 -82.5 -28t-90.5 -10
q-66 0 -119.5 20t-89.5 55.5t-54.5 82t-18.5 98.5q0 55 20 104t57.5 85t90 56.5t113.5 20.5q39 0 76 -7.5t100 -30.5zM370 603q0 -20 -14.5 -34.5t-34.5 -14.5t-34.5 14.5t-14.5 34.5t14.5 34.5t34.5 14.5t34.5 -14.5t14.5 -34.5z" />
    <glyph glyph-name="uniF681" unicode="&#xf681;" horiz-adv-x="635" 
d="M28 501h233v-27q-46 -1 -61 -17t-15 -58v-25h265v18q0 34 -5.5 50t-21.5 24t-49 8v27h233v-27q-45 -1 -60.5 -16.5t-15.5 -57.5v-26h61v-29h-61v-249q0 -30 13 -49t63 -20v-27h-233v27q44 1 60 16.5t16 56.5v138h-265v-139q0 -41 15.5 -56t60.5 -16v-27h-233v27
q44 1 60 16.5t16 58.5v243h-64v29h64v23q0 52 -20 64.5t-56 12.5v27zM185 272h265v73h-265v-73z" />
    <glyph glyph-name="uniF682" unicode="&#xf682;" horiz-adv-x="635" 
d="M28 501h233v-27q-43 -1 -59.5 -15.5t-16.5 -54.5v-132h265v131q0 40 -15.5 55t-60.5 16v27h233v-27q-34 -1 -50.5 -9t-21 -26t-4.5 -40v-302q0 -31 12.5 -50t63.5 -20v-27h-233v27q44 0 60 16t16 56v139h-265v-143q0 -38 16.5 -53t59.5 -15v-27h-233v27q43 0 59.5 16
t16.5 55v301q0 44 -15.5 59t-60.5 16v27zM282 696h91l86 -148h-46l-95 93l-77 -93h-44z" />
    <glyph glyph-name="uniF683" unicode="&#xf683;" horiz-adv-x="344" 
d="M56 501h233v-27q-43 -1 -59.5 -16.5t-16.5 -60.5v-292q0 -42 15.5 -60t60.5 -18v-27h-233v27q43 0 59.5 16t16.5 62v294q0 43 -15.5 59t-60.5 16v27zM53 686h14q7 -32 35.5 -51t73.5 -19q44 0 73 19t36 51h15q-4 -51 -26 -83t-49 -43.5t-49 -11.5q-35 0 -64 20.5
t-43 52.5t-16 65z" />
    <glyph glyph-name="uniF684" unicode="&#xf684;" horiz-adv-x="688" 
d="M56 501h233v-27q-43 -1 -59.5 -16.5t-16.5 -60.5v-292q0 -42 15.5 -60t60.5 -18v-27h-233v27q43 0 59.5 16t16.5 62v294q0 43 -15.5 59t-60.5 16v27zM417 501h235v-27q-44 0 -60.5 -15.5t-16.5 -54.5v-404q0 -45 -9 -72q-8 -23 -26 -48t-47.5 -41t-58.5 -16t-53.5 18.5
t-24.5 41.5q0 19 11.5 30t27.5 11q14 0 23.5 -9t16.5 -28t8 -21q5 -11 20 -11t23 21.5t8 54.5v472q0 40 -16.5 55.5t-60.5 15.5v27z" />
    <glyph glyph-name="uniF685" unicode="&#xf685;" horiz-adv-x="344" 
d="M56 501h233v-27q-43 -1 -59.5 -16.5t-16.5 -60.5v-292q0 -42 15.5 -60t60.5 -18v-27h-233v27q43 0 59.5 16t16.5 62v294q0 43 -15.5 59t-60.5 16v27zM33 632h277v-59h-277v59z" />
    <glyph glyph-name="uniF686" unicode="&#xf686;" horiz-adv-x="344" 
d="M56 501h233v-27q-44 -1 -60 -18t-16 -62v-289q0 -42 15.5 -60t60.5 -18v-27h-96q-18 -22 -27 -36.5t-9 -35.5q0 -25 16.5 -40.5t42.5 -15.5q32 0 66 15v-41q-31 -20 -64 -20q-22 0 -47.5 9t-43.5 32t-18 51q0 17 8 35.5t36 46.5h-97v27q43 0 59.5 16t16.5 62v294
q0 43 -15 58.5t-61 16.5v27z" />
    <glyph glyph-name="uniF687" unicode="&#xf687;" horiz-adv-x="344" 
d="M56 501h233v-27q-43 -1 -59.5 -16.5t-16.5 -60.5v-292q0 -42 15.5 -60t60.5 -18v-27h-233v27q43 0 59.5 16t16.5 62v294q0 43 -15.5 59t-60.5 16v27zM306 666l27 -15q-8 -48 -36 -79t-57 -31q-24 0 -73.5 26t-64.5 26q-14 0 -26.5 -9t-29.5 -42l-28 12q7 47 32.5 79
t60.5 32q16 0 33 -6.5t54.5 -25.5t52.5 -19q33 0 55 52z" />
    <glyph glyph-name="uniF688" unicode="&#xf688;" horiz-adv-x="344" 
d="M74 501h235v-27q-44 0 -60.5 -15.5t-16.5 -54.5v-404q0 -45 -9 -72q-8 -23 -26 -48t-47.5 -41t-58.5 -16t-53.5 18.5t-24.5 41.5q0 19 11.5 30t27.5 11q14 0 23.5 -9t16.5 -28t8 -21q5 -11 20 -11t23 21.5t8 54.5v472q0 40 -16.5 55.5t-60.5 15.5v27zM147 696h91l86 -148
h-46l-95 93l-77 -93h-44z" />
    </font>
</defs>
</svg>
