<?xml version="1.0" encoding="UTF-8"?>
<svg width="114px" height="24px" viewBox="0 0 114 24" version="1.1" xmlns="http://www.w3.org/2000/svg" xmlns:xlink="http://www.w3.org/1999/xlink">
    <!-- Generator: sketchtool 50.2 (55047) - http://www.bohemiancoding.com/sketch -->
    <title>F62CB46D-CA8E-4628-98BA-922640D810CB</title>
    <desc>Created with sketchtool.</desc>
    <defs>
        <polygon id="path-1" points="0 0 113.97688 0 113.97688 23.92192 0 23.92192"></polygon>
    </defs>
    <g id="Design" stroke="none" stroke-width="1" fill="none" fill-rule="evenodd">
        <g id="D_01_SplashPage" transform="translate(-663.000000, -70.000000)">
            <g id="Page-1" transform="translate(663.000000, 70.000000)">
                <mask id="mask-2" fill="white">
                    <use xlink:href="#path-1"></use>
                </mask>
                <g id="Clip-2"></g>
                <path d="M15.5816692,23.5850667 L17.7690841,23.5850667 L8.21151589,8.76010667 L17.3316224,0 L16.4229252,0 L1.81728785,14.0162133 L1.81728785,0 L0,0 L0,23.5850667 L1.81728785,23.5850667 L1.81728785,14.8922667 L6.8990243,10.0405333 L15.5816692,23.5850667 Z M26.0341907,23.92192 C30.4764617,23.92192 33.9428075,20.6200533 33.9428075,15.0270933 C33.9428075,9.56874667 30.4091271,6.33418667 26.0341907,6.33418667 C21.6592542,6.33418667 18.1255738,9.56874667 18.1255738,15.0270933 C18.1255738,20.6200533 21.5919196,23.92192 26.0341907,23.92192 Z M26.0341907,23.41664 C21.9958206,23.41664 20.0775308,20.1483733 20.0775308,15.0270933 C20.0775308,10.00672 22.0294879,6.83968 26.0341907,6.83968 C30.039,6.83968 31.990957,10.00672 31.990957,15.0270933 C31.990957,20.1483733 30.0726673,23.41664 26.0341907,23.41664 Z M39.0508598,14.8248533 C39.0508598,9.09706667 41.5749477,6.83968 44.7047271,6.83968 C47.4307121,6.83968 49.1806654,8.49056 49.1806654,12.63488 L49.1806654,23.5850667 L50.8632841,23.5850667 L50.8632841,13.10656 C50.8632841,7.95157333 48.1037383,6.33418667 44.7047271,6.33418667 C41.675843,6.33418667 39.7239925,8.32213333 39.0508598,11.1186133 L39.0508598,6.73845333 L37.3682411,6.73845333 L37.3682411,23.5850667 L39.0508598,23.5850667 L39.0508598,14.8248533 Z M76.3661495,23.5850667 L78.1833308,23.5850667 L78.1833308,0 L76.1641458,0 L67.1112673,17.2170667 L57.6547009,0 L55.5008467,0 L55.5008467,23.5850667 L56.1065383,23.5850667 L56.1065383,0.943253333 L66.4045738,19.47456 L66.539243,19.47456 L76.3661495,1.01066667 L76.3661495,23.5850667 Z M88.0403888,23.3828267 C85.6174093,23.3828267 84.0019121,21.9677867 84.0019121,19.27232 C84.0019121,15.8693333 86.9297944,14.72384 93.4250243,14.4541867 L93.4250243,16.03776 C93.4250243,20.4516267 91.2375028,23.3828267 88.0403888,23.3828267 Z M93.4923589,23.5850667 L95.2086449,23.5850667 C95.0739757,20.65376 95.0739757,19.8450133 95.0739757,19.37344 L95.1077495,12.6010667 C95.1413103,8.18730667 92.7855589,6.33418667 88.9154187,6.33418667 C85.5836355,6.33418667 83.0259869,8.25472 82.6558598,11.2197333 L84.7862748,11.34016 C85.0554,8.71210667 85.9875364,6.83968 88.9154187,6.83968 C91.9778636,6.83968 93.4250243,8.38944 93.4250243,12.1294933 L93.4250243,13.9152 L90.261471,14.18464 C85.2471757,14.62272 82.0500617,15.9029333 82.0500617,19.27232 C82.0500617,22.8100267 85.2807364,23.92192 87.8384916,23.92192 C91.0019383,23.92192 92.8192262,21.69824 93.4250243,19.37344 L93.4923589,23.5850667 Z M101.131744,14.04992 C101.131744,9.66986667 104.17075,8.10570667 108.232559,8.18730667 C108.703475,8.19669333 108.939359,8.22101333 109.242258,8.25472 L109.242258,6.46901333 C108.838357,6.43530667 108.703794,6.43530667 108.468123,6.43530667 C107.391303,6.43530667 103.901518,6.75797333 102.242338,9.2992 C101.703768,9.97312 101.333535,10.9501867 101.131744,11.624 L101.131744,6.73845333 L99.4490187,6.73845333 L99.4490187,23.5850667 L101.131744,23.5850667 L101.131744,14.04992 Z M112.159593,1.92042667 L113.976987,1.92042667 L113.976987,2.84217094e-14 L112.159593,2.84217094e-14 L112.159593,1.92042667 Z M112.226821,23.5850667 L113.909546,23.5850667 L113.909546,6.73845333 L112.226821,6.73845333 L112.226821,23.5850667 Z" id="Fill-1" fill="#0A121C" mask="url(#mask-2)"></path>
            </g>
        </g>
    </g>
</svg>