<?xml version="1.0" encoding="UTF-8"?>
<svg width="88px" height="208px" viewBox="0 0 88 208" version="1.1" xmlns="http://www.w3.org/2000/svg" xmlns:xlink="http://www.w3.org/1999/xlink">
    <!-- Generator: sketchtool 50.2 (55047) - http://www.bohemiancoding.com/sketch -->
    <title>0E7F8412-446C-4D49-9D8F-CDC2723F26E7</title>
    <desc>Created with sketchtool.</desc>
    <defs></defs>
    <g id="Design" stroke="none" stroke-width="1" fill="none" fill-rule="evenodd">
        <g id="D_01_SplashPage" transform="translate(-1232.000000, -394.000000)">
            <g id="KonMari-Logo-Mark" transform="translate(1232.000000, 394.000000)">
                <polygon id="Fill-1" fill="#0A121C" points="19.770027 168.534449 18.4903514 166.778094 68.186027 130.460812 69.4657027 132.217168"></polygon>
                <polygon id="Fill-2" fill="#0A121C" points="0.889759459 64.5423197 2.18146216 66.2866286 36.4031649 40.8375475 85.4565973 77.3138409 86.7483 75.569532 38.2240568 39.485949 51.5764622 29.5573622 50.2799486 27.8130533"></polygon>
                <polygon id="Fill-3" fill="#0A121C" points="0 207.722131 87.6385405 207.722131 87.6385405 205.548973 0 205.548973"></polygon>
                <polygon id="Fill-4" fill="#0A121C" points="0.158756757 105.12834 87.7997027 105.12834 87.7997027 102.955181 0.158756757 102.955181"></polygon>
                <polygon id="Fill-5" fill="#0A121C" points="0 2.1731583 87.6385405 2.1731583 87.6385405 0 0 0"></polygon>
                <path d="M62.1195946,169.809915 C59.1922162,169.809915 56.8180811,172.187861 56.8180811,175.122347 C56.8180811,178.054425 59.1922162,180.43478 62.1195946,180.43478 C65.0493784,180.43478 67.4235135,178.054425 67.4235135,175.122347 C67.4235135,172.187861 65.0493784,169.809915 62.1195946,169.809915 Z" id="Fill-6" fill="#DBAA66"></path>
            </g>
        </g>
    </g>
</svg>